0
SECTION
2
HEADER
9
$INSUNITS
70
4
9
$ACADVER
1
AC1014
9
$HANDSEED
5
FFFF
0
ENDSEC
0
SECTION
2
TABLES
0
TABLE
2
VPORT
5
8
100
AcDbSymbolTable
0
ENDTAB
0
TABLE
2
LTYPE
5
5
100
AcDbSymbolTable
0
LTYPE
5
14
100
AcDbSymbolTableRecord
100
AcDbLinetypeTableRecord
2
BYBLOCK
70
0
0
LTYPE
5
15
100
AcDbSymbolTableRecord
100
AcDbLinetypeTableRecord
2
BYLAYER
70
0
0
LTYPE
5
16
100
AcDbSymbolTableRecord
100
AcDbLinetypeTableRecord
2
DASHED
70
0
3
Dashed __ __ __ __ __ __ __ __ __ __ __ __ __ _
72
65
73
2
40
0.75
49
0.5
74
0
49
-0.25
74
0
0
ENDTAB
0
TABLE
2
LAYER
5
2
100
AcDbSymbolTable
70
3
0
LAYER
5
50
100
AcDbSymbolTableRecord
100
AcDbLayerTableRecord
2
1
70
0
62
7
6
DASHED
0
LAYER
5
51
100
AcDbSymbolTableRecord
100
AcDbLayerTableRecord
2
0
70
0
62
7
6
CONTINUOUS
0
ENDTAB
0
TABLE
2
STYLE
5
3
100
AcDbSymbolTable
70
1
0
STYLE
5
11
100
AcDbSymbolTableRecord
100
AcDbTextStyleTableRecord
2
STANDARD
70
0
0
ENDTAB
0
TABLE
2
VIEW
5
6
100
AcDbSymbolTable
70
0
0
ENDTAB
0
TABLE
2
UCS
5
7
100
AcDbSymbolTable
70
0
0
ENDTAB
0
TABLE
2
APPID
5
9
100
AcDbSymbolTable
70
2
0
APPID
5
12
100
AcDbSymbolTableRecord
100
AcDbRegAppTableRecord
2
ACAD
70
0
0
ENDTAB
0
TABLE
2
DIMSTYLE
5
A
100
AcDbSymbolTable
70
1
0
ENDTAB
0
TABLE
2
BLOCK_RECORD
5
1
100
AcDbSymbolTable
70
1
0
BLOCK_RECORD
5
1F
100
AcDbSymbolTableRecord
100
AcDbBlockTableRecord
2
*MODEL_SPACE
0
BLOCK_RECORD
5
1B
100
AcDbSymbolTableRecord
100
AcDbBlockTableRecord
2
*PAPER_SPACE
0
ENDTAB
0
ENDSEC
0
SECTION
2
BLOCKS
0
BLOCK
5
20
100
AcDbEntity
100
AcDbBlockBegin
2
*MODEL_SPACE
0
ENDBLK
5
21
100
AcDbEntity
100
AcDbBlockEnd
0
BLOCK
5
1C
100
AcDbEntity
100
AcDbBlockBegin
2
*PAPER_SPACE
0
ENDBLK
5
1D
100
AcDbEntity
100
AcDbBlockEnd
0
ENDSEC
0
SECTION
2
ENTITIES
0
ARC
5
100
100
AcDbEntity
8
0
100
AcDbCircle
10
347.5375000000023
20
-59.023286437627
30
-2.0861686372892312e-58
40
0.99999999999972788
210
3.5032461608108829e-46
220
7.1525781849916497e-59
230
1
100
AcDbArc
50
-45.000000000026461
51
0
0
LINE
5
101
100
AcDbEntity
8
0
100
AcDbLine
10
348.53750000000207
20
-59.023286437626801
30
-3.5032461608120151e-46
11
348.53750000000002
21
-1.7970779386420865
31
0
0
ARC
5
102
100
AcDbEntity
8
0
100
AcDbCircle
10
346.63749999999999
20
-1.79707793864217
30
0
40
1.9000000000000483
210
0
220
-0
230
1
100
AcDbArc
50
0
51
90
0
LINE
5
103
100
AcDbEntity
8
0
100
AcDbLine
10
346.63749999999999
20
0.10292206135788018
30
0
11
341.24900583020906
21
0.10292206135790601
31
0
0
ARC
5
104
100
AcDbEntity
8
0
100
AcDbCircle
10
341.24900583020906
20
4.2029220613579001
30
0
40
4.0999999999999908
210
0
220
0
230
1
100
AcDbArc
50
230.24257026108555
51
270
0
LINE
5
105
100
AcDbEntity
8
0
100
AcDbLine
10
338.62689718093998
20
1.0510105411168453
30
0
11
333.68690565796805
21
5.1606419240146808
31
0
0
ARC
5
106
100
AcDbEntity
8
0
100
AcDbCircle
10
332.47178213757502
20
3.7000000000007298
30
0
40
1.8999999999998787
210
2.9982352808339726e-47
220
-2.4942637545290538e-47
230
1
100
AcDbArc
50
50.242570261080651
51
90
0
LINE
5
107
100
AcDbEntity
8
0
100
AcDbLine
10
332.47178213757502
20
5.6000000000005601
30
-4.5009504311772258e-33
11
314.16197706035507
21
5.6000000001077099
31
0
0
ARC
5
108
100
AcDbEntity
8
0
100
AcDbCircle
10
314.16197706035598
20
5.1000000001077002
30
0
40
0.50000000000000933
210
0
220
0
230
1
100
AcDbArc
50
90.000000000104222
51
180
0
LINE
5
109
100
AcDbEntity
8
0
100
AcDbLine
10
313.66197706035598
20
5.1000000001077197
30
0
11
313.66197706035598
21
2.85100000000355
31
0
0
ARC
5
110
100
AcDbEntity
8
0
100
AcDbCircle
10
313.16197706035604
20
2.8510000000035212
30
4.622231866529366e-32
40
0.49999999999997824
210
0
220
0
230
1
100
AcDbArc
50
-90.000000000006523
51
0
0
LINE
5
111
100
AcDbEntity
8
0
100
AcDbLine
10
313.16197706035598
20
2.3510000000035429
30
4.622231866529366e-32
11
304.16197706035598
21
2.3510000000035398
31
0
0
ARC
5
112
100
AcDbEntity
8
0
100
AcDbCircle
10
304.16197706035598
20
2.8510000000035474
30
4.622231866529366e-32
40
0.49999999999993605
210
0
220
0
230
1
100
AcDbArc
50
180
51
270
0
LINE
5
113
100
AcDbEntity
8
0
100
AcDbLine
10
303.66197706035604
20
2.85100000000355
30
4.622231866529366e-32
11
303.66197706035598
21
5.1000000001032797
31
7.7037197775489434e-33
0
ARC
5
114
100
AcDbEntity
8
0
100
AcDbCircle
10
303.16197706035598
20
5.1000000001032211
30
9.2444637330587321e-32
40
0.50000000000000711
210
1.6948183510607435e-31
220
1.9945239372591436e-44
230
1
100
AcDbArc
50
0
51
90.000000000110731
0
LINE
5
115
100
AcDbEntity
8
0
100
AcDbLine
10
303.16197706035501
20
5.6000000001032637
30
9.2444637330587321e-32
11
264.22964372702199
21
5.6000000000875296
31
0
0
ARC
5
116
100
AcDbEntity
8
0
100
AcDbCircle
10
264.22964372702199
20
5.1000000000875199
30
3.0814879110195774e-32
40
0.50000000000000933
210
0
220
6.1629758220390398e-32
230
1
100
AcDbArc
50
90
51
180
0
LINE
5
117
100
AcDbEntity
8
0
100
AcDbLine
10
263.72964372702199
20
5.1000000000875403
30
3.0814879110195774e-32
11
263.72964372702199
21
2.85100000000355
31
-1.5407439555097887e-32
0
ARC
5
118
100
AcDbEntity
8
0
100
AcDbCircle
10
263.22964372702199
20
2.8510000000035389
30
4.622231866529366e-32
40
0.499999999999996
210
0
220
0
230
1
100
AcDbArc
50
-90
51
0
0
LINE
5
119
100
AcDbEntity
8
0
100
AcDbLine
10
263.22964372702199
20
2.3510000000035429
30
4.622231866529366e-32
11
254.22964372702199
21
2.3510000000035398
31
0
0
ARC
5
120
100
AcDbEntity
8
0
100
AcDbCircle
10
254.22964372702197
20
2.8510000000035474
30
4.622231866529366e-32
40
0.49999999999993605
210
0
220
0
230
1
100
AcDbArc
50
180
51
270.00000000000324
0
LINE
5
121
100
AcDbEntity
8
0
100
AcDbLine
10
253.72964372702202
20
2.85100000000355
30
4.622231866529366e-32
11
253.72964372702199
21
5.1000000000831003
31
7.7037197775489434e-33
0
ARC
5
122
100
AcDbEntity
8
0
100
AcDbCircle
10
253.22964372702202
20
5.1000000000830408
30
1.2325951644078309e-31
40
0.49999999999997158
210
2.3111159332648144e-31
220
2.7711224514239036e-44
230
1
100
AcDbArc
50
0
51
90
0
LINE
5
123
100
AcDbEntity
8
0
100
AcDbLine
10
253.22964372702202
20
5.6000000000830834
30
1.2325951644078309e-31
11
214.29731039368903
21
5.6000000000673813
31
0
0
ARC
5
124
100
AcDbEntity
8
0
100
AcDbCircle
10
214.29731039368903
20
5.1000000000673804
30
-9.2444637330587321e-32
40
0.50000000000000044
210
0
220
-1.8488927466117447e-31
230
1
100
AcDbArc
50
90
51
180
0
LINE
5
125
100
AcDbEntity
8
0
100
AcDbLine
10
213.79731039368903
20
5.1000000000673911
30
-9.2444637330587321e-32
11
213.79731039368903
21
2.85100000000355
31
1.5407439555097887e-32
0
ARC
5
126
100
AcDbEntity
8
0
100
AcDbCircle
10
213.29731039368903
20
2.8510000000035389
30
4.622231866529366e-32
40
0.499999999999996
210
0
220
0
230
1
100
AcDbArc
50
-90
51
0
0
LINE
5
127
100
AcDbEntity
8
0
100
AcDbLine
10
213.29731039368903
20
2.3510000000035429
30
4.622231866529366e-32
11
204.29731039368903
21
2.3510000000035398
31
0
0
ARC
5
128
100
AcDbEntity
8
0
100
AcDbCircle
10
204.29731039368903
20
2.8510000000035474
30
4.622231866529366e-32
40
0.49999999999997158
210
0
220
0
230
1
100
AcDbArc
50
180
51
270
0
LINE
5
129
100
AcDbEntity
8
0
100
AcDbLine
10
203.79731039368906
20
2.85100000000355
30
4.622231866529366e-32
11
203.79731039368903
21
5.1000000000629511
31
7.7037197775489434e-33
0
ARC
5
130
100
AcDbEntity
8
0
100
AcDbCircle
10
203.29731039368903
20
5.1000000000629004
30
0
40
0.50000000000000711
210
-1.5407439555097668e-32
220
-1.5395124730130611e-45
230
1
100
AcDbArc
50
0
51
90
0
LINE
5
131
100
AcDbEntity
8
0
100
AcDbLine
10
203.29731039368903
20
5.6000000000629431
30
0
11
144.36497706035601
21
5.6000000000629404
31
0
0
ARC
5
132
100
AcDbEntity
8
0
100
AcDbCircle
10
144.36497706035601
20
5.1000000000629004
30
0
40
0.5000000000000393
210
3.1115076389305709e-61
220
-0
230
1
100
AcDbArc
50
90
51
180
0
LINE
5
133
100
AcDbEntity
8
0
100
AcDbLine
10
143.86497706035598
20
5.1000000000629511
30
1.5557538194654191e-61
11
143.86497706035601
21
2.85100000000355
31
-1.5407439555097887e-32
0
ARC
5
134
100
AcDbEntity
8
0
100
AcDbCircle
10
143.36497706035601
20
2.85100000000355
30
4.622231866529366e-32
40
0.50000000000000488
210
0
220
0
230
1
100
AcDbArc
50
-90
51
0
0
LINE
5
135
100
AcDbEntity
8
0
100
AcDbLine
10
143.36497706035601
20
2.3510000000035451
30
4.622231866529366e-32
11
134.36497706035601
21
2.3510000000035305
31
0
0
ARC
5
136
100
AcDbEntity
8
0
100
AcDbCircle
10
134.36497706035601
20
2.8510000000035256
30
7.7037197775489434e-32
40
0.49999999999998934
210
0
220
0
230
1
100
AcDbArc
50
180
51
270
0
LINE
5
137
100
AcDbEntity
8
0
100
AcDbLine
10
133.86497706035601
20
2.85100000000355
30
7.7037197775489434e-32
11
133.86497706035601
21
5.1000000000673911
31
7.7037197775489434e-33
0
ARC
5
138
100
AcDbEntity
8
0
100
AcDbCircle
10
133.36497706035601
20
5.1000000000673804
30
-9.2444637330587321e-32
40
0.50000000000000711
210
-2.0029671421626968e-31
220
-4.0027324298339583e-45
230
1
100
AcDbArc
50
0
51
90
0
LINE
5
139
100
AcDbEntity
8
0
100
AcDbLine
10
133.36497706035601
20
5.6000000000673875
30
-9.2444637330587321e-32
11
94.432643727022096
21
5.6000000000189596
31
0
0
ARC
5
140
100
AcDbEntity
8
0
100
AcDbCircle
10
94.432643727022295
20
5.1000000000189303
30
-9.2444637330587321e-32
40
0.50000000000002931
210
7.2254452066739907e-44
220
-1.848892746611638e-31
230
1
100
AcDbArc
50
90.000000000022794
51
180
0
LINE
5
141
100
AcDbEntity
8
0
100
AcDbLine
10
93.932643727022267
20
5.1000000000189702
30
-9.2444637330587321e-32
11
93.93264372702231
21
2.85100000000355
31
-1.5407439555097887e-32
0
ARC
5
142
100
AcDbEntity
8
0
100
AcDbCircle
10
93.432643727022295
20
2.8510000000035514
30
4.622231866529366e-32
40
0.50000000000000822
210
0
220
0
230
1
100
AcDbArc
50
270
51
360
0
LINE
5
143
100
AcDbEntity
8
0
100
AcDbLine
10
93.432643727022295
20
2.3510000000035429
30
4.622231866529366e-32
11
84.432643727022295
21
2.3510000000035398
31
0
0
ARC
5
144
100
AcDbEntity
8
0
100
AcDbCircle
10
84.43264372702231
20
2.8510000000035691
30
4.622231866529366e-32
40
0.50000000000002487
210
0
220
0
230
1
100
AcDbArc
50
180
51
269.99999999999835
0
LINE
5
145
100
AcDbEntity
8
0
100
AcDbLine
10
83.932643727022281
20
2.85100000000355
30
4.622231866529366e-32
11
83.93264372702231
21
5.1000000000145302
31
7.7037197775489434e-33
0
ARC
5
146
100
AcDbEntity
8
0
100
AcDbCircle
10
83.432643727022295
20
5.1000000000144912
30
1.2325951644078309e-31
40
0.50000000000000711
210
2.3111159332646502e-31
220
1.8474149676156731e-44
230
1
100
AcDbArc
50
0
51
90.000000000022794
0
LINE
5
147
100
AcDbEntity
8
0
100
AcDbLine
10
83.432643727022096
20
5.6000000000145338
30
1.2325951644078309e-31
11
44.5003103936887
21
5.5999999999988006
31
0
0
ARC
5
148
100
AcDbEntity
8
0
100
AcDbCircle
10
44.500310393689006
20
5.0999999999987713
30
9.2444637330587321e-32
40
0.50000000000002931
210
-1.1166597137587076e-43
220
1.848892746611638e-31
230
1
100
AcDbArc
50
90.000000000035016
51
180
0
LINE
5
149
100
AcDbEntity
8
0
100
AcDbLine
10
44.000310393688977
20
5.0999999999987899
30
9.2444637330587321e-32
11
44.000310393689006
21
2.85100000000355
31
1.5407439555097887e-32
0
ARC
5
150
100
AcDbEntity
8
0
100
AcDbCircle
10
43.500310393688999
20
2.8510000000035451
30
4.622231866529366e-32
40
0.50000000000000211
210
0
220
0
230
1
100
AcDbArc
50
-90
51
0
0
LINE
5
151
100
AcDbEntity
8
0
100
AcDbLine
10
43.500310393688999
20
2.3510000000035429
30
4.622231866529366e-32
11
34.500310393688899
21
2.3510000000035398
31
0
0
ARC
5
152
100
AcDbEntity
8
0
100
AcDbCircle
10
34.500310393688899
20
2.8510000000035527
30
4.622231866529366e-32
40
0.50000000000000711
210
0
220
0
230
1
100
AcDbArc
50
180
51
270
0
LINE
5
153
100
AcDbEntity
8
0
100
AcDbLine
10
34.000310393688892
20
2.85100000000355
30
4.622231866529366e-32
11
34.000310393688999
21
5.0999999999943499
31
7.7037197775489434e-33
0
ARC
5
154
100
AcDbEntity
8
0
100
AcDbCircle
10
33.500310393688899
20
5.0999999999943304
30
9.2444637330587321e-32
40
0.50000000000010036
210
1.6948183510604273e-31
220
6.7738548812549412e-45
230
1
100
AcDbArc
50
0
51
90.000000000011397
0
LINE
5
155
100
AcDbEntity
8
0
100
AcDbLine
10
33.5003103936888
20
5.599999999994373
30
9.2444637330587321e-32
11
15.190717862424501
21
5.6000000000005601
31
-5.3249341644343049e-43
0
ARC
5
156
100
AcDbEntity
8
0
100
AcDbCircle
10
15.190717862424401
20
3.7000000000007298
30
-9.2444637330587321e-32
40
1.8999999999998303
210
-2.5587464925282748e-45
220
-4.8655072278980569e-32
230
1
100
AcDbArc
50
89.999999999997002
51
129.75742973891624
0
LINE
5
157
100
AcDbEntity
8
0
100
AcDbLine
10
13.975594342031476
20
5.1606419240147092
30
-9.2444637330587321e-32
11
9.0356028190598199
21
1.0510105411168402
31
0
0
ARC
5
158
100
AcDbEntity
8
0
100
AcDbCircle
10
6.413494169790745
20
4.2029220613578175
30
-3.0814879110195774e-32
40
4.0999999999999384
210
0
220
0
230
1
100
AcDbArc
50
269.99999999999909
51
309.75742973891511
0
LINE
5
159
100
AcDbEntity
8
0
100
AcDbLine
10
6.4134941697906802
20
0.10292206135787907
30
-3.0814879110195774e-32
11
1.0249999999999904
21
0.10292206135790702
31
-4.8148248609664475e-34
0
ARC
5
160
100
AcDbEntity
8
0
100
AcDbCircle
10
1.0249999999999899
20
-1.7970779386420901
30
7.7037197775489434e-33
40
1.8999999999999972
210
9.4398199594667335e-49
220
4.3080011913924212e-33
230
1
100
AcDbArc
50
89.999999999999986
51
180
0
LINE
5
161
100
AcDbEntity
8
0
100
AcDbLine
10
-0.8750000000000101
20
-1.7970779386420901
30
7.7037197775489434e-33
11
-0.8750000000000201
21
-41.973286437626911
31
0
0
ARC
5
162
100
AcDbEntity
8
0
100
AcDbCircle
10
0.12499999999998179
20
-41.973286437626918
30
0
40
1.0000000000000018
210
0
220
0
230
1
100
AcDbArc
50
180
51
224.99999999999767
0
LINE
5
163
100
AcDbEntity
8
0
100
AcDbLine
10
-0.58210678118658588
20
-42.680393218813428
30
0
11
4.0883567811865511
21
-47.350856781186501
31
0
0
ARC
5
164
100
AcDbEntity
8
0
100
AcDbCircle
10
3.3812500000000001
20
-48.057963562373097
30
0
40
0.99999999999999978
210
3.4211388289180112e-49
220
2.3738919364399497e-65
230
1
100
AcDbArc
50
0
51
45.000000000001812
0
LINE
5
165
100
AcDbEntity
8
0
100
AcDbLine
10
4.3812499999999996
20
-48.057963562373097
30
-3.4211388289180104e-49
11
4.3812499999999899
21
-56.717036437626902
31
0
0
ARC
5
166
100
AcDbEntity
8
0
100
AcDbCircle
10
3.3812500000000001
20
-56.717036437626902
30
0
40
0.99999999999999967
210
-0
220
0
230
1
100
AcDbArc
50
-44.999999999997655
51
0
0
LINE
5
167
100
AcDbEntity
8
0
100
AcDbLine
10
4.0883567811865751
20
-57.42414321881342
30
0
11
-0.58210678118654435
21
-62.094606781186499
31
0
0
ARC
5
168
100
AcDbEntity
8
0
100
AcDbCircle
10
0.12500000000001829
20
-62.801713562373116
30
-3.679532501481922e-63
40
1.00000000000006
210
8.552847072295949e-50
220
8.5528470722947678e-50
230
1
100
AcDbArc
50
134.99999999999778
51
180
0
LINE
5
169
100
AcDbEntity
8
0
100
AcDbLine
10
-0.87500000000000344
20
-62.801713562373109
30
1.7105694144590064e-49
11
-0.87500000000000111
21
-117.26542206135801
31
0
0
ARC
5
170
100
AcDbEntity
8
0
100
AcDbCircle
10
1.0249999999999899
20
-117.26542206135801
30
-2.4651903288156619e-31
40
1.899999999999991
210
1.2974685941135123e-31
220
0
230
1
100
AcDbArc
50
180
51
270
0
LINE
5
171
100
AcDbEntity
8
0
100
AcDbLine
10
1.0249999999999899
20
-119.165422061358
30
-2.4651903288156619e-31
11
6.413494169792461
21
-119.16542206135401
31
2.4651903288156619e-31
0
ARC
5
172
100
AcDbEntity
8
0
100
AcDbCircle
10
6.4134941697925303
20
-123.265422061354
30
2.4651903288156619e-31
40
4.0999999999999899
210
1.9707307570982016e-33
220
2.3689212795673393e-33
230
1
100
AcDbArc
50
50.242570261084921
51
90.000000000000966
0
LINE
5
173
100
AcDbEntity
8
0
100
AcDbLine
10
9.0356028190616335
20
-120.11351054111299
30
2.3388493244638594e-31
11
13.975594342033199
21
-124.22314192401102
31
-2.4651903288156619e-31
0
ARC
5
174
100
AcDbEntity
8
0
100
AcDbCircle
10
15.190717862426199
20
-122.762499999997
30
-2.4651903288156619e-31
40
1.8999999999998982
210
-2.3689212795672514e-33
220
1.9707307570983069e-33
230
1
100
AcDbArc
50
230.24257026108268
51
270.00000000000313
0
LINE
5
175
100
AcDbEntity
8
0
100
AcDbLine
10
15.190717862426302
20
-124.66249999999687
30
-2.3827369401190225e-31
11
33.5003103936888
21
-124.662499999991
31
2.4651903288156619e-31
0
ARC
5
176
100
AcDbEntity
8
0
100
AcDbCircle
10
33.500310393688991
20
-124.16249999999101
30
-2.4651903288156619e-31
40
0.49999999999998934
210
3.6784084688528017e-43
220
9.8607613152628578e-31
230
1
100
AcDbArc
50
269.999999999978
51
360
0
LINE
5
177
100
AcDbEntity
8
0
100
AcDbLine
10
34.000310393688991
20
-124.16249999999103
30
-2.4651903288156619e-31
11
34.000310393688899
21
-121.9135
31
2.4651903288156619e-31
0
ARC
5
178
100
AcDbEntity
8
0
100
AcDbCircle
10
34.500310393689006
20
-121.9135
30
-2.4651903288156619e-31
40
0.50000000000000711
210
0
220
-0
230
1
100
AcDbArc
50
90
51
180
0
LINE
5
179
100
AcDbEntity
8
0
100
AcDbLine
10
34.500310393689006
20
-121.4135
30
-2.4651903288156619e-31
11
43.500310393688999
21
-121.41350000000001
31
2.4651903288156619e-31
0
ARC
5
180
100
AcDbEntity
8
0
100
AcDbCircle
10
43.500310393688999
20
-121.9135
30
-2.4651903288156619e-31
40
0.49999999999999822
210
0
220
0
230
1
100
AcDbArc
50
0
51
90
0
LINE
5
181
100
AcDbEntity
8
0
100
AcDbLine
10
44.000310393688991
20
-121.9135
30
-2.4651903288156619e-31
11
44.000310393688899
21
-124.16249999999501
31
-2.4651903288156619e-31
0
ARC
5
182
100
AcDbEntity
8
0
100
AcDbCircle
10
44.50031039368902
20
-124.16249999999499
30
2.4651903288156619e-31
40
0.50000000000012257
210
-9.8607613152602303e-31
220
-3.5032461608103251e-44
230
1
100
AcDbArc
50
180
51
269.99999999996339
0
LINE
5
183
100
AcDbEntity
8
0
100
AcDbLine
10
44.5003103936887
20
-124.66249999999502
30
2.4651903288156619e-31
11
71.452689606311296
21
-124.662500000064
31
2.465190328876198e-31
0
ARC
5
184
100
AcDbEntity
8
0
100
AcDbCircle
10
71.452689606310997
20
-124.162500000064
30
2.4651903288156619e-31
40
0.50000000000000711
210
-7.3122918720977473e-54
220
1.2107218731766246e-41
230
1
100
AcDbArc
50
-89.999999999965809
51
0
0
LINE
5
185
100
AcDbEntity
8
0
100
AcDbLine
10
71.952689606310997
20
-124.162500000064
30
2.4651903288156619e-31
11
71.952689606310997
21
-121.9135
31
2.4651903288156619e-31
0
ARC
5
186
100
AcDbEntity
8
0
100
AcDbCircle
10
72.452689606310997
20
-121.9135
30
-2.4651903288156619e-31
40
0.50000000000000711
210
0
220
-0
230
1
100
AcDbArc
50
90
51
180
0
LINE
5
187
100
AcDbEntity
8
0
100
AcDbLine
10
72.452689606310997
20
-121.4135
30
-2.4651903288156619e-31
11
74.935786437626902
21
-121.41350000000001
31
2.4651903288156619e-31
0
ARC
5
188
100
AcDbEntity
8
0
100
AcDbCircle
10
74.935786437626888
20
-120.41349999999994
30
-2.4651903288156619e-31
40
1.0000000000000675
210
-8.7581154020289243e-45
220
4.930380657630991e-31
230
1
100
AcDbArc
50
270.0000000000008
51
314.99999999997698
0
LINE
5
189
100
AcDbEntity
8
0
100
AcDbLine
10
75.642893218813199
20
-121.12060678118682
30
-2.4651903288156619e-31
11
78.057106781186505
21
-118.70639321881301
31
-2.4651903288156619e-31
0
ARC
5
190
100
AcDbEntity
8
0
100
AcDbCircle
10
77.350000000000051
20
-117.99928643762705
30
-2.4651903288156619e-31
40
0.99999999999952072
210
0
220
0
230
1
100
AcDbArc
50
-44.999999999979842
51
0
0
LINE
5
191
100
AcDbEntity
8
0
100
AcDbLine
10
78.349999999999994
20
-117.99928643762701
30
-2.4651903288156619e-31
11
78.349999999999994
21
-103.98648187815502
31
2.4651903288156619e-31
0
ELLIPSE
5
192
100
AcDbEntity
8
0
100
AcDbEllipse
10
79.349999999999994
20
-103.98648187815502
30
2.4651903288156619e-31
11
-9.1524010592536607e-14
21
1.0003427924908701
31
0.0
40
0.99965732497555493
41
0.78539816339756885
42
1.5707963267947829
0
LINE
5
193
100
AcDbEntity
8
0
100
AcDbLine
10
78.642893218813299
20
-103.2791327060738
30
2.4651903288156645e-31
11
81.057106781186604
21
-100.86409156942
31
2.4651903288156619e-31
0
ELLIPSE
5
194
100
AcDbEntity
8
0
100
AcDbEllipse
10
81.764213562373115
20
-101.57144074150202
30
-2.4651903288156619e-31
11
-1.734723475976816e-15
21
1.0003427924908701
31
0.0
40
0.99965732497555493
41
0
42
0.78539816339697599
0
LINE
5
195
100
AcDbEntity
8
0
100
AcDbLine
10
81.764213562373115
20
-100.57109794901115
30
-2.4651903288156619e-31
11
88.599999999999994
21
-100.57109794901102
31
2.4651903288156619e-31
0
ELLIPSE
5
196
100
AcDbEntity
8
0
100
AcDbEllipse
10
88.599999999999994
20
-101.07126934525601
30
-2.4651903288156619e-31
11
5.9431626286965563e-14
21
0.50017139624543405
31
0.0
40
0.99965732497555682
41
4.7123889803848602
42
6.2831853071796999
0
LINE
5
197
100
AcDbEntity
8
0
100
AcDbLine
10
89.099999999999994
20
-101.07126934525598
30
-2.4651903288156619e-31
11
89.099999999999994
21
-115.68706425076002
31
2.4651903288156619e-31
0
ELLIPSE
5
198
100
AcDbEntity
8
0
100
AcDbEllipse
10
90.099999999999994
20
-115.68706425076002
30
2.4651903288156619e-31
11
-9.5132235422568366e-14
21
-1.0003427924908701
31
0.0
40
0.99965732497555493
41
4.7123889803847891
42
5.4977871437819772
0
LINE
5
199
100
AcDbEntity
8
0
100
AcDbLine
10
89.392893218813271
20
-116.39441342284123
30
2.4651903288156645e-31
11
91.807106781186604
21
-118.80945455949501
31
-2.4651903288156619e-31
0
ELLIPSE
5
200
100
AcDbEntity
8
0
100
AcDbEllipse
10
92.514213562373101
20
-118.10210538741302
30
2.4651903288156619e-31
11
-1.734723475976816e-15
21
-1.0003427924908701
31
0.0
40
0.99965732497555493
41
5.4977871437826105
42
6.2831853071796004
0
LINE
5
201
100
AcDbEntity
8
0
100
AcDbLine
10
92.514213562373101
20
-119.10244817990389
30
2.4651903288156619e-31
11
193.23578643762701
21
-119.10244817990402
31
-2.4651903288156619e-31
0
ELLIPSE
5
202
100
AcDbEntity
8
0
100
AcDbEllipse
10
193.23578643762701
20
-118.10210538741302
30
-2.4651903288156619e-31
11
-1.0554057627842915e-13
21
-1.0003427924908701
31
0.0
40
0.99965732497555493
41
1.1368683772160311e-13
42
0.78539816339676505
0
LINE
5
203
100
AcDbEntity
8
0
100
AcDbLine
10
193.942893218813
20
-118.80945455949498
30
-2.4651903288156619e-31
11
196.35710678118701
21
-116.39441342284101
31
-2.4651903288156619e-31
0
ELLIPSE
5
204
100
AcDbEntity
8
0
100
AcDbEllipse
10
195.65000000000001
20
-115.68706425075901
30
-2.4651903288156619e-31
11
1.0248746296071038e-13
21
-1.0003427924908701
31
0.0
40
0.99965732497555493
41
0.78539816339721724
42
1.5707963267948255
0
LINE
5
205
100
AcDbEntity
8
0
100
AcDbLine
10
196.65000000000003
20
-115.68706425075901
30
-2.4651903288156619e-31
11
196.65000000000003
21
-101.07126934525601
31
2.4651903288156619e-31
0
ELLIPSE
5
206
100
AcDbEntity
8
0
100
AcDbEllipse
10
197.15000000000003
20
-101.07126934525601
30
-2.4651903288156619e-31
11
-4.1668057892962906e-14
21
0.50017139624543405
31
0.0
40
0.99965732497555682
41
6.2831853071794725
42
7.8539816339743975
0
LINE
5
207
100
AcDbEntity
8
0
100
AcDbLine
10
197.15000000000003
20
-100.57109794901058
30
-2.4651903288156619e-31
11
203.98578643762704
21
-100.57109794901102
31
2.4651903288156619e-31
0
ELLIPSE
5
208
100
AcDbEntity
8
0
100
AcDbEllipse
10
203.98578643762704
20
-101.57144074150202
30
-2.4651903288156619e-31
11
5.6829541073000289e-14
21
1.0003427924908701
31
0.0
40
0.99965732497555493
41
5.4977871437830625
42
6.2831853071796715
0
LINE
5
209
100
AcDbEntity
8
0
100
AcDbLine
10
204.69289321881297
20
-100.86409156942003
30
-2.4651903288156606e-31
11
207.10710678118701
21
-103.27913270607399
31
-2.4651903288156619e-31
0
ELLIPSE
5
210
100
AcDbEntity
8
0
100
AcDbEllipse
10
206.40000000000001
20
-103.98648187815502
30
2.4651903288156619e-31
11
-1.734723475976816e-15
21
1.0003427924908701
31
0.0
40
0.99965732497555493
41
4.7123889803847039
42
5.4977871437815553
0
LINE
5
211
100
AcDbEntity
8
0
100
AcDbLine
10
207.40000000000003
20
-103.98648187815502
30
2.4651903288156619e-31
11
207.40000000000003
21
-117.99928643762701
31
-2.4651903288156619e-31
0
ARC
5
212
100
AcDbEntity
8
0
100
AcDbCircle
10
208.40000000000018
20
-117.99928643762692
30
-2.4651903288156619e-31
40
1.0000000000001563
210
0
220
0
230
1
100
AcDbArc
50
180
51
224.99999999995799
0
LINE
5
213
100
AcDbEntity
8
0
100
AcDbLine
10
207.692893218813
20
-118.70639321881306
30
-2.4651903288156619e-31
11
210.10710678118701
21
-121.12060678118702
31
-2.4651903288156619e-31
0
ARC
5
214
100
AcDbEntity
8
0
100
AcDbCircle
10
210.81421356237303
20
-120.41349999999986
30
-2.4651903288156619e-31
40
1.0000000000000608
210
0
220
0
230
1
100
AcDbArc
50
225.00000000004661
51
269.99999999999835
0
LINE
5
215
100
AcDbEntity
8
0
100
AcDbLine
10
210.814213562373
20
-121.41350000000001
30
-2.4651903288156619e-31
11
213.29731039368903
21
-121.41350000000001
31
2.4651903288156619e-31
0
ARC
5
216
100
AcDbEntity
8
0
100
AcDbCircle
10
213.29731039368903
20
-121.9135
30
-2.4651903288156619e-31
40
0.50000000000000711
210
0
220
0
230
1
100
AcDbArc
50
0
51
90
0
LINE
5
217
100
AcDbEntity
8
0
100
AcDbLine
10
213.79731039368903
20
-121.9135
30
-2.4651903288156619e-31
11
213.79731039368903
21
-124.162500000064
31
-2.4651903288156619e-31
0
ARC
5
218
100
AcDbEntity
8
0
100
AcDbCircle
10
214.29731039368903
20
-124.16250000006401
30
2.4651903288156619e-31
40
0.50000000000000711
210
-9.8607613152625074e-31
220
3.5032461608119431e-44
230
1
100
AcDbArc
50
180
51
270
0
LINE
5
219
100
AcDbEntity
8
0
100
AcDbLine
10
214.29731039368903
20
-124.66250000006403
30
2.4651903288156619e-31
11
253.22964372702202
21
-124.66250000008002
31
2.4651903288156619e-31
0
ARC
5
220
100
AcDbEntity
8
0
100
AcDbCircle
10
253.22964372702202
20
-124.16250000007999
30
-2.4651903288156619e-31
40
0.50000000000002487
210
0
220
9.8607613152621571e-31
230
1
100
AcDbArc
50
270
51
360
0
LINE
5
221
100
AcDbEntity
8
0
100
AcDbLine
10
253.72964372702205
20
-124.16250000008
30
-2.4651903288156619e-31
11
253.72964372702199
21
-121.9135
31
2.4651903288156619e-31
0
ARC
5
222
100
AcDbEntity
8
0
100
AcDbCircle
10
254.22964372702199
20
-121.9135
30
-2.4651903288156619e-31
40
0.50000000000000711
210
0
220
-0
230
1
100
AcDbArc
50
90
51
180
0
LINE
5
223
100
AcDbEntity
8
0
100
AcDbLine
10
254.22964372702199
20
-121.4135
30
-2.4651903288156619e-31
11
263.22964372702199
21
-121.41350000000001
31
2.4651903288156619e-31
0
ARC
5
224
100
AcDbEntity
8
0
100
AcDbCircle
10
263.22964372702199
20
-121.9135
30
-2.4651903288156619e-31
40
0.50000000000000711
210
0
220
0
230
1
100
AcDbArc
50
0
51
90
0
LINE
5
225
100
AcDbEntity
8
0
100
AcDbLine
10
263.72964372702205
20
-121.9135
30
-2.4651903288156619e-31
11
263.72964372702199
21
-124.16250000008401
31
-2.4651903288156619e-31
0
ARC
5
226
100
AcDbEntity
8
0
100
AcDbCircle
10
264.22964372702199
20
-124.16250000008404
30
2.4651903288156619e-31
40
0.49999999999997158
210
-9.8607613152632081e-31
220
7.0064923216248819e-44
230
1
100
AcDbArc
50
180
51
270
0
LINE
5
227
100
AcDbEntity
8
0
100
AcDbLine
10
264.22964372702199
20
-124.66250000008401
30
2.4651903288156619e-31
11
303.16197706035501
21
-124.6625000001
31
2.4651903288156619e-31
0
ARC
5
228
100
AcDbEntity
8
0
100
AcDbCircle
10
303.16197706035598
20
-124.16250000009998
30
-2.4651903288156619e-31
40
0.50000000000000711
210
1.8917529268384492e-42
220
9.8607613152625074e-31
230
1
100
AcDbArc
50
269.99999999988927
51
360
0
LINE
5
229
100
AcDbEntity
8
0
100
AcDbLine
10
303.66197706035598
20
-124.16250000010001
30
-2.4651903288156619e-31
11
303.66197706035598
21
-121.9135
31
2.4651903288156619e-31
0
ARC
5
230
100
AcDbEntity
8
0
100
AcDbCircle
10
304.16197706035598
20
-121.9135
30
-2.4651903288156619e-31
40
0.50000000000000711
210
0
220
-0
230
1
100
AcDbArc
50
90
51
180
0
LINE
5
231
100
AcDbEntity
8
0
100
AcDbLine
10
304.16197706035598
20
-121.4135
30
-2.4651903288156619e-31
11
313.16197706035598
21
-121.41350000000001
31
2.4651903288156619e-31
0
ARC
5
232
100
AcDbEntity
8
0
100
AcDbCircle
10
313.16197706035598
20
-121.9135
30
-2.4651903288156619e-31
40
0.50000000000000711
210
0
220
0
230
1
100
AcDbArc
50
0
51
90
0
LINE
5
233
100
AcDbEntity
8
0
100
AcDbLine
10
313.66197706035598
20
-121.9135
30
-2.4651903288156619e-31
11
313.66197706035598
21
-124.162500000104
31
-2.4651903288156619e-31
0
ARC
5
234
100
AcDbEntity
8
0
100
AcDbCircle
10
314.16197706035604
20
-124.16250000010399
30
2.4651903288156619e-31
40
0.50000000000004263
210
-9.8607613152618068e-31
220
-3.5032461608114453e-44
230
1
100
AcDbArc
50
180
51
269.99999999988927
0
LINE
5
235
100
AcDbEntity
8
0
100
AcDbLine
10
314.16197706035507
20
-124.66250000010403
30
2.4651903288156619e-31
11
332.47178213757502
21
-124.66249999999701
31
2.4651903288156619e-31
0
ARC
5
236
100
AcDbEntity
8
0
100
AcDbCircle
10
332.47178213757502
20
-122.762499999997
30
-2.4651903288156619e-31
40
1.899999999999995
210
-1.8231490071858814e-63
220
2.5949371882270193e-31
230
1
100
AcDbArc
50
270
51
309.75742973891658
0
LINE
5
237
100
AcDbEntity
8
0
100
AcDbLine
10
333.68690565796794
20
-124.22314192401096
30
-2.4651903288156619e-31
11
338.62689718093998
21
-120.11351054111302
31
2.4651903288156619e-31
0
ARC
5
238
100
AcDbEntity
8
0
100
AcDbCircle
10
341.24900583020906
20
-123.265422061354
30
2.4651903288156619e-31
40
4.1000000000000014
210
1.5019633883054688e-49
220
-6.1629758220391547e-33
230
1
100
AcDbArc
50
90
51
129.75742973891511
0
LINE
5
239
100
AcDbEntity
8
0
100
AcDbLine
10
341.24900583020906
20
-119.16542206135401
30
2.7178723375192673e-31
11
346.63750000000101
21
-119.16542206135802
31
-2.4651903288156619e-31
0
ARC
5
240
100
AcDbEntity
8
0
100
AcDbCircle
10
346.63749999999999
20
-117.265422061354
30
-2.4651903288156619e-31
40
1.9000000000040096
210
5.1402106195133031e-58
220
2.691197390710606e-70
230
1
100
AcDbArc
50
-89.999999999969148
51
0
0
LINE
5
241
100
AcDbEntity
8
0
100
AcDbLine
10
348.53750000000377
20
-117.265422061354
30
-2.4651903288157232e-31
11
348.53750000000298
21
-83.851713562373007
31
-2.4651903288156619e-31
0
ARC
5
242
100
AcDbEntity
8
0
100
AcDbCircle
10
347.53750000000315
20
-83.851713562373078
30
-2.4651903288156619e-31
40
0.99999999999980105
210
0
220
-0
230
1
100
AcDbArc
50
0
51
45.000000000030518
0
LINE
5
243
100
AcDbEntity
8
0
100
AcDbLine
10
348.24460678118925
20
-83.144606781186226
30
-2.4651903288156619e-31
11
345.83039321881608
21
-80.730393218813518
31
-2.4651903288156619e-31
0
ARC
5
244
100
AcDbEntity
8
0
100
AcDbCircle
10
345.12328643762908
20
-81.437499999999986
30
2.4651903288156619e-31
40
1.0000000000002744
210
3.4863055968424558e-31
220
3.4863055968398283e-31
230
1
100
AcDbArc
50
44.999999999978115
51
90
0
LINE
5
245
100
AcDbEntity
8
0
100
AcDbLine
10
345.12328643762908
20
-80.4375
30
2.4651903288156619e-31
11
342.53750000000201
21
-80.437500000000014
31
-2.4651903288156619e-31
0
ARC
5
246
100
AcDbEntity
8
0
100
AcDbCircle
10
342.53750000000201
20
-78.9375
30
0
40
1.5000000000000036
210
0
220
-0
230
1
100
AcDbArc
50
90
51
270
0
ARC
5
247
100
AcDbEntity
8
0
100
AcDbCircle
10
342.53750000000201
20
-76.437499999999943
30
0
40
1.0000000000000586
210
0
220
0
230
1
100
AcDbArc
50
270
51
360
0
LINE
5
248
100
AcDbEntity
8
0
100
AcDbLine
10
343.53750000000213
20
-76.4375
30
0
11
343.53750000000207
21
-73.9375
31
0
0
ARC
5
249
100
AcDbEntity
8
0
100
AcDbCircle
10
342.53750000000201
20
-73.937500000000071
30
5.1347282585196112e-62
40
1.0000000000000142
210
5.1347282585194609e-62
220
1.2471674163657972e-62
230
1
100
AcDbArc
50
0
51
90
0
ARC
5
250
100
AcDbEntity
8
0
100
AcDbCircle
10
342.53750000000201
20
-71.4375
30
0
40
1.5000000000000036
210
0
220
-0
230
1
100
AcDbArc
50
90
51
270
0
ARC
5
251
100
AcDbEntity
8
0
100
AcDbCircle
10
342.53750000000201
20
-68.937499999999943
30
0
40
1.0000000000000586
210
0
220
0
230
1
100
AcDbArc
50
270
51
360
0
LINE
5
252
100
AcDbEntity
8
0
100
AcDbLine
10
343.53750000000213
20
-68.9375
30
0
11
343.53750000000207
21
-66.4375
31
0
0
ARC
5
253
100
AcDbEntity
8
0
100
AcDbCircle
10
342.53750000000201
20
-66.437500000000071
30
5.1347282585196112e-62
40
1.0000000000000142
210
5.1347282585194609e-62
220
1.2471674163657972e-62
230
1
100
AcDbArc
50
0
51
90
0
ARC
5
254
100
AcDbEntity
8
0
100
AcDbCircle
10
342.53750000000201
20
-63.937500000000007
30
0
40
1.5000000000000036
210
0
220
-0
230
1
100
AcDbArc
50
90
51
270
0
LINE
5
255
100
AcDbEntity
8
0
100
AcDbLine
10
342.53750000000201
20
-62.4375
30
0
11
345.12328643762908
21
-62.4375
31
0
0
ARC
5
256
100
AcDbEntity
8
0
100
AcDbCircle
10
345.12328643762896
20
-61.437499999999751
30
0
40
1.000000000000254
210
0
220
0
230
1
100
AcDbArc
50
270.00000000000648
51
314.99999999997203
0
LINE
5
257
100
AcDbEntity
8
0
100
AcDbLine
10
345.83039321881535
20
-62.144606781186823
30
0
11
348.24460678118834
21
-59.730393218813695
31
-2.4771691164748219e-46
0
LWPOLYLINE
5
258
100
AcDbEntity
8
0
100
AcDbPolyline
90
8
70
1
43
0.0
10
335.58749999999998
20
-78.9375
10
297.58749999999998
20
-78.937500000000014
42
-0.41421356237309503
10
296.58749999999998
20
-77.9375
10
296.58749999999998
20
-64.9375
42
-0.41421356237309503
10
297.58749999999998
20
-63.937500000000007
10
335.58749999999998
20
-63.937499999999986
42
-0.41421356237309503
10
336.58749999999998
20
-64.9375
10
336.58749999999998
20
-77.9375
42
-0.41421356237309503
0
LWPOLYLINE
5
259
100
AcDbEntity
8
0
100
AcDbPolyline
90
10
70
1
43
0.0
10
299.74460678118697
20
-97.194606781186508
10
293.33039321881375
20
-90.780393218813757
42
-0.19891236737976581
10
293.03750000000002
20
-90.073286437626905
10
293.03750000000014
20
-83.987499999999997
42
-0.41421356237316787
10
293.53750000000002
20
-83.487499999999983
10
306.53750000000002
20
-83.487499999999969
42
-0.41421356237310542
10
307.03750000000002
20
-83.987499999999997
10
307.03750000000008
20
-96.987500000000011
42
-0.4142135623730534
10
306.53750000000002
20
-97.487500000000026
10
300.45171356237302
20
-97.487499999999613
42
-0.19891236737957305
0
LWPOLYLINE
5
260
100
AcDbEntity
8
0
100
AcDbPolyline
90
10
70
1
43
0.0
10
337.723286437627
20
-97.487500000000011
10
331.63749999999999
20
-97.487499999999983
42
-0.41421356237301177
10
331.13749999999987
20
-96.987500000000011
10
331.13750000000016
20
-83.987499999999997
42
-0.4142135623732095
10
331.63749999999999
20
-83.487499999999955
10
344.63749999999999
20
-83.487500000000026
42
-0.41421356237301177
10
345.1375000000001
20
-83.987499999999997
10
345.13749999999993
20
-90.073286437627019
42
-0.19891236737974941
10
344.84460678118631
20
-90.780393218813799
10
338.43039321881326
20
-97.194606781186806
42
-0.19891236737956658
0
LWPOLYLINE
5
261
100
AcDbEntity
8
0
100
AcDbPolyline
90
8
70
1
43
0.0
10
234.93437499999999
20
-96.987500000000011
10
234.93437499999999
20
-83.987499999999997
42
-0.41421356237309503
10
235.43437499999999
20
-83.487499999999983
10
238.43437499999999
20
-83.487499999999983
42
-0.41421356237309503
10
238.93437500000002
20
-83.987499999999997
10
238.93437500000002
20
-96.987500000000011
42
-0.41421356237309503
10
238.43437499999999
20
-97.487500000000011
10
235.43437499999999
20
-97.487500000000011
42
-0.41421356237309503
0
LWPOLYLINE
5
262
100
AcDbEntity
8
0
100
AcDbPolyline
90
8
70
1
43
0.0
10
261.55624999999998
20
-103.03750000000001
10
261.55624999999998
20
-116.03749999999999
42
-0.41421356237309503
10
261.05624999999998
20
-116.53750000000001
10
258.05624999999998
20
-116.53750000000001
42
-0.41421356237309503
10
257.55624999999998
20
-116.03749999999999
10
257.55624999999998
20
-103.03750000000001
42
-0.41421356237309503
10
258.05624999999998
20
-102.53749999999999
10
261.05624999999998
20
-102.53749999999999
42
-0.41421356237309503
0
LWPOLYLINE
5
263
100
AcDbEntity
8
0
100
AcDbPolyline
90
8
70
1
43
0.0
10
237.74375000000003
20
-103.03750000000001
10
237.74375000000003
20
-116.03749999999999
42
-0.41421356237309503
10
237.24375000000003
20
-116.53750000000001
10
234.24375000000001
20
-116.53750000000001
42
-0.41421356237309503
10
233.74375000000001
20
-116.03749999999999
10
233.74375000000001
20
-103.03750000000001
42
-0.41421356237309503
10
234.24375000000001
20
-102.53749999999999
10
237.24375000000003
20
-102.53749999999999
42
-0.41421356237309503
0
LWPOLYLINE
5
264
100
AcDbEntity
8
0
100
AcDbPolyline
90
8
70
1
43
0.0
10
24.193750000000005
20
-116.03749999999999
10
24.193749999999994
20
-103.03750000000001
42
-0.41421356237309503
10
24.693750000000001
20
-102.53749999999999
10
27.693750000000001
20
-102.53749999999999
42
-0.41421356237309503
10
28.193750000000001
20
-103.03750000000001
10
28.193750000000009
20
-116.03749999999999
42
-0.41421356237309503
10
27.693750000000001
20
-116.53750000000001
10
24.693750000000001
20
-116.53749999999999
42
-0.41421356237309503
0
LWPOLYLINE
5
265
100
AcDbEntity
8
0
100
AcDbPolyline
90
8
70
1
43
0.0
10
28.193750000000005
20
-45.887500000000003
10
28.193750000000001
20
-58.88750000000001
42
-0.41421356237309503
10
27.693750000000001
20
-59.387500000000003
10
24.693750000000001
20
-59.387500000000003
42
-0.41421356237309503
10
24.193750000000005
20
-58.88750000000001
10
24.193750000000005
20
-45.887500000000003
42
-0.41421356237309503
10
24.693750000000001
20
-45.387500000000003
10
27.693750000000001
20
-45.387500000000003
42
-0.41421356237309503
0
LWPOLYLINE
5
266
100
AcDbEntity
8
0
100
AcDbPolyline
90
8
70
1
43
0.0
10
48.006250000000001
20
-116.03749999999999
10
48.006250000000001
20
-103.03750000000001
42
-0.41421356237309503
10
48.506250000000009
20
-102.53749999999999
10
51.506250000000009
20
-102.53749999999999
42
-0.41421356237309503
10
52.006250000000009
20
-103.03750000000001
10
52.006250000000016
20
-116.03749999999999
42
-0.41421356237309503
10
51.506250000000009
20
-116.53750000000001
10
48.506250000000009
20
-116.53750000000001
42
-0.41421356237309503
0
LWPOLYLINE
5
267
100
AcDbEntity
8
0
100
AcDbPolyline
90
12
70
1
43
0.0
10
118.34999999999999
20
-7.0249999999999897
42
0.41421356237307422
10
118.84999999999999
20
-7.5249999999999968
10
122.84999999999999
20
-7.5249999999999826
42
-0.41421356237309503
10
123.35000000000001
20
-8.0249999999999897
10
123.35000000000001
20
-16.024999999999999
42
-0.41421356237309503
10
122.84999999999999
20
-16.525000000000002
10
115.27500000000002
20
-16.525000000000006
42
-0.41421356237309503
10
114.77500000000001
20
-16.024999999999999
10
114.77500000000001
20
-3.024999999999991
42
-0.41421356237309537
10
115.27500000000002
20
-2.5249999999999906
10
117.84999999999999
20
-2.5249999999999835
42
-0.41421356237309503
10
118.35000000000001
20
-3.0249999999999906
0
LWPOLYLINE
5
268
100
AcDbEntity
8
0
100
AcDbPolyline
90
12
70
1
43
0.0
10
205
20
-7.5249999999999906
42
0.41421356237302542
10
205.49999999999997
20
-7.0249999999999897
10
205.5
20
-3.0249999999999906
42
-0.41421356237309503
10
206
20
-2.5249999999999906
10
208.57500000000002
20
-2.5249999999999835
42
-0.41421356237309503
10
209.07500000000002
20
-3.0249999999999906
10
209.07500000000002
20
-16.024999999999999
42
-0.41421356237309503
10
208.57500000000002
20
-16.525000000000002
10
201
20
-16.525000000000006
42
-0.41421356237309503
10
200.5
20
-16.024999999999999
10
200.5
20
-8.0249999999999897
42
-0.41421356237309503
10
201
20
-7.5249999999999897
0
LWPOLYLINE
5
269
100
AcDbEntity
8
0
100
AcDbPolyline
90
8
70
1
43
0.0
10
306.53750000000002
20
-40.337499999999984
42
0.41421356237307944
10
307.03749999999997
20
-39.837499999999999
10
307.03750000000002
20
-26.837499999999999
42
0.41421356237310025
10
306.53750000000002
20
-26.337499999999999
10
293.53750000000002
20
-26.337499999999952
42
0.41421356237306123
10
293.03750000000002
20
-26.837499999999999
10
293.03750000000008
20
-39.837499999999999
42
0.414213562373069
10
293.53750000000002
20
-40.337500000000006
0
LWPOLYLINE
5
270
100
AcDbEntity
8
0
100
AcDbPolyline
90
8
70
1
43
0.0
10
306.53750000000002
20
-16.524999999999952
42
0.4142135623730781
10
307.03750000000008
20
-16.024999999999999
10
307.03750000000002
20
-3.0249999999999999
42
0.41421356237310381
10
306.53750000000002
20
-2.5249999999999799
10
293.53750000000002
20
-2.5250000000000021
42
0.41421356237306967
10
293.03750000000002
20
-3.0249999999999999
10
293.03750000000008
20
-16.024999999999999
42
0.41421356237309631
10
293.53750000000002
20
-16.524999999999999
0
LWPOLYLINE
5
271
100
AcDbEntity
8
0
100
AcDbPolyline
90
8
70
1
43
0.0
10
326.08749999999998
20
-3.0249999999999999
42
0.41421356237312007
10
325.58749999999998
20
-2.5250000000000568
10
312.58749999999998
20
-2.5250000000000021
42
0.41421356237306967
10
312.08749999999998
20
-3.0249999999999999
10
312.08750000000003
20
-16.024999999999999
42
0.41421356237309631
10
312.58749999999998
20
-16.524999999999999
10
325.58749999999998
20
-16.525000000000006
42
0.4142135623730846
10
326.08749999999998
20
-16.024999999999999
0
LWPOLYLINE
5
272
100
AcDbEntity
8
0
100
AcDbPolyline
90
8
70
1
43
0.0
10
306.53750000000002
20
-116.53750000000002
42
0.41421356237307422
10
307.03750000000008
20
-116.03749999999999
10
307.03750000000002
20
-103.03750000000001
42
0.41421356237310542
10
306.53750000000002
20
-102.53749999999999
10
293.53750000000002
20
-102.53750000000002
42
0.41421356237307422
10
293.03750000000002
20
-103.03750000000001
10
293.03750000000002
20
-116.03749999999999
42
0.4142135623730846
10
293.53750000000002
20
-116.53750000000001
0
LWPOLYLINE
5
273
100
AcDbEntity
8
0
100
AcDbPolyline
90
8
70
1
43
0.0
10
312.08749999999998
20
-116.03749999999999
42
0.4142135623730846
10
312.58749999999998
20
-116.53749999999999
10
325.58749999999998
20
-116.53749999999991
42
0.4142135623730846
10
326.08749999999998
20
-116.03749999999999
10
326.08749999999998
20
-103.03750000000001
42
0.41421356237309503
10
325.58749999999998
20
-102.53749999999999
10
312.58749999999998
20
-102.53750000000002
42
0.41421356237307422
10
312.08749999999998
20
-103.03750000000001
0
LWPOLYLINE
5
274
100
AcDbEntity
8
0
100
AcDbPolyline
90
20
70
1
43
0.0
10
325.58749999999998
20
-23.931250000000134
42
0.28229128058124442
10
326.47894698910028
20
-23.384375000000254
42
-0.28229128058122605
10
327.37039397820007
20
-22.837500000000205
10
337.13749999999999
20
-22.837500000000205
42
0.41421356237307549
10
338.13749999999999
20
-21.837500000000205
10
338.13749999999999
20
-21.024999999999999
42
0.41421356237313273
10
337.13749999999999
20
-20.024999999999999
10
327.37039397820007
20
-20.025000000000595
42
-0.28229128058124431
10
326.47894698909971
20
-19.478125000000158
42
0.28229128058125902
10
325.58749999999998
20
-18.931250000000102
10
312.37039397820001
20
-18.931250000000052
42
0.28229128058122704
10
311.47894698909977
20
-19.478124999999892
42
-0.28229128058124381
10
310.58749999999998
20
-20.024999999999999
10
301.03750000000002
20
-20.024999999999999
42
0.41421356237309243
10
300.03750000000002
20
-21.024999999999999
10
300.03750000000002
20
-21.837500000000205
42
0.4142135623730937
10
301.03750000000002
20
-22.837500000000205
10
310.58749999999998
20
-22.837499999999643
42
-0.28229128058122283
10
311.47894698910028
20
-23.384374999999984
42
0.28229128058125919
10
312.37039397820001
20
-23.931250000000102
0
LWPOLYLINE
5
275
100
AcDbEntity
8
0
100
AcDbPolyline
90
8
70
1
43
0.0
10
344.63749999999999
20
-59.387499999999996
42
0.41421356237312623
10
345.13749999999987
20
-58.88750000000001
10
345.13750000000005
20
-45.887500000000003
42
0.41421356237311063
10
344.63749999999999
20
-45.387500000000003
10
331.63749999999999
20
-45.38750000000001
42
0.41421356237312623
10
331.13750000000005
20
-45.887500000000003
10
331.13749999999993
20
-58.88750000000001
42
0.41421356237308982
10
331.63749999999999
20
-59.387500000000003
0
LWPOLYLINE
5
276
100
AcDbEntity
8
0
100
AcDbPolyline
90
8
70
1
43
0.0
10
306.53750000000002
20
-59.38750000000006
42
0.41421356237317308
10
307.03750000000008
20
-58.88750000000001
10
307.03750000000002
20
-45.887500000000003
42
0.41421356237310025
10
306.53750000000002
20
-45.387500000000003
10
293.53750000000002
20
-45.38750000000006
42
0.41421356237307944
10
293.03750000000002
20
-45.887500000000003
10
293.03750000000008
20
-58.88750000000001
42
0.41421356237310025
10
293.53750000000002
20
-59.387500000000003
0
LWPOLYLINE
5
277
100
AcDbEntity
8
0
100
AcDbPolyline
90
8
70
1
43
0.0
10
325.58749999999998
20
-40.337500000000006
42
0.41421356237307944
10
326.08749999999986
20
-39.837499999999999
10
326.08749999999998
20
-26.837499999999999
42
0.41421356237311063
10
325.58749999999998
20
-26.337499999999999
10
312.58749999999998
20
-26.337499999999952
42
0.41421356237306123
10
312.08749999999998
20
-26.837499999999999
10
312.08750000000003
20
-39.837499999999999
42
0.414213562373069
10
312.58749999999998
20
-40.337500000000006
0
LWPOLYLINE
5
278
100
AcDbEntity
8
0
100
AcDbPolyline
90
8
70
1
43
0.0
10
312.08749999999998
20
-96.987500000000011
42
0.41421356237310542
10
312.58749999999998
20
-97.487500000000026
10
325.58749999999998
20
-97.487499999999997
42
0.41421356237313667
10
326.08749999999998
20
-96.987500000000011
10
326.08749999999998
20
-83.987499999999997
42
0.41421356237310542
10
325.58749999999998
20
-83.487500000000011
10
312.58749999999998
20
-83.487500000000011
42
0.41421356237307422
10
312.08749999999998
20
-83.987499999999997
0
LWPOLYLINE
5
279
100
AcDbEntity
8
0
100
AcDbPolyline
90
8
70
1
43
0.0
10
344.63749999999999
20
-40.337500000000006
42
0.41421356237307944
10
345.13749999999987
20
-39.837499999999999
10
345.13750000000005
20
-26.837499999999999
42
0.41421356237311063
10
344.63749999999999
20
-26.337499999999999
10
331.63749999999999
20
-26.337499999999999
42
0.41421356237312623
10
331.13750000000005
20
-26.837499999999999
10
331.1375000000001
20
-39.837499999999999
42
0.41421356237308204
10
331.63749999999999
20
-40.337500000000006
0
LWPOLYLINE
5
280
100
AcDbEntity
8
0
100
AcDbPolyline
90
8
70
1
43
0.0
10
344.63749999999999
20
-116.53749999999991
42
0.4142135623730846
10
345.13749999999987
20
-116.03749999999999
10
345.13750000000005
20
-103.03750000000001
42
0.41421356237309503
10
344.63749999999999
20
-102.53749999999999
10
331.63749999999999
20
-102.53750000000012
42
0.41421356237315748
10
331.13750000000005
20
-103.03750000000001
10
331.13749999999993
20
-116.03749999999999
42
0.41421356237310542
10
331.63749999999999
20
-116.53750000000001
0
LWPOLYLINE
5
281
100
AcDbEntity
8
0
100
AcDbPolyline
90
8
70
1
43
0.0
10
325.58749999999998
20
-59.387499999999996
42
0.41421356237312623
10
326.08749999999986
20
-58.88750000000001
10
326.08749999999998
20
-45.887500000000003
42
0.41421356237311063
10
325.58749999999998
20
-45.387500000000003
10
312.58749999999998
20
-45.38750000000006
42
0.41421356237307944
10
312.08749999999998
20
-45.887500000000003
10
312.08750000000003
20
-58.88750000000001
42
0.41421356237310025
10
312.58749999999998
20
-59.387500000000003
0
LWPOLYLINE
5
282
100
AcDbEntity
8
0
100
AcDbPolyline
90
8
70
1
43
0.0
10
331.13749999999993
20
-16.024999999999999
42
0.41421356237311063
10
331.63749999999999
20
-16.524999999999928
10
344.63749999999999
20
-16.525000000000006
42
0.4142135623730846
10
345.13750000000005
20
-16.024999999999999
10
345.13750000000005
20
-3.0249999999999999
42
0.41421356237312007
10
344.63749999999999
20
-2.5250000000000199
10
331.63749999999999
20
-2.5249999999999972
42
0.41421356237308266
10
331.13750000000005
20
-3.0249999999999999
0
LWPOLYLINE
5
283
100
AcDbEntity
8
0
100
AcDbPolyline
90
20
70
1
43
0.0
10
36.857893978199499
20
-22.837500000000198
42
0.28229128058121006
10
35.966446989099737
20
-23.384375000000119
42
-0.28229128058120512
10
35.075000000000003
20
-23.931250000000102
10
21.857893978199499
20
-23.931250000000102
42
-0.28229128058121744
10
20.966446989099747
20
-23.38437500000008
42
0.2822912805811873
10
20.074999999999999
20
-22.837500000000205
10
3.5249999999999915
20
-22.837500000000205
42
-0.41421356237309537
10
2.5249999999999906
20
-21.837500000000205
10
2.5249999999999995
20
-21.024999999999999
42
-0.41421356237309209
10
3.5249999999999906
20
-20.024999999999999
10
20.074999999999999
20
-20.024999999999999
42
0.28229128058120501
10
20.966446989099794
20
-19.478125000000045
42
-0.28229128058119013
10
21.857893978199499
20
-18.931250000000102
10
35.075000000000003
20
-18.931250000000105
42
-0.28229128058118053
10
35.966446989099694
20
-19.478125000000002
42
0.28229128058121644
10
36.857893978199499
20
-20.024999999999999
10
53.625000000000007
20
-20.025000000000006
42
-0.41421356237309503
10
54.625
20
-21.024999999999999
10
54.625
20
-21.837500000000205
42
-0.41421356237309503
10
53.625000000000007
20
-22.837500000000205
0
LWPOLYLINE
5
284
100
AcDbEntity
8
0
100
AcDbPolyline
90
35
70
1
43
0.0
10
278.46249999999998
20
-46.474499999999907
10
279.34375
20
-46.474499999999921
42
-0.41421356237310025
10
279.84375
20
-46.9744999999999
10
279.84375000000006
20
-52.974500000000006
42
-0.41421356237307944
10
279.34375
20
-53.474499999999956
10
278.46249999999998
20
-53.474500000000006
10
278.46249999999998
20
-54.912500000000009
10
280.34375
20
-54.912500000000065
42
-0.41421356237312101
10
280.84375
20
-55.412500000000009
10
280.84375000000006
20
-68.412499999999994
42
-0.4142135623730846
10
280.34375
20
-68.912500000000023
10
279.75675000000001
20
-68.912499999999994
10
279.7567499999999
20
-76.9375
42
-0.41421356237319906
10
279.25675000000001
20
-77.4375
10
271.31875000000002
20
-77.4375
10
271.31875000000002
20
-77.9375
42
-0.4142135623730222
10
270.81875000000002
20
-78.4375
10
245.91250000000002
20
-78.437499999999986
42
-0.41421356237310025
10
245.41250000000005
20
-77.9375
10
245.41249999999997
20
-64.9375
42
-0.41421356237307944
10
245.91250000000002
20
-64.437499999999972
10
248.88075000000001
20
-64.4375
10
248.88074999999998
20
-62.9375
42
-0.4142135623730846
10
249.38075000000001
20
-62.437499999999972
10
255.38075000000003
20
-62.437500000000057
42
-0.41421356237312101
10
255.88075000000001
20
-62.9375
10
255.88075000000003
20
-64.4375
10
266.84375
20
-64.4375
10
266.84375
20
-59.387500000000003
10
264.96249999999998
20
-59.387500000000003
42
-0.41421356237313145
10
264.46249999999998
20
-58.88750000000001
10
264.46249999999998
20
-45.887500000000003
42
-0.41421356237307422
10
264.96249999999998
20
-45.387500000000003
10
277.96249999999998
20
-45.387500000000017
42
-0.41421356237312101
10
278.46250000000003
20
-45.887500000000003
0
LWPOLYLINE
5
285
100
AcDbEntity
8
0
100
AcDbPolyline
90
8
70
1
43
0.0
10
68.912499999999994
20
-103.03750000000001
10
68.912500000000009
20
-116.03749999999999
42
-0.41421356237307422
10
68.412499999999994
20
-116.53750000000001
10
55.412500000000009
20
-116.53749999999999
42
-0.41421356237310025
10
54.912500000000009
20
-116.03749999999999
10
54.912500000000001
20
-103.03750000000001
42
-0.41421356237309503
10
55.412500000000009
20
-102.53749999999999
10
68.412499999999994
20
-102.53749999999999
42
-0.41421356237311585
0
LWPOLYLINE
5
286
100
AcDbEntity
8
0
100
AcDbPolyline
90
8
70
1
43
0.0
10
7.2874999999999996
20
-116.03749999999999
10
7.2874999999999961
20
-103.03750000000001
42
-0.4142135623730937
10
7.7875000000000005
20
-102.53749999999999
10
20.787500000000001
20
-102.53749999999999
42
-0.41421356237311585
10
21.287500000000001
20
-103.03750000000001
10
21.287500000000005
20
-116.03749999999999
42
-0.41421356237307161
10
20.787500000000001
20
-116.53750000000001
10
7.7875000000000005
20
-116.53750000000001
42
-0.41421356237307422
0
LWPOLYLINE
5
287
100
AcDbEntity
8
0
100
AcDbPolyline
90
8
70
1
43
0.0
10
98.275000000000006
20
-2.5249999999999999
10
111.27500000000001
20
-2.5249999999999941
42
-0.41421356237309437
10
111.77500000000002
20
-3.0249999999999999
10
111.77500000000002
20
-16.024999999999999
42
-0.41421356237309243
10
111.27500000000001
20
-16.525000000000002
10
98.275000000000006
20
-16.525000000000009
42
-0.41421356237309631
10
97.775000000000006
20
-16.024999999999999
10
97.775000000000006
20
-3.0249999999999999
42
-0.41421356237309503
0
LWPOLYLINE
5
288
100
AcDbEntity
8
0
100
AcDbPolyline
90
8
70
1
43
0.0
10
250.67500000000001
20
-2.5249999999999999
10
263.67500000000001
20
-2.5249999999999995
42
-0.41421356237313273
10
264.17500000000007
20
-3.0249999999999999
10
264.17500000000007
20
-16.024999999999999
42
-0.41421356237307549
10
263.67500000000001
20
-16.525000000000002
10
250.67500000000001
20
-16.524999999999984
42
-0.41421356237312362
10
250.17500000000001
20
-16.024999999999999
10
250.17500000000001
20
-3.0249999999999999
42
-0.41421356237309503
0
LWPOLYLINE
5
289
100
AcDbEntity
8
0
100
AcDbPolyline
90
8
70
1
43
0.0
10
92.724999999999994
20
-3.0249999999999999
10
92.725000000000009
20
-16.024999999999999
42
-0.41421356237309243
10
92.224999999999994
20
-16.525000000000002
10
79.224999999999994
20
-16.525000000000002
42
-0.41421356237309764
10
78.724999999999994
20
-16.024999999999999
10
78.724999999999994
20
-3.0249999999999999
42
-0.41421356237309664
10
79.224999999999994
20
-2.5249999999999999
10
92.224999999999994
20
-2.5250000000000106
42
-0.41421356237309503
0
LWPOLYLINE
5
290
100
AcDbEntity
8
0
100
AcDbPolyline
90
8
70
1
43
0.0
10
245.12500000000003
20
-3.0249999999999999
10
245.12500000000006
20
-16.024999999999999
42
-0.41421356237307549
10
244.62500000000003
20
-16.525000000000002
10
231.625
20
-16.524999999999984
42
-0.41421356237312362
10
231.125
20
-16.024999999999999
10
231.125
20
-3.0249999999999999
42
-0.41421356237304624
10
231.625
20
-2.5249999999999999
10
244.62500000000003
20
-2.5249999999999928
42
-0.41421356237309503
0
LWPOLYLINE
5
291
100
AcDbEntity
8
0
100
AcDbPolyline
90
7
70
1
43
0.0
10
164.95000000000002
20
-2.5249999999999999
10
178.44999999999999
20
-2.5249999999999999
10
178.45000000000002
20
-16.024999999999999
42
-0.41421356237307549
10
177.94999999999999
20
-16.525000000000002
10
164.95000000000002
20
-16.525000000000002
42
-0.41421356237313406
10
164.44999999999999
20
-16.024999999999999
10
164.44999999999996
20
-3.0249999999999999
42
-0.41421356237307749
0
LWPOLYLINE
5
292
100
AcDbEntity
8
0
100
AcDbPolyline
90
8
70
1
43
0.0
10
5.40625
20
-64.4375
42
0.4142135623730957
10
4.9062500000000009
20
-64.9375
10
4.90625
20
-77.9375
42
0.4142135623730937
10
5.4062499999999991
20
-78.4375
10
23.168749999999999
20
-78.4375
42
0.41421356237309503
10
23.668749999999999
20
-77.9375
10
23.668749999999999
20
-64.9375
42
0.41421356237309764
10
23.168749999999999
20
-64.4375
0
LWPOLYLINE
5
293
100
AcDbEntity
8
0
100
AcDbPolyline
90
8
70
1
43
0.0
10
197.50000000000003
20
-3.0249999999999999
42
0.41421356237310153
10
197.00000000000003
20
-2.5249999999999817
10
184.00000000000003
20
-2.5249999999999999
42
0.41421356237307749
10
183.5
20
-3.0249999999999999
10
183.5
20
-16.024999999999999
42
0.41421356237313406
10
184.00000000000003
20
-16.524999999999999
10
197.00000000000003
20
-16.525000000000002
42
0.41421356237302348
10
197.5
20
-16.024999999999999
0
LWPOLYLINE
5
294
100
AcDbEntity
8
0
100
AcDbPolyline
90
8
70
1
43
0.0
10
145.90000000000001
20
-2.5249999999999999
42
0.41421356237307422
10
145.40000000000001
20
-3.0249999999999999
10
145.40000000000001
20
-16.024999999999999
42
0.41421356237307549
10
145.90000000000001
20
-16.524999999999999
10
158.90000000000001
20
-16.525000000000002
42
0.41421356237309243
10
159.40000000000001
20
-16.024999999999999
10
159.40000000000001
20
-3.0249999999999999
42
0.41421356237309437
10
158.90000000000001
20
-2.5249999999999901
0
LWPOLYLINE
5
295
100
AcDbEntity
8
0
100
AcDbPolyline
90
8
70
1
43
0.0
10
2.5249999999999999
20
-16.024999999999999
10
2.5249999999999999
20
-3.0249999999999999
42
-0.41421356237309437
10
3.0249999999999999
20
-2.5249999999999999
10
16.024999999999999
20
-2.5249999999999999
42
-0.4142135623730947
10
16.525000000000002
20
-3.0249999999999999
10
16.525000000000002
20
-16.024999999999999
42
-0.41421356237309243
10
16.024999999999999
20
-16.525000000000002
10
3.0249999999999999
20
-16.525000000000002
42
-0.4142135623730947
0
LWPOLYLINE
5
296
100
AcDbEntity
8
0
100
AcDbPolyline
90
8
70
1
43
0.0
10
41.125
20
-2.5249999999999999
42
0.41421356237309404
10
40.625
20
-3.0249999999999999
10
40.625
20
-16.024999999999999
42
0.41421356237309503
10
41.125
20
-16.524999999999999
10
54.125000000000007
20
-16.525000000000002
42
0.4142135623730937
10
54.625
20
-16.024999999999999
10
54.625
20
-3.0249999999999999
42
0.41421356237309437
10
54.125000000000007
20
-2.5249999999999999
0
LWPOLYLINE
5
297
100
AcDbEntity
8
0
100
AcDbPolyline
90
8
70
1
43
0.0
10
3.0249999999999999
20
-26.337499999999999
10
16.024999999999999
20
-26.337499999999999
42
-0.41421356237309503
10
16.525000000000002
20
-26.837499999999999
10
16.525000000000002
20
-39.837499999999999
42
-0.41421356237310025
10
16.024999999999999
20
-40.337500000000006
10
3.0249999999999999
20
-40.337500000000006
42
-0.41421356237308005
10
2.5249999999999999
20
-39.837499999999999
10
2.5250000000000004
20
-26.837499999999999
42
-0.4142135623730957
0
LWPOLYLINE
5
298
100
AcDbEntity
8
0
100
AcDbPolyline
90
8
70
1
43
0.0
10
7.7875000000000005
20
-45.387500000000003
42
0.41421356237309437
10
7.2875000000000032
20
-45.887500000000003
10
7.2874999999999996
20
-58.88750000000001
42
0.4142135623730937
10
7.7875000000000005
20
-59.387500000000003
10
20.787500000000001
20
-59.387500000000003
42
0.41421356237309503
10
21.287500000000001
20
-58.88750000000001
10
21.287500000000001
20
-45.887500000000003
42
0.41421356237309503
10
20.787500000000001
20
-45.387500000000003
0
LWPOLYLINE
5
299
100
AcDbEntity
8
0
100
AcDbPolyline
90
8
70
1
43
0.0
10
59.675000000000004
20
-16.024999999999999
10
59.675000000000004
20
-3.0249999999999999
42
-0.41421356237309664
10
60.174999999999997
20
-2.5249999999999999
10
73.174999999999997
20
-2.525000000000003
42
-0.41421356237309437
10
73.674999999999997
20
-3.0249999999999999
10
73.674999999999997
20
-16.024999999999999
42
-0.4142135623730937
10
73.174999999999997
20
-16.525000000000002
10
60.174999999999997
20
-16.525000000000002
42
-0.41421356237309764
0
LWPOLYLINE
5
300
100
AcDbEntity
8
0
100
AcDbPolyline
90
8
70
1
43
0.0
10
217.33750000000001
20
-102.53749999999999
42
0.41421356237310542
10
216.83750000000003
20
-103.03750000000001
10
216.83750000000001
20
-116.03749999999999
42
0.4142135623730846
10
217.33750000000001
20
-116.53750000000001
10
230.33750000000001
20
-116.53750000000001
42
0.41421356237309503
10
230.83750000000003
20
-116.03749999999999
10
230.83750000000003
20
-103.03750000000001
42
0.41421356237313667
10
230.33750000000001
20
-102.53749999999999
0
LWPOLYLINE
5
301
100
AcDbEntity
8
0
100
AcDbPolyline
90
8
70
1
43
0.0
10
278.46250000000003
20
-103.03750000000001
42
0.41421356237310542
10
277.96249999999998
20
-102.53749999999998
10
264.96249999999998
20
-102.53749999999999
42
0.41421356237313667
10
264.46249999999998
20
-103.03750000000001
10
264.46249999999998
20
-116.03749999999999
42
0.41421356237309503
10
264.96249999999998
20
-116.53750000000001
10
277.96249999999998
20
-116.53750000000001
42
0.4142135623730846
10
278.46249999999998
20
-116.03749999999999
0
LWPOLYLINE
5
302
100
AcDbEntity
8
0
100
AcDbPolyline
90
8
70
1
43
0.0
10
126.85000000000001
20
-2.5249999999999999
42
0.41421356237307422
10
126.34999999999999
20
-3.0249999999999999
10
126.34999999999999
20
-16.024999999999999
42
0.41421356237307549
10
126.85000000000001
20
-16.524999999999999
10
139.84999999999999
20
-16.525000000000002
42
0.41421356237309243
10
140.34999999999999
20
-16.024999999999999
10
140.34999999999999
20
-3.0249999999999999
42
0.41421356237309437
10
139.84999999999999
20
-2.5249999999999901
0
LWPOLYLINE
5
303
100
AcDbEntity
8
0
100
AcDbPolyline
90
8
70
1
43
0.0
10
226.07500000000002
20
-3.0249999999999999
42
0.41421356237313273
10
225.57500000000002
20
-2.5249999999999995
10
212.57499999999999
20
-2.5249999999999999
42
0.41421356237304624
10
212.07499999999999
20
-3.0249999999999999
10
212.07499999999999
20
-16.024999999999999
42
0.41421356237312362
10
212.57499999999999
20
-16.524999999999999
10
225.57500000000002
20
-16.525000000000002
42
0.41421356237307549
10
226.07500000000002
20
-16.024999999999999
0
LWPOLYLINE
5
304
100
AcDbEntity
8
0
100
AcDbPolyline
90
8
70
1
43
0.0
10
44.600000000000001
20
-59.387500000000003
42
0.41421356237309503
10
45.099999999999994
20
-58.88750000000001
10
45.099999999999994
20
-45.887500000000003
42
0.41421356237309503
10
44.600000000000001
20
-45.387500000000003
10
31.600000000000001
20
-45.387500000000003
42
0.41421356237309503
10
31.100000000000001
20
-45.887500000000003
10
31.100000000000001
20
-58.88750000000001
42
0.41421356237309503
10
31.600000000000001
20
-59.387500000000003
0
LWPOLYLINE
5
305
100
AcDbEntity
8
0
100
AcDbPolyline
90
8
70
1
43
0.0
10
106.51250000000002
20
-78.437499999999986
42
0.4142135623730846
10
107.01249999999999
20
-77.9375
10
107.01250000000002
20
-64.9375
42
0.41421356237310025
10
106.51250000000002
20
-64.4375
10
93.512500000000003
20
-64.437500000000028
42
0.41421356237310025
10
93.012500000000017
20
-64.9375
10
93.012499999999989
20
-77.9375
42
0.41421356237309503
10
93.512500000000003
20
-78.4375
0
LWPOLYLINE
5
306
100
AcDbEntity
8
0
100
AcDbPolyline
90
8
70
1
43
0.0
10
173.1875
20
-97.487499999999997
42
0.41421356237307422
10
173.6875
20
-96.987500000000011
10
173.68750000000003
20
-83.987499999999997
42
0.41421356237310542
10
173.1875
20
-83.487500000000011
10
160.1875
20
-83.487499999999983
42
0.41421356237309503
10
159.6875
20
-83.987499999999997
10
159.6875
20
-96.987500000000011
42
0.41421356237309503
10
160.1875
20
-97.487500000000011
0
LWPOLYLINE
5
307
100
AcDbEntity
8
0
100
AcDbPolyline
90
8
70
1
43
0.0
10
101.75
20
-59.387499999999989
42
0.4142135623730846
10
102.24999999999997
20
-58.88750000000001
10
102.25000000000001
20
-45.887500000000003
42
0.41421356237309503
10
101.75
20
-45.387500000000003
10
88.75
20
-45.387500000000017
42
0.4142135623730846
10
88.250000000000014
20
-45.887500000000003
10
88.25
20
-58.88750000000001
42
0.41421356237309503
10
88.75
20
-59.387500000000003
0
LWPOLYLINE
5
308
100
AcDbEntity
8
0
100
AcDbPolyline
90
8
70
1
43
0.0
10
116.03749999999999
20
-97.487500000000026
42
0.41421356237309503
10
116.53750000000002
20
-96.987500000000011
10
116.53750000000002
20
-83.987499999999997
42
0.41421356237309503
10
116.03749999999999
20
-83.487500000000011
10
103.03750000000001
20
-83.487499999999983
42
0.41421356237309503
10
102.53749999999999
20
-83.987499999999997
10
102.53749999999999
20
-96.987500000000011
42
0.41421356237309503
10
103.03750000000001
20
-97.487500000000011
0
LWPOLYLINE
5
309
100
AcDbEntity
8
0
100
AcDbPolyline
90
8
70
1
43
0.0
10
182.71250000000003
20
-78.437499999999957
42
0.41421356237307944
10
183.21250000000006
20
-77.9375
10
183.21249999999998
20
-64.9375
42
0.41421356237310025
10
182.71250000000003
20
-64.4375
10
169.71250000000001
20
-64.437499999999972
42
0.41421356237307944
10
169.21250000000001
20
-64.9375
10
169.21250000000003
20
-77.9375
42
0.41421356237312101
10
169.71250000000001
20
-78.4375
0
LWPOLYLINE
5
310
100
AcDbEntity
8
0
100
AcDbPolyline
90
8
70
1
43
0.0
10
254.15000000000003
20
-59.387500000000045
42
0.4142135623730846
10
254.65000000000006
20
-58.88750000000001
10
254.65000000000001
20
-45.887500000000003
42
0.41421356237312101
10
254.15000000000003
20
-45.387500000000003
10
241.15000000000003
20
-45.38750000000006
42
0.41421356237307944
10
240.65000000000001
20
-45.887500000000003
10
240.65000000000003
20
-58.88750000000001
42
0.41421356237310025
10
241.15000000000003
20
-59.387500000000003
0
LWPOLYLINE
5
311
100
AcDbEntity
8
0
100
AcDbPolyline
90
8
70
1
43
0.0
10
87.46250000000002
20
-78.437499999999986
42
0.41421356237310025
10
87.962500000000006
20
-77.9375
10
87.962500000000034
20
-64.9375
42
0.41421356237309503
10
87.46250000000002
20
-64.4375
10
74.462500000000006
20
-64.437500000000014
42
0.41421356237307422
10
73.962500000000006
20
-64.9375
10
73.962500000000006
20
-77.9375
42
0.41421356237309503
10
74.462500000000006
20
-78.4375
0
LWPOLYLINE
5
312
100
AcDbEntity
8
0
100
AcDbPolyline
90
8
70
1
43
0.0
10
83.987499999999997
20
-83.487499999999983
42
0.41421356237309503
10
83.487499999999983
20
-83.987499999999997
10
83.487500000000011
20
-96.987500000000011
42
0.41421356237313667
10
83.987499999999997
20
-97.487500000000011
10
96.987500000000011
20
-97.487500000000011
42
0.41421356237309503
10
97.487500000000011
20
-96.987500000000011
10
97.487500000000011
20
-83.987499999999997
42
0.41421356237309503
10
96.987500000000011
20
-83.487500000000011
0
LWPOLYLINE
5
313
100
AcDbEntity
8
0
100
AcDbPolyline
90
8
70
1
43
0.0
10
239.86250000000001
20
-78.437500000000028
42
0.4142135623730846
10
240.36250000000007
20
-77.9375
10
240.36249999999998
20
-64.9375
42
0.41421356237312101
10
239.86250000000001
20
-64.4375
10
226.86250000000001
20
-64.437500000000057
42
0.4142135623730846
10
226.36250000000004
20
-64.9375
10
226.36250000000004
20
-77.9375
42
0.41421356237310025
10
226.86250000000001
20
-78.4375
0
LWPOLYLINE
5
314
100
AcDbEntity
8
0
100
AcDbPolyline
90
8
70
1
43
0.0
10
58.88750000000001
20
-97.487500000000011
42
0.41421356237309503
10
59.387500000000017
20
-96.987500000000011
10
59.387499999999989
20
-83.987499999999997
42
0.4142135623730846
10
58.88750000000001
20
-83.487500000000011
10
45.887500000000003
20
-83.487499999999983
42
0.41421356237309503
10
45.387500000000003
20
-83.987499999999997
10
45.387500000000017
20
-96.987500000000011
42
0.4142135623730846
10
45.887500000000003
20
-97.487500000000011
0
LWPOLYLINE
5
315
100
AcDbEntity
8
0
100
AcDbPolyline
90
8
70
1
43
0.0
10
68.412499999999994
20
-78.4375
42
0.41421356237309503
10
68.912499999999994
20
-77.9375
10
68.912499999999994
20
-64.9375
42
0.41421356237309503
10
68.412499999999994
20
-64.4375
10
55.412500000000009
20
-64.4375
42
0.41421356237309503
10
54.912500000000009
20
-64.9375
10
54.912500000000009
20
-77.9375
42
0.41421356237309503
10
55.412500000000009
20
-78.4375
0
LWPOLYLINE
5
316
100
AcDbEntity
8
0
100
AcDbPolyline
90
8
70
1
43
0.0
10
220.8125
20
-78.437500000000028
42
0.4142135623730846
10
221.31250000000006
20
-77.9375
10
221.31249999999997
20
-64.9375
42
0.41421356237312101
10
220.8125
20
-64.4375
10
207.8125
20
-64.437500000000057
42
0.4142135623730846
10
207.31250000000003
20
-64.9375
10
207.31250000000003
20
-77.9375
42
0.41421356237310025
10
207.8125
20
-78.4375
0
LWPOLYLINE
5
317
100
AcDbEntity
8
0
100
AcDbPolyline
90
8
70
1
43
0.0
10
154.13749999999999
20
-97.487500000000011
42
0.41421356237309503
10
154.63750000000002
20
-96.987500000000011
10
154.63750000000002
20
-83.987499999999997
42
0.41421356237309503
10
154.13749999999999
20
-83.487500000000011
10
141.13749999999999
20
-83.487499999999983
42
0.41421356237309503
10
140.63749999999999
20
-83.987499999999997
10
140.63749999999999
20
-96.987500000000011
42
0.41421356237309503
10
141.13749999999999
20
-97.487500000000011
0
LWPOLYLINE
5
318
100
AcDbEntity
8
0
100
AcDbPolyline
90
8
70
1
43
0.0
10
212.57499999999999
20
-26.337499999999952
42
0.41421356237306123
10
212.07499999999996
20
-26.837499999999999
10
212.07500000000005
20
-39.837499999999999
42
0.414213562373069
10
212.57499999999999
20
-40.337500000000006
10
225.57500000000002
20
-40.33749999999997
42
0.41421356237311585
10
226.07500000000002
20
-39.837499999999999
10
226.07499999999999
20
-26.837499999999999
42
0.41421356237311846
10
225.57500000000002
20
-26.337499999999999
0
LWPOLYLINE
5
319
100
AcDbEntity
8
0
100
AcDbPolyline
90
8
70
1
43
0.0
10
187.47499999999999
20
-40.33749999999997
42
0.41421356237311585
10
187.97499999999999
20
-39.837499999999999
10
187.97499999999997
20
-26.837499999999999
42
0.41421356237311846
10
187.47499999999999
20
-26.337499999999999
10
174.47500000000002
20
-26.33749999999997
42
0.41421356237308204
10
173.97500000000002
20
-26.837499999999999
10
173.97500000000005
20
-39.837499999999999
42
0.41421356237308982
10
174.47500000000002
20
-40.337500000000006
0
LWPOLYLINE
5
320
100
AcDbEntity
8
0
100
AcDbPolyline
90
8
70
1
43
0.0
10
197.00000000000003
20
-59.38750000000006
42
0.41421356237317308
10
197.50000000000006
20
-58.88750000000001
10
197.5
20
-45.887500000000003
42
0.41421356237310025
10
197.00000000000003
20
-45.387500000000003
10
184.00000000000003
20
-45.387499999999967
42
0.4142135623730846
10
183.5
20
-45.887500000000003
10
183.50000000000006
20
-58.88750000000001
42
0.41421356237312101
10
184.00000000000003
20
-59.387500000000003
0
LWPOLYLINE
5
321
100
AcDbEntity
8
0
100
AcDbPolyline
90
8
70
1
43
0.0
10
154.92500000000001
20
-39.837499999999999
42
0.414213562373069
10
155.42500000000001
20
-40.337500000000034
10
168.42500000000001
20
-40.337499999999984
42
0.41421356237307944
10
168.92500000000001
20
-39.837499999999999
10
168.92500000000001
20
-26.837499999999999
42
0.41421356237310025
10
168.42500000000001
20
-26.337499999999999
10
155.42500000000001
20
-26.337500000000009
42
0.41421356237309764
10
154.92500000000001
20
-26.837499999999999
0
LWPOLYLINE
5
322
100
AcDbEntity
8
0
100
AcDbPolyline
90
8
70
1
43
0.0
10
216.05000000000004
20
-59.38750000000006
42
0.41421356237317308
10
216.55000000000007
20
-58.88750000000001
10
216.55000000000001
20
-45.887500000000003
42
0.41421356237310025
10
216.05000000000004
20
-45.387500000000003
10
203.05000000000004
20
-45.387499999999967
42
0.4142135623730846
10
202.55000000000001
20
-45.887500000000003
10
202.55000000000007
20
-58.88750000000001
42
0.41421356237312101
10
203.05000000000004
20
-59.387500000000003
0
LWPOLYLINE
5
323
100
AcDbEntity
8
0
100
AcDbPolyline
90
8
70
1
43
0.0
10
54.125000000000007
20
-40.337500000000006
42
0.41421356237309243
10
54.625000000000014
20
-39.837499999999999
10
54.625
20
-26.837499999999999
42
0.41421356237309503
10
54.125000000000007
20
-26.337499999999999
10
41.125
20
-26.337499999999999
42
0.41421356237309503
10
40.625
20
-26.837499999999999
10
40.625000000000014
20
-39.837499999999999
42
0.41421356237309243
10
41.125
20
-40.337500000000006
0
LWPOLYLINE
5
324
100
AcDbEntity
8
0
100
AcDbPolyline
90
8
70
1
43
0.0
10
177.94999999999999
20
-59.387500000000045
42
0.4142135623730846
10
178.45000000000002
20
-58.88750000000001
10
178.44999999999996
20
-45.887500000000003
42
0.41421356237312101
10
177.94999999999999
20
-45.387500000000003
10
164.95000000000002
20
-45.387499999999967
42
0.4142135623730846
10
164.44999999999999
20
-45.887500000000003
10
164.45000000000005
20
-58.88750000000001
42
0.41421356237312101
10
164.95000000000002
20
-59.387500000000003
0
LWPOLYLINE
5
325
100
AcDbEntity
8
0
100
AcDbPolyline
90
8
70
1
43
0.0
10
35.075000000000003
20
-40.337499999999991
42
0.41421356237308982
10
35.574999999999996
20
-39.837499999999999
10
35.575000000000003
20
-26.837499999999999
42
0.41421356237309503
10
35.075000000000003
20
-26.337499999999999
10
22.074999999999999
20
-26.337499999999999
42
0.41421356237309503
10
21.575000000000003
20
-26.837499999999999
10
21.57500000000001
20
-39.837499999999999
42
0.41421356237310025
10
22.074999999999999
20
-40.337500000000006
0
LWPOLYLINE
5
326
100
AcDbEntity
8
0
100
AcDbPolyline
90
8
70
1
43
0.0
10
216.83750000000001
20
-96.987500000000011
42
0.41421356237310542
10
217.33750000000001
20
-97.487500000000026
10
230.33750000000001
20
-97.487499999999983
42
0.41421356237311585
10
230.83750000000003
20
-96.987500000000011
10
230.83749999999998
20
-83.987499999999997
42
0.41421356237311585
10
230.33750000000001
20
-83.487500000000011
10
217.33750000000001
20
-83.487500000000011
42
0.41421356237307422
10
216.83750000000003
20
-83.987499999999997
0
LWPOLYLINE
5
327
100
AcDbEntity
8
0
100
AcDbPolyline
90
8
70
1
43
0.0
10
120.8
20
-59.387499999999996
42
0.41421356237310025
10
121.29999999999998
20
-58.88750000000001
10
121.30000000000003
20
-45.887500000000003
42
0.41421356237309503
10
120.8
20
-45.387500000000003
10
107.80000000000001
20
-45.387500000000017
42
0.4142135623730846
10
107.30000000000001
20
-45.887500000000003
10
107.30000000000001
20
-58.88750000000001
42
0.41421356237309503
10
107.80000000000001
20
-59.387500000000003
0
LWPOLYLINE
5
328
100
AcDbEntity
8
0
100
AcDbPolyline
90
8
70
1
43
0.0
10
211.28749999999999
20
-97.487499999999983
42
0.41421356237311585
10
211.78750000000002
20
-96.987500000000011
10
211.78749999999997
20
-83.987499999999997
42
0.41421356237311585
10
211.28749999999999
20
-83.487500000000011
10
198.28749999999999
20
-83.487500000000011
42
0.41421356237307422
10
197.78750000000002
20
-83.987499999999997
10
197.78749999999999
20
-96.987500000000011
42
0.41421356237310542
10
198.28749999999999
20
-97.487500000000011
0
LWPOLYLINE
5
329
100
AcDbEntity
8
0
100
AcDbPolyline
90
8
70
1
43
0.0
10
158.90000000000001
20
-59.387499999999989
42
0.4142135623730846
10
159.39999999999998
20
-58.88750000000001
10
159.40000000000001
20
-45.887500000000003
42
0.41421356237309503
10
158.90000000000001
20
-45.387500000000003
10
145.90000000000001
20
-45.38750000000001
42
0.41421356237310025
10
145.40000000000001
20
-45.887500000000003
10
145.39999999999998
20
-58.88750000000001
42
0.41421356237309503
10
145.90000000000001
20
-59.387500000000003
0
LWPOLYLINE
5
330
100
AcDbEntity
8
0
100
AcDbPolyline
90
8
70
1
43
0.0
10
235.10000000000002
20
-59.387500000000045
42
0.4142135623730846
10
235.60000000000005
20
-58.88750000000001
10
235.59999999999999
20
-45.887500000000003
42
0.41421356237312101
10
235.10000000000002
20
-45.387500000000003
10
222.10000000000002
20
-45.38750000000006
42
0.41421356237307944
10
221.59999999999999
20
-45.887500000000003
10
221.60000000000002
20
-58.88750000000001
42
0.41421356237310025
10
222.10000000000002
20
-59.387500000000003
0
LWPOLYLINE
5
331
100
AcDbEntity
8
0
100
AcDbPolyline
90
8
70
1
43
0.0
10
49.362500000000004
20
-78.4375
42
0.41421356237309503
10
49.862499999999997
20
-77.9375
10
49.862499999999997
20
-64.9375
42
0.41421356237309503
10
49.362500000000004
20
-64.4375
10
36.362499999999997
20
-64.4375
42
0.41421356237309764
10
35.862499999999997
20
-64.9375
10
35.862500000000004
20
-77.9375
42
0.41421356237309503
10
36.362499999999997
20
-78.4375
0
LWPOLYLINE
5
332
100
AcDbEntity
8
0
100
AcDbPolyline
90
8
70
1
43
0.0
10
163.66250000000002
20
-78.437499999999957
42
0.41421356237307944
10
164.16250000000005
20
-77.9375
10
164.16249999999997
20
-64.9375
42
0.41421356237310025
10
163.66250000000002
20
-64.4375
10
150.66249999999999
20
-64.437500000000028
42
0.41421356237310025
10
150.16249999999999
20
-64.9375
10
150.16249999999999
20
-77.9375
42
0.41421356237309503
10
150.66249999999999
20
-78.4375
0
LWPOLYLINE
5
333
100
AcDbEntity
8
0
100
AcDbPolyline
90
8
70
1
43
0.0
10
111.27500000000001
20
-40.337499999999991
42
0.41421356237311324
10
111.77500000000002
20
-39.837499999999999
10
111.77500000000002
20
-26.837499999999999
42
0.41421356237309243
10
111.27500000000001
20
-26.337499999999999
10
98.275000000000006
20
-26.33750000000002
42
0.4142135623730846
10
97.77500000000002
20
-26.837499999999999
10
97.77500000000002
20
-39.837499999999999
42
0.41421356237312884
10
98.275000000000006
20
-40.337500000000006
0
LWPOLYLINE
5
334
100
AcDbEntity
8
0
100
AcDbPolyline
90
8
70
1
43
0.0
10
131.11250000000001
20
-77.9375
42
0.41421356237309503
10
131.61250000000001
20
-78.437500000000014
10
144.61250000000001
20
-78.437499999999986
42
0.41421356237310025
10
145.11250000000001
20
-77.9375
10
145.11250000000004
20
-64.9375
42
0.41421356237309503
10
144.61250000000001
20
-64.4375
10
131.61250000000001
20
-64.437500000000028
42
0.41421356237310025
10
131.11250000000001
20
-64.9375
0
LWPOLYLINE
5
335
100
AcDbEntity
8
0
100
AcDbPolyline
90
8
70
1
43
0.0
10
188.76249999999999
20
-64.437500000000057
42
0.4142135623730846
10
188.26249999999993
20
-64.9375
10
188.26250000000002
20
-77.9375
42
0.41421356237310025
10
188.76249999999999
20
-78.4375
10
201.76249999999999
20
-78.437500000000028
42
0.4142135623730846
10
202.26249999999999
20
-77.9375
10
202.26249999999996
20
-64.9375
42
0.41421356237312101
10
201.76249999999999
20
-64.4375
0
LWPOLYLINE
5
336
100
AcDbEntity
8
0
100
AcDbPolyline
90
8
70
1
43
0.0
10
135.08750000000001
20
-97.487500000000026
42
0.41421356237309503
10
135.58750000000003
20
-96.987500000000011
10
135.58750000000003
20
-83.987499999999997
42
0.41421356237309503
10
135.08750000000001
20
-83.487500000000011
10
122.08750000000002
20
-83.487499999999983
42
0.41421356237309503
10
121.58750000000001
20
-83.987499999999997
10
121.58750000000001
20
-96.987500000000011
42
0.41421356237309503
10
122.08750000000002
20
-97.487500000000011
0
LWPOLYLINE
5
337
100
AcDbEntity
8
0
100
AcDbPolyline
90
8
70
1
43
0.0
10
63.650000000000006
20
-59.387500000000003
42
0.41421356237309503
10
64.150000000000006
20
-58.88750000000001
10
64.150000000000006
20
-45.887500000000003
42
0.41421356237309503
10
63.650000000000006
20
-45.387500000000003
10
50.650000000000006
20
-45.387500000000003
42
0.41421356237309503
10
50.150000000000006
20
-45.887500000000003
10
50.150000000000006
20
-58.88750000000001
42
0.41421356237309503
10
50.650000000000006
20
-59.387500000000003
0
LWPOLYLINE
5
338
100
AcDbEntity
8
0
100
AcDbPolyline
90
8
70
1
43
0.0
10
125.5625
20
-78.437499999999986
42
0.41421356237310025
10
126.0625
20
-77.9375
10
126.06250000000003
20
-64.9375
42
0.41421356237309503
10
125.5625
20
-64.4375
10
112.56250000000001
20
-64.437500000000028
42
0.41421356237310025
10
112.0625
20
-64.9375
10
112.0625
20
-77.9375
42
0.41421356237309503
10
112.56250000000001
20
-78.4375
0
LWPOLYLINE
5
339
100
AcDbEntity
8
0
100
AcDbPolyline
90
8
70
1
43
0.0
10
92.224999999999994
20
-40.337499999999991
42
0.41421356237311324
10
92.725000000000009
20
-39.837499999999999
10
92.725000000000009
20
-26.837499999999999
42
0.41421356237309243
10
92.224999999999994
20
-26.337499999999999
10
79.224999999999994
20
-26.337500000000006
42
0.41421356237308204
10
78.724999999999994
20
-26.837499999999999
10
78.725000000000009
20
-39.837499999999999
42
0.41421356237309503
10
79.224999999999994
20
-40.337500000000006
0
LWPOLYLINE
5
340
100
AcDbEntity
8
0
100
AcDbPolyline
90
8
70
1
43
0.0
10
192.23750000000001
20
-97.487499999999997
42
0.41421356237307422
10
192.73750000000001
20
-96.987500000000011
10
192.73750000000004
20
-83.987499999999997
42
0.41421356237310542
10
192.23750000000001
20
-83.487500000000011
10
179.23750000000001
20
-83.487500000000026
42
0.41421356237311585
10
178.73750000000001
20
-83.987499999999997
10
178.73750000000004
20
-96.987500000000011
42
0.41421356237311585
10
179.23750000000001
20
-97.487500000000011
0
LWPOLYLINE
5
341
100
AcDbEntity
8
0
100
AcDbPolyline
90
8
70
1
43
0.0
10
77.9375
20
-97.487500000000011
42
0.41421356237309503
10
78.437500000000014
20
-96.987500000000011
10
78.437499999999986
20
-83.987499999999997
42
0.4142135623730846
10
77.9375
20
-83.487500000000011
10
64.9375
20
-83.487499999999983
42
0.41421356237310025
10
64.4375
20
-83.987499999999997
10
64.437500000000028
20
-96.987500000000011
42
0.41421356237310025
10
64.9375
20
-97.487500000000011
0
LWPOLYLINE
5
342
100
AcDbEntity
8
0
100
AcDbPolyline
90
8
70
1
43
0.0
10
82.700000000000017
20
-59.387499999999996
42
0.41421356237310025
10
83.200000000000003
20
-58.88750000000001
10
83.200000000000045
20
-45.887500000000003
42
0.41421356237309503
10
82.700000000000017
20
-45.387500000000003
10
69.700000000000003
20
-45.387500000000003
42
0.41421356237309503
10
69.200000000000003
20
-45.887500000000003
10
69.200000000000003
20
-58.88750000000001
42
0.41421356237309503
10
69.700000000000003
20
-59.387500000000003
0
LWPOLYLINE
5
343
100
AcDbEntity
8
0
100
AcDbPolyline
90
8
70
1
43
0.0
10
73.174999999999997
20
-40.337500000000006
42
0.41421356237309243
10
73.675000000000011
20
-39.837499999999999
10
73.674999999999997
20
-26.837499999999999
42
0.41421356237309503
10
73.174999999999997
20
-26.337499999999999
10
60.174999999999997
20
-26.337500000000006
42
0.41421356237308204
10
59.675000000000004
20
-26.837499999999999
10
59.675000000000018
20
-39.837499999999999
42
0.41421356237309503
10
60.174999999999997
20
-40.337500000000006
0
LWPOLYLINE
5
344
100
AcDbEntity
8
0
100
AcDbPolyline
90
8
70
1
43
0.0
10
130.32499999999999
20
-40.337499999999991
42
0.41421356237311324
10
130.82499999999999
20
-39.837499999999999
10
130.82499999999999
20
-26.837499999999999
42
0.41421356237309243
10
130.32499999999999
20
-26.337499999999999
10
117.32500000000002
20
-26.33750000000002
42
0.4142135623730846
10
116.82500000000002
20
-26.837499999999999
10
116.82500000000003
20
-39.837499999999999
42
0.41421356237312884
10
117.32500000000002
20
-40.337500000000006
0
LWPOLYLINE
5
345
100
AcDbEntity
8
0
100
AcDbPolyline
90
8
70
1
43
0.0
10
231.625
20
-26.337499999999952
42
0.41421356237306123
10
231.12499999999997
20
-26.837499999999999
10
231.12500000000006
20
-39.837499999999999
42
0.414213562373069
10
231.625
20
-40.337500000000006
10
244.62500000000003
20
-40.33749999999997
42
0.41421356237311585
10
245.12500000000003
20
-39.837499999999999
10
245.125
20
-26.837499999999999
42
0.41421356237311846
10
244.62500000000003
20
-26.337499999999999
0
LWPOLYLINE
5
346
100
AcDbEntity
8
0
100
AcDbPolyline
90
8
70
1
43
0.0
10
139.84999999999999
20
-59.387499999999989
42
0.4142135623730846
10
140.34999999999997
20
-58.88750000000001
10
140.34999999999999
20
-45.887500000000003
42
0.41421356237309503
10
139.84999999999999
20
-45.387500000000003
10
126.85000000000001
20
-45.38750000000001
42
0.41421356237310025
10
126.34999999999999
20
-45.887500000000003
10
126.34999999999998
20
-58.88750000000001
42
0.41421356237309503
10
126.85000000000001
20
-59.387500000000003
0
LWPOLYLINE
5
347
100
AcDbEntity
8
0
100
AcDbPolyline
90
8
70
1
43
0.0
10
193.52500000000003
20
-26.33749999999997
42
0.41421356237308204
10
193.02499999999998
20
-26.837499999999999
10
193.02500000000006
20
-39.837499999999999
42
0.41421356237308982
10
193.52500000000003
20
-40.337500000000006
10
206.52500000000003
20
-40.337499999999984
42
0.41421356237307944
10
207.02500000000001
20
-39.837499999999999
10
207.02500000000003
20
-26.837499999999999
42
0.41421356237310025
10
206.52500000000003
20
-26.337499999999999
0
LWPOLYLINE
5
348
100
AcDbEntity
8
0
100
AcDbPolyline
90
8
70
1
43
0.0
10
149.375
20
-40.337499999999991
42
0.41421356237311324
10
149.875
20
-39.837499999999999
10
149.875
20
-26.837499999999999
42
0.41421356237309243
10
149.375
20
-26.337499999999999
10
136.375
20
-26.337500000000009
42
0.41421356237309764
10
135.875
20
-26.837499999999999
10
135.875
20
-39.837499999999999
42
0.41421356237307944
10
136.375
20
-40.337500000000006
0
LWPOLYLINE
5
349
100
AcDbEntity
8
0
100
AcDbPolyline
90
8
70
1
43
0.0
10
149.875
20
-103.03750000000001
10
149.875
20
-116.03749999999999
42
-0.41421356237309503
10
149.375
20
-116.53750000000001
10
136.375
20
-116.53750000000001
42
-0.41421356237309503
10
135.875
20
-116.03749999999999
10
135.875
20
-103.03750000000001
42
-0.41421356237307422
10
136.375
20
-102.53749999999999
10
149.375
20
-102.53749999999999
42
-0.41421356237309503
0
LWPOLYLINE
5
350
100
AcDbEntity
8
0
100
AcDbPolyline
90
8
70
1
43
0.0
10
283.22500000000002
20
-3.0249999999999999
42
0.41421356237313273
10
282.72500000000002
20
-2.5249999999999995
10
269.72500000000002
20
-2.5249999999999999
42
0.41421356237304624
10
269.22500000000002
20
-3.0249999999999999
10
269.22500000000002
20
-16.024999999999999
42
0.41421356237312362
10
269.72500000000002
20
-16.524999999999999
10
282.72500000000002
20
-16.525000000000002
42
0.41421356237307549
10
283.22500000000002
20
-16.024999999999999
0
LWPOLYLINE
5
351
100
AcDbEntity
8
0
100
AcDbPolyline
90
8
70
1
43
0.0
10
26.265625000000004
20
-75.4375
10
26.265625000000004
20
-67.4375
42
-0.41421356237309503
10
27.265625
20
-66.4375
10
32.265625
20
-66.4375
42
-0.41421356237309503
10
33.265625
20
-67.4375
10
33.265625
20
-75.4375
42
-0.41421356237309503
10
32.265625
20
-76.4375
10
27.265625
20
-76.4375
42
-0.41421356237309503
0
LWPOLYLINE
5
352
100
AcDbEntity
8
0
100
AcDbPolyline
90
20
70
1
43
0.0
10
122.882541993964
20
-105.15625
10
130.8125
20
-105.15625000000001
42
-0.41421356237309503
10
132.3125
20
-106.65625
10
132.3125
20
-111.41875
42
-0.41421356237309503
10
130.8125
20
-112.91874999999999
10
119.13660066859002
20
-112.91875000000002
42
0.26794919243106236
10
117.8375625629136
20
-113.66874999999978
42
-0.5773502691896063
10
115.23948635156069
20
-113.6687500000002
42
0.26794919243115378
10
113.940448245884
20
-112.91875000000006
10
110.02704891447401
20
-112.91875000000002
42
0.1095178116832341
10
109.39312152186311
20
-113.05928831944526
10
107.85138539864731
20
-113.77821168055563
42
-0.10951781168328133
10
107.217458006036
20
-113.91875000000078
10
94.287499999999994
20
-113.91875000000098
42
-0.41421356237309503
10
92.787500000000009
20
-112.418750000001
10
92.787500000000009
20
-107.65625
42
-0.41421356237309503
10
94.287499999999994
20
-106.15625000000001
10
120.072951085526
20
-106.15625000000001
42
0.10951781168330355
10
120.70687847813714
20
-106.01571168055528
10
122.248614601353
20
-105.296788319445
42
-0.10951781168322122
0
LWPOLYLINE
5
353
100
AcDbEntity
8
0
100
AcDbPolyline
90
20
70
1
43
0.0
10
165.67704891447403
20
-106.15625000000001
10
191.46250000000003
20
-106.15625000000001
42
-0.41421356237309503
10
192.96250000000001
20
-107.65625
10
192.96250000000001
20
-112.41875
42
-0.41421356237309503
10
191.46250000000003
20
-113.91874999999999
10
178.532541993964
20
-113.91875000000078
42
-0.10951781168328571
10
177.8986146013527
20
-113.77821168055563
10
176.35687847813699
20
-113.059288319445
42
0.10951781168322731
10
175.72295108552601
20
-112.91875000000026
10
171.809551754116
20
-112.91875000000002
42
0.26794919243115384
10
170.51051364843914
20
-113.6687500000001
42
-0.57735026918958421
10
167.9124374370866
20
-113.66874999999966
42
0.26794919243106186
10
166.61339933140999
20
-112.91874999999989
10
154.9375
20
-112.91874999999999
42
-0.41421356237309503
10
153.43750000000003
20
-111.41875
10
153.43750000000003
20
-106.65625
42
-0.41421356237309503
10
154.9375
20
-105.15625000000001
10
162.867458006036
20
-105.15625000000041
42
-0.10951781168325256
10
163.50138539864679
20
-105.29678831944537
10
165.04312152186299
20
-106.015711680555
42
0.10951781168331033
0
LWPOLYLINE
5
354
100
AcDbEntity
8
0
100
AcDbPolyline
90
8
70
1
43
0.0
10
31.100000000000001
20
-116.03749999999999
10
31.099999999999998
20
-103.03750000000001
42
-0.41421356237309243
10
31.600000000000001
20
-102.53749999999999
10
44.600000000000001
20
-102.53750000000004
42
-0.4142135623730846
10
45.09999999999998
20
-103.03750000000001
10
45.100000000000023
20
-116.03749999999999
42
-0.41421356237309503
10
44.600000000000001
20
-116.53750000000002
10
31.600000000000001
20
-116.53749999999999
42
-0.41421356237309764
0
LWPOLYLINE
5
355
100
AcDbEntity
8
0
100
AcDbPolyline
90
8
70
1
43
0.0
10
254.15000000000003
20
-116.537499999993
10
241.15000000000003
20
-116.53749999999404
42
-0.4142135623730846
10
240.64999999999998
20
-116.03749999999401
10
240.64999999999907
20
-103.037499999994
42
-0.41421356237307422
10
241.14999999999901
20
-102.53749999999401
10
254.14999999999904
20
-102.537499999993
42
-0.41421356237313667
10
254.64999999999904
20
-103.037499999993
10
254.65000000000003
20
-116.03749999999302
42
-0.41421356237313667
0
LWPOLYLINE
5
356
100
AcDbEntity
8
0
100
AcDbPolyline
90
20
70
1
43
0.0
10
264.56644698909975
20
-19.478125000000091
42
0.28229128058122915
10
263.67500000000001
20
-18.931250000000105
10
250.45789397819902
20
-18.931250000000102
42
0.282291280581148
10
249.5664469890998
20
-19.478124999999977
42
-0.28229128058121755
10
248.67500000000004
20
-20.024999999999999
10
232.12500000000003
20
-20.024999999999999
42
0.41421356237307161
10
231.125
20
-21.024999999999999
10
231.125
20
-21.837500000000205
42
0.41421356237307294
10
232.12500000000003
20
-22.837500000000205
10
248.67500000000004
20
-22.837500000000624
42
-0.28229128058121578
10
249.5664469890994
20
-23.384375000000407
42
0.28229128058111996
10
250.45789397819902
20
-23.931250000000102
10
263.67500000000001
20
-23.931250000000102
42
0.28229128058123504
10
264.56644698909946
20
-23.384374999999835
42
-0.2822912805811007
10
265.45789397819902
20
-22.837500000000205
10
282.22500000000002
20
-22.837500000000205
42
0.41421356237309243
10
283.22500000000002
20
-21.837500000000205
10
283.22499999999997
20
-21.024999999999999
42
0.41421356237309631
10
282.22500000000002
20
-20.024999999999999
10
265.45789397819902
20
-20.024999999999615
42
-0.28229128058112996
0
LWPOLYLINE
5
357
100
AcDbEntity
8
0
100
AcDbPolyline
90
20
70
1
43
0.0
10
78.116446989099757
20
-23.384375000000077
42
0.28229128058122072
10
79.007893978199505
20
-23.931250000000102
10
92.225000000000023
20
-23.931250000000098
42
0.28229128058120317
10
93.116446989099799
20
-23.384375000000137
42
-0.28229128058119179
10
94.007893978199505
20
-22.837500000000205
10
110.77500000000001
20
-22.837500000000205
42
0.41421356237309631
10
111.77500000000002
20
-21.837500000000205
10
111.77499999999998
20
-21.024999999999999
42
0.4142135623730846
10
110.77500000000001
20
-20.024999999999999
10
94.007893978199505
20
-20.025000000000066
42
-0.28229128058121866
10
93.1164469890997
20
-19.478125000000006
42
0.28229128058117364
10
92.224999999999994
20
-18.931250000000102
10
79.007893978199505
20
-18.931250000000105
42
0.2822912805811999
10
78.116446989099742
20
-19.478125000000016
42
-0.28229128058120567
10
77.224999999999994
20
-20.024999999999999
10
60.674999999999997
20
-20.024999999999999
42
0.41421356237309503
10
59.675000000000004
20
-21.024999999999999
10
59.675000000000004
20
-21.837500000000205
42
0.41421356237309631
10
60.674999999999997
20
-22.837500000000205
10
77.224999999999994
20
-22.837500000000137
42
-0.28229128058118219
0
LWPOLYLINE
5
358
100
AcDbEntity
8
0
100
AcDbPolyline
90
20
70
1
43
0.0
10
207.4164469890998
20
-19.478125000000119
42
0.28229128058122649
10
206.52500000000003
20
-18.931250000000116
10
193.30789397820001
20
-18.931250000000102
42
0.28229128058123254
10
192.41644698909977
20
-19.47812499999997
42
-0.28229128058122022
10
191.52500000000001
20
-20.024999999999999
10
174.97499999999999
20
-20.024999999999999
42
0.41421356237307161
10
173.97500000000002
20
-21.024999999999999
10
173.97499999999997
20
-21.837500000000205
42
0.41421356237307294
10
174.97499999999999
20
-22.837500000000205
10
191.52500000000001
20
-22.837499999999714
42
-0.28229128058121838
10
192.41644698910019
20
-23.384375000000006
42
0.28229128058120934
10
193.30789397820001
20
-23.931250000000102
10
206.52500000000003
20
-23.931250000000102
42
0.28229128058125258
10
207.41644698910025
20
-23.384375000000233
42
-0.28229128058122077
10
208.30789397820001
20
-22.837500000000205
10
225.07499999999999
20
-22.837500000000205
42
0.41421356237309243
10
226.07500000000002
20
-21.837500000000205
10
226.07499999999993
20
-21.024999999999999
42
0.41421356237309631
10
225.07499999999999
20
-20.024999999999999
10
208.30789397820001
20
-20.025000000000478
42
-0.28229128058124092
0
LWPOLYLINE
5
359
100
AcDbEntity
8
0
100
AcDbPolyline
90
20
70
1
43
0.0
10
150.26644698909976
20
-19.478125000000123
42
0.28229128058120528
10
149.375
20
-18.931250000000105
10
136.15789397819901
20
-18.931250000000105
42
0.28229128058110481
10
135.26644698909979
20
-19.478124999999899
42
-0.28229128058124164
10
134.375
20
-20.024999999999999
10
117.825
20
-20.024999999999999
42
0.4142135623730937
10
116.82500000000002
20
-21.024999999999999
10
116.82500000000003
20
-21.837500000000205
42
0.41421356237309503
10
117.825
20
-22.837500000000205
10
134.375
20
-22.837500000000574
42
-0.28229128058121794
10
135.26644698909942
20
-23.384375000000389
42
0.28229128058112324
10
136.15789397819901
20
-23.931250000000102
10
149.375
20
-23.931250000000102
42
0.28229128058124259
10
150.26644698909945
20
-23.384374999999842
42
-0.28229128058110287
10
151.15789397819901
20
-22.837500000000205
10
167.92500000000001
20
-22.837500000000205
42
0.41421356237307161
10
168.92500000000001
20
-21.837500000000205
10
168.92499999999998
20
-21.024999999999999
42
0.41421356237309892
10
167.92500000000001
20
-20.024999999999999
10
151.15789397819901
20
-20.024999999999626
42
-0.28229128058112252
0
LWPOLYLINE
5
360
100
AcDbEntity
8
0
100
AcDbPolyline
90
20
70
1
43
0.0
10
5.4062499999999902
20
-83.487500000000011
10
39.837499999999999
20
-83.487499999999983
42
-0.41421356237311324
10
40.337499999999991
20
-83.987499999999997
10
40.337499999999991
20
-96.987500000000011
42
-0.41421356237310802
10
39.837499999999999
20
-97.487500000000011
10
36.869250000000008
20
-97.487500000000011
10
36.869250000000008
20
-98.987499999999997
42
-0.41421356237309503
10
36.369250000000001
20
-99.487500000000011
10
30.369250000000001
20
-99.487499999999969
42
-0.4142135623730846
10
29.869250000000022
20
-98.987499999999997
10
29.869250000000001
20
-97.487500000000011
10
12.99325
20
-97.487500000000011
10
12.993250000000007
20
-98.987499999999997
42
-0.41421356237309503
10
12.49325
20
-99.487500000000011
10
6.4932500000000006
20
-99.487500000000026
42
-0.41421356237310608
10
5.9932499999999989
20
-98.987499999999997
10
5.9932499999999997
20
-97.487500000000011
10
5.40625
20
-97.487500000000026
42
-0.41421356237310542
10
4.90625
20
-96.987500000000011
10
4.9062499999999734
20
-83.987499999999997
42
-0.41421356237309048
0
LWPOLYLINE
5
361
100
AcDbEntity
8
0
100
AcDbPolyline
90
14
70
1
43
0.0
10
268.49425000000002
20
-84.487500000000011
10
269.22500000000002
20
-84.487500000000011
10
269.22500000000008
20
-83.987499999999997
42
-0.41421356237310542
10
269.72500000000002
20
-83.487499999999983
10
282.72500000000002
20
-83.487499999999983
42
-0.41421356237313667
10
283.22500000000002
20
-83.987499999999997
10
283.22500000000002
20
-96.987500000000011
42
-0.41421356237313667
10
282.72500000000002
20
-97.487500000000011
10
274.99425000000002
20
-97.487500000000011
10
274.99425000000002
20
-98.987499999999997
42
-0.41421356237307422
10
274.49425000000008
20
-99.487499999999983
10
268.49425000000002
20
-99.487500000000026
42
-0.41421356237310542
10
267.99425000000002
20
-98.987499999999997
10
267.99424999999997
20
-84.987499999999997
42
-0.41421356237307422
0
LWPOLYLINE
5
362
100
AcDbEntity
8
0
100
AcDbPolyline
90
20
70
1
43
0.0
10
250.67500000000001
20
-26.337499999999999
10
282.72500000000002
20
-26.337500000000059
42
-0.41421356237311846
10
283.22500000000002
20
-26.837499999999999
10
283.22500000000002
20
-39.837499999999999
42
-0.41421356237313667
10
282.72500000000002
20
-40.337500000000006
10
282.13799999999998
20
-40.337500000000006
10
282.13800000000003
20
-41.837499999999999
42
-0.41421356237307944
10
281.63799999999998
20
-42.337500000000034
10
275.63800000000003
20
-42.337499999999977
42
-0.41421356237310025
10
275.13800000000003
20
-41.837499999999999
10
275.13799999999998
20
-40.337500000000006
10
258.262
20
-40.337500000000006
10
258.26200000000006
20
-41.837499999999999
42
-0.4142135623730846
10
257.76200000000006
20
-42.337499999999949
10
251.762
20
-42.337499999999977
42
-0.41421356237310025
10
251.26200000000006
20
-41.837499999999999
10
251.262
20
-40.337500000000006
10
250.67500000000001
20
-40.337499999999991
42
-0.414213562373069
10
250.17500000000007
20
-39.837499999999999
10
250.17499999999998
20
-26.837499999999999
42
-0.41421356237311846
0
LWPOLYLINE
5
363
100
AcDbEntity
8
0
100
AcDbPolyline
90
14
70
1
43
0.0
10
243.53125000000003
20
-83.487500000000011
10
266.05624999999998
20
-83.487499999999983
42
-0.41421356237313667
10
266.55624999999998
20
-83.987499999999997
10
266.55624999999998
20
-96.987500000000011
42
-0.41421356237313667
10
266.05624999999998
20
-97.487500000000011
10
251.11824999999999
20
-97.487500000000011
10
251.11824999999996
20
-98.987499999999997
42
-0.41421356237307422
10
250.61824999999999
20
-99.487499999999983
10
244.61825000000002
20
-99.487499999999926
42
-0.41421356237311585
10
244.11825000000005
20
-98.987499999999997
10
244.11824999999999
20
-97.487500000000011
10
243.53125000000003
20
-97.487500000000011
42
-0.41421356237313667
10
243.03125
20
-96.987500000000011
10
243.03125
20
-83.987499999999997
42
-0.41421356237313667
0
LWPOLYLINE
5
364
100
AcDbEntity
8
0
100
AcDbPolyline
90
8
70
1
43
0.0
10
290.13125000000002
20
-73.03125
10
290.13125000000002
20
-115.53750000000001
42
-0.41421356237309503
10
289.13125000000002
20
-116.53750000000001
10
287.13125000000002
20
-116.53750000000002
42
-0.41421356237309503
10
286.13125000000002
20
-115.53750000000001
10
286.13125000000002
20
-73.03125
42
-0.41421356237309503
10
287.13125000000002
20
-72.031250000000014
10
289.13125000000002
20
-72.031250000000028
42
-0.41421356237309503
0
LWPOLYLINE
5
365
100
AcDbEntity
8
0
100
AcDbPolyline
90
8
70
1
43
0.0
10
286.13125000000002
20
-46.03125
10
286.13125000000002
20
-3.5249999999999915
42
-0.41421356237309537
10
287.13125000000002
20
-2.5249999999999906
10
289.13125000000002
20
-2.5249999999999861
42
-0.41421356237309503
10
290.13125000000008
20
-3.5250000000000004
10
290.13125000000002
20
-46.03125
42
-0.41421356237309503
10
289.13125000000002
20
-47.03125
10
287.13125000000002
20
-47.031250000000014
42
-0.41421356237309503
0
LWPOLYLINE
5
366
100
AcDbEntity
8
0
100
AcDbPolyline
90
12
70
1
43
0.0
10
32.625
20
-7.0250000000000012
42
0.41421356237309503
10
33.125
20
-7.5249999999999995
10
37.125
20
-7.525000000000003
42
-0.41421356237309503
10
37.625
20
-8.0250000000000004
10
37.625
20
-16.024999999999999
42
-0.41421356237309503
10
37.125
20
-16.525000000000002
10
20.024999999999999
20
-16.525000000000002
42
-0.41421356237309503
10
19.524999999999999
20
-16.024999999999999
10
19.524999999999999
20
-3.0249999999999999
42
-0.41421356237309503
10
20.024999999999999
20
-2.5249999999999999
10
32.125
20
-2.5250000000000017
42
-0.41421356237309503
10
32.625
20
-3.0249999999999999
0
ENDSEC
0
SECTION
2
OBJECTS
0
DICTIONARY
5
C
100
AcDbDictionary
3
ACAD_GROUP
350
D
3
ACAD_MLINESTYLE
350
17
0
DICTIONARY
5
D
100
AcDbDictionary
0
DICTIONARY
5
1A
330
C
100
AcDbDictionary
0
DICTIONARY
5
17
100
AcDbDictionary
0
ENDSEC
0
EOF
