0
SECTION
2
HEADER
9
$INSUNITS
70
4
9
$ACADVER
1
AC1014
9
$HANDSEED
5
FFFF
0
ENDSEC
0
SECTION
2
TABLES
0
TABLE
2
VPORT
5
8
100
AcDbSymbolTable
0
ENDTAB
0
TABLE
2
LTYPE
5
5
100
AcDbSymbolTable
0
LTYPE
5
14
100
AcDbSymbolTableRecord
100
AcDbLinetypeTableRecord
2
BYBLOCK
70
0
0
LTYPE
5
15
100
AcDbSymbolTableRecord
100
AcDbLinetypeTableRecord
2
BYLAYER
70
0
0
LTYPE
5
16
100
AcDbSymbolTableRecord
100
AcDbLinetypeTableRecord
2
DASHED
70
0
3
Dashed __ __ __ __ __ __ __ __ __ __ __ __ __ _
72
65
73
2
40
0.75
49
0.5
74
0
49
-0.25
74
0
0
ENDTAB
0
TABLE
2
LAYER
5
2
100
AcDbSymbolTable
70
3
0
LAYER
5
50
100
AcDbSymbolTableRecord
100
AcDbLayerTableRecord
2
1
70
0
62
7
6
DASHED
0
LAYER
5
51
100
AcDbSymbolTableRecord
100
AcDbLayerTableRecord
2
0
70
0
62
7
6
CONTINUOUS
0
ENDTAB
0
TABLE
2
STYLE
5
3
100
AcDbSymbolTable
70
1
0
STYLE
5
11
100
AcDbSymbolTableRecord
100
AcDbTextStyleTableRecord
2
STANDARD
70
0
0
ENDTAB
0
TABLE
2
VIEW
5
6
100
AcDbSymbolTable
70
0
0
ENDTAB
0
TABLE
2
UCS
5
7
100
AcDbSymbolTable
70
0
0
ENDTAB
0
TABLE
2
APPID
5
9
100
AcDbSymbolTable
70
2
0
APPID
5
12
100
AcDbSymbolTableRecord
100
AcDbRegAppTableRecord
2
ACAD
70
0
0
ENDTAB
0
TABLE
2
DIMSTYLE
5
A
100
AcDbSymbolTable
70
1
0
ENDTAB
0
TABLE
2
BLOCK_RECORD
5
1
100
AcDbSymbolTable
70
1
0
BLOCK_RECORD
5
1F
100
AcDbSymbolTableRecord
100
AcDbBlockTableRecord
2
*MODEL_SPACE
0
BLOCK_RECORD
5
1B
100
AcDbSymbolTableRecord
100
AcDbBlockTableRecord
2
*PAPER_SPACE
0
ENDTAB
0
ENDSEC
0
SECTION
2
BLOCKS
0
BLOCK
5
20
100
AcDbEntity
100
AcDbBlockBegin
2
*MODEL_SPACE
0
ENDBLK
5
21
100
AcDbEntity
100
AcDbBlockEnd
0
BLOCK
5
1C
100
AcDbEntity
100
AcDbBlockBegin
2
*PAPER_SPACE
0
ENDBLK
5
1D
100
AcDbEntity
100
AcDbBlockEnd
0
ENDSEC
0
SECTION
2
ENTITIES
0
LWPOLYLINE
5
100
100
AcDbEntity
8
0
100
AcDbPolyline
90
78
70
1
43
0.0
10
89.229777363977107
20
1.5393070790469998
42
0.23404759653402457
10
90.025158920843324
20
1.9331980302801375
10
91.920507614975691
20
4.4204161277668463
42
-0.23404759653402227
10
92.715889171841894
20
4.8143070789999696
10
135.87499999999699
20
4.81430707899999
42
0.41421356237310542
10
136.37499999999702
20
5.31430707899999
10
136.37499999999699
20
19.314307078999995
42
-0.41421356237307422
10
136.87499999999699
20
19.814307079000002
10
149.87499999999699
20
19.814307079000017
42
-0.41421356237309115
10
150.37499999999702
20
19.314307078999999
10
150.37499999999699
20
5.3143070790000007
42
0.41421356237307488
10
150.87499999999801
20
4.8143070789999918
10
194.03411082815299
20
4.8143070790000202
42
-0.23404759653399007
10
194.82949238501914
20
4.4204161277669938
10
196.72484107915099
20
1.9331980302801099
42
0.23404759653416549
10
197.52022263601802
20
1.5393070790470111
10
210.96255168650003
20
1.5393070790473784
42
-0.41421356237310536
10
211.96255168650003
20
0.53930707904740005
10
211.96255168650001
20
-1.0606929209530003
42
0.99999999999999989
10
217.66255168650002
20
-1.0606929209530016
10
217.66255168649997
20
0.5393070790472998
42
-0.41421356237311918
10
218.6625516865
20
1.5393070790474002
10
325.26249999980001
20
1.5393070790473873
42
-0.41421356237755153
10
326.26249999980007
20
0.53930707903229991
10
326.26249999980007
20
-1.0606927418959999
42
1.0000000562506515
10
331.9624999998
20
-1.0606927783647933
10
331.96250015049998
20
0.53930704801990081
42
-0.4142135714608669
10
332.96250015049998
20
1.5393070790474002
10
347.66250000000008
20
1.539307079047
42
0.41421356237309503
10
349.66250000000008
20
3.5393070790470005
10
349.66250000000002
20
22.017307079049999
42
0.41421356237309503
10
347.66250000000008
20
24.017307079049999
10
331.29050000000001
20
24.017307079049999
42
-0.4142135623731939
10
330.79050000000001
20
24.517307079049999
10
330.79050000000001
20
42.067307079050011
42
0.41421356237309503
10
330.29050000000007
20
42.567307079050003
10
287.428
20
42.567307079049982
42
-0.4142135623730222
10
286.928
20
43.067307079050003
10
286.92800000000005
20
58.761307079049999
42
-0.4142135623730222
10
287.428
20
59.261307079049999
10
347.66250000000008
20
59.261307079049999
42
0.41421356237309503
10
349.66250000000008
20
61.261307079049999
10
349.66250000000002
20
121.85180707900001
42
0.41421356237309503
10
347.66250000000008
20
123.851807079
10
332.9624999998
20
123.85180707900005
42
-0.41421356237307422
10
331.9624999998
20
124.851807079
10
331.96249999980006
20
126.45180707900002
42
0.99999999999999989
10
326.26249999980007
20
126.45180707900002
10
326.26249999980013
20
124.851807079
42
-0.41421356237307422
10
325.26249999980001
20
123.851807079
10
209.13749999980001
20
123.85180707899998
42
-0.41421356237307422
10
208.13749999980001
20
124.851807079
10
208.13749999980004
20
126.45180707900002
42
0.99999999999999989
10
202.4374999998
20
126.45180707900002
10
202.43749999980002
20
124.851807079
42
-0.41421356237310542
10
201.43749999980002
20
123.851807079
10
123.4124999998
20
123.851807079
42
-0.41421356237310542
10
122.4124999998
20
124.851807079
10
122.4124999998
20
126.45180707900002
42
0.99999999999999989
10
116.7124999998
20
126.45180707900002
10
116.7124999998
20
124.851807079
42
-0.41421356237310542
10
115.7124999998
20
123.851807079
10
37.687499999760007
20
123.851807079
42
-0.41421356237016715
10
36.687499999769997
20
124.851807079
10
36.687499999769997
20
126.45180707900002
42
0.99999999999999989
10
30.987499999770005
20
126.45180707900002
10
30.987499999770005
20
124.851807079
42
-0.41421356237309631
10
29.987499999770005
20
123.851807079
10
1.0000000000010001
20
123.851807079
42
0.41421356237324147
10
-1
20
121.85180707900001
10
-1
20
3.5393070790470027
42
0.41421356237309537
10
1
20
1.5393070790470005
10
44.275051686470007
20
1.539307079047298
42
-0.41421356237309548
10
45.27505168647
20
0.53930707904730002
10
45.27505168647
20
-1.0606929209530001
42
0.99999999999999989
10
50.975051686470003
20
-1.0606929209530003
10
50.97505168647001
20
0.53930707904729991
42
-0.41421356237309542
10
51.97505168647001
20
1.5393070790473002
0
LWPOLYLINE
5
101
100
AcDbEntity
8
0
100
AcDbPolyline
90
8
70
1
43
0.0
10
7.7874999999975003
20
6.3143070789999998
10
7.7874999999974959
20
19.314307078999995
42
-0.41421356237309631
10
8.2874999999975003
20
19.814307079000002
10
21.287499999997497
20
19.814307078999999
42
-0.41421356237309631
10
21.7874999999975
20
19.314307078999999
10
21.787499999997515
20
6.3143070790000007
42
-0.41421356237309503
10
21.2874999999975
20
5.81430707899999
10
8.2874999999975003
20
5.8143070789999998
42
-0.4142135623730937
0
LWPOLYLINE
5
102
100
AcDbEntity
8
0
100
AcDbPolyline
90
8
70
1
43
0.0
10
31.5999999999975
20
6.3143070789999998
10
31.599999999997497
20
19.314307078999995
42
-0.41421356237309243
10
32.099999999997507
20
19.814307079000006
10
45.0999999999975
20
19.814307078999992
42
-0.41421356237309631
10
45.599999999997493
20
19.314307078999999
10
45.599999999997529
20
6.3143070790000007
42
-0.41421356237309631
10
45.0999999999975
20
5.8143070789999749
10
32.099999999997507
20
5.8143070789999953
42
-0.41421356237309115
0
LWPOLYLINE
5
103
100
AcDbEntity
8
0
100
AcDbPolyline
90
8
70
1
43
0.0
10
55.4124999999975
20
6.3143070789999998
10
55.412499999997507
20
19.314307078999995
42
-0.41421356237309892
10
55.9124999999975
20
19.814307078999999
10
68.912499999997493
20
19.814307078999999
42
-0.41421356237309503
10
69.412499999997493
20
19.314307078999999
10
69.412499999997493
20
6.3143070790000007
42
-0.4142135623731022
10
68.912499999997493
20
5.8143070789999873
10
55.9124999999975
20
5.8143070790000007
42
-0.4142135623730957
0
LWPOLYLINE
5
104
100
AcDbEntity
8
0
100
AcDbPolyline
90
8
70
1
43
0.0
10
203.52499999999799
20
6.8143070789999705
10
197.52499999999699
20
6.8143070790000237
42
-0.41421356237309764
10
197.02499999999702
20
7.3143070789999998
10
197.02499999999699
20
21.440307079000004
42
-0.41421356237305079
10
197.52499999999699
20
21.940307079
10
203.52499999999799
20
21.940307079000021
42
-0.41421356237310281
10
204.02499999999802
20
21.440307079000004
10
204.02499999999804
20
7.3143070789999998
42
-0.41421356237308266
0
LWPOLYLINE
5
105
100
AcDbEntity
8
0
100
AcDbPolyline
90
8
70
1
43
0.0
10
206.85899999999802
20
9.4343070789999892
10
206.85899999999802
20
19.314307078999999
42
-0.41421356237309503
10
207.35899999999802
20
19.814307078999999
10
214.00349999999702
20
19.814307079000006
42
-0.41421356237309503
10
214.50349999999702
20
19.314307078999999
10
214.50349999999702
20
9.4343070789999892
42
-0.41421356237309503
10
214.00349999999702
20
8.9343070789999892
10
207.35899999999802
20
8.9343070789999821
42
-0.41421356237309503
0
LWPOLYLINE
5
106
100
AcDbEntity
8
0
100
AcDbPolyline
90
8
70
1
43
0.0
10
89.224999999997493
20
6.8143070789999705
10
83.224999999997493
20
6.8143070790000113
42
-0.41421356237311519
10
82.724999999997507
20
7.3143070789999998
10
82.724999999997493
20
21.440307079000004
42
-0.41421356237311846
10
83.224999999997493
20
21.940307079000014
10
89.224999999997493
20
21.940307079000011
42
-0.41421356237307422
10
89.724999999997493
20
21.440307079000004
10
89.724999999997522
20
7.3143070789999998
42
-0.41421356237309764
0
LWPOLYLINE
5
107
100
AcDbEntity
8
0
100
AcDbPolyline
90
8
70
1
43
0.0
10
72.246499999997397
20
9.4343070789999199
10
72.246499999997397
20
19.314307078999999
42
-0.41421356237309503
10
72.746499999997397
20
19.814307078999999
10
79.390999999997405
20
19.814307078999999
42
-0.41421356237309503
10
79.890999999997405
20
19.314307078999999
10
79.890999999997405
20
9.4343070789999199
42
-0.41421356237309503
10
79.390999999997405
20
8.9343070789999199
10
72.746499999997397
20
8.9343070789999217
42
-0.41421356237309503
0
LWPOLYLINE
5
108
100
AcDbEntity
8
0
100
AcDbPolyline
90
8
70
1
43
0.0
10
190.69999999999703
20
8.6833070790002491
10
156.699999999998
20
8.6833070790000537
42
-0.41421356237309503
10
156.199999999998
20
9.1833070790000608
10
156.199999999998
20
16.945807079000001
42
-0.41421356237309503
10
156.699999999998
20
17.445807079000001
10
190.69999999999703
20
17.445807079000009
42
-0.41421356237309503
10
191.19999999999703
20
16.945807079000001
10
191.19999999999749
20
9.1833070790007003
42
-0.41421356237309503
0
LWPOLYLINE
5
109
100
AcDbEntity
8
0
100
AcDbPolyline
90
8
70
1
43
0.0
10
96.049999999997411
20
17.445807079000001
10
130.04999999999799
20
17.445807078999906
42
-0.41421356237309503
10
130.54999999999802
20
16.945807078999898
10
130.54999999999802
20
9.1833070789995492
42
-0.41421356237309503
10
130.04999999999799
20
8.6833070789995492
10
96.049999999997411
20
8.6833070790007731
42
-0.41421356237309503
10
95.549999999997397
20
9.1833070790007802
10
95.549999999997397
20
16.945807079000001
42
-0.41421356237309503
0
LWPOLYLINE
5
110
100
AcDbEntity
8
0
100
AcDbPolyline
90
8
70
1
43
0.0
10
94.012500000000017
20
57.914307079050005
10
107.01250000000002
20
57.914307079049991
42
-0.41421356237310542
10
107.51250000000002
20
57.414307079049998
10
107.51250000000002
20
44.414307079049998
42
-0.41421356237308982
10
107.01250000000002
20
43.914307079050005
10
94.012500000000017
20
43.914307079050005
42
-0.41421356237308982
10
93.512500000000003
20
44.414307079049998
10
93.512499999999989
20
57.414307079049998
42
-0.41421356237310542
0
LWPOLYLINE
5
111
100
AcDbEntity
8
0
100
AcDbPolyline
90
8
70
1
43
0.0
10
84.487500000000011
20
38.86430707905
10
97.487500000000011
20
38.864307079049993
42
-0.41421356237310542
10
97.987500000000011
20
38.364307079050008
10
97.987500000000011
20
25.36430707905
42
-0.41421356237310802
10
97.487500000000011
20
24.864307079050004
10
84.487500000000011
20
24.864307079050008
42
-0.41421356237310802
10
83.987499999999997
20
25.36430707905
10
83.987499999999997
20
38.364307079050008
42
-0.41421356237310542
0
LWPOLYLINE
5
112
100
AcDbEntity
8
0
100
AcDbPolyline
90
8
70
1
43
0.0
10
102.25000000000001
20
62.964307079050002
10
89.25
20
62.964307079050016
42
-0.41421356237310542
10
88.75
20
63.464307079050002
10
88.75
20
76.464307079050002
42
-0.41421356237310542
10
89.25
20
76.964307079050002
10
102.25000000000001
20
76.964307079050002
42
-0.41421356237310542
10
102.75000000000003
20
76.464307079050002
10
102.75000000000003
20
63.464307079050002
42
-0.41421356237310542
0
LWPOLYLINE
5
113
100
AcDbEntity
8
0
100
AcDbPolyline
90
8
70
1
43
0.0
10
231.33749999999799
20
19.314307078999999
10
231.33749999999799
20
6.3143070790000007
42
-0.41421356237310414
10
230.83749999999799
20
5.8143070789999918
10
217.83749999999699
20
5.8143070789999776
42
-0.41421356237310414
10
217.33749999999699
20
6.3143070789999998
10
217.33749999999699
20
19.314307078999995
42
-0.41421356237304952
10
217.83749999999699
20
19.814307078999992
10
230.83749999999799
20
19.81430707899997
42
-0.41421356237311585
0
LWPOLYLINE
5
114
100
AcDbEntity
8
0
100
AcDbPolyline
90
8
70
1
43
0.0
10
241.14999999999799
20
6.3143070789999998
10
241.14999999999804
20
19.314307078999995
42
-0.41421356237307549
10
241.64999999999799
20
19.814307078999988
10
254.64999999999802
20
19.814307078999935
42
-0.41421356237311585
10
255.14999999999799
20
19.314307078999999
10
255.14999999999804
20
6.3143070790000007
42
-0.4142135623730781
10
254.64999999999802
20
5.8143070789999749
10
241.64999999999799
20
5.8143070789999776
42
-0.41421356237310414
0
LWPOLYLINE
5
115
100
AcDbEntity
8
0
100
AcDbPolyline
90
8
70
1
43
0.0
10
278.46249999999702
20
5.8143070789999909
10
265.46249999999702
20
5.8143070789999785
42
-0.41421356237308266
10
264.96249999999702
20
6.3143070789999998
10
264.96249999999708
20
19.314307078999995
42
-0.41421356237307683
10
265.46249999999702
20
19.814307078999974
10
278.46249999999702
20
19.814307078999974
42
-0.41421356237361662
10
278.96249999999793
20
19.314307078999999
10
278.96249999999708
20
6.3143070790000007
42
-0.41421356237307944
0
LWPOLYLINE
5
116
100
AcDbEntity
8
0
100
AcDbPolyline
90
8
70
1
43
0.0
10
74.962500000000006
20
57.914307079050005
10
87.962500000000006
20
57.914307079049991
42
-0.41421356237310542
10
88.462500000000006
20
57.414307079049998
10
88.462500000000006
20
44.414307079049998
42
-0.41421356237308982
10
87.962500000000006
20
43.914307079050005
10
74.962500000000006
20
43.914307079050005
42
-0.41421356237309503
10
74.462500000000006
20
44.414307079049998
10
74.462500000000006
20
57.414307079049998
42
-0.41421356237309503
0
LWPOLYLINE
5
117
100
AcDbEntity
8
0
100
AcDbPolyline
90
8
70
1
43
0.0
10
65.4375
20
38.86430707905
10
78.4375
20
38.864307079050008
42
-0.41421356237309764
10
78.9375
20
38.364307079050008
10
78.937499999999986
20
25.36430707905
42
-0.41421356237309764
10
78.4375
20
24.864307079050004
10
65.4375
20
24.864307079050004
42
-0.41421356237309503
10
64.9375
20
25.36430707905
10
64.9375
20
38.364307079050008
42
-0.41421356237309503
0
LWPOLYLINE
5
118
100
AcDbEntity
8
0
100
AcDbPolyline
90
8
70
1
43
0.0
10
83.200000000000003
20
62.964307079050002
10
70.200000000000003
20
62.964307079050002
42
-0.41421356237309503
10
69.700000000000003
20
63.464307079050002
10
69.700000000000003
20
76.464307079050002
42
-0.41421356237309503
10
70.200000000000003
20
76.964307079050002
10
83.200000000000003
20
76.964307079050002
42
-0.41421356237310542
10
83.700000000000017
20
76.464307079050002
10
83.700000000000017
20
63.464307079050002
42
-0.41421356237310542
0
LWPOLYLINE
5
119
100
AcDbEntity
8
0
100
AcDbPolyline
90
15
70
1
43
0.0
10
290.33437500000099
20
38.383435688098302
10
290.33437500000002
20
6.3143070790480005
42
-0.41421356237363288
10
289.83437500000002
20
5.8143070790470013
10
287.428
20
5.8143070790469711
42
-0.41421356237302542
10
286.928
20
6.3143070790470013
10
286.928
20
24.36430707905
42
0.41421356237309503
10
286.428
20
24.86430707905
10
275.49442724599703
20
24.864307079050004
10
275.49442724599703
20
23.383398159950005
42
-0.41421356240179386
10
274.99442724594803
20
22.883398159950005
10
268.99424999995
20
22.883398160549998
42
-0.4142135623437927
10
268.49425000000002
20
23.383398160550005
10
268.49425000000002
20
38.3833972475717
42
-0.41421302211874744
10
268.994249077728
20
38.883397247570855
10
289.834374077728
20
38.883435688098416
42
-0.41421410262764902
0
LWPOLYLINE
5
120
100
AcDbEntity
8
0
100
AcDbPolyline
90
8
70
1
43
0.0
10
289.83437500000002
20
62.964307079050002
42
0.41421356237307422
10
290.33437500000008
20
63.464307079050002
10
290.33437500000002
20
95.514307079049999
42
0.41421356237309503
10
289.83437500000002
20
96.014307079050013
10
287.42812500000002
20
96.014307079050013
42
0.41421356237309503
10
286.92812500000002
20
95.514307079049999
10
286.92812500000002
20
63.464307079050002
42
0.41421356237307422
10
287.42812500000002
20
62.964307079050002
0
LWPOLYLINE
5
121
100
AcDbEntity
8
0
100
AcDbPolyline
90
28
70
1
43
0.0
10
6.4932500000000006
20
24.883404286000005
10
6.4076920161975099
20
24.883404286000012
42
-0.41421356243166879
10
5.407692015997525
20
25.883404286000005
10
5.4076920159975259
20
37.883404263999992
42
-0.41421356237309698
10
6.4076920159975206
20
38.883404263999999
10
39.837692016100505
20
38.883404263999992
42
-0.41421356234292511
10
40.837692015997497
20
37.883404263999999
10
40.837692015997497
20
25.883404263794105
42
-0.41421356231279166
10
39.837692015997497
20
24.883404264000006
10
37.369434874997502
20
24.883404264000003
10
37.369434874997502
20
23.8834042857941
42
-0.41421356225655559
10
36.369434875189498
20
22.883404286000008
10
31.369434875189501
20
22.883404286000001
42
-0.41421356242933238
10
30.369434874997502
20
23.883404286000001
10
30.369434874997516
20
24.350711461419799
42
-0.0067987515193205211
10
30.369250000000005
20
24.36430707905
10
30.369250000000001
20
24.883404286033503
10
28.568117883281804
20
24.883404612300289
42
-0.069429995814634979
10
28.431250000000002
20
24.864307079050004
10
15.43125
20
24.864307079050004
42
-0.069434408819721571
10
15.29437366856641
20
24.88340701677793
10
13.493488418097501
20
24.883407342999998
10
13.4934583129975
20
23.883404274800007
42
-0.41421355909269136
10
12.4934583129975
20
22.883404286000008
10
7.4934583131975208
20
22.883404286000008
42
-0.41421356243167629
10
6.4934583129975154
20
23.883404286000001
10
6.4934583129975092
20
24.349875530165505
42
-0.0072169019926716918
10
6.4932499999999997
20
24.36430707905
0
LWPOLYLINE
5
122
100
AcDbEntity
8
0
100
AcDbPolyline
90
8
70
1
43
0.0
10
192.73750000000004
20
24.864307079050004
10
179.73750000000001
20
24.86430707905
42
-0.41421356237305079
10
179.23750000000001
20
25.36430707905
10
179.23750000000001
20
38.364307079050008
42
-0.41421356237304563
10
179.73750000000001
20
38.86430707905
10
192.73750000000004
20
38.864307079049979
42
-0.41421356237307683
10
193.23750000000004
20
38.364307079050008
10
193.23750000000004
20
25.36430707905
42
-0.41421356237308204
0
LWPOLYLINE
5
123
100
AcDbEntity
8
0
100
AcDbPolyline
90
8
70
1
43
0.0
10
294.03750000000002
20
119.82680707900002
10
307.03750000000002
20
119.82680707900002
42
-0.41421356237313667
10
307.53750000000002
20
119.32680707900002
10
307.53750000000002
20
106.32680707900001
42
-0.41421356237313667
10
307.03750000000002
20
105.82680707899999
10
294.03750000000002
20
105.82680707899998
42
-0.41421356237310542
10
293.53750000000002
20
106.32680707900001
10
293.53750000000002
20
119.32680707900002
42
-0.41421356237310542
0
LWPOLYLINE
5
124
100
AcDbEntity
8
0
100
AcDbPolyline
90
8
70
1
43
0.0
10
294.03750000000002
20
102.62368207900002
10
345.13750000000005
20
102.62368207899995
42
-0.41421356237311585
10
345.63749999999993
20
102.12368207900001
10
345.63749999999982
20
99.717432079049999
42
-0.41421356237312623
10
345.13750000000005
20
99.217432079050099
10
294.03750000000002
20
99.217432079049971
42
-0.41421356237310542
10
293.53750000000002
20
99.717432079049999
10
293.53749999999997
20
102.12368207900001
42
-0.4142135623730846
0
LWPOLYLINE
5
125
100
AcDbEntity
8
0
100
AcDbPolyline
90
8
70
1
43
0.0
10
294.03750000000002
20
96.014307079050013
10
307.03750000000002
20
96.014307079050013
42
-0.41421356237309503
10
307.53750000000002
20
95.514307079049999
10
307.53749999999997
20
82.514307079049999
42
-0.41421356237312623
10
307.03750000000002
20
82.014307079050099
10
294.03750000000002
20
82.014307079050113
42
-0.41421356237312623
10
293.53750000000014
20
82.514307079049999
10
293.53749999999997
20
95.514307079049999
42
-0.4142135623730846
0
LWPOLYLINE
5
126
100
AcDbEntity
8
0
100
AcDbPolyline
90
8
70
1
43
0.0
10
294.03750000000002
20
76.964307079050002
10
307.03750000000002
20
76.964307079049973
42
-0.41421356237307422
10
307.53750000000002
20
76.464307079050002
10
307.53749999999991
20
63.464307079050002
42
-0.41421356237313145
10
307.03750000000002
20
62.964307079050101
10
294.03750000000002
20
62.964307079049973
42
-0.4142135623730222
10
293.53750000000002
20
63.464307079050002
10
293.53749999999997
20
76.464307079050002
42
-0.41421356237307944
0
CIRCLE
5
127
100
AcDbEntity
8
0
100
AcDbCircle
10
33.837499999770003
20
126.45180707900002
30
0
40
1.5500000000000003
210
0
220
-0
230
1
0
CIRCLE
5
128
100
AcDbEntity
8
0
100
AcDbCircle
10
119.56249999980001
20
126.45180707900002
30
0
40
1.5500000000000003
210
0
220
-0
230
1
0
CIRCLE
5
129
100
AcDbEntity
8
0
100
AcDbCircle
10
205.28749999979999
20
126.45180707900002
30
0
40
1.5500000000000003
210
0
220
-0
230
1
0
CIRCLE
5
130
100
AcDbEntity
8
0
100
AcDbCircle
10
48.125051686470002
20
-1.0606929209530001
30
0
40
1.5500000000000003
210
0
220
-0
230
1
0
CIRCLE
5
131
100
AcDbEntity
8
0
100
AcDbCircle
10
214.8125516865
20
-1.0606929209530001
30
0
40
1.5500000000000003
210
0
220
-0
230
1
0
CIRCLE
5
132
100
AcDbEntity
8
0
100
AcDbCircle
10
329.11249999979998
20
-1.0606929209530001
30
0
40
1.5500000000000003
210
0
220
-0
230
1
0
LWPOLYLINE
5
133
100
AcDbEntity
8
0
100
AcDbPolyline
90
8
70
1
43
0.0
10
326.08749999999998
20
24.864307079050004
42
0.41421356237311063
10
326.58749999999998
20
25.36430707905
10
326.58749999999998
20
38.364307079050008
42
0.41421356237311063
10
326.08749999999998
20
38.86430707905
10
313.08749999999998
20
38.864307079049908
42
0.41421356237313145
10
312.58749999999998
20
38.364307079050008
10
312.58749999999998
20
25.36430707905
42
0.41421356237308204
10
313.08749999999998
20
24.864307079050004
0
LWPOLYLINE
5
134
100
AcDbEntity
8
0
100
AcDbPolyline
90
8
70
1
43
0.0
10
290.51249999999999
20
99.217432079050013
10
286.75
20
99.217432079049985
42
-0.41421356237313667
10
286.25
20
99.717432079049999
10
286.25
20
102.12368207900001
42
-0.41421356237309503
10
286.75
20
102.62368207900002
10
290.51249999999999
20
102.62368207900002
42
-0.41421356237309503
10
291.01249999999999
20
102.12368207900001
10
291.01249999999999
20
99.717432079049999
42
-0.41421356237313667
0
LWPOLYLINE
5
135
100
AcDbEntity
8
0
100
AcDbPolyline
90
8
70
1
43
0.0
10
115.29975
20
102.62368207900002
10
123.82525000000001
20
102.62368207900002
42
-0.41421356237307422
10
124.32525000000001
20
102.12368207900001
10
124.32525000000001
20
99.717432079049999
42
-0.41421356237309503
10
123.82525000000001
20
99.217432079049985
10
115.29975
20
99.217432079049985
42
-0.41421356237309503
10
114.79974999999999
20
99.717432079049999
10
114.79974999999999
20
102.12368207900001
42
-0.41421356237307422
0
LWPOLYLINE
5
136
100
AcDbEntity
8
0
100
AcDbPolyline
90
8
70
1
43
0.0
10
209.55000000000001
20
99.217432079050013
10
201.02500000000003
20
99.217432079049985
42
-0.41421356237313667
10
200.52500000000003
20
99.717432079049999
10
200.52500000000003
20
102.12368207900001
42
-0.41421356237309503
10
201.02500000000003
20
102.62368207900002
10
209.55000000000001
20
102.62368207900002
42
-0.41421356237309503
10
210.05000000000001
20
102.12368207900001
10
210.05000000000001
20
99.717432079049999
42
-0.41421356237313667
0
LWPOLYLINE
5
137
100
AcDbEntity
8
0
100
AcDbPolyline
90
8
70
1
43
0.0
10
213.07500000000002
20
102.62368207900002
10
283.22500000000002
20
102.62368207899999
42
-0.4142135623730846
10
283.72500000000008
20
102.12368207900001
10
283.72500000000002
20
99.717432079049999
42
-0.41421356237310542
10
283.22500000000002
20
99.217432079049985
10
213.07500000000002
20
99.217432079049985
42
-0.41421356237313667
10
212.57499999999999
20
99.717432079049999
10
212.57499999999999
20
102.12368207900001
42
-0.41421356237309503
0
LWPOLYLINE
5
138
100
AcDbEntity
8
0
100
AcDbPolyline
90
8
70
1
43
0.0
10
37.600000000009999
20
105.82680707900002
10
20.79999999999
20
105.82680707899999
42
-0.41421356236723145
10
20.300000000000004
20
106.32680707900001
10
20.300000000000011
20
119.32680707900002
42
-0.41421356237310542
10
20.800000000000001
20
119.82680707900002
10
37.600000000000001
20
119.82680707900002
42
-0.41421356237310802
10
38.100000000000001
20
119.32680707900002
10
38.099999999999987
20
106.32680707900001
42
-0.41421356236723667
0
LWPOLYLINE
5
139
100
AcDbEntity
8
0
100
AcDbPolyline
90
8
70
1
43
0.0
10
41.125000000000007
20
106.32680707900001
42
0.41421356237308982
10
41.625000000000007
20
105.82680707899999
10
54.625
20
105.82680707899999
42
0.41421356237310542
10
55.125
20
106.32680707900001
10
55.125
20
119.32680707900002
42
0.41421356237310542
10
54.625
20
119.82680707900002
10
41.625000000000007
20
119.82680707900002
42
0.41421356237308982
10
41.125
20
119.32680707900002
0
LWPOLYLINE
5
140
100
AcDbEntity
8
0
100
AcDbPolyline
90
8
70
1
43
0.0
10
60.174999999999997
20
106.32680707900001
42
0.41421356237308982
10
60.674999999999997
20
105.82680707899999
10
73.674999999999997
20
105.82680707899999
42
0.41421356237310542
10
74.175000000000011
20
106.32680707900001
10
74.174999999999997
20
119.32680707900002
42
0.41421356237310542
10
73.674999999999997
20
119.82680707900002
10
60.674999999999997
20
119.82680707900002
42
0.41421356237308982
10
60.174999999999997
20
119.32680707900002
0
LWPOLYLINE
5
141
100
AcDbEntity
8
0
100
AcDbPolyline
90
8
70
1
43
0.0
10
79.225000000000009
20
106.32680707900001
42
0.41421356237310542
10
79.724999999999994
20
105.82680707899999
10
92.724999999999994
20
105.82680707899999
42
0.41421356237307422
10
93.224999999999994
20
106.32680707900001
10
93.224999999999994
20
119.32680707900002
42
0.41421356237307422
10
92.724999999999994
20
119.82680707900002
10
79.724999999999994
20
119.82680707900002
42
0.41421356237310542
10
79.224999999999994
20
119.32680707900002
0
LWPOLYLINE
5
142
100
AcDbEntity
8
0
100
AcDbPolyline
90
8
70
1
43
0.0
10
98.275000000000006
20
106.32680707900001
42
0.41421356237309503
10
98.775000000000006
20
105.82680707899999
10
111.77500000000002
20
105.82680707899999
42
0.41421356237309503
10
112.27500000000001
20
106.32680707900001
10
112.27500000000003
20
119.32680707900002
42
0.41421356237309503
10
111.77500000000002
20
119.82680707900002
10
98.775000000000006
20
119.82680707900002
42
0.41421356237309503
10
98.275000000000006
20
119.32680707900002
0
LWPOLYLINE
5
143
100
AcDbEntity
8
0
100
AcDbPolyline
90
8
70
1
43
0.0
10
117.41875
20
106.32680707900001
10
117.41875
20
119.32680707900002
42
-0.41421356237309503
10
117.91875000000002
20
119.82680707900002
10
121.20625000000001
20
119.82680707900002
42
-0.41421356237309503
10
121.70625000000001
20
119.32680707900002
10
121.70625000000001
20
106.32680707900001
42
-0.41421356237309503
10
121.20625000000001
20
105.82680707899999
10
117.91875000000002
20
105.82680707899999
42
-0.41421356237309503
0
LWPOLYLINE
5
144
100
AcDbEntity
8
0
100
AcDbPolyline
90
8
70
1
43
0.0
10
126.84999999999999
20
106.32680707900001
42
0.41421356237309503
10
127.34999999999999
20
105.82680707899999
10
140.34999999999999
20
105.82680707899999
42
0.41421356237309503
10
140.85000000000002
20
106.32680707900001
10
140.85000000000002
20
119.32680707900002
42
0.41421356237309503
10
140.34999999999999
20
119.82680707900002
10
127.34999999999999
20
119.82680707900002
42
0.41421356237309503
10
126.85000000000001
20
119.32680707900002
0
LWPOLYLINE
5
145
100
AcDbEntity
8
0
100
AcDbPolyline
90
8
70
1
43
0.0
10
145.90000000000001
20
106.32680707900001
42
0.41421356237309503
10
146.40000000000001
20
105.82680707899999
10
159.40000000000001
20
105.82680707899999
42
0.41421356237309503
10
159.90000000000003
20
106.32680707900001
10
159.90000000000003
20
119.32680707900002
42
0.41421356237309503
10
159.40000000000001
20
119.82680707900002
10
146.40000000000001
20
119.82680707900002
42
0.41421356237309503
10
145.90000000000001
20
119.32680707900002
0
LWPOLYLINE
5
146
100
AcDbEntity
8
0
100
AcDbPolyline
90
8
70
1
43
0.0
10
164.94999999999999
20
106.32680707900001
42
0.41421356237313667
10
165.44999999999999
20
105.82680707899999
10
178.44999999999999
20
105.82680707899999
42
0.41421356237310542
10
178.94999999999999
20
106.32680707900001
10
178.94999999999999
20
119.32680707900002
42
0.41421356237310542
10
178.44999999999999
20
119.82680707900002
10
165.44999999999999
20
119.82680707900002
42
0.41421356237313667
10
164.95000000000002
20
119.32680707900002
0
LWPOLYLINE
5
147
100
AcDbEntity
8
0
100
AcDbPolyline
90
8
70
1
43
0.0
10
184
20
106.32680707900001
42
0.41421356237313667
10
184.5
20
105.82680707899999
10
197.5
20
105.82680707899999
42
0.41421356237310542
10
198
20
106.32680707900001
10
198
20
119.32680707900002
42
0.41421356237310542
10
197.5
20
119.82680707900002
10
184.5
20
119.82680707900002
42
0.41421356237313667
10
184.00000000000003
20
119.32680707900002
0
LWPOLYLINE
5
148
100
AcDbEntity
8
0
100
AcDbPolyline
90
8
70
1
43
0.0
10
203.14375000000001
20
106.32680707900001
10
203.14375000000007
20
119.32680707910002
42
-0.41421356237310542
10
203.64375000000001
20
119.82680707910004
10
206.93125000000003
20
119.82680707910005
42
-0.41421356237310542
10
207.43125000000003
20
119.32680707910002
10
207.43124999999998
20
106.32680707900001
42
-0.41421356237310542
10
206.93125000000003
20
105.82680707899999
10
203.64375000000001
20
105.82680707899998
42
-0.41421356237310542
0
LWPOLYLINE
5
149
100
AcDbEntity
8
0
100
AcDbPolyline
90
8
70
1
43
0.0
10
212.57499999999999
20
106.32680707900001
42
0.41421356237313667
10
213.07500000000002
20
105.82680707899999
10
226.07500000000002
20
105.82680707899999
42
0.41421356237310542
10
226.57499999999999
20
106.32680707900001
10
226.57500000000002
20
119.32680707900002
42
0.41421356237310542
10
226.07500000000002
20
119.82680707900002
10
213.07500000000002
20
119.82680707900002
42
0.41421356237313667
10
212.57499999999999
20
119.32680707900002
0
LWPOLYLINE
5
150
100
AcDbEntity
8
0
100
AcDbPolyline
90
8
70
1
43
0.0
10
231.62500000000011
20
106.32680707900001
42
0.41421356237313667
10
232.12500000000003
20
105.8268070790001
10
245.12500000000003
20
105.82680707899999
42
0.41421356237310542
10
245.625
20
106.32680707900001
10
245.62500000000003
20
119.32680707900002
42
0.41421356237310542
10
245.12500000000003
20
119.82680707900002
10
232.12500000000003
20
119.82680707900002
42
0.41421356237313667
10
231.625
20
119.32680707900002
0
LWPOLYLINE
5
151
100
AcDbEntity
8
0
100
AcDbPolyline
90
8
70
1
43
0.0
10
250.67500000000001
20
106.32680707900001
42
0.41421356237313667
10
251.17500000000004
20
105.82680707899999
10
264.17500000000007
20
105.82680707899999
42
0.41421356237310542
10
264.67500000000001
20
106.32680707900001
10
264.67500000000007
20
119.32680707900002
42
0.41421356237310542
10
264.17500000000007
20
119.82680707900002
10
251.17500000000004
20
119.82680707900002
42
0.41421356237313667
10
250.67500000000001
20
119.32680707900002
0
LWPOLYLINE
5
152
100
AcDbEntity
8
0
100
AcDbPolyline
90
8
70
1
43
0.0
10
269.72500000000002
20
106.32680707900001
42
0.41421356237313667
10
270.22500000000002
20
105.82680707899999
10
283.22500000000002
20
105.82680707899999
42
0.41421356237310542
10
283.72500000000002
20
106.32680707900001
10
283.72500000000014
20
119.32680707900002
42
0.41421356237307422
10
283.22500000000002
20
119.82680707900002
10
270.22500000000002
20
119.82680707900002
42
0.41421356237313667
10
269.72500000000002
20
119.32680707900002
0
LWPOLYLINE
5
153
100
AcDbEntity
8
0
100
AcDbPolyline
90
8
70
1
43
0.0
10
286.92812500000002
20
106.32680707900001
42
0.41421356237313667
10
287.42812500000002
20
105.82680707899999
10
289.83437500000002
20
105.82680707899999
42
0.41421356237313667
10
290.33437500000002
20
106.32680707900001
10
290.33437500000002
20
119.32680707900002
42
0.41421356237313667
10
289.83437500000002
20
119.82680707900002
10
287.42812500000002
20
119.82680707900002
42
0.41421356237313667
10
286.92812500000002
20
119.32680707900002
0
LWPOLYLINE
5
154
100
AcDbEntity
8
0
100
AcDbPolyline
90
8
70
1
43
0.0
10
198
20
102.12368207900001
10
197.99999999999997
20
99.717432079049999
42
-0.41421356237310542
10
197.5
20
99.217432079049985
10
127.34999999999999
20
99.217432079049985
42
-0.41421356237309503
10
126.84999999999999
20
99.717432079049999
10
126.84999999999999
20
102.12368207900001
42
-0.41421356237307422
10
127.34999999999999
20
102.62368207900002
10
197.5
20
102.62368207899999
42
-0.41421356237312623
0
LWPOLYLINE
5
155
100
AcDbEntity
8
0
100
AcDbPolyline
90
8
70
1
43
0.0
10
226.07500000000002
20
82.014307079050013
10
213.07500000000002
20
82.014307079049985
42
-0.41421356237309503
10
212.57499999999999
20
82.514307079049999
10
212.57499999999999
20
95.514307079049999
42
-0.41421356237309503
10
213.07500000000002
20
96.014307079050013
10
226.07500000000002
20
96.014307079049985
42
-0.4142135623730846
10
226.57500000000002
20
95.514307079049999
10
226.57500000000005
20
82.514307079049999
42
-0.41421356237303258
0
LWPOLYLINE
5
156
100
AcDbEntity
8
0
100
AcDbPolyline
90
8
70
1
43
0.0
10
169.42500000000001
20
95.514307079049999
10
169.42500000000001
20
82.514307079049999
42
-0.41421356237309503
10
168.92500000000001
20
82.014307079049985
10
155.92500000000001
20
82.014307079049985
42
-0.41421356237307422
10
155.42500000000001
20
82.514307079049999
10
155.42500000000001
20
95.514307079049999
42
-0.41421356237307422
10
155.92500000000001
20
96.014307079050013
10
168.92499999999998
20
96.014307079049985
42
-0.41421356237312623
0
LWPOLYLINE
5
157
100
AcDbEntity
8
0
100
AcDbPolyline
90
8
70
1
43
0.0
10
136.375
20
82.514307079049999
10
136.375
20
95.514307079049999
42
-0.41421356237307422
10
136.875
20
96.014307079050013
10
149.875
20
96.014307079050013
42
-0.41421356237307422
10
150.375
20
95.514307079049999
10
150.375
20
82.514307079049999
42
-0.41421356237307422
10
149.875
20
82.014307079049985
10
136.875
20
82.014307079050013
42
-0.41421356237307422
0
LWPOLYLINE
5
158
100
AcDbEntity
8
0
100
AcDbPolyline
90
8
70
1
43
0.0
10
174.47499999999997
20
82.514307079049999
42
0.41421356237309503
10
174.97499999999999
20
82.014307079049985
10
187.97499999999999
20
82.0143070790499
42
0.41421356237303258
10
188.47499999999999
20
82.514307079049999
10
188.47499999999999
20
95.514307079049999
42
0.4142135623730846
10
187.97499999999999
20
96.014307079050013
10
174.97499999999999
20
96.014307079050013
42
0.41421356237309503
10
174.47500000000002
20
95.514307079049999
0
LWPOLYLINE
5
159
100
AcDbEntity
8
0
100
AcDbPolyline
90
8
70
1
43
0.0
10
93.224999999999994
20
95.514307079049999
42
0.4142135623730534
10
92.724999999999994
20
96.014307079050013
10
79.724999999999994
20
96.014307079050013
42
0.41421356237307422
10
79.224999999999994
20
95.514307079049999
10
79.225000000000009
20
82.514307079049999
42
0.41421356237307422
10
79.724999999999994
20
82.014307079050013
10
92.724999999999994
20
82.014307079049985
42
0.4142135623730534
10
93.224999999999994
20
82.514307079049999
0
LWPOLYLINE
5
160
100
AcDbEntity
8
0
100
AcDbPolyline
90
8
70
1
43
0.0
10
207.02500000000001
20
82.014307079050099
42
0.41421356237312623
10
207.52499999999992
20
82.514307079049999
10
207.52500000000001
20
95.514307079049999
42
0.4142135623730846
10
207.02500000000001
20
96.014307079050013
10
194.02500000000003
20
96.014307079050013
42
0.4142135623730846
10
193.52500000000003
20
95.514307079049999
10
193.52500000000015
20
82.514307079049999
42
0.41421356237312623
10
194.02500000000003
20
82.014307079050013
0
LWPOLYLINE
5
161
100
AcDbEntity
8
0
100
AcDbPolyline
90
8
70
1
43
0.0
10
22.574999999999999
20
96.014307079050013
42
0.41421356237308721
10
22.075000000000003
20
95.514307079049999
10
22.074999999999999
20
82.514307079049999
42
0.41421356237308721
10
22.574999999999999
20
82.014307079050013
10
35.575000000000003
20
82.014307079049985
42
0.41421356237308721
10
36.075000000000003
20
82.514307079049999
10
36.075000000000003
20
95.514307079049999
42
0.41421356237308721
10
35.575000000000003
20
96.014307079050013
0
LWPOLYLINE
5
162
100
AcDbEntity
8
0
100
AcDbPolyline
90
8
70
1
43
0.0
10
74.175000000000011
20
95.514307079049999
10
74.175000000000011
20
82.514307079049999
42
-0.41421356237307422
10
73.674999999999997
20
82.014307079049985
10
60.674999999999997
20
82.014307079049985
42
-0.414213562373069
10
60.174999999999997
20
82.514307079049999
10
60.174999999999997
20
95.514307079049985
42
-0.414213562373069
10
60.674999999999997
20
96.014307079050013
10
73.674999999999997
20
96.014307079050013
42
-0.41421356237307422
0
LWPOLYLINE
5
163
100
AcDbEntity
8
0
100
AcDbPolyline
90
8
70
1
43
0.0
10
41.125000000000007
20
82.514307079049999
42
0.414213562373069
10
41.625000000000007
20
82.014307079049985
10
54.625
20
82.014307079049985
42
0.41421356237307422
10
55.125
20
82.514307079049999
10
55.125
20
95.514307079049999
42
0.41421356237307422
10
54.625
20
96.014307079050013
10
41.625000000000007
20
96.014307079050013
42
0.414213562373069
10
41.125
20
95.514307079049999
0
LWPOLYLINE
5
164
100
AcDbEntity
8
0
100
AcDbPolyline
90
8
70
1
43
0.0
10
16.524999999999999
20
82.014307079050013
10
3.5250000000000004
20
82.014307079049985
42
-0.41421356237307422
10
3.0250000000000004
20
82.514307079049999
10
3.0249999999999932
20
95.514307079049999
42
-0.41421356237307422
10
3.5250000000000004
20
96.014307079050013
10
16.524999999999999
20
96.014307079050013
42
-0.41421356237307161
10
17.024999999999999
20
95.514307079049999
10
17.024999999999984
20
82.514307079049999
42
-0.41421356237307161
0
LWPOLYLINE
5
165
100
AcDbEntity
8
0
100
AcDbPolyline
90
8
70
1
43
0.0
10
211.78750000000002
20
24.864307079050004
10
198.78749999999999
20
24.864307079050015
42
-0.41421356237308204
10
198.28749999999999
20
25.36430707905
10
198.28749999999997
20
38.364307079050008
42
-0.41421356237307683
10
198.78749999999999
20
38.86430707905
10
211.78750000000002
20
38.86430707905
42
-0.41421356237304563
10
212.28750000000002
20
38.364307079050008
10
212.28750000000002
20
25.36430707905
42
-0.41421356237305079
0
LWPOLYLINE
5
166
100
AcDbEntity
8
0
100
AcDbPolyline
90
8
70
1
43
0.0
10
23.668749999999999
20
43.914307079050005
42
0.41421356237309503
10
24.168749999999996
20
44.414307079049998
10
24.168749999999996
20
57.414307079049998
42
0.41421356237309764
10
23.668749999999999
20
57.914307079050005
10
5.9062500000000009
20
57.914307079049998
42
0.41421356237309631
10
5.40625
20
57.414307079049998
10
5.4062500000009992
20
44.414307079049998
42
0.41421356237309437
10
5.906250000001001
20
43.914307079050005
0
LWPOLYLINE
5
167
100
AcDbEntity
8
0
100
AcDbPolyline
90
8
70
1
43
0.0
10
131.32499999999999
20
95.514307079049999
42
0.41421356237307422
10
130.82499999999999
20
96.014307079050013
10
117.825
20
96.014307079050013
42
0.4142135623730534
10
117.32500000000002
20
95.514307079049999
10
117.325
20
82.514307079049999
42
0.4142135623730534
10
117.825
20
82.014307079050013
10
130.82499999999999
20
82.014307079049985
42
0.41421356237307422
10
131.32499999999999
20
82.514307079049999
0
LWPOLYLINE
5
168
100
AcDbEntity
8
0
100
AcDbPolyline
90
8
70
1
43
0.0
10
122.58750000000001
20
38.86430707905
10
135.58750000000001
20
38.864307079050008
42
-0.41421356237307422
10
136.08750000000003
20
38.364307079050008
10
136.08750000000003
20
25.36430707905
42
-0.41421356237308721
10
135.58750000000001
20
24.864307079050004
10
122.58750000000001
20
24.864307079050008
42
-0.41421356237308721
10
122.08750000000001
20
25.36430707905
10
122.08750000000002
20
38.364307079050008
42
-0.41421356237307422
0
LWPOLYLINE
5
169
100
AcDbEntity
8
0
100
AcDbPolyline
90
8
70
1
43
0.0
10
217.83750000000001
20
38.86430707905
10
230.83750000000003
20
38.86430707905
42
-0.41421356237304563
10
231.33750000000003
20
38.364307079050008
10
231.33750000000003
20
25.36430707905
42
-0.41421356237305079
10
230.83750000000003
20
24.864307079050004
10
217.83750000000001
20
24.864307079050015
42
-0.41421356237308204
10
217.33750000000001
20
25.36430707905
10
217.33749999999998
20
38.364307079050008
42
-0.41421356237307683
0
LWPOLYLINE
5
170
100
AcDbEntity
8
0
100
AcDbPolyline
90
8
70
1
43
0.0
10
174.1875
20
38.364307079050008
10
174.18750000000003
20
25.36430707905
42
-0.41421356237308204
10
173.68750000000003
20
24.864307079050004
10
160.6875
20
24.86430707905
42
-0.41421356237305079
10
160.1875
20
25.36430707905
10
160.1875
20
38.364307079050008
42
-0.41421356237304563
10
160.6875
20
38.86430707905
10
173.68750000000003
20
38.864307079049944
42
-0.41421356237307683
0
LWPOLYLINE
5
171
100
AcDbEntity
8
0
100
AcDbPolyline
90
8
70
1
43
0.0
10
141.63749999999999
20
38.86430707905
42
0.41421356237310542
10
141.13749999999999
20
38.364307079050008
10
141.13749999999999
20
25.36430707905
42
0.41421356237310802
10
141.63749999999999
20
24.864307079050004
10
154.63749999999999
20
24.864307079050004
42
0.41421356237308721
10
155.13749999999999
20
25.36430707905
10
155.13749999999999
20
38.364307079050008
42
0.41421356237307422
10
154.63749999999999
20
38.86430707905
0
LWPOLYLINE
5
172
100
AcDbEntity
8
0
100
AcDbPolyline
90
8
70
1
43
0.0
10
46.38750000000001
20
38.86430707905
10
59.387500000000003
20
38.864307079050008
42
-0.41421356237309764
10
59.887500000000003
20
38.364307079050008
10
59.887499999999996
20
25.36430707905
42
-0.41421356237309764
10
59.387500000000003
20
24.864307079050004
10
46.38750000000001
20
24.864307079050004
42
-0.41421356237309503
10
45.88750000000001
20
25.36430707905
10
45.88750000000001
20
38.364307079050008
42
-0.41421356237309503
0
LWPOLYLINE
5
173
100
AcDbEntity
8
0
100
AcDbPolyline
90
8
70
1
43
0.0
10
117.03749999999999
20
38.364307079050008
10
117.03750000000001
20
25.36430707905
42
-0.41421356237308721
10
116.53750000000001
20
24.864307079050004
10
103.53749999999999
20
24.864307079050008
42
-0.41421356237308721
10
103.03749999999999
20
25.36430707905
10
103.03750000000001
20
38.364307079050008
42
-0.41421356237307422
10
103.53749999999999
20
38.86430707905
10
116.53750000000001
20
38.864307079049993
42
-0.41421356237307422
0
LWPOLYLINE
5
174
100
AcDbEntity
8
0
100
AcDbPolyline
90
8
70
1
43
0.0
10
202.76250000000002
20
57.414307079049998
10
202.7624999999999
20
44.414307079049998
42
-0.41421356237313145
10
202.26249999999999
20
43.914307079050097
10
189.26249999999999
20
43.914307079050026
42
-0.41421356237307422
10
188.76249999999999
20
44.414307079049998
10
188.76249999999996
20
57.414307079049998
42
-0.41421356237307422
10
189.26249999999999
20
57.914307079049998
10
202.26249999999999
20
57.914307079050019
42
-0.4142135623730222
0
LWPOLYLINE
5
175
100
AcDbEntity
8
0
100
AcDbPolyline
90
8
70
1
43
0.0
10
221.81250000000003
20
57.414307079049998
10
221.81250000000017
20
44.414307079049998
42
-0.414213562373069
10
221.3125
20
43.914307079049905
10
208.3125
20
43.914307079050026
42
-0.41421356237307422
10
207.8125
20
44.414307079049998
10
207.81249999999994
20
57.414307079049998
42
-0.41421356237305862
10
208.3125
20
57.91430707905009
10
221.3125
20
57.914307079050019
42
-0.4142135623730222
0
LWPOLYLINE
5
176
100
AcDbEntity
8
0
100
AcDbPolyline
90
8
70
1
43
0.0
10
164.66249999999999
20
57.414307079049998
10
164.66250000000005
20
44.414307079049998
42
-0.41421356237307422
10
164.16250000000002
20
43.914307079050005
10
151.16250000000002
20
43.914307079050005
42
-0.41421356237308982
10
150.66249999999999
20
44.414307079049998
10
150.66249999999999
20
57.414307079049998
42
-0.41421356237310542
10
151.16250000000002
20
57.914307079049998
10
164.16250000000002
20
57.914307079049934
42
-0.41421356237307422
0
LWPOLYLINE
5
177
100
AcDbEntity
8
0
100
AcDbPolyline
90
8
70
1
43
0.0
10
226.86250000000001
20
44.414307079049998
10
226.86249999999998
20
57.414307079049998
42
-0.41421356237307422
10
227.36250000000001
20
57.914307079049998
10
240.36250000000001
20
57.914307079050019
42
-0.4142135623730222
10
240.86250000000004
20
57.414307079049998
10
240.86250000000001
20
44.414307079049998
42
-0.4142135623730222
10
240.36250000000001
20
43.914307079050005
10
227.36250000000001
20
43.914307079050026
42
-0.41421356237307422
0
LWPOLYLINE
5
178
100
AcDbEntity
8
0
100
AcDbPolyline
90
8
70
1
43
0.0
10
145.11250000000001
20
43.914307079050005
10
132.11250000000004
20
43.914307079050005
42
-0.414213562373069
10
131.61250000000001
20
44.414307079049998
10
131.61250000000001
20
57.414307079049998
42
-0.41421356237307422
10
132.11250000000001
20
57.914307079049998
10
145.11250000000001
20
57.914307079050005
42
-0.41421356237307422
10
145.61250000000004
20
57.414307079049998
10
145.61250000000004
20
44.414307079049998
42
-0.414213562373069
0
LWPOLYLINE
5
179
100
AcDbEntity
8
0
100
AcDbPolyline
90
8
70
1
43
0.0
10
170.21250000000003
20
57.91430707905009
42
0.41421356237307944
10
169.71249999999992
20
57.414307079049998
10
169.71250000000001
20
44.414307079049998
42
0.4142135623730222
10
170.21250000000003
20
43.914307079050005
10
183.21250000000003
20
43.914307079050005
42
0.41421356237307422
10
183.71250000000001
20
44.414307079049998
10
183.71250000000003
20
57.414307079049998
42
0.41421356237307422
10
183.21250000000003
20
57.914307079050005
0
LWPOLYLINE
5
180
100
AcDbEntity
8
0
100
AcDbPolyline
90
8
70
1
43
0.0
10
49.862499999999997
20
43.914307079050005
10
36.862499999999997
20
43.914307079050005
42
-0.41421356237309503
10
36.362499999999997
20
44.414307079049998
10
36.362499999999997
20
57.414307079049998
42
-0.41421356237309764
10
36.862499999999997
20
57.914307079049998
10
49.862499999999997
20
57.914307079049998
42
-0.41421356237310542
10
50.362499999999997
20
57.414307079049998
10
50.362499999999997
20
44.414307079049998
42
-0.41421356237309503
0
LWPOLYLINE
5
181
100
AcDbEntity
8
0
100
AcDbPolyline
90
8
70
1
43
0.0
10
68.912499999999994
20
43.914307079050005
10
55.912500000000009
20
43.914307079050005
42
-0.41421356237309503
10
55.412500000000009
20
44.414307079049998
10
55.412500000000009
20
57.414307079049998
42
-0.41421356237310542
10
55.912500000000009
20
57.914307079049998
10
68.912499999999994
20
57.914307079049998
42
-0.41421356237310542
10
69.412499999999994
20
57.414307079049998
10
69.412499999999994
20
44.414307079049998
42
-0.41421356237309503
0
LWPOLYLINE
5
182
100
AcDbEntity
8
0
100
AcDbPolyline
90
8
70
1
43
0.0
10
235.60000000000002
20
62.964307079050002
10
222.60000000000002
20
62.96430707905003
42
-0.41421356237307422
10
222.10000000000002
20
63.464307079050002
10
222.09999999999997
20
76.464307079050002
42
-0.41421356237307422
10
222.60000000000002
20
76.964307079050002
10
235.60000000000002
20
76.96430707905003
42
-0.4142135623730222
10
236.10000000000002
20
76.464307079050002
10
236.09999999999999
20
63.464307079050002
42
-0.4142135623730222
0
LWPOLYLINE
5
183
100
AcDbEntity
8
0
100
AcDbPolyline
90
8
70
1
43
0.0
10
126.06250000000001
20
43.914307079050005
42
0.414213562373069
10
126.56250000000001
20
44.414307079049998
10
126.56250000000001
20
57.414307079049998
42
0.41421356237307422
10
126.06250000000001
20
57.914307079050005
10
113.0625
20
57.914307079049998
42
0.41421356237307422
10
112.56250000000001
20
57.414307079049998
10
112.5625
20
44.414307079049998
42
0.414213562373069
10
113.0625
20
43.914307079050005
0
LWPOLYLINE
5
184
100
AcDbEntity
8
0
100
AcDbPolyline
90
8
70
1
43
0.0
10
255.15000000000003
20
76.464307079050002
42
0.4142135623730222
10
254.65000000000003
20
76.96430707905003
10
241.65000000000003
20
76.964307079050002
42
0.41421356237307422
10
241.15000000000003
20
76.464307079050002
10
241.15000000000003
20
63.464307079050002
42
0.41421356237307422
10
241.65000000000003
20
62.964307079050002
10
254.65000000000003
20
62.964307079050002
42
0.4142135623730222
10
255.15000000000001
20
63.464307079050002
0
LWPOLYLINE
5
185
100
AcDbEntity
8
0
100
AcDbPolyline
90
8
70
1
43
0.0
10
121.8
20
76.464307079050002
10
121.8
20
63.464307079050002
42
-0.41421356237307422
10
121.30000000000001
20
62.964307079050002
10
108.3
20
62.964307079049995
42
-0.41421356237307422
10
107.8
20
63.464307079050002
10
107.80000000000001
20
76.464307079050002
42
-0.41421356237307422
10
108.3
20
76.964307079050002
10
121.30000000000001
20
76.964307079050002
42
-0.41421356237307422
0
LWPOLYLINE
5
186
100
AcDbEntity
8
0
100
AcDbPolyline
90
8
70
1
43
0.0
10
145.90000000000001
20
63.464307079050002
10
145.90000000000001
20
76.464307079050002
42
-0.41421356237310542
10
146.40000000000001
20
76.964307079050002
10
159.40000000000001
20
76.964307079050002
42
-0.41421356237310542
10
159.90000000000003
20
76.464307079050002
10
159.90000000000003
20
63.464307079050002
42
-0.41421356237310542
10
159.40000000000001
20
62.964307079050002
10
146.40000000000001
20
62.96430707905003
42
-0.41421356237310542
0
LWPOLYLINE
5
187
100
AcDbEntity
8
0
100
AcDbPolyline
90
8
70
1
43
0.0
10
178.94999999999999
20
76.464307079050002
42
0.4142135623730222
10
178.44999999999999
20
76.96430707905003
10
165.44999999999999
20
76.964307079050002
42
0.41421356237307422
10
164.95000000000002
20
76.464307079050002
10
164.94999999999999
20
63.464307079050002
42
0.41421356237307422
10
165.44999999999999
20
62.964307079050002
10
178.44999999999999
20
62.964307079050002
42
0.4142135623730222
10
178.94999999999999
20
63.464307079050002
0
LWPOLYLINE
5
188
100
AcDbEntity
8
0
100
AcDbPolyline
90
8
70
1
43
0.0
10
112.27500000000001
20
95.514307079049999
10
112.27500000000003
20
82.514307079049999
42
-0.41421356237307422
10
111.77500000000002
20
82.014307079049985
10
98.775000000000006
20
82.014307079049985
42
-0.41421356237307422
10
98.275000000000006
20
82.514307079049999
10
98.275000000000006
20
95.514307079049999
42
-0.41421356237307422
10
98.775000000000006
20
96.014307079050013
10
111.77500000000002
20
96.014307079049985
42
-0.41421356237307422
0
LWPOLYLINE
5
189
100
AcDbEntity
8
0
100
AcDbPolyline
90
8
70
1
43
0.0
10
203.05000000000004
20
63.464307079050002
42
0.4142135623730222
10
203.55000000000004
20
62.964307079049973
10
216.55000000000001
20
62.964307079050101
42
0.41421356237313145
10
217.05000000000001
20
63.464307079050002
10
217.05000000000001
20
76.464307079050002
42
0.4142135623730222
10
216.55000000000001
20
76.964307079050002
10
203.55000000000004
20
76.964307079050002
42
0.4142135623730222
10
203.05000000000004
20
76.464307079050002
0
LWPOLYLINE
5
190
100
AcDbEntity
8
0
100
AcDbPolyline
90
8
70
1
43
0.0
10
140.34999999999999
20
62.964307079050002
42
0.41421356237310542
10
140.85000000000002
20
63.464307079050002
10
140.85000000000002
20
76.464307079050002
42
0.41421356237310542
10
140.34999999999999
20
76.964307079050002
10
127.34999999999999
20
76.964307079050002
42
0.41421356237310542
10
126.85000000000001
20
76.464307079050002
10
126.84999999999999
20
63.464307079050002
42
0.41421356237310542
10
127.34999999999999
20
62.964307079050002
0
LWPOLYLINE
5
191
100
AcDbEntity
8
0
100
AcDbPolyline
90
8
70
1
43
0.0
10
184.5
20
76.964307079050002
42
0.41421356237307422
10
183.99999999999994
20
76.464307079050002
10
184
20
63.464307079050002
42
0.41421356237307422
10
184.5
20
62.964307079050002
10
197.5
20
62.964307079050002
42
0.4142135623730222
10
198
20
63.464307079050002
10
198
20
76.464307079050002
42
0.4142135623730222
10
197.5
20
76.964307079050002
0
LWPOLYLINE
5
192
100
AcDbEntity
8
0
100
AcDbPolyline
90
8
70
1
43
0.0
10
64.650000000000006
20
76.464307079050002
10
64.650000000000006
20
63.464307079050002
42
-0.41421356237310542
10
64.150000000000006
20
62.964307079050002
10
51.150000000000006
20
62.964307079050002
42
-0.41421356237310542
10
50.650000000000006
20
63.464307079050002
10
50.650000000000006
20
76.464307079050002
42
-0.41421356237310542
10
51.150000000000006
20
76.964307079050002
10
64.150000000000006
20
76.964307079050002
42
-0.41421356237310542
0
LWPOLYLINE
5
193
100
AcDbEntity
8
0
100
AcDbPolyline
90
8
70
1
43
0.0
10
32.100000000000001
20
76.964307079050002
10
45.100000000000009
20
76.964307079050002
42
-0.41421356237309503
10
45.600000000000009
20
76.464307079050002
10
45.600000000000009
20
63.464307079050002
42
-0.41421356237309503
10
45.100000000000009
20
62.964307079050002
10
32.100000000000001
20
62.964307079050016
42
-0.41421356237309764
10
31.600000000000005
20
63.464307079050002
10
31.600000000000001
20
76.464307079050002
42
-0.41421356237309764
0
LWPOLYLINE
5
194
100
AcDbEntity
8
0
100
AcDbPolyline
90
8
70
1
43
0.0
10
21.287500000000001
20
62.964307079050002
10
8.2874999999999979
20
62.964307079050002
42
-0.4142135623730957
10
7.7874999999999996
20
63.464307079050002
10
7.7874999999999996
20
76.464307079050002
42
-0.41421356237309631
10
8.2874999999999996
20
76.964307079050002
10
21.287500000000001
20
76.964307079050002
42
-0.41421356237309764
10
21.787500000000001
20
76.464307079050002
10
21.787500000000005
20
63.464307079050002
42
-0.41421356237309764
0
LWPOLYLINE
5
195
100
AcDbEntity
8
0
100
AcDbPolyline
90
20
70
1
43
0.0
10
275.63800000000003
20
82.014307079050013
10
258.762
20
82.014307079050013
10
258.76200000000011
20
81.514307079049999
42
-0.41421356237307422
10
258.262
20
81.0143070790499
10
252.26200000000003
20
81.014307079049985
42
-0.41421356237313667
10
251.762
20
81.514307079049999
10
251.762
20
82.014307079050013
10
251.17500000000004
20
82.014307079049985
42
-0.41421356237309503
10
250.67500000000001
20
82.514307079049999
10
250.67500000000001
20
95.514307079049999
42
-0.41421356237309503
10
251.17500000000004
20
96.014307079050013
10
283.22500000000002
20
96.014307079049985
42
-0.4142135623730846
10
283.72500000000008
20
95.514307079049999
10
283.72499999999997
20
82.514307079049999
42
-0.41421356237312623
10
283.22500000000002
20
82.014307079050099
10
282.63799999999998
20
82.014307079050013
10
282.63800000000009
20
81.514307079049999
42
-0.41421356237307422
10
282.13799999999998
20
81.0143070790499
10
276.13799999999998
20
81.014307079049971
42
-0.41421356237310542
10
275.63799999999998
20
81.514307079049999
0
LWPOLYLINE
5
196
100
AcDbEntity
8
0
100
AcDbPolyline
90
8
70
1
43
0.0
10
231.62500000000011
20
82.514307079049999
42
0.41421356237312623
10
232.12500000000003
20
82.014307079050113
10
245.12500000000003
20
82.0143070790499
42
0.41421356237303258
10
245.625
20
82.514307079049999
10
245.62500000000003
20
95.514307079049999
42
0.4142135623730846
10
245.12500000000003
20
96.014307079050013
10
232.12500000000003
20
96.014307079050013
42
0.41421356237309503
10
231.625
20
95.514307079049999
0
LWPOLYLINE
5
197
100
AcDbEntity
8
0
100
AcDbPolyline
90
8
70
1
43
0.0
10
27.566321860070001
20
57.914307079050005
42
0.41277553951952339
10
27.066327892514842
20
57.416763175231395
10
27.002468594154976
20
44.416763175259533
42
0.41517735666819727
10
27.501651194401425
20
43.914307408158201
10
33.028787438290003
20
43.914307079050012
42
0.41565304894326072
10
33.528781405844633
20
44.416763175223259
10
33.464922107484981
20
57.416763175268073
42
0.41325917767561082
10
32.964101819806658
20
57.914306737699562
0
LWPOLYLINE
5
198
100
AcDbEntity
8
0
100
AcDbPolyline
90
8
70
1
43
0.0
10
17.024999999999999
20
102.12368207900001
10
17.025000000000002
20
99.717432079049999
42
-0.41421356237309243
10
16.524999999999999
20
99.217432079049985
10
3.5250000000000004
20
99.217432079049971
42
-0.41421356237310542
10
3.0250000000000004
20
99.717432079049999
10
3.0249999999999932
20
102.12368207900001
42
-0.41421356237307422
10
3.5250000000000004
20
102.62368207900002
10
16.524999999999999
20
102.62368207900002
42
-0.41421356237307161
0
LWPOLYLINE
5
199
100
AcDbEntity
8
0
100
AcDbPolyline
90
8
70
1
43
0.0
10
3.0250000000000004
20
106.32680707900001
42
0.414213562351395
10
3.5249999999630011
20
105.82680707899999
10
16.525000000039999
20
105.82680707899999
42
0.41421356234967577
10
17.024999999999999
20
106.32680707900001
10
17.024999999999999
20
119.32680707900002
42
0.41421356237309243
10
16.524999999999999
20
119.82680707900002
10
3.5249999999949999
20
119.82680707900002
42
0.41421356237015772
10
3.0249999999999999
20
119.32680707900002
0
LINE
5
200
100
AcDbEntity
8
0
100
AcDbLine
10
38.847014888548685
20
102.12345218631697
30
0
11
38.848152647099248
21
100.9205527555813
31
0
0
LINE
5
201
100
AcDbEntity
8
0
100
AcDbLine
10
38.850000000000001
20
100.92055362923732
30
0
11
38.850000000000001
21
99.717432079049999
31
0
0
ARC
5
202
100
AcDbEntity
8
0
100
AcDbCircle
10
38.350000000000009
20
99.717432079049985
30
0
40
0.49999999999998934
210
0
220
0
230
1
100
AcDbArc
50
-90.00000000000081
51
0
0
LINE
5
203
100
AcDbEntity
8
0
100
AcDbLine
10
38.350000000000001
20
99.217432079049985
30
0
11
20.050000000000004
21
99.217432079050013
31
0
0
ARC
5
204
100
AcDbEntity
8
0
100
AcDbCircle
10
20.050000000000008
20
99.717432079049999
30
0
40
0.50000000000000488
210
0
220
0
230
1
100
AcDbArc
50
180
51
269.9999999999996
0
LINE
5
205
100
AcDbEntity
8
0
100
AcDbLine
10
19.550000000000004
20
99.717432079049999
30
0
11
19.550000000000001
21
102.12368207900001
31
0
0
ARC
5
206
100
AcDbEntity
8
0
100
AcDbCircle
10
20.050000000000026
20
102.12368207899999
30
0
40
0.50000000000002487
210
0
220
0
230
1
100
AcDbArc
50
90.000000000002444
51
180
0
LINE
5
207
100
AcDbEntity
8
0
100
AcDbLine
10
20.050000000000004
20
102.62368207900002
30
0
11
38.34701444745
21
102.62368207900002
31
0
0
ARC
5
208
100
AcDbEntity
8
0
100
AcDbCircle
10
38.347014447450022
20
102.12368207900002
30
0
40
0.50000049394925883
210
0
220
0
230
1
100
AcDbArc
50
-0.02634373586678555
51
90.000000000002444
0
LWPOLYLINE
5
209
100
AcDbEntity
8
0
100
AcDbPolyline
90
8
70
1
43
0.0
10
112.27500000000001
20
102.12368207900001
10
112.27500000000003
20
99.717432079049999
42
-0.41421356237309503
10
111.77500000000002
20
99.217432079049985
10
41.625000000000007
20
99.217432079049985
42
-0.41421356237308982
10
41.125000000000007
20
99.717432079049999
10
41.125000000000007
20
102.12368207899999
42
-0.414213562373069
10
41.625000000000007
20
102.62368207900002
10
111.77500000000002
20
102.62368207899999
42
-0.41421356237307422
0
LWPOLYLINE
5
210
100
AcDbEntity
8
0
100
AcDbPolyline
90
8
70
1
43
0.0
10
332.13749999999999
20
19.81430707905
10
345.13750000000005
20
19.81430707905
42
-0.41421356237311063
10
345.63749999999999
20
19.314307079050003
10
345.63749999999999
20
6.3143070790470013
42
-0.41421356237310936
10
345.13750000000005
20
5.8143070790470013
10
332.13749999999999
20
5.8143070790470919
42
-0.41421356237310025
10
331.63750000000005
20
6.3143070790470013
10
331.63749999999999
20
19.314307079050003
42
-0.41421356237309892
0
LWPOLYLINE
5
211
100
AcDbEntity
8
0
100
AcDbPolyline
90
8
70
1
43
0.0
10
313.08749999999998
20
19.81430707905
10
326.08749999999998
20
19.81430707905
42
-0.41421356237311063
10
326.58749999999998
20
19.314307079050003
10
326.58749999999998
20
6.3143070790470013
42
-0.41421356237310936
10
326.08749999999998
20
5.8143070790470013
10
313.08749999999998
20
5.8143070790470244
42
-0.41421356237307749
10
312.58749999999998
20
6.3143070790470013
10
312.58749999999998
20
19.314307079050003
42
-0.41421356237313017
0
LWPOLYLINE
5
212
100
AcDbEntity
8
0
100
AcDbPolyline
90
8
70
1
43
0.0
10
294.03750000000002
20
19.81430707905
10
307.03750000000002
20
19.814307079049975
42
-0.41421356237307549
10
307.53750000000002
20
19.314307079050003
10
307.53749999999991
20
6.3143070790470013
42
-0.41421356237313145
10
307.03750000000002
20
5.8143070790471008
10
294.03750000000002
20
5.8143070790469711
42
-0.41421356237302542
10
293.53750000000002
20
6.3143070790470013
10
293.53750000000002
20
19.314307079050003
42
-0.41421356237302348
0
LWPOLYLINE
5
213
100
AcDbEntity
8
0
100
AcDbPolyline
90
8
70
1
43
0.0
10
331.63750000000005
20
106.32680707900001
42
0.41421356237310542
10
332.13749999999999
20
105.82680707900009
10
345.13750000000005
20
105.82680707899999
42
0.4142135623730534
10
345.63749999999999
20
106.32680707900001
10
345.63749999999999
20
119.32680707900002
42
0.4142135623730534
10
345.13750000000005
20
119.82680707900002
10
332.13749999999999
20
119.82680707899991
42
0.41421356237310542
10
331.63749999999999
20
119.32680707900002
0
LWPOLYLINE
5
214
100
AcDbEntity
8
0
100
AcDbPolyline
90
8
70
1
43
0.0
10
345.13750000000005
20
62.964307079050002
42
0.41421356237310542
10
345.63749999999999
20
63.464307079050002
10
345.63749999999999
20
76.464307079050002
42
0.41421356237310542
10
345.13750000000005
20
76.964307079050002
10
332.13749999999999
20
76.964307079049917
42
0.41421356237310025
10
331.63749999999999
20
76.464307079050002
10
331.63750000000005
20
63.464307079050002
42
0.41421356237310025
10
332.13749999999999
20
62.964307079050002
0
LWPOLYLINE
5
215
100
AcDbEntity
8
0
100
AcDbPolyline
90
8
70
1
43
0.0
10
332.13749999999999
20
96.014307079050013
10
345.13750000000005
20
96.014307079050042
42
-0.4142135623730534
10
345.63749999999999
20
95.514307079049999
10
345.63749999999999
20
82.514307079049999
42
-0.4142135623730534
10
345.13750000000005
20
82.014307079049985
10
332.13749999999999
20
82.014307079050099
42
-0.41421356237309503
10
331.63750000000005
20
82.514307079049999
10
331.63749999999993
20
95.514307079049999
42
-0.41421356237309503
0
LWPOLYLINE
5
216
100
AcDbEntity
8
0
100
AcDbPolyline
90
8
70
1
43
0.0
10
326.08749999999998
20
105.82680707899999
42
0.4142135623730534
10
326.58749999999998
20
106.32680707900001
10
326.58749999999998
20
119.32680707900002
42
0.4142135623730534
10
326.08749999999998
20
119.82680707900002
10
313.08749999999998
20
119.82680707899991
42
0.41421356237313667
10
312.58749999999998
20
119.32680707900002
10
312.58749999999998
20
106.32680707900001
42
0.41421356237313667
10
313.08749999999998
20
105.82680707900002
0
LWPOLYLINE
5
217
100
AcDbEntity
8
0
100
AcDbPolyline
90
8
70
1
43
0.0
10
326.08749999999998
20
82.014307079049985
42
0.4142135623730534
10
326.58749999999998
20
82.514307079049999
10
326.58749999999998
20
95.514307079049999
42
0.4142135623730534
10
326.08749999999998
20
96.014307079050013
10
313.08749999999998
20
96.014307079050013
42
0.41421356237309503
10
312.58749999999998
20
95.514307079049999
10
312.58750000000009
20
82.514307079049999
42
0.41421356237312623
10
313.08749999999998
20
82.014307079050013
0
LWPOLYLINE
5
218
100
AcDbEntity
8
0
100
AcDbPolyline
90
8
70
1
43
0.0
10
326.08749999999998
20
62.964307079050002
42
0.41421356237310542
10
326.58749999999998
20
63.464307079050002
10
326.58749999999998
20
76.464307079050002
42
0.41421356237310542
10
326.08749999999998
20
76.964307079050002
10
313.08749999999998
20
76.964307079050002
42
0.41421356237307422
10
312.58749999999998
20
76.464307079050002
10
312.58749999999998
20
63.464307079050002
42
0.41421356237307422
10
313.08749999999998
20
62.964307079050002
0
CIRCLE
5
219
100
AcDbEntity
8
0
100
AcDbCircle
10
329.11249999979998
20
126.45180707900002
30
0
40
1.5500000000000003
210
0
220
-0
230
1
0
LWPOLYLINE
5
220
100
AcDbEntity
8
0
100
AcDbPolyline
90
14
70
1
43
0.0
10
244.03125056711002
20
38.883423142389979
42
0.4142138945784723
10
243.53125000000003
20
38.383423142390299
10
243.53125000000003
20
25.36430707905
42
0.41421356237309503
10
244.03125000000003
20
24.864307079050004
10
244.61825000000002
20
24.864307079050004
10
244.61825000000002
20
23.383398160999999
42
0.41421356237309503
10
245.11825000000002
20
22.883398161000002
10
251.118450682998
20
22.883398161000002
42
0.41421356237309503
10
251.618450682998
20
23.383398160999999
10
251.618450682998
20
24.864307079050004
10
266.556438963998
20
24.864307079050004
42
0.41421356237309503
10
267.056438963998
20
25.36430707905
10
267.05643896399698
20
38.383397593890798
42
0.414213230167775
10
266.556439531107
20
38.8833975938905
0
LWPOLYLINE
5
221
100
AcDbEntity
8
0
100
AcDbPolyline
90
26
70
1
43
0.0
10
280.84369812058497
20
45.021979253749109
10
280.25675000000001
20
45.021979253749109
10
280.25675000000001
20
44.414307079049998
42
-0.41421356237309503
10
279.75675000000001
20
43.914307079050005
10
246.41269811999803
20
43.914307079049991
42
-0.41421356237309503
10
245.91269811999803
20
44.414307079049998
10
245.91269811999803
20
57.433392079000001
42
-0.41421356237309503
10
246.41269811999803
20
57.933392079000001
10
249.38075000000001
20
57.933392079000008
10
249.38075000000001
20
59.43348643437821
42
-0.41426883180983431
10
249.88084434898599
20
59.933486425476474
10
255.88084434898602
20
59.932354237628275
42
-0.414158295096278
10
256.38075000000003
20
59.432354246530004
10
256.38075000000003
20
57.933392079000008
10
267.312698119998
20
57.933392079000008
10
267.312698119998
20
62.964307079050002
10
265.46249999999998
20
62.964307079049995
42
-0.41421356237309503
10
264.96249999999998
20
63.464307079050002
10
264.96249999999998
20
76.483410388999999
42
-0.41421356237309503
10
265.46249999999998
20
76.983410388999999
10
278.46270422299801
20
76.983410389000113
42
-0.41421356237309503
10
278.96270422299801
20
76.483410389000113
10
278.96270422299801
20
75.896389514999996
10
280.84369811998698
20
75.89638951500001
42
-0.41421356236723145
10
281.34369811998698
20
75.396389515010014
10
281.34369812058497
20
45.521979253759099
42
-0.41421356237894824
0
ENDSEC
0
SECTION
2
OBJECTS
0
DICTIONARY
5
C
100
AcDbDictionary
3
ACAD_GROUP
350
D
3
ACAD_MLINESTYLE
350
17
0
DICTIONARY
5
D
100
AcDbDictionary
0
DICTIONARY
5
1A
330
C
100
AcDbDictionary
0
DICTIONARY
5
17
100
AcDbDictionary
0
ENDSEC
0
EOF
