  0
SECTION
  2
HEADER
  9
$ACADVER
  1
AC1032
  9
$ACADMAINTVER
 90
      248
  9
$DWGCODEPAGE
  3
ANSI_950
  9
$LASTSAVEDBY
  1
Jay
  9
$REQUIREDVERSIONS
160
                 0
  9
$INSBASE
 10
0.0
 20
0.0
 30
0.0
  9
$EXTMIN
 10
-10.10831591959095
 20
-162.5783161311187
 30
0.0
  9
$EXTMAX
 10
584.8598558552602
 20
119.134227556876
 30
0.0000000000102212
  9
$LIMMIN
 10
0.0
 20
0.0
  9
$LIMMAX
 10
12.0
 20
9.0
  9
$ORTHOMODE
 70
     1
  9
$REGENMODE
 70
     1
  9
$FILLMODE
 70
     1
  9
$QTEXTMODE
 70
     0
  9
$MIRRTEXT
 70
     1
  9
$LTSCALE
 40
1.0
  9
$ATTMODE
 70
     1
  9
$TEXTSIZE
 40
0.2
  9
$TRACEWID
 40
0.05
  9
$TEXTSTYLE
  7
Standard
  9
$CLAYER
  8
0
  9
$CELTYPE
  6
ByLayer
  9
$CECOLOR
 62
   256
  9
$CELTSCALE
 40
1.0
  9
$DISPSILH
 70
     0
  9
$DIMSCALE
 40
1.0
  9
$DIMASZ
 40
0.18
  9
$DIMEXO
 40
0.0625
  9
$DIMDLI
 40
0.38
  9
$DIMRND
 40
0.0
  9
$DIMDLE
 40
0.0
  9
$DIMEXE
 40
0.18
  9
$DIMTP
 40
0.0
  9
$DIMTM
 40
0.0
  9
$DIMTXT
 40
0.18
  9
$DIMCEN
 40
0.09
  9
$DIMTSZ
 40
0.0
  9
$DIMTOL
 70
     0
  9
$DIMLIM
 70
     0
  9
$DIMTIH
 70
     1
  9
$DIMTOH
 70
     1
  9
$DIMSE1
 70
     0
  9
$DIMSE2
 70
     0
  9
$DIMTAD
 70
     0
  9
$DIMZIN
 70
     0
  9
$DIMBLK
  1

  9
$DIMASO
 70
     1
  9
$DIMSHO
 70
     1
  9
$DIMPOST
  1

  9
$DIMAPOST
  1

  9
$DIMALT
 70
     0
  9
$DIMALTD
 70
     2
  9
$DIMALTF
 40
25.4
  9
$DIMLFAC
 40
1.0
  9
$DIMTOFL
 70
     0
  9
$DIMTVP
 40
0.0
  9
$DIMTIX
 70
     0
  9
$DIMSOXD
 70
     0
  9
$DIMSAH
 70
     0
  9
$DIMBLK1
  1

  9
$DIMBLK2
  1

  9
$DIMSTYLE
  2
STANDARD_ACAD
  9
$DIMCLRD
 70
     0
  9
$DIMCLRE
 70
     0
  9
$DIMCLRT
 70
     0
  9
$DIMTFAC
 40
1.0
  9
$DIMGAP
 40
0.09
  9
$DIMJUST
 70
     0
  9
$DIMSD1
 70
     0
  9
$DIMSD2
 70
     0
  9
$DIMTOLJ
 70
     1
  9
$DIMTZIN
 70
     0
  9
$DIMALTZ
 70
     0
  9
$DIMALTTZ
 70
     0
  9
$DIMUPT
 70
     0
  9
$DIMDEC
 70
     4
  9
$DIMTDEC
 70
     4
  9
$DIMALTU
 70
     2
  9
$DIMALTTD
 70
     2
  9
$DIMTXSTY
  7
Standard
  9
$DIMAUNIT
 70
     0
  9
$DIMADEC
 70
     0
  9
$DIMALTRND
 40
0.0
  9
$DIMAZIN
 70
     0
  9
$DIMDSEP
 70
    46
  9
$DIMATFIT
 70
     3
  9
$DIMFRAC
 70
     0
  9
$DIMLDRBLK
  1

  9
$DIMLUNIT
 70
     2
  9
$DIMLWD
 70
    -2
  9
$DIMLWE
 70
    -2
  9
$DIMTMOVE
 70
     2
  9
$DIMFXL
 40
1.0
  9
$DIMFXLON
 70
     0
  9
$DIMJOGANG
 40
0.7853981633974483
  9
$DIMTFILL
 70
     0
  9
$DIMTFILLCLR
 70
     0
  9
$DIMARCSYM
 70
     0
  9
$DIMLTYPE
  6

  9
$DIMLTEX1
  6

  9
$DIMLTEX2
  6

  9
$DIMTXTDIRECTION
 70
     0
  9
$LUNITS
 70
     2
  9
$LUPREC
 70
     3
  9
$SKETCHINC
 40
0.1
  9
$FILLETRAD
 40
0.5
  9
$AUNITS
 70
     0
  9
$AUPREC
 70
     0
  9
$MENU
  1
.
  9
$ELEVATION
 40
0.0
  9
$PELEVATION
 40
0.0
  9
$THICKNESS
 40
0.0
  9
$LIMCHECK
 70
     0
  9
$CHAMFERA
 40
0.0
  9
$CHAMFERB
 40
0.0
  9
$CHAMFERC
 40
0.0
  9
$CHAMFERD
 40
0.0
  9
$SKPOLY
 70
     0
  9
$TDCREATE
 40
2459896.912731482
  9
$TDUCREATE
 40
2459896.579407685
  9
$TDUPDATE
 40
2460475.548182870
  9
$TDUUPDATE
 40
2460475.214849537
  9
$TDINDWG
 40
0.5104051042
  9
$TDUSRTIMER
 40
0.5104051042
  9
$USRTIMER
 70
     1
  9
$ANGBASE
 50
0.0
  9
$ANGDIR
 70
     0
  9
$PDMODE
 70
     0
  9
$PDSIZE
 40
0.0
  9
$PLINEWID
 40
0.0
  9
$SPLFRAME
 70
     0
  9
$SPLINETYPE
 70
     6
  9
$SPLINESEGS
 70
     8
  9
$HANDSEED
  5
1287
  9
$SURFTAB1
 70
     6
  9
$SURFTAB2
 70
     6
  9
$SURFTYPE
 70
     6
  9
$SURFU
 70
     6
  9
$SURFV
 70
     6
  9
$UCSBASE
  2

  9
$UCSNAME
  2

  9
$UCSORG
 10
0.0
 20
0.0
 30
0.0
  9
$UCSXDIR
 10
1.0
 20
0.0
 30
0.0
  9
$UCSYDIR
 10
0.0
 20
1.0
 30
0.0
  9
$UCSORTHOREF
  2

  9
$UCSORTHOVIEW
 70
     0
  9
$UCSORGTOP
 10
0.0
 20
0.0
 30
0.0
  9
$UCSORGBOTTOM
 10
0.0
 20
0.0
 30
0.0
  9
$UCSORGLEFT
 10
0.0
 20
0.0
 30
0.0
  9
$UCSORGRIGHT
 10
0.0
 20
0.0
 30
0.0
  9
$UCSORGFRONT
 10
0.0
 20
0.0
 30
0.0
  9
$UCSORGBACK
 10
0.0
 20
0.0
 30
0.0
  9
$PUCSBASE
  2

  9
$PUCSNAME
  2

  9
$PUCSORG
 10
0.0
 20
0.0
 30
0.0
  9
$PUCSXDIR
 10
1.0
 20
0.0
 30
0.0
  9
$PUCSYDIR
 10
0.0
 20
1.0
 30
0.0
  9
$PUCSORTHOREF
  2

  9
$PUCSORTHOVIEW
 70
     0
  9
$PUCSORGTOP
 10
0.0
 20
0.0
 30
0.0
  9
$PUCSORGBOTTOM
 10
0.0
 20
0.0
 30
0.0
  9
$PUCSORGLEFT
 10
0.0
 20
0.0
 30
0.0
  9
$PUCSORGRIGHT
 10
0.0
 20
0.0
 30
0.0
  9
$PUCSORGFRONT
 10
0.0
 20
0.0
 30
0.0
  9
$PUCSORGBACK
 10
0.0
 20
0.0
 30
0.0
  9
$USERI1
 70
     0
  9
$USERI2
 70
     0
  9
$USERI3
 70
     0
  9
$USERI4
 70
     0
  9
$USERI5
 70
     0
  9
$USERR1
 40
0.0
  9
$USERR2
 40
0.0
  9
$USERR3
 40
0.0
  9
$USERR4
 40
0.0
  9
$USERR5
 40
0.0
  9
$WORLDVIEW
 70
     1
  9
$SHADEDGE
 70
     3
  9
$SHADEDIF
 70
    70
  9
$TILEMODE
 70
     1
  9
$MAXACTVP
 70
    64
  9
$PINSBASE
 10
0.0
 20
0.0
 30
0.0
  9
$PLIMCHECK
 70
     0
  9
$PEXTMIN
 10
1.000000000000000E+20
 20
1.000000000000000E+20
 30
1.000000000000000E+20
  9
$PEXTMAX
 10
-1.000000000000000E+20
 20
-1.000000000000000E+20
 30
-1.000000000000000E+20
  9
$PLIMMIN
 10
0.0
 20
0.0
  9
$PLIMMAX
 10
12.0
 20
9.0
  9
$UNITMODE
 70
     0
  9
$VISRETAIN
 70
     1
  9
$PLINEGEN
 70
     0
  9
$PSLTSCALE
 70
     1
  9
$TREEDEPTH
 70
  3020
  9
$CMLSTYLE
  2
Standard
  9
$CMLJUST
 70
     0
  9
$CMLSCALE
 40
1.0
  9
$PROXYGRAPHICS
 70
     1
  9
$MEASUREMENT
 70
     1
  9
$CELWEIGHT
370
    -1
  9
$ENDCAPS
280
     0
  9
$JOINSTYLE
280
     0
  9
$LWDISPLAY
290
     0
  9
$INSUNITS
 70
     4
  9
$HYPERLINKBASE
  1

  9
$STYLESHEET
  1

  9
$XEDIT
290
     1
  9
$CEPSNTYPE
380
     0
  9
$PSTYLEMODE
290
     1
  9
$FINGERPRINTGUID
  2
{AFE098B8-4286-40F6-8FD4-0537CA390805}
  9
$VERSIONGUID
  2
{393FD5BF-889A-D442-8722-951335479E74}
  9
$EXTNAMES
290
     1
  9
$PSVPSCALE
 40
0.0
  9
$OLESTARTUP
290
     0
  9
$SORTENTS
280
   127
  9
$INDEXCTL
280
     0
  9
$HIDETEXT
280
     1
  9
$XCLIPFRAME
280
     2
  9
$HALOGAP
280
     0
  9
$OBSCOLOR
 70
   257
  9
$OBSLTYPE
280
     0
  9
$INTERSECTIONDISPLAY
280
     0
  9
$INTERSECTIONCOLOR
 70
   257
  9
$DIMASSOC
280
     2
  9
$PROJECTNAME
  1

  9
$CAMERADISPLAY
290
     0
  9
$LENSLENGTH
 40
50.0
  9
$CAMERAHEIGHT
 40
0.0
  9
$STEPSPERSEC
 40
2.0
  9
$STEPSIZE
 40
6.0
  9
$3DDWFPREC
 40
2.0
  9
$PSOLWIDTH
 40
0.25
  9
$PSOLHEIGHT
 40
4.0
  9
$LOFTANG1
 40
1.570796326794896
  9
$LOFTANG2
 40
1.570796326794896
  9
$LOFTMAG1
 40
0.0
  9
$LOFTMAG2
 40
0.0
  9
$LOFTPARAM
 70
     7
  9
$LOFTNORMALS
280
     1
  9
$LATITUDE
 40
37.795
  9
$LONGITUDE
 40
-122.394
  9
$NORTHDIRECTION
 40
0.0
  9
$TIMEZONE
 70
 -8000
  9
$LIGHTGLYPHDISPLAY
280
     1
  9
$TILEMODELIGHTSYNCH
280
     1
  9
$CMATERIAL
347
44
  9
$SOLIDHIST
280
     0
  9
$SHOWHIST
280
     1
  9
$DWFFRAME
280
     2
  9
$DGNFRAME
280
     0
  9
$REALWORLDSCALE
290
     1
  9
$INTERFERECOLOR
 62
     1
  9
$INTERFEREOBJVS
345
33
  9
$INTERFEREVPVS
346
30
  9
$CSHADOW
280
     0
  9
$SHADOWPLANELOCATION
 40
0.0
  0
ENDSEC
  0
SECTION
  2
CLASSES
  0
CLASS
  1
ACDBDICTIONARYWDFLT
  2
AcDbDictionaryWithDefault
  3
ObjectDBX Classes
 90
        0
 91
        1
280
     0
281
     0
  0
CLASS
  1
VISUALSTYLE
  2
AcDbVisualStyle
  3
ObjectDBX Classes
 90
     4095
 91
       24
280
     0
281
     0
  0
CLASS
  1
MATERIAL
  2
AcDbMaterial
  3
ObjectDBX Classes
 90
     1153
 91
        3
280
     0
281
     0
  0
CLASS
  1
SCALE
  2
AcDbScale
  3
ObjectDBX Classes
 90
     1153
 91
       33
280
     0
281
     0
  0
CLASS
  1
TABLESTYLE
  2
AcDbTableStyle
  3
ObjectDBX Classes
 90
     4095
 91
        1
280
     0
281
     0
  0
CLASS
  1
MLEADERSTYLE
  2
AcDbMLeaderStyle
  3
ACDB_MLEADERSTYLE_CLASS
 90
     4095
 91
        1
280
     0
281
     0
  0
CLASS
  1
SUN
  2
AcDbSun
  3
SCENEOE
 90
     1153
 91
        0
280
     0
281
     0
  0
CLASS
  1
DICTIONARYVAR
  2
AcDbDictionaryVar
  3
ObjectDBX Classes
 90
        0
 91
       25
280
     0
281
     0
  0
CLASS
  1
CELLSTYLEMAP
  2
AcDbCellStyleMap
  3
ObjectDBX Classes
 90
     1152
 91
        3
280
     0
281
     0
  0
CLASS
  1
ACDBSECTIONVIEWSTYLE
  2
AcDbSectionViewStyle
  3
ObjectDBX Classes
 90
     1025
 91
        3
280
     0
281
     0
  0
CLASS
  1
ACDBDETAILVIEWSTYLE
  2
AcDbDetailViewStyle
  3
ObjectDBX Classes
 90
     1025
 91
        3
280
     0
281
     0
  0
CLASS
  1
SORTENTSTABLE
  2
AcDbSortentsTable
  3
ObjectDBX Classes
 90
        0
 91
        7
280
     0
281
     0
  0
ENDSEC
  0
SECTION
  2
TABLES
  0
TABLE
  2
VPORT
  5
8
330
0
100
AcDbSymbolTable
 70
     1
  0
VPORT
  5
29
330
8
100
AcDbSymbolTableRecord
100
AcDbViewportTableRecord
  2
*Active
 70
     0
 10
0.0
 20
0.0
 11
1.0
 21
1.0
 12
181.0429342040861
 22
52.48459576002533
 13
0.0
 23
0.0
 14
0.5
 24
0.5
 15
0.5
 25
0.5
 16
0.0
 26
0.0
 36
1.0
 17
0.0
 27
0.0
 37
0.0
 40
244.6470854494779
 41
2.129242819843342
 42
50.0
 43
0.0
 44
0.0
 50
0.0
 51
0.0
 71
     0
 72
   100
 73
     1
 74
     3
 75
     0
 76
     0
 77
     0
 78
     0
281
     0
 65
     1
110
0.0
120
0.0
130
0.0
111
1.0
121
0.0
131
0.0
112
0.0
122
1.0
132
0.0
 79
     0
146
0.0
348
2F
 60
     3
 61
     5
292
     1
282
     1
141
0.0
142
0.0
 63
   250
421
  3355443
1001
ACAD_NAV_VCDISPLAY
1070
     3
  0
ENDTAB
  0
TABLE
  2
LTYPE
  5
5
330
0
100
AcDbSymbolTable
 70
     3
  0
LTYPE
  5
14
330
5
100
AcDbSymbolTableRecord
100
AcDbLinetypeTableRecord
  2
ByBlock
 70
     0
  3

 72
    65
 73
     0
 40
0.0
  0
LTYPE
  5
15
330
5
100
AcDbSymbolTableRecord
100
AcDbLinetypeTableRecord
  2
ByLayer
 70
     0
  3

 72
    65
 73
     0
 40
0.0
  0
LTYPE
  5
16
330
5
100
AcDbSymbolTableRecord
100
AcDbLinetypeTableRecord
  2
Continuous
 70
     0
  3
Solid line
 72
    65
 73
     0
 40
0.0
  0
ENDTAB
  0
TABLE
  2
LAYER
  5
2
102
{ACAD_XDICTIONARY
360
B6C
102
}
330
0
100
AcDbSymbolTable
 70
     2
  0
LAYER
  5
10
102
{ACAD_XDICTIONARY
360
122A
102
}
330
2
100
AcDbSymbolTableRecord
100
AcDbLayerTableRecord
  2
0
 70
     0
 62
     7
  6
Continuous
370
    -3
390
F
347
46
348
0
  0
LAYER
  5
6F
102
{ACAD_XDICTIONARY
360
122C
102
}
330
2
100
AcDbSymbolTableRecord
100
AcDbLayerTableRecord
  2
默认
 70
     0
 62
    18
420
        0
  6
Continuous
370
    -3
390
F
347
46
348
0
  0
ENDTAB
  0
TABLE
  2
STYLE
  5
3
330
0
100
AcDbSymbolTable
 70
     1
  0
STYLE
  5
11
330
3
100
AcDbSymbolTableRecord
100
AcDbTextStyleTableRecord
  2
Standard
 70
     0
 40
0.0
 41
1.0
 50
0.0
 71
     0
 42
0.2
  3
txt
  4

  0
ENDTAB
  0
TABLE
  2
VIEW
  5
6
330
0
100
AcDbSymbolTable
 70
     1
  0
ENDTAB
  0
TABLE
  2
UCS
  5
7
330
0
100
AcDbSymbolTable
 70
     0
  0
ENDTAB
  0
TABLE
  2
APPID
  5
9
330
0
100
AcDbSymbolTable
 70
     9
  0
APPID
  5
12
330
9
100
AcDbSymbolTableRecord
100
AcDbRegAppTableRecord
  2
ACAD
 70
     0
  0
APPID
  5
6E
330
9
100
AcDbSymbolTableRecord
100
AcDbRegAppTableRecord
  2
Rhino
 70
     0
  0
APPID
  5
4D0
330
9
100
AcDbSymbolTableRecord
100
AcDbRegAppTableRecord
  2
ACAD_MLEADERVER
 70
     0
  0
APPID
  5
B6B
330
9
100
AcDbSymbolTableRecord
100
AcDbRegAppTableRecord
  2
ACAD_NAV_VCDISPLAY
 70
     0
  0
APPID
  5
1174
330
9
100
AcDbSymbolTableRecord
100
AcDbRegAppTableRecord
  2
ACAD_EXEMPT_FROM_CAD_STANDARDS
 70
     0
  0
APPID
  5
1193
330
9
100
AcDbSymbolTableRecord
100
AcDbRegAppTableRecord
  2
ACAD_DSTYLE_DIMRADIAL_EXTENSION
 70
     0
  0
APPID
  5
11B2
330
9
100
AcDbSymbolTableRecord
100
AcDbRegAppTableRecord
  2
AcadAnnotative
 70
     0
  0
APPID
  5
11B3
330
9
100
AcDbSymbolTableRecord
100
AcDbRegAppTableRecord
  2
ACAD_DSTYLE_DIMJAG
 70
     0
  0
APPID
  5
11B4
330
9
100
AcDbSymbolTableRecord
100
AcDbRegAppTableRecord
  2
ACAD_DSTYLE_DIMTALN
 70
     0
  0
ENDTAB
  0
TABLE
  2
DIMSTYLE
  5
A
330
0
100
AcDbSymbolTable
 70
     5
100
AcDbDimStyleTable
 71
     1
340
27
  0
DIMSTYLE
105
27
330
A
100
AcDbSymbolTableRecord
100
AcDbDimStyleTableRecord
  2
STANDARD_ACAD
 70
     0
340
11
  0
DIMSTYLE
105
B6A
330
A
100
AcDbSymbolTableRecord
100
AcDbDimStyleTableRecord
  2
Standard
 70
     0
340
11
  0
DIMSTYLE
105
11B1
330
A
100
AcDbSymbolTableRecord
100
AcDbDimStyleTableRecord
  2
Annotative
 70
     0
 40
0.0
340
11
1001
AcadAnnotative
1000
AnnotativeData
1002
{
1070
     1
1070
     1
1002
}
1001
ACAD_DSTYLE_DIMJAG
1070
   388
1040
1.5
1001
ACAD_DSTYLE_DIMTALN
1070
   392
1070
     0
  0
ENDTAB
  0
TABLE
  2
BLOCK_RECORD
  5
1
330
0
100
AcDbSymbolTable
 70
     9
  0
BLOCK_RECORD
  5
1F
102
{ACAD_XDICTIONARY
360
10BD
102
}
330
1
100
AcDbSymbolTableRecord
100
AcDbBlockTableRecord
  2
*Model_Space
340
22
 70
     0
280
     1
281
     0
  0
BLOCK_RECORD
  5
1B
330
1
100
AcDbSymbolTableRecord
100
AcDbBlockTableRecord
  2
*Paper_Space
340
1E
 70
     0
280
     1
281
     0
  0
BLOCK_RECORD
  5
23
330
1
100
AcDbSymbolTableRecord
100
AcDbBlockTableRecord
  2
*Paper_Space0
340
26
 70
     0
280
     1
281
     0
  0
ENDTAB
  0
ENDSEC
  0
SECTION
  2
BLOCKS
  0
BLOCK
  5
20
330
1F
100
AcDbEntity
  8
0
100
AcDbBlockBegin
  2
*Model_Space
 70
     0
 10
0.0
 20
0.0
 30
0.0
  3
*Model_Space
  1

  0
ENDBLK
  5
21
330
1F
100
AcDbEntity
  8
0
100
AcDbBlockEnd
  0
BLOCK
  5
1C
330
1B
100
AcDbEntity
 67
     1
  8
0
100
AcDbBlockBegin
  2
*Paper_Space
 70
     0
 10
0.0
 20
0.0
 30
0.0
  3
*Paper_Space
  1

  0
ENDBLK
  5
1D
330
1B
100
AcDbEntity
 67
     1
  8
0
100
AcDbBlockEnd
  0
BLOCK
  5
24
330
23
100
AcDbEntity
 67
     1
  8
0
100
AcDbBlockBegin
  2
*Paper_Space0
 70
     0
 10
0.0
 20
0.0
 30
0.0
  3
*Paper_Space0
  1

  0
ENDBLK
  5
25
330
23
100
AcDbEntity
 67
     1
  8
0
100
AcDbBlockEnd
  0
ENDSEC
  0
SECTION
  2
ENTITIES
  0
POLYLINE
  5
98
330
1F
100
AcDbEntity
  8
默认
 62
     7
420
 16777215
100
AcDb2dPolyline
 66
     1
 10
0.0
 20
0.0
 30
0.0000000000015596
 70
     1
  0
VERTEX
  5
99
330
98
100
AcDbEntity
  8
默认
 62
     7
420
 16777215
100
AcDbVertex
100
AcDb2dVertex
 10
244.6250000000105
 20
97.32500004755799
 30
0.0000000000015596
 42
-0.4142135623720355
  0
VERTEX
  5
9A
330
98
100
AcDbEntity
  8
默认
 62
     7
420
 16777215
100
AcDbVertex
100
AcDb2dVertex
 10
245.1250000000105
 20
96.82500004755798
 30
0.0000000000015596
  0
VERTEX
  5
9B
330
98
100
AcDbEntity
  8
默认
 62
     7
420
 16777215
100
AcDbVertex
100
AcDb2dVertex
 10
245.1250000000105
 20
83.82500004755893
 30
0.0000000000015596
 42
-0.4142135623717916
  0
VERTEX
  5
9C
330
98
100
AcDbEntity
  8
默认
 62
     7
420
 16777215
100
AcDbVertex
100
AcDb2dVertex
 10
244.6250000000105
 20
83.32500004755896
 30
0.0000000000015596
  0
VERTEX
  5
9D
330
98
100
AcDbEntity
  8
默认
 62
     7
420
 16777215
100
AcDbVertex
100
AcDb2dVertex
 10
231.6250000000105
 20
83.32500004755893
 30
0.0000000000015596
 42
-0.4142135623753593
  0
VERTEX
  5
9E
330
98
100
AcDbEntity
  8
默认
 62
     7
420
 16777215
100
AcDbVertex
100
AcDb2dVertex
 10
231.1250000000105
 20
83.82500004755893
 30
0.0000000000015596
  0
VERTEX
  5
9F
330
98
100
AcDbEntity
  8
默认
 62
     7
420
 16777215
100
AcDbVertex
100
AcDb2dVertex
 10
231.1250000000105
 20
96.82500004755798
 30
0.0000000000015596
 42
-0.4142135623763043
  0
VERTEX
  5
A0
330
98
100
AcDbEntity
  8
默认
 62
     7
420
 16777215
100
AcDbVertex
100
AcDb2dVertex
 10
231.6250000000105
 20
97.32500004755893
 30
0.0000000000015596
  0
SEQEND
  5
A1
330
98
100
AcDbEntity
  8
默认
 62
     7
420
 16777215
  0
POLYLINE
  5
A2
330
1F
100
AcDbEntity
  8
默认
 62
     7
420
 16777215
100
AcDb2dPolyline
 66
     1
 10
0.0
 20
0.0
 30
0.0000000000082352
 70
     1
  0
VERTEX
  5
A3
330
A2
100
AcDbEntity
  8
默认
 62
     7
420
 16777215
100
AcDbVertex
100
AcDb2dVertex
 10
68.41214000001014
 20
21.12499987897098
 30
0.0000000000082352
 42
-0.4142135623734265
  0
VERTEX
  5
A4
330
A2
100
AcDbEntity
  8
默认
 62
     7
420
 16777215
100
AcDbVertex
100
AcDb2dVertex
 10
68.91214000001014
 20
20.62499987897098
 30
0.0000000000082352
  0
VERTEX
  5
A5
330
A2
100
AcDbEntity
  8
默认
 62
     7
420
 16777215
100
AcDbVertex
100
AcDb2dVertex
 10
68.91214000001014
 20
7.624999878970982
 30
0.0000000000082352
 42
-0.4142135623722081
  0
VERTEX
  5
A6
330
A2
100
AcDbEntity
  8
默认
 62
     7
420
 16777215
100
AcDbVertex
100
AcDb2dVertex
 10
68.41214000001014
 20
7.12499987897099
 30
0.0000000000082352
  0
VERTEX
  5
A7
330
A2
100
AcDbEntity
  8
默认
 62
     7
420
 16777215
100
AcDbVertex
100
AcDb2dVertex
 10
53.03135000001021
 20
7.124999878970982
 30
0.0000000000082352
 42
-0.4142135623736644
  0
VERTEX
  5
A8
330
A2
100
AcDbEntity
  8
默认
 62
     7
420
 16777215
100
AcDbVertex
100
AcDb2dVertex
 10
52.53135000001021
 20
7.624999878970982
 30
0.0000000000082352
  0
VERTEX
  5
A9
330
A2
100
AcDbEntity
  8
默认
 62
     7
420
 16777215
100
AcDbVertex
100
AcDb2dVertex
 10
52.53135000001021
 20
20.62499987897098
 30
0.0000000000082352
 42
-0.4142135623730309
  0
VERTEX
  5
AA
330
A2
100
AcDbEntity
  8
默认
 62
     7
420
 16777215
100
AcDbVertex
100
AcDb2dVertex
 10
53.03135000001021
 20
21.12499987897099
 30
0.0000000000082352
  0
SEQEND
  5
AB
330
A2
100
AcDbEntity
  8
默认
 62
     7
420
 16777215
  0
POLYLINE
  5
AC
330
1F
100
AcDbEntity
  8
默认
 62
     7
420
 16777215
100
AcDb2dPolyline
 66
     1
 10
0.0
 20
0.0
 30
0.0000000000097202
 70
     1
  0
VERTEX
  5
AD
330
AC
100
AcDbEntity
  8
默认
 62
     7
420
 16777215
100
AcDbVertex
100
AcDb2dVertex
 10
29.26517000001058
 20
56.92495004755897
 30
0.0000000000097202
 42
-0.9999999999998792
  0
VERTEX
  5
AE
330
AC
100
AcDbEntity
  8
默认
 62
     7
420
 16777215
100
AcDbVertex
100
AcDb2dVertex
 10
30.26517000001057
 20
56.92495004755897
 30
0.0000000000097202
  0
VERTEX
  5
AF
330
AC
100
AcDbEntity
  8
默认
 62
     7
420
 16777215
100
AcDbVertex
100
AcDb2dVertex
 10
30.26517000001058
 20
47.52575004755896
 30
0.0000000000097202
 42
-0.9999999999999753
  0
VERTEX
  5
B0
330
AC
100
AcDbEntity
  8
默认
 62
     7
420
 16777215
100
AcDbVertex
100
AcDb2dVertex
 10
29.26517000001059
 20
47.52575004755896
 30
0.0000000000097202
  0
SEQEND
  5
B1
330
AC
100
AcDbEntity
  8
默认
 62
     7
420
 16777215
  0
POLYLINE
  5
B2
330
1F
100
AcDbEntity
  8
默认
 62
     7
420
 16777215
100
AcDb2dPolyline
 66
     1
 10
0.0
 20
0.0
 30
0.0000000000051692
 70
     1
  0
VERTEX
  5
B3
330
B2
100
AcDbEntity
  8
默认
 62
     7
420
 16777215
100
AcDbVertex
100
AcDb2dVertex
 10
149.3743500000103
 20
21.12500004755896
 30
0.0000000000051692
 42
-0.4142135623694415
  0
VERTEX
  5
B4
330
B2
100
AcDbEntity
  8
默认
 62
     7
420
 16777215
100
AcDbVertex
100
AcDb2dVertex
 10
149.8743500000103
 20
20.62500004755896
 30
0.0000000000051692
  0
VERTEX
  5
B5
330
B2
100
AcDbEntity
  8
默认
 62
     7
420
 16777215
100
AcDbVertex
100
AcDb2dVertex
 10
149.8743500000103
 20
7.625000047558955
 30
0.0000000000051692
 42
-0.4142135623720344
  0
VERTEX
  5
B6
330
B2
100
AcDbEntity
  8
默认
 62
     7
420
 16777215
100
AcDbVertex
100
AcDb2dVertex
 10
149.3743500000103
 20
7.125000047558941
 30
0.0000000000051692
  0
VERTEX
  5
B7
330
B2
100
AcDbEntity
  8
默认
 62
     7
420
 16777215
100
AcDbVertex
100
AcDb2dVertex
 10
124.4673500000094
 20
7.125000047558955
 30
0.0000000000051692
 42
-0.4142135623733323
  0
VERTEX
  5
B8
330
B2
100
AcDbEntity
  8
默认
 62
     7
420
 16777215
100
AcDbVertex
100
AcDb2dVertex
 10
123.9673500000094
 20
7.625000047558955
 30
0.0000000000051692
  0
VERTEX
  5
B9
330
B2
100
AcDbEntity
  8
默认
 62
     7
420
 16777215
100
AcDbVertex
100
AcDb2dVertex
 10
123.9673500000094
 20
20.62500004755896
 30
0.0000000000051692
 42
-0.4142135623726054
  0
VERTEX
  5
BA
330
B2
100
AcDbEntity
  8
默认
 62
     7
420
 16777215
100
AcDbVertex
100
AcDb2dVertex
 10
124.4673500000094
 20
21.12500004755799
 30
0.0000000000051692
  0
SEQEND
  5
BB
330
B2
100
AcDbEntity
  8
默认
 62
     7
420
 16777215
  0
POLYLINE
  5
D0
330
1F
100
AcDbEntity
  8
默认
 62
     7
420
 16777215
100
AcDb2dPolyline
 66
     1
 10
0.0
 20
0.0
 30
0.0000000000073328
 70
     1
  0
VERTEX
  5
D1
330
D0
100
AcDbEntity
  8
默认
 62
     7
420
 16777215
100
AcDbVertex
100
AcDb2dVertex
 10
92.22500000001128
 20
97.32500004755799
 30
0.0000000000073328
 42
-0.4142135623708025
  0
VERTEX
  5
D2
330
D0
100
AcDbEntity
  8
默认
 62
     7
420
 16777215
100
AcDbVertex
100
AcDb2dVertex
 10
92.72500000001128
 20
96.82500004755798
 30
0.0000000000073328
  0
VERTEX
  5
D3
330
D0
100
AcDbEntity
  8
默认
 62
     7
420
 16777215
100
AcDbVertex
100
AcDb2dVertex
 10
92.72500000001128
 20
83.82500004755893
 30
0.0000000000073328
 42
-0.4142135623723302
  0
VERTEX
  5
D4
330
D0
100
AcDbEntity
  8
默认
 62
     7
420
 16777215
100
AcDbVertex
100
AcDb2dVertex
 10
92.22500000001128
 20
83.32500004755798
 30
0.0000000000073328
  0
VERTEX
  5
D5
330
D0
100
AcDbEntity
  8
默认
 62
     7
420
 16777215
100
AcDbVertex
100
AcDb2dVertex
 10
79.22500000001014
 20
83.32500004755798
 30
0.0000000000073328
 42
-0.4142135623759994
  0
VERTEX
  5
D6
330
D0
100
AcDbEntity
  8
默认
 62
     7
420
 16777215
100
AcDbVertex
100
AcDb2dVertex
 10
78.72500000001014
 20
83.82500004755893
 30
0.0000000000073328
  0
VERTEX
  5
D7
330
D0
100
AcDbEntity
  8
默认
 62
     7
420
 16777215
100
AcDbVertex
100
AcDb2dVertex
 10
78.72500000001014
 20
96.82500004755798
 30
0.0000000000073328
 42
-0.4142135623718914
  0
VERTEX
  5
D8
330
D0
100
AcDbEntity
  8
默认
 62
     7
420
 16777215
100
AcDbVertex
100
AcDb2dVertex
 10
79.22500000001014
 20
97.32500004755795
 30
0.0000000000073328
  0
SEQEND
  5
D9
330
D0
100
AcDbEntity
  8
默认
 62
     7
420
 16777215
  0
POLYLINE
  5
E4
330
1F
100
AcDbEntity
  8
默认
 62
     7
420
 16777215
100
AcDb2dPolyline
 66
     1
 10
0.0
 20
0.0
 30
0.0000000000007283
 70
     1
  0
VERTEX
  5
E5
330
E4
100
AcDbEntity
  8
默认
 62
     7
420
 16777215
100
AcDbVertex
100
AcDb2dVertex
 10
266.5553500000115
 20
26.675000047558
 30
0.0000000000007283
 42
-0.4142135623806669
  0
VERTEX
  5
E6
330
E4
100
AcDbEntity
  8
默认
 62
     7
420
 16777215
100
AcDbVertex
100
AcDb2dVertex
 10
266.0553500000115
 20
26.17500004755795
 30
0.0000000000007283
  0
VERTEX
  5
E7
330
E4
100
AcDbEntity
  8
默认
 62
     7
420
 16777215
100
AcDbVertex
100
AcDb2dVertex
 10
251.2303500000014
 20
26.17500004755897
 30
0.0000000000007283
  0
VERTEX
  5
E8
330
E4
100
AcDbEntity
  8
默认
 62
     7
420
 16777215
100
AcDbVertex
100
AcDb2dVertex
 10
251.2303500000014
 20
24.32550004755797
 30
0.0000000000007283
 42
-0.4142135623721208
  0
VERTEX
  5
E9
330
E4
100
AcDbEntity
  8
默认
 62
     7
420
 16777215
100
AcDbVertex
100
AcDb2dVertex
 10
250.7053500000104
 20
23.80050004755799
 30
0.0000000000007283
  0
VERTEX
  5
EA
330
E4
100
AcDbEntity
  8
默认
 62
     7
420
 16777215
100
AcDbVertex
100
AcDb2dVertex
 10
244.4053500000093
 20
23.80050004755896
 30
0.0000000000007283
 42
-0.4142135623757716
  0
VERTEX
  5
EB
330
E4
100
AcDbEntity
  8
默认
 62
     7
420
 16777215
100
AcDbVertex
100
AcDb2dVertex
 10
243.8803500000104
 20
24.32550004755797
 30
0.0000000000007283
  0
VERTEX
  5
EC
330
E4
100
AcDbEntity
  8
默认
 62
     7
420
 16777215
100
AcDbVertex
100
AcDb2dVertex
 10
243.8803500000104
 20
26.175000047558
 30
0.0000000000007283
  0
VERTEX
  5
ED
330
E4
100
AcDbEntity
  8
默认
 62
     7
420
 16777215
100
AcDbVertex
100
AcDb2dVertex
 10
243.5309500000114
 20
26.175000047558
 30
0.0000000000007283
 42
-0.4142135623761052
  0
VERTEX
  5
EE
330
E4
100
AcDbEntity
  8
默认
 62
     7
420
 16777215
100
AcDbVertex
100
AcDb2dVertex
 10
243.0309500000114
 20
26.675000047558
 30
0.0000000000007283
  0
VERTEX
  5
EF
330
E4
100
AcDbEntity
  8
默认
 62
     7
420
 16777215
100
AcDbVertex
100
AcDb2dVertex
 10
243.0309500000114
 20
39.675000047558
 30
0.0000000000007283
 42
-0.4142135623728928
  0
VERTEX
  5
F0
330
E4
100
AcDbEntity
  8
默认
 62
     7
420
 16777215
100
AcDbVertex
100
AcDb2dVertex
 10
243.5309500000114
 20
40.17500004755799
 30
0.0000000000007283
  0
VERTEX
  5
F1
330
E4
100
AcDbEntity
  8
默认
 62
     7
420
 16777215
100
AcDbVertex
100
AcDb2dVertex
 10
266.0553500000115
 20
40.175000047558
 30
0.0000000000007283
 42
-0.4142135623726594
  0
VERTEX
  5
F2
330
E4
100
AcDbEntity
  8
默认
 62
     7
420
 16777215
100
AcDbVertex
100
AcDb2dVertex
 10
266.5553500000115
 20
39.675000047558
 30
0.0000000000007283
  0
SEQEND
  5
F3
330
E4
100
AcDbEntity
  8
默认
 62
     7
420
 16777215
  0
POLYLINE
  5
FE
330
1F
100
AcDbEntity
  8
默认
 62
     7
420
 16777215
100
AcDb2dPolyline
 66
     1
 10
0.0
 20
0.0
 30
0.00000000001004
 70
     1
  0
VERTEX
  5
FF
330
FE
100
AcDbEntity
  8
默认
 62
     7
420
 16777215
100
AcDbVertex
100
AcDb2dVertex
 10
20.78705000000991
 20
21.12500004755896
 30
0.00000000001004
 42
-0.4142135623723564
  0
VERTEX
  5
100
330
FE
100
AcDbEntity
  8
默认
 62
     7
420
 16777215
100
AcDbVertex
100
AcDb2dVertex
 10
21.28705000000991
 20
20.62500004755896
 30
0.00000000001004
  0
VERTEX
  5
101
330
FE
100
AcDbEntity
  8
默认
 62
     7
420
 16777215
100
AcDbVertex
100
AcDb2dVertex
 10
21.28705000000991
 20
7.625000047558955
 30
0.00000000001004
 42
-0.4142135623731762
  0
VERTEX
  5
102
330
FE
100
AcDbEntity
  8
默认
 62
     7
420
 16777215
100
AcDbVertex
100
AcDb2dVertex
 10
20.78705000000991
 20
7.125000047558959
 30
0.00000000001004
  0
VERTEX
  5
103
330
FE
100
AcDbEntity
  8
默认
 62
     7
420
 16777215
100
AcDbVertex
100
AcDb2dVertex
 10
5.406260000010661
 20
7.125000047558955
 30
0.00000000001004
 42
-0.4142135623731963
  0
VERTEX
  5
104
330
FE
100
AcDbEntity
  8
默认
 62
     7
420
 16777215
100
AcDbVertex
100
AcDb2dVertex
 10
4.90626000001066
 20
7.625000047558955
 30
0.00000000001004
  0
VERTEX
  5
105
330
FE
100
AcDbEntity
  8
默认
 62
     7
420
 16777215
100
AcDbVertex
100
AcDb2dVertex
 10
4.906260000010661
 20
20.62500004755896
 30
0.00000000001004
 42
-0.4142135623728409
  0
VERTEX
  5
106
330
FE
100
AcDbEntity
  8
默认
 62
     7
420
 16777215
100
AcDbVertex
100
AcDb2dVertex
 10
5.406260000010661
 20
21.12500004755799
 30
0.00000000001004
  0
SEQEND
  5
107
330
FE
100
AcDbEntity
  8
默认
 62
     7
420
 16777215
  0
POLYLINE
  5
124
330
1F
100
AcDbEntity
  8
默认
 62
     7
420
 16777215
100
AcDb2dPolyline
 66
     1
 10
0.0
 20
0.0
 30
0.0000000000066116
 70
     1
  0
VERTEX
  5
125
330
124
100
AcDbEntity
  8
默认
 62
     7
420
 16777215
100
AcDbVertex
100
AcDb2dVertex
 10
111.2750000000103
 20
97.32500004755799
 30
0.0000000000066116
 42
-0.4142135623721794
  0
VERTEX
  5
126
330
124
100
AcDbEntity
  8
默认
 62
     7
420
 16777215
100
AcDbVertex
100
AcDb2dVertex
 10
111.7750000000103
 20
96.82500004755798
 30
0.0000000000066116
  0
VERTEX
  5
127
330
124
100
AcDbEntity
  8
默认
 62
     7
420
 16777215
100
AcDbVertex
100
AcDb2dVertex
 10
111.7750000000103
 20
83.82500004755893
 30
0.0000000000066116
 42
-0.4142135623723541
  0
VERTEX
  5
128
330
124
100
AcDbEntity
  8
默认
 62
     7
420
 16777215
100
AcDbVertex
100
AcDb2dVertex
 10
111.2750000000103
 20
83.32500004755893
 30
0.0000000000066116
  0
VERTEX
  5
129
330
124
100
AcDbEntity
  8
默认
 62
     7
420
 16777215
100
AcDbVertex
100
AcDb2dVertex
 10
98.27500000001032
 20
83.32500004755893
 30
0.0000000000066116
 42
-0.4142135623731951
  0
VERTEX
  5
12A
330
124
100
AcDbEntity
  8
默认
 62
     7
420
 16777215
100
AcDbVertex
100
AcDb2dVertex
 10
97.77500000001033
 20
83.82500004755893
 30
0.0000000000066116
  0
VERTEX
  5
12B
330
124
100
AcDbEntity
  8
默认
 62
     7
420
 16777215
100
AcDbVertex
100
AcDb2dVertex
 10
97.77500000001033
 20
96.82500004755798
 30
0.0000000000066116
 42
-0.4142135623737654
  0
VERTEX
  5
12C
330
124
100
AcDbEntity
  8
默认
 62
     7
420
 16777215
100
AcDbVertex
100
AcDb2dVertex
 10
98.27500000001032
 20
97.32500004755891
 30
0.0000000000066116
  0
SEQEND
  5
12D
330
124
100
AcDbEntity
  8
默认
 62
     7
420
 16777215
  0
POLYLINE
  5
14A
330
1F
100
AcDbEntity
  8
默认
 62
     7
420
 16777215
100
AcDb2dPolyline
 66
     1
 10
0.0
 20
0.0
 30
0.0000000000046896
 70
     1
  0
VERTEX
  5
14B
330
14A
100
AcDbEntity
  8
默认
 62
     7
420
 16777215
100
AcDbVertex
100
AcDb2dVertex
 10
161.9773641989414
 20
18.355618737302
 30
0.0000000000046896
  0
VERTEX
  5
14C
330
14A
100
AcDbEntity
  8
默认
 62
     7
420
 16777215
100
AcDbVertex
100
AcDb2dVertex
 10
163.9876593779493
 20
19.16594871243899
 30
0.0000000000046896
  0
VERTEX
  5
14D
330
14A
100
AcDbEntity
  8
默认
 62
     7
420
 16777215
100
AcDbVertex
100
AcDb2dVertex
 10
162.4601691200603
 20
10.06389736084202
 30
0.0000000000046896
  0
SEQEND
  5
14E
330
14A
100
AcDbEntity
  8
默认
 62
     7
420
 16777215
  0
POLYLINE
  5
159
330
1F
100
AcDbEntity
  8
默认
 62
     7
420
 16777215
100
AcDb2dPolyline
 66
     1
 10
0.0
 20
0.0
 30
0.0000000000011262
 70
     1
  0
VERTEX
  5
15A
330
159
100
AcDbEntity
  8
默认
 62
     7
420
 16777215
100
AcDbVertex
100
AcDb2dVertex
 10
277.9618500000104
 20
78.27500004755847
 30
0.0000000000011262
 42
-0.4142135623729149
  0
VERTEX
  5
15B
330
159
100
AcDbEntity
  8
默认
 62
     7
420
 16777215
100
AcDbVertex
100
AcDb2dVertex
 10
278.4618500000104
 20
77.77500004755848
 30
0.0000000000011262
  0
VERTEX
  5
15C
330
159
100
AcDbEntity
  8
默认
 62
     7
420
 16777215
100
AcDbVertex
100
AcDb2dVertex
 10
278.4618500000104
 20
64.77500004755836
 30
0.0000000000011262
 42
-0.4142135623707933
  0
VERTEX
  5
15D
330
159
100
AcDbEntity
  8
默认
 62
     7
420
 16777215
100
AcDbVertex
100
AcDb2dVertex
 10
277.9618500000104
 20
64.27500004755836
 30
0.0000000000011262
  0
VERTEX
  5
15E
330
159
100
AcDbEntity
  8
默认
 62
     7
420
 16777215
100
AcDbVertex
100
AcDb2dVertex
 10
264.9618500000104
 20
64.27500004755836
 30
0.0000000000011262
 42
-0.4142135623753386
  0
VERTEX
  5
15F
330
159
100
AcDbEntity
  8
默认
 62
     7
420
 16777215
100
AcDbVertex
100
AcDb2dVertex
 10
264.4618500000104
 20
64.77500004755836
 30
0.0000000000011262
  0
VERTEX
  5
160
330
159
100
AcDbEntity
  8
默认
 62
     7
420
 16777215
100
AcDbVertex
100
AcDb2dVertex
 10
264.4618500000104
 20
77.77500004755848
 30
0.0000000000011262
 42
-0.4142135623765398
  0
VERTEX
  5
161
330
159
100
AcDbEntity
  8
默认
 62
     7
420
 16777215
100
AcDbVertex
100
AcDb2dVertex
 10
264.9618500000104
 20
78.27500004755847
 30
0.0000000000011262
  0
SEQEND
  5
162
330
159
100
AcDbEntity
  8
默认
 62
     7
420
 16777215
  0
POLYLINE
  5
16D
330
1F
100
AcDbEntity
  8
默认
 62
     7
420
 16777215
100
AcDb2dPolyline
 66
     1
 10
0.0
 20
0.0
 30
0.0000000000087788
 70
     1
  0
VERTEX
  5
16E
330
16D
100
AcDbEntity
  8
默认
 62
     7
420
 16777215
100
AcDbVertex
100
AcDb2dVertex
 10
54.12500000000999
 20
97.32500004755799
 30
0.0000000000087788
 42
-0.4142135623729726
  0
VERTEX
  5
16F
330
16D
100
AcDbEntity
  8
默认
 62
     7
420
 16777215
100
AcDbVertex
100
AcDb2dVertex
 10
54.62500000001
 20
96.82500004755798
 30
0.0000000000087788
  0
VERTEX
  5
170
330
16D
100
AcDbEntity
  8
默认
 62
     7
420
 16777215
100
AcDbVertex
100
AcDb2dVertex
 10
54.62500000001
 20
83.82500004755893
 30
0.0000000000087788
 42
-0.4142135623731999
  0
VERTEX
  5
171
330
16D
100
AcDbEntity
  8
默认
 62
     7
420
 16777215
100
AcDbVertex
100
AcDb2dVertex
 10
54.12500000000999
 20
83.32500004755893
 30
0.0000000000087788
  0
VERTEX
  5
172
330
16D
100
AcDbEntity
  8
默认
 62
     7
420
 16777215
100
AcDbVertex
100
AcDb2dVertex
 10
41.12500000000999
 20
83.32500004755893
 30
0.0000000000087788
 42
-0.4142135623720605
  0
VERTEX
  5
173
330
16D
100
AcDbEntity
  8
默认
 62
     7
420
 16777215
100
AcDbVertex
100
AcDb2dVertex
 10
40.62500000000997
 20
83.82500004755893
 30
0.0000000000087788
  0
VERTEX
  5
174
330
16D
100
AcDbEntity
  8
默认
 62
     7
420
 16777215
100
AcDbVertex
100
AcDb2dVertex
 10
40.62500000001
 20
96.82500004755798
 30
0.0000000000087788
 42
-0.4142135623717646
  0
VERTEX
  5
175
330
16D
100
AcDbEntity
  8
默认
 62
     7
420
 16777215
100
AcDbVertex
100
AcDb2dVertex
 10
41.12500000000999
 20
97.32500004755801
 30
0.0000000000087788
  0
SEQEND
  5
176
330
16D
100
AcDbEntity
  8
默认
 62
     7
420
 16777215
  0
POLYLINE
  5
18B
330
1F
100
AcDbEntity
  8
默认
 62
     7
420
 16777215
100
AcDb2dPolyline
 66
     1
 10
0.0
 20
0.0
 30
0.00000000001004
 70
     1
  0
VERTEX
  5
18C
330
18B
100
AcDbEntity
  8
默认
 62
     7
420
 16777215
100
AcDbVertex
100
AcDb2dVertex
 10
20.78728000001047
 20
78.27500004755894
 30
0.00000000001004
 42
-0.4142135623718836
  0
VERTEX
  5
18D
330
18B
100
AcDbEntity
  8
默认
 62
     7
420
 16777215
100
AcDbVertex
100
AcDb2dVertex
 10
21.28728000001047
 20
77.77500004755899
 30
0.00000000001004
  0
VERTEX
  5
18E
330
18B
100
AcDbEntity
  8
默认
 62
     7
420
 16777215
100
AcDbVertex
100
AcDb2dVertex
 10
21.28728000001047
 20
64.77500004755893
 30
0.00000000001004
 42
-0.4142135623716898
  0
VERTEX
  5
18F
330
18B
100
AcDbEntity
  8
默认
 62
     7
420
 16777215
100
AcDbVertex
100
AcDb2dVertex
 10
20.78728000001047
 20
64.27500004755893
 30
0.00000000001004
  0
VERTEX
  5
190
330
18B
100
AcDbEntity
  8
默认
 62
     7
420
 16777215
100
AcDbVertex
100
AcDb2dVertex
 10
7.787280000010468
 20
64.27500004755893
 30
0.00000000001004
 42
-0.4142135623741324
  0
VERTEX
  5
191
330
18B
100
AcDbEntity
  8
默认
 62
     7
420
 16777215
100
AcDbVertex
100
AcDb2dVertex
 10
7.287280000010462
 20
64.77500004755893
 30
0.00000000001004
  0
VERTEX
  5
192
330
18B
100
AcDbEntity
  8
默认
 62
     7
420
 16777215
100
AcDbVertex
100
AcDb2dVertex
 10
7.287280000010468
 20
77.77500004755893
 30
0.00000000001004
 42
-0.414213562373336
  0
VERTEX
  5
193
330
18B
100
AcDbEntity
  8
默认
 62
     7
420
 16777215
100
AcDbVertex
100
AcDb2dVertex
 10
7.787280000010468
 20
78.27500004755894
 30
0.00000000001004
  0
SEQEND
  5
194
330
18B
100
AcDbEntity
  8
默认
 62
     7
420
 16777215
  0
POLYLINE
  5
195
330
1F
100
AcDbEntity
  8
默认
 62
     7
420
 16777215
100
AcDb2dPolyline
 66
     1
 10
0.0
 20
0.0
 30
0.0000000000002061
 70
     1
  0
VERTEX
  5
196
330
195
100
AcDbEntity
  8
默认
 62
     7
420
 16777215
100
AcDbVertex
100
AcDb2dVertex
 10
280.3431400000093
 20
21.12500004755896
 30
0.0000000000002061
 42
-0.4142135623714556
  0
VERTEX
  5
197
330
195
100
AcDbEntity
  8
默认
 62
     7
420
 16777215
100
AcDbVertex
100
AcDb2dVertex
 10
280.8431400000093
 20
20.62500004755896
 30
0.0000000000002061
  0
VERTEX
  5
198
330
195
100
AcDbEntity
  8
默认
 62
     7
420
 16777215
100
AcDbVertex
100
AcDb2dVertex
 10
280.8431400000093
 20
7.625000047558955
 30
0.0000000000002061
 42
-0.4142135623714765
  0
VERTEX
  5
199
330
195
100
AcDbEntity
  8
默认
 62
     7
420
 16777215
100
AcDbVertex
100
AcDb2dVertex
 10
280.3431400000093
 20
7.125000047558973
 30
0.0000000000002061
  0
VERTEX
  5
19A
330
195
100
AcDbEntity
  8
默认
 62
     7
420
 16777215
100
AcDbVertex
100
AcDb2dVertex
 10
264.9623500000105
 20
7.125000047558955
 30
0.0000000000002061
 42
-0.4142135623739378
  0
VERTEX
  5
19B
330
195
100
AcDbEntity
  8
默认
 62
     7
420
 16777215
100
AcDbVertex
100
AcDb2dVertex
 10
264.4623500000105
 20
7.625000047558955
 30
0.0000000000002061
  0
VERTEX
  5
19C
330
195
100
AcDbEntity
  8
默认
 62
     7
420
 16777215
100
AcDbVertex
100
AcDb2dVertex
 10
264.4623500000105
 20
20.62500004755896
 30
0.0000000000002061
 42
-0.4142135623753854
  0
VERTEX
  5
19D
330
195
100
AcDbEntity
  8
默认
 62
     7
420
 16777215
100
AcDbVertex
100
AcDb2dVertex
 10
264.9623500000105
 20
21.12500004755896
 30
0.0000000000002061
  0
SEQEND
  5
19E
330
195
100
AcDbEntity
  8
默认
 62
     7
420
 16777215
  0
POLYLINE
  5
19F
330
1F
100
AcDbEntity
  8
默认
 62
     7
420
 16777215
100
AcDb2dPolyline
 66
     1
 10
0.0
 20
0.0
 30
0.0000000000022808
 70
     1
  0
VERTEX
  5
1A0
330
19F
100
AcDbEntity
  8
默认
 62
     7
420
 16777215
100
AcDbVertex
100
AcDb2dVertex
 10
225.5750000000114
 20
97.32500004755799
 30
0.0000000000022808
 42
-0.4142135623730324
  0
VERTEX
  5
1A1
330
19F
100
AcDbEntity
  8
默认
 62
     7
420
 16777215
100
AcDbVertex
100
AcDb2dVertex
 10
226.0750000000115
 20
96.82500004755798
 30
0.0000000000022808
  0
VERTEX
  5
1A2
330
19F
100
AcDbEntity
  8
默认
 62
     7
420
 16777215
100
AcDbVertex
100
AcDb2dVertex
 10
226.0750000000114
 20
83.82500004755893
 30
0.0000000000022808
 42
-0.4142135623707093
  0
VERTEX
  5
1A3
330
19F
100
AcDbEntity
  8
默认
 62
     7
420
 16777215
100
AcDbVertex
100
AcDb2dVertex
 10
225.5750000000114
 20
83.32500004755893
 30
0.0000000000022808
  0
VERTEX
  5
1A4
330
19F
100
AcDbEntity
  8
默认
 62
     7
420
 16777215
100
AcDbVertex
100
AcDb2dVertex
 10
212.5750000000114
 20
83.32500004755798
 30
0.0000000000022808
 42
-0.4142135623713684
  0
VERTEX
  5
1A5
330
19F
100
AcDbEntity
  8
默认
 62
     7
420
 16777215
100
AcDbVertex
100
AcDb2dVertex
 10
212.0750000000114
 20
83.82500004755893
 30
0.0000000000022808
  0
VERTEX
  5
1A6
330
19F
100
AcDbEntity
  8
默认
 62
     7
420
 16777215
100
AcDbVertex
100
AcDb2dVertex
 10
212.0750000000114
 20
96.82500004755798
 30
0.0000000000022808
 42
-0.4142135623746366
  0
VERTEX
  5
1A7
330
19F
100
AcDbEntity
  8
默认
 62
     7
420
 16777215
100
AcDbVertex
100
AcDb2dVertex
 10
212.5750000000114
 20
97.32500004755801
 30
0.0000000000022808
  0
SEQEND
  5
1A8
330
19F
100
AcDbEntity
  8
默认
 62
     7
420
 16777215
  0
POLYLINE
  5
1B3
330
1F
100
AcDbEntity
  8
默认
 62
     7
420
 16777215
100
AcDb2dPolyline
 66
     1
 10
0.0
 20
0.0
 30
0.0000000000047464
 70
     1
  0
VERTEX
  5
1B4
330
1B3
100
AcDbEntity
  8
默认
 62
     7
420
 16777215
100
AcDbVertex
100
AcDb2dVertex
 10
160.4726488565304
 20
13.72063786063995
 30
0.0000000000047464
 42
0.0562120630944903
  0
VERTEX
  5
1B5
330
1B3
100
AcDbEntity
  8
默认
 62
     7
420
 16777215
100
AcDbVertex
100
AcDb2dVertex
 10
157.9336673984812
 20
15.87430904318989
 30
0.0000000000047464
  0
VERTEX
  5
1B6
330
1B3
100
AcDbEntity
  8
默认
 62
     7
420
 16777215
100
AcDbVertex
100
AcDb2dVertex
 10
159.1842866790103
 20
16.80425043243895
 30
0.0000000000047464
  0
SEQEND
  5
1B7
330
1B3
100
AcDbEntity
  8
默认
 62
     7
420
 16777215
  0
POLYLINE
  5
1E0
330
1F
100
AcDbEntity
  8
默认
 62
     7
420
 16777215
100
AcDb2dPolyline
 66
     1
 10
0.0
 20
0.0
 30
0.000000000004448
 70
     1
  0
VERTEX
  5
1E1
330
1E0
100
AcDbEntity
  8
默认
 62
     7
420
 16777215
100
AcDbVertex
100
AcDb2dVertex
 10
168.4250000000104
 20
97.32500004755799
 30
0.000000000004448
 42
-0.4142135623732234
  0
VERTEX
  5
1E2
330
1E0
100
AcDbEntity
  8
默认
 62
     7
420
 16777215
100
AcDbVertex
100
AcDb2dVertex
 10
168.9250000000104
 20
96.82500004755798
 30
0.000000000004448
  0
VERTEX
  5
1E3
330
1E0
100
AcDbEntity
  8
默认
 62
     7
420
 16777215
100
AcDbVertex
100
AcDb2dVertex
 10
168.9250000000104
 20
83.82500004755893
 30
0.000000000004448
 42
-0.4142135623700326
  0
VERTEX
  5
1E4
330
1E0
100
AcDbEntity
  8
默认
 62
     7
420
 16777215
100
AcDbVertex
100
AcDb2dVertex
 10
168.4250000000104
 20
83.32500004755798
 30
0.000000000004448
  0
VERTEX
  5
1E5
330
1E0
100
AcDbEntity
  8
默认
 62
     7
420
 16777215
100
AcDbVertex
100
AcDb2dVertex
 10
155.4250000000104
 20
83.32500004755893
 30
0.000000000004448
 42
-0.4142135623733615
  0
VERTEX
  5
1E6
330
1E0
100
AcDbEntity
  8
默认
 62
     7
420
 16777215
100
AcDbVertex
100
AcDb2dVertex
 10
154.9250000000104
 20
83.82500004755893
 30
0.000000000004448
  0
VERTEX
  5
1E7
330
1E0
100
AcDbEntity
  8
默认
 62
     7
420
 16777215
100
AcDbVertex
100
AcDb2dVertex
 10
154.9250000000104
 20
96.82500004755798
 30
0.000000000004448
 42
-0.4142135623761026
  0
VERTEX
  5
1E8
330
1E0
100
AcDbEntity
  8
默认
 62
     7
420
 16777215
100
AcDbVertex
100
AcDb2dVertex
 10
155.4250000000104
 20
97.32500004755896
 30
0.000000000004448
  0
SEQEND
  5
1E9
330
1E0
100
AcDbEntity
  8
默认
 62
     7
420
 16777215
  0
POLYLINE
  5
20E
330
1F
100
AcDbEntity
  8
默认
 62
     7
420
 16777215
100
AcDb2dPolyline
 66
     1
 10
0.0
 20
0.0
 30
0.0000000000091376
 70
     1
  0
VERTEX
  5
20F
330
20E
100
AcDbEntity
  8
默认
 62
     7
420
 16777215
100
AcDbVertex
100
AcDb2dVertex
 10
44.59814000001006
 20
21.12500004755896
 30
0.0000000000091376
 42
-0.4142135623705836
  0
VERTEX
  5
210
330
20E
100
AcDbEntity
  8
默认
 62
     7
420
 16777215
100
AcDbVertex
100
AcDb2dVertex
 10
45.09814000001006
 20
20.62500004755896
 30
0.0000000000091376
  0
VERTEX
  5
211
330
20E
100
AcDbEntity
  8
默认
 62
     7
420
 16777215
100
AcDbVertex
100
AcDb2dVertex
 10
45.09814000001006
 20
7.625000047558955
 30
0.0000000000091376
 42
-0.4142135623706699
  0
VERTEX
  5
212
330
20E
100
AcDbEntity
  8
默认
 62
     7
420
 16777215
100
AcDbVertex
100
AcDb2dVertex
 10
44.59814000001006
 20
7.125000047558951
 30
0.0000000000091376
  0
VERTEX
  5
213
330
20E
100
AcDbEntity
  8
默认
 62
     7
420
 16777215
100
AcDbVertex
100
AcDb2dVertex
 10
29.2173500000099
 20
7.125000047558955
 30
0.0000000000091376
 42
-0.4142135623730746
  0
VERTEX
  5
214
330
20E
100
AcDbEntity
  8
默认
 62
     7
420
 16777215
100
AcDbVertex
100
AcDb2dVertex
 10
28.7173500000099
 20
7.625000047558955
 30
0.0000000000091376
  0
VERTEX
  5
215
330
20E
100
AcDbEntity
  8
默认
 62
     7
420
 16777215
100
AcDbVertex
100
AcDb2dVertex
 10
28.7173500000099
 20
20.62500004755896
 30
0.0000000000091376
 42
-0.4142135623733643
  0
VERTEX
  5
216
330
20E
100
AcDbEntity
  8
默认
 62
     7
420
 16777215
100
AcDbVertex
100
AcDb2dVertex
 10
29.2173500000099
 20
21.12500004755895
 30
0.0000000000091376
  0
SEQEND
  5
217
330
20E
100
AcDbEntity
  8
默认
 62
     7
420
 16777215
  0
POLYLINE
  5
222
330
1F
100
AcDbEntity
  8
默认
 62
     7
420
 16777215
100
AcDb2dPolyline
 66
     1
 10
0.0
 20
0.0
 30
0.0000000000058904
 70
     1
  0
VERTEX
  5
223
330
222
100
AcDbEntity
  8
默认
 62
     7
420
 16777215
100
AcDbVertex
100
AcDb2dVertex
 10
130.3250000000114
 20
97.32500004755799
 30
0.0000000000058904
 42
-0.4142135623729463
  0
VERTEX
  5
224
330
222
100
AcDbEntity
  8
默认
 62
     7
420
 16777215
100
AcDbVertex
100
AcDb2dVertex
 10
130.8250000000114
 20
96.82500004755798
 30
0.0000000000058904
  0
VERTEX
  5
225
330
222
100
AcDbEntity
  8
默认
 62
     7
420
 16777215
100
AcDbVertex
100
AcDb2dVertex
 10
130.8250000000114
 20
83.82500004755893
 30
0.0000000000058904
 42
-0.4142135623728003
  0
VERTEX
  5
226
330
222
100
AcDbEntity
  8
默认
 62
     7
420
 16777215
100
AcDbVertex
100
AcDb2dVertex
 10
130.3250000000114
 20
83.32500004755896
 30
0.0000000000058904
  0
VERTEX
  5
227
330
222
100
AcDbEntity
  8
默认
 62
     7
420
 16777215
100
AcDbVertex
100
AcDb2dVertex
 10
117.3250000000114
 20
83.32500004755798
 30
0.0000000000058904
 42
-0.4142135623712377
  0
VERTEX
  5
228
330
222
100
AcDbEntity
  8
默认
 62
     7
420
 16777215
100
AcDbVertex
100
AcDb2dVertex
 10
116.8250000000114
 20
83.82500004755893
 30
0.0000000000058904
  0
VERTEX
  5
229
330
222
100
AcDbEntity
  8
默认
 62
     7
420
 16777215
100
AcDbVertex
100
AcDb2dVertex
 10
116.8250000000114
 20
96.82500004755798
 30
0.0000000000058904
 42
-0.4142135623727706
  0
VERTEX
  5
22A
330
222
100
AcDbEntity
  8
默认
 62
     7
420
 16777215
100
AcDbVertex
100
AcDb2dVertex
 10
117.3250000000114
 20
97.32500004755699
 30
0.0000000000058904
  0
SEQEND
  5
22B
330
222
100
AcDbEntity
  8
默认
 62
     7
420
 16777215
  0
POLYLINE
  5
22C
330
1F
100
AcDbEntity
  8
默认
 62
     7
420
 16777215
100
AcDb2dPolyline
 66
     1
 10
0.0
 20
0.0
 30
0.0000000000080576
 70
     1
  0
VERTEX
  5
22D
330
22C
100
AcDbEntity
  8
默认
 62
     7
420
 16777215
100
AcDbVertex
100
AcDb2dVertex
 10
73.17500000001018
 20
97.32500004755799
 30
0.0000000000080576
 42
-0.4142135623694563
  0
VERTEX
  5
22E
330
22C
100
AcDbEntity
  8
默认
 62
     7
420
 16777215
100
AcDbVertex
100
AcDb2dVertex
 10
73.6750000000102
 20
96.82500004755798
 30
0.0000000000080576
  0
VERTEX
  5
22F
330
22C
100
AcDbEntity
  8
默认
 62
     7
420
 16777215
100
AcDbVertex
100
AcDb2dVertex
 10
73.67500000001019
 20
83.82500004755893
 30
0.0000000000080576
 42
-0.4142135623707427
  0
VERTEX
  5
230
330
22C
100
AcDbEntity
  8
默认
 62
     7
420
 16777215
100
AcDbVertex
100
AcDb2dVertex
 10
73.17500000001018
 20
83.32500004755896
 30
0.0000000000080576
  0
VERTEX
  5
231
330
22C
100
AcDbEntity
  8
默认
 62
     7
420
 16777215
100
AcDbVertex
100
AcDb2dVertex
 10
60.17500000001018
 20
83.32500004755893
 30
0.0000000000080576
 42
-0.4142135623638607
  0
VERTEX
  5
232
330
22C
100
AcDbEntity
  8
默认
 62
     7
420
 16777215
100
AcDbVertex
100
AcDb2dVertex
 10
59.67500000001018
 20
83.82500004755893
 30
0.0000000000080576
  0
VERTEX
  5
233
330
22C
100
AcDbEntity
  8
默认
 62
     7
420
 16777215
100
AcDbVertex
100
AcDb2dVertex
 10
59.67500000001018
 20
96.82500004755798
 30
0.0000000000080576
 42
-0.4142135623728592
  0
VERTEX
  5
234
330
22C
100
AcDbEntity
  8
默认
 62
     7
420
 16777215
100
AcDbVertex
100
AcDb2dVertex
 10
60.17500000001018
 20
97.32500004755799
 30
0.0000000000080576
  0
SEQEND
  5
235
330
22C
100
AcDbEntity
  8
默认
 62
     7
420
 16777215
  0
POLYLINE
  5
236
330
1F
100
AcDbEntity
  8
默认
 62
     7
420
 16777215
100
AcDb2dPolyline
 66
     1
 10
0.0
 20
0.0
 30
0.0000000000047748
 70
     1
  0
VERTEX
  5
237
330
236
100
AcDbEntity
  8
默认
 62
     7
420
 16777215
100
AcDbVertex
100
AcDb2dVertex
 10
159.7827714088703
 20
17.18870286131499
 30
0.0000000000047748
  0
VERTEX
  5
238
330
236
100
AcDbEntity
  8
默认
 62
     7
420
 16777215
100
AcDbVertex
100
AcDb2dVertex
 10
161.3023264526594
 20
18.03169567107597
 30
0.0000000000047748
  0
VERTEX
  5
239
330
236
100
AcDbEntity
  8
默认
 62
     7
420
 16777215
100
AcDbVertex
100
AcDb2dVertex
 10
161.7930854150393
 20
11.81550702378092
 30
0.0000000000047748
  0
SEQEND
  5
23A
330
236
100
AcDbEntity
  8
默认
 62
     7
420
 16777215
  0
POLYLINE
  5
23B
330
1F
100
AcDbEntity
  8
默认
 62
     7
420
 16777215
100
AcDb2dPolyline
 66
     1
 10
0.0
 20
0.0
 30
0.0000000000018616
 70
     1
  0
VERTEX
  5
23C
330
23B
100
AcDbEntity
  8
默认
 62
     7
420
 16777215
100
AcDbVertex
100
AcDb2dVertex
 10
236.6087000000114
 20
36.87490004755699
 30
0.0000000000018616
 42
-0.9999999999999145
  0
VERTEX
  5
23D
330
23B
100
AcDbEntity
  8
默认
 62
     7
420
 16777215
100
AcDbVertex
100
AcDb2dVertex
 10
237.6087000000114
 20
36.87490004755699
 30
0.0000000000018616
  0
VERTEX
  5
23E
330
23B
100
AcDbEntity
  8
默认
 62
     7
420
 16777215
100
AcDbVertex
100
AcDb2dVertex
 10
237.6087000000114
 20
29.47570004755801
 30
0.0000000000018616
 42
-0.9999999999999536
  0
VERTEX
  5
23F
330
23B
100
AcDbEntity
  8
默认
 62
     7
420
 16777215
100
AcDbVertex
100
AcDb2dVertex
 10
236.6087000000114
 20
29.47570004755801
 30
0.0000000000018616
  0
SEQEND
  5
240
330
23B
100
AcDbEntity
  8
默认
 62
     7
420
 16777215
  0
POLYLINE
  5
25D
330
1F
100
AcDbEntity
  8
默认
 62
     7
420
 16777215
100
AcDb2dPolyline
 66
     1
 10
0.0
 20
0.0
 30
0.0000000000020108
 70
     1
  0
VERTEX
  5
25E
330
25D
100
AcDbEntity
  8
默认
 62
     7
420
 16777215
100
AcDbVertex
100
AcDb2dVertex
 10
232.7181400000093
 20
21.12500004755896
 30
0.0000000000020108
 42
-0.4142135623712697
  0
VERTEX
  5
25F
330
25D
100
AcDbEntity
  8
默认
 62
     7
420
 16777215
100
AcDbVertex
100
AcDb2dVertex
 10
233.2181400000093
 20
20.62500004755896
 30
0.0000000000020108
  0
VERTEX
  5
260
330
25D
100
AcDbEntity
  8
默认
 62
     7
420
 16777215
100
AcDbVertex
100
AcDb2dVertex
 10
233.2181400000093
 20
7.625000047558955
 30
0.0000000000020108
 42
-0.4142135623730475
  0
VERTEX
  5
261
330
25D
100
AcDbEntity
  8
默认
 62
     7
420
 16777215
100
AcDbVertex
100
AcDb2dVertex
 10
232.7181400000093
 20
7.125000047558955
 30
0.0000000000020108
  0
VERTEX
  5
262
330
25D
100
AcDbEntity
  8
默认
 62
     7
420
 16777215
100
AcDbVertex
100
AcDb2dVertex
 10
217.3373500000102
 20
7.125000047558955
 30
0.0000000000020108
 42
-0.414213562373273
  0
VERTEX
  5
263
330
25D
100
AcDbEntity
  8
默认
 62
     7
420
 16777215
100
AcDbVertex
100
AcDb2dVertex
 10
216.8373500000103
 20
7.625000047558955
 30
0.0000000000020108
  0
VERTEX
  5
264
330
25D
100
AcDbEntity
  8
默认
 62
     7
420
 16777215
100
AcDbVertex
100
AcDb2dVertex
 10
216.8373500000102
 20
20.62500004755896
 30
0.0000000000020108
 42
-0.4142135623730585
  0
VERTEX
  5
265
330
25D
100
AcDbEntity
  8
默认
 62
     7
420
 16777215
100
AcDbVertex
100
AcDb2dVertex
 10
217.3373500000102
 20
21.12500004755897
 30
0.0000000000020108
  0
SEQEND
  5
266
330
25D
100
AcDbEntity
  8
默认
 62
     7
420
 16777215
  0
POLYLINE
  5
271
330
1F
100
AcDbEntity
  8
默认
 62
     7
420
 16777215
100
AcDb2dPolyline
 66
     1
 10
0.0
 20
0.0
 30
0.000000000004583
 70
     1
  0
VERTEX
  5
272
330
271
100
AcDbEntity
  8
默认
 62
     7
420
 16777215
100
AcDbVertex
100
AcDb2dVertex
 10
164.8291541140004
 20
19.44371473762595
 30
0.000000000004583
  0
VERTEX
  5
273
330
271
100
AcDbEntity
  8
默认
 62
     7
420
 16777215
100
AcDbVertex
100
AcDb2dVertex
 10
167.4765426399294
 20
20.11116041996098
 30
0.000000000004583
  0
VERTEX
  5
274
330
271
100
AcDbEntity
  8
默认
 62
     7
420
 16777215
100
AcDbVertex
100
AcDb2dVertex
 10
162.6754814398694
 20
7.943180864350892
 30
0.000000000004583
  0
SEQEND
  5
275
330
271
100
AcDbEntity
  8
默认
 62
     7
420
 16777215
  0
POLYLINE
  5
2E4
330
1F
100
AcDbEntity
  8
默认
 62
     7
420
 16777215
100
AcDb2dPolyline
 66
     1
 10
0.0
 20
0.0
 30
0.000000000003002
 70
     1
  0
VERTEX
  5
2E5
330
2E4
100
AcDbEntity
  8
默认
 62
     7
420
 16777215
100
AcDbVertex
100
AcDb2dVertex
 10
206.5250000000103
 20
97.32500004755799
 30
0.000000000003002
 42
-0.4142135623720285
  0
VERTEX
  5
2E6
330
2E4
100
AcDbEntity
  8
默认
 62
     7
420
 16777215
100
AcDbVertex
100
AcDb2dVertex
 10
207.0250000000104
 20
96.82500004755798
 30
0.000000000003002
  0
VERTEX
  5
2E7
330
2E4
100
AcDbEntity
  8
默认
 62
     7
420
 16777215
100
AcDbVertex
100
AcDb2dVertex
 10
207.0250000000103
 20
83.82500004755893
 30
0.000000000003002
 42
-0.4142135623721769
  0
VERTEX
  5
2E8
330
2E4
100
AcDbEntity
  8
默认
 62
     7
420
 16777215
100
AcDbVertex
100
AcDb2dVertex
 10
206.5250000000103
 20
83.32500004755896
 30
0.000000000003002
  0
VERTEX
  5
2E9
330
2E4
100
AcDbEntity
  8
默认
 62
     7
420
 16777215
100
AcDbVertex
100
AcDb2dVertex
 10
193.5250000000103
 20
83.32500004755798
 30
0.000000000003002
 42
-0.4142135623737279
  0
VERTEX
  5
2EA
330
2E4
100
AcDbEntity
  8
默认
 62
     7
420
 16777215
100
AcDbVertex
100
AcDb2dVertex
 10
193.0250000000103
 20
83.82500004755893
 30
0.000000000003002
  0
VERTEX
  5
2EB
330
2E4
100
AcDbEntity
  8
默认
 62
     7
420
 16777215
100
AcDbVertex
100
AcDb2dVertex
 10
193.0250000000103
 20
96.82500004755798
 30
0.000000000003002
 42
-0.4142135623737977
  0
VERTEX
  5
2EC
330
2E4
100
AcDbEntity
  8
默认
 62
     7
420
 16777215
100
AcDbVertex
100
AcDb2dVertex
 10
193.5250000000103
 20
97.32500004755896
 30
0.000000000003002
  0
SEQEND
  5
2ED
330
2E4
100
AcDbEntity
  8
默认
 62
     7
420
 16777215
  0
POLYLINE
  5
2EE
330
1F
100
AcDbEntity
  8
默认
 62
     7
420
 16777215
100
AcDb2dPolyline
 66
     1
 10
0.0
 20
0.0
 30
0.0000000000011084
 70
     1
  0
VERTEX
  5
2EF
330
2EE
100
AcDbEntity
  8
默认
 62
     7
420
 16777215
100
AcDbVertex
100
AcDb2dVertex
 10
256.5311400000094
 20
21.12500004755896
 30
0.0000000000011084
 42
-0.4142135623723923
  0
VERTEX
  5
2F0
330
2EE
100
AcDbEntity
  8
默认
 62
     7
420
 16777215
100
AcDbVertex
100
AcDb2dVertex
 10
257.0311400000094
 20
20.62500004755896
 30
0.0000000000011084
  0
VERTEX
  5
2F1
330
2EE
100
AcDbEntity
  8
默认
 62
     7
420
 16777215
100
AcDbVertex
100
AcDb2dVertex
 10
257.0311400000094
 20
7.625000047558955
 30
0.0000000000011084
 42
-0.4142135623721197
  0
VERTEX
  5
2F2
330
2EE
100
AcDbEntity
  8
默认
 62
     7
420
 16777215
100
AcDbVertex
100
AcDb2dVertex
 10
256.5311400000094
 20
7.125000047558969
 30
0.0000000000011084
  0
VERTEX
  5
2F3
330
2EE
100
AcDbEntity
  8
默认
 62
     7
420
 16777215
100
AcDbVertex
100
AcDb2dVertex
 10
241.1503500000103
 20
7.125000047558955
 30
0.0000000000011084
 42
-0.4142135623737151
  0
VERTEX
  5
2F4
330
2EE
100
AcDbEntity
  8
默认
 62
     7
420
 16777215
100
AcDbVertex
100
AcDb2dVertex
 10
240.6503500000103
 20
7.625000047558955
 30
0.0000000000011084
  0
VERTEX
  5
2F5
330
2EE
100
AcDbEntity
  8
默认
 62
     7
420
 16777215
100
AcDbVertex
100
AcDb2dVertex
 10
240.6503500000103
 20
20.62500004755896
 30
0.0000000000011084
 42
-0.4142135623721452
  0
VERTEX
  5
2F6
330
2EE
100
AcDbEntity
  8
默认
 62
     7
420
 16777215
100
AcDbVertex
100
AcDb2dVertex
 10
241.1503500000103
 20
21.12500004755799
 30
0.0000000000011084
  0
SEQEND
  5
2F7
330
2EE
100
AcDbEntity
  8
默认
 62
     7
420
 16777215
  0
POLYLINE
  5
34B
330
1F
100
AcDbEntity
  8
默认
 62
     7
420
 16777215
100
AcDb2dPolyline
 66
     1
 10
0.0
 20
0.0
 30
0.0000000000099334
 70
     1
  0
VERTEX
  5
34C
330
34B
100
AcDbEntity
  8
默认
 62
     7
420
 16777215
100
AcDbVertex
100
AcDb2dVertex
 10
23.66825000001063
 20
58.72500004755796
 30
0.0000000000099334
  0
VERTEX
  5
34D
330
34B
100
AcDbEntity
  8
默认
 62
     7
420
 16777215
100
AcDbVertex
100
AcDb2dVertex
 10
23.66825000001063
 20
45.72500004755783
 30
0.0000000000099334
 42
-0.4142135623706932
  0
VERTEX
  5
34E
330
34B
100
AcDbEntity
  8
默认
 62
     7
420
 16777215
100
AcDbVertex
100
AcDb2dVertex
 10
23.16825000001063
 20
45.22500004755783
 30
0.0000000000099334
  0
VERTEX
  5
34F
330
34B
100
AcDbEntity
  8
默认
 62
     7
420
 16777215
100
AcDbVertex
100
AcDb2dVertex
 10
5.406260000010661
 20
45.22500004755784
 30
0.0000000000099334
 42
-0.4142135623720994
  0
VERTEX
  5
350
330
34B
100
AcDbEntity
  8
默认
 62
     7
420
 16777215
100
AcDbVertex
100
AcDb2dVertex
 10
4.90626000001066
 20
45.72500004755783
 30
0.0000000000099334
  0
VERTEX
  5
351
330
34B
100
AcDbEntity
  8
默认
 62
     7
420
 16777215
100
AcDbVertex
100
AcDb2dVertex
 10
4.906260000010661
 20
58.72500004755796
 30
0.0000000000099334
 42
-0.4142135623731066
  0
VERTEX
  5
352
330
34B
100
AcDbEntity
  8
默认
 62
     7
420
 16777215
100
AcDbVertex
100
AcDb2dVertex
 10
5.406260000010661
 20
59.22500004755796
 30
0.0000000000099334
  0
VERTEX
  5
353
330
34B
100
AcDbEntity
  8
默认
 62
     7
420
 16777215
100
AcDbVertex
100
AcDb2dVertex
 10
23.16825000001063
 20
59.22500004755796
 30
0.0000000000099334
 42
-0.4142135623731277
  0
SEQEND
  5
354
330
34B
100
AcDbEntity
  8
默认
 62
     7
420
 16777215
  0
POLYLINE
  5
355
330
1F
100
AcDbEntity
  8
默认
 62
     7
420
 16777215
100
AcDb2dPolyline
 66
     1
 10
0.0
 20
0.0
 30
0.0000000000037232
 70
     1
  0
VERTEX
  5
356
330
355
100
AcDbEntity
  8
默认
 62
     7
420
 16777215
100
AcDbVertex
100
AcDb2dVertex
 10
187.4750000000113
 20
97.32500004755799
 30
0.0000000000037232
 42
-0.4142135623734329
  0
VERTEX
  5
357
330
355
100
AcDbEntity
  8
默认
 62
     7
420
 16777215
100
AcDbVertex
100
AcDb2dVertex
 10
187.9750000000113
 20
96.82500004755798
 30
0.0000000000037232
  0
VERTEX
  5
358
330
355
100
AcDbEntity
  8
默认
 62
     7
420
 16777215
100
AcDbVertex
100
AcDb2dVertex
 10
187.9750000000113
 20
83.82500004755893
 30
0.0000000000037232
 42
-0.4142135623710115
  0
VERTEX
  5
359
330
355
100
AcDbEntity
  8
默认
 62
     7
420
 16777215
100
AcDbVertex
100
AcDb2dVertex
 10
187.4750000000113
 20
83.32500004755896
 30
0.0000000000037232
  0
VERTEX
  5
35A
330
355
100
AcDbEntity
  8
默认
 62
     7
420
 16777215
100
AcDbVertex
100
AcDb2dVertex
 10
174.4750000000113
 20
83.32500004755798
 30
0.0000000000037232
 42
-0.4142135623723164
  0
VERTEX
  5
35B
330
355
100
AcDbEntity
  8
默认
 62
     7
420
 16777215
100
AcDbVertex
100
AcDb2dVertex
 10
173.9750000000113
 20
83.82500004755893
 30
0.0000000000037232
  0
VERTEX
  5
35C
330
355
100
AcDbEntity
  8
默认
 62
     7
420
 16777215
100
AcDbVertex
100
AcDb2dVertex
 10
173.9750000000113
 20
96.82500004755798
 30
0.0000000000037232
 42
-0.4142135623725991
  0
VERTEX
  5
35D
330
355
100
AcDbEntity
  8
默认
 62
     7
420
 16777215
100
AcDbVertex
100
AcDb2dVertex
 10
174.4750000000113
 20
97.32500004755893
 30
0.0000000000037232
  0
SEQEND
  5
35E
330
355
100
AcDbEntity
  8
默认
 62
     7
420
 16777215
  0
POLYLINE
  5
35F
330
1F
100
AcDbEntity
  8
默认
 62
     7
420
 16777215
100
AcDb2dPolyline
 66
     1
 10
0.0
 20
0.0
 30
0.0000000000095
 70
     1
  0
VERTEX
  5
360
330
35F
100
AcDbEntity
  8
默认
 62
     7
420
 16777215
100
AcDbVertex
100
AcDb2dVertex
 10
35.07500000000982
 20
97.32500004755799
 30
0.0000000000095
 42
-0.4142135623729132
  0
VERTEX
  5
361
330
35F
100
AcDbEntity
  8
默认
 62
     7
420
 16777215
100
AcDbVertex
100
AcDb2dVertex
 10
35.57500000000981
 20
96.82500004755798
 30
0.0000000000095
  0
VERTEX
  5
362
330
35F
100
AcDbEntity
  8
默认
 62
     7
420
 16777215
100
AcDbVertex
100
AcDb2dVertex
 10
35.57500000000981
 20
83.82500004755893
 30
0.0000000000095
 42
-0.4142135623733972
  0
VERTEX
  5
363
330
35F
100
AcDbEntity
  8
默认
 62
     7
420
 16777215
100
AcDbVertex
100
AcDb2dVertex
 10
35.07500000000982
 20
83.32500004755893
 30
0.0000000000095
  0
VERTEX
  5
364
330
35F
100
AcDbEntity
  8
默认
 62
     7
420
 16777215
100
AcDbVertex
100
AcDb2dVertex
 10
22.07500000000982
 20
83.32500004755893
 30
0.0000000000095
 42
-0.4142135623721771
  0
VERTEX
  5
365
330
35F
100
AcDbEntity
  8
默认
 62
     7
420
 16777215
100
AcDbVertex
100
AcDb2dVertex
 10
21.57500000000982
 20
83.82500004755893
 30
0.0000000000095
  0
VERTEX
  5
366
330
35F
100
AcDbEntity
  8
默认
 62
     7
420
 16777215
100
AcDbVertex
100
AcDb2dVertex
 10
21.57500000000982
 20
96.82500004755798
 30
0.0000000000095
 42
-0.4142135623767471
  0
VERTEX
  5
367
330
35F
100
AcDbEntity
  8
默认
 62
     7
420
 16777215
100
AcDbVertex
100
AcDb2dVertex
 10
22.07500000000982
 20
97.32500004755799
 30
0.0000000000095
  0
SEQEND
  5
368
330
35F
100
AcDbEntity
  8
默认
 62
     7
420
 16777215
  0
POLYLINE
  5
397
330
1F
100
AcDbEntity
  8
默认
 62
     7
420
 16777215
100
AcDb2dPolyline
 66
     1
 10
0.0
 20
0.0
 30
0.0000000000006573
 70
     1
  0
VERTEX
  5
398
330
397
100
AcDbEntity
  8
默认
 62
     7
420
 16777215
100
AcDbVertex
100
AcDb2dVertex
 10
268.4053500000093
 20
23.80050004755896
 30
0.0000000000006573
 42
-0.4142135623713653
  0
VERTEX
  5
399
330
397
100
AcDbEntity
  8
默认
 62
     7
420
 16777215
100
AcDbVertex
100
AcDb2dVertex
 10
267.8803500000104
 20
24.32550004755797
 30
0.0000000000006573
  0
VERTEX
  5
39A
330
397
100
AcDbEntity
  8
默认
 62
     7
420
 16777215
100
AcDbVertex
100
AcDb2dVertex
 10
267.8803500000104
 20
39.675000047558
 30
0.0000000000006573
 42
-0.4142135623709633
  0
VERTEX
  5
39B
330
397
100
AcDbEntity
  8
默认
 62
     7
420
 16777215
100
AcDbVertex
100
AcDb2dVertex
 10
268.3803499999904
 20
40.17500004755794
 30
0.0000000000006573
  0
VERTEX
  5
39C
330
397
100
AcDbEntity
  8
默认
 62
     7
420
 16777215
100
AcDbVertex
100
AcDb2dVertex
 10
282.7247000000113
 20
40.17500004755698
 30
0.0000000000006573
 42
-0.4142135623727787
  0
VERTEX
  5
39D
330
397
100
AcDbEntity
  8
默认
 62
     7
420
 16777215
100
AcDbVertex
100
AcDb2dVertex
 10
283.2247000000113
 20
39.675000047558
 30
0.0000000000006573
  0
VERTEX
  5
39E
330
397
100
AcDbEntity
  8
默认
 62
     7
420
 16777215
100
AcDbVertex
100
AcDb2dVertex
 10
283.2247000000113
 20
26.675000047558
 30
0.0000000000006573
 42
-0.4142135623724942
  0
VERTEX
  5
39F
330
397
100
AcDbEntity
  8
默认
 62
     7
420
 16777215
100
AcDbVertex
100
AcDb2dVertex
 10
282.7247000000113
 20
26.17500004755903
 30
0.0000000000006573
  0
VERTEX
  5
3A0
330
397
100
AcDbEntity
  8
默认
 62
     7
420
 16777215
100
AcDbVertex
100
AcDb2dVertex
 10
275.2303500000014
 20
26.17500004755897
 30
0.0000000000006573
  0
VERTEX
  5
3A1
330
397
100
AcDbEntity
  8
默认
 62
     7
420
 16777215
100
AcDbVertex
100
AcDb2dVertex
 10
275.2303499999994
 20
24.32550004755797
 30
0.0000000000006573
 42
-0.4142135623750642
  0
VERTEX
  5
3A2
330
397
100
AcDbEntity
  8
默认
 62
     7
420
 16777215
100
AcDbVertex
100
AcDb2dVertex
 10
274.7053500000104
 20
23.80050004755904
 30
0.0000000000006573
  0
SEQEND
  5
3A3
330
397
100
AcDbEntity
  8
默认
 62
     7
420
 16777215
  0
POLYLINE
  5
411
330
1F
100
AcDbEntity
  8
默认
 62
     7
420
 16777215
100
AcDb2dPolyline
 66
     1
 10
0.0
 20
0.0
 30
0.0000000000051692
 70
     1
  0
VERTEX
  5
412
330
411
100
AcDbEntity
  8
默认
 62
     7
420
 16777215
100
AcDbVertex
100
AcDb2dVertex
 10
149.3750000000105
 20
97.32500004755799
 30
0.0000000000051692
 42
-0.4142135623697222
  0
VERTEX
  5
413
330
411
100
AcDbEntity
  8
默认
 62
     7
420
 16777215
100
AcDbVertex
100
AcDb2dVertex
 10
149.8750000000104
 20
96.82500004755798
 30
0.0000000000051692
  0
VERTEX
  5
414
330
411
100
AcDbEntity
  8
默认
 62
     7
420
 16777215
100
AcDbVertex
100
AcDb2dVertex
 10
149.8750000000105
 20
83.82500004755893
 30
0.0000000000051692
 42
-0.4142135623703646
  0
VERTEX
  5
415
330
411
100
AcDbEntity
  8
默认
 62
     7
420
 16777215
100
AcDbVertex
100
AcDb2dVertex
 10
149.3750000000105
 20
83.32500004755893
 30
0.0000000000051692
  0
VERTEX
  5
416
330
411
100
AcDbEntity
  8
默认
 62
     7
420
 16777215
100
AcDbVertex
100
AcDb2dVertex
 10
136.3750000000105
 20
83.32500004755893
 30
0.0000000000051692
 42
-0.4142135623719628
  0
VERTEX
  5
417
330
411
100
AcDbEntity
  8
默认
 62
     7
420
 16777215
100
AcDbVertex
100
AcDb2dVertex
 10
135.8750000000105
 20
83.82500004755893
 30
0.0000000000051692
  0
VERTEX
  5
418
330
411
100
AcDbEntity
  8
默认
 62
     7
420
 16777215
100
AcDbVertex
100
AcDb2dVertex
 10
135.8750000000105
 20
96.82500004755798
 30
0.0000000000051692
 42
-0.4142135623735016
  0
VERTEX
  5
419
330
411
100
AcDbEntity
  8
默认
 62
     7
420
 16777215
100
AcDbVertex
100
AcDb2dVertex
 10
136.3750000000105
 20
97.32500004755795
 30
0.0000000000051692
  0
SEQEND
  5
41A
330
411
100
AcDbEntity
  8
默认
 62
     7
420
 16777215
  0
POLYLINE
  5
491
330
1F
100
AcDbEntity
  8
默认
 62
     7
420
 16777215
100
AcDb2dPolyline
 66
     1
 10
0.0
 20
0.0
 30
0.0000000000102212
 70
     1
  0
VERTEX
  5
492
330
491
100
AcDbEntity
  8
默认
 62
     7
420
 16777215
100
AcDbVertex
100
AcDb2dVertex
 10
16.02500000001055
 20
97.32500004755799
 30
0.0000000000102212
 42
-0.4142135623716515
  0
VERTEX
  5
493
330
491
100
AcDbEntity
  8
默认
 62
     7
420
 16777215
100
AcDbVertex
100
AcDb2dVertex
 10
16.52500000001055
 20
96.82500004755798
 30
0.0000000000102212
  0
VERTEX
  5
494
330
491
100
AcDbEntity
  8
默认
 62
     7
420
 16777215
100
AcDbVertex
100
AcDb2dVertex
 10
16.52500000001055
 20
83.82500004755893
 30
0.0000000000102212
 42
-0.4142135623722665
  0
VERTEX
  5
495
330
491
100
AcDbEntity
  8
默认
 62
     7
420
 16777215
100
AcDbVertex
100
AcDb2dVertex
 10
16.02500000001055
 20
83.32500004755893
 30
0.0000000000102212
  0
VERTEX
  5
496
330
491
100
AcDbEntity
  8
默认
 62
     7
420
 16777215
100
AcDbVertex
100
AcDb2dVertex
 10
3.02500000001055
 20
83.32500004755893
 30
0.0000000000102212
 42
-0.4142135623733171
  0
VERTEX
  5
497
330
491
100
AcDbEntity
  8
默认
 62
     7
420
 16777215
100
AcDbVertex
100
AcDb2dVertex
 10
2.525000000010539
 20
83.82500004755893
 30
0.0000000000102212
  0
VERTEX
  5
498
330
491
100
AcDbEntity
  8
默认
 62
     7
420
 16777215
100
AcDbVertex
100
AcDb2dVertex
 10
2.525000000010549
 20
96.82500004755798
 30
0.0000000000102212
 42
-0.414213562377814
  0
VERTEX
  5
499
330
491
100
AcDbEntity
  8
默认
 62
     7
420
 16777215
100
AcDbVertex
100
AcDb2dVertex
 10
3.02500000001055
 20
97.32500004755799
 30
0.0000000000102212
  0
SEQEND
  5
49A
330
491
100
AcDbEntity
  8
默认
 62
     7
420
 16777215
  0
POLYLINE
  5
10BB
330
1F
100
AcDbEntity
  8
默认
 62
     7
420
 16777215
100
AcDb2dPolyline
 66
     1
 10
0.0
 20
0.0
 30
0.0
  0
VERTEX
  5
10BF
330
10BB
100
AcDbEntity
  8
默认
 62
     7
420
 16777215
100
AcDbVertex
100
AcDb2dVertex
 10
285.7498500007582
 20
6.459103620003417
 30
0.0
  0
VERTEX
  5
10C0
330
10BB
100
AcDbEntity
  8
默认
 62
     7
420
 16777215
100
AcDbVertex
100
AcDb2dVertex
 10
285.7498500000104
 20
39.70000004752001
 30
0.0
 42
0.4142135623730008
  0
VERTEX
  5
10C1
330
10BB
100
AcDbEntity
  8
默认
 62
     7
420
 16777215
100
AcDbVertex
100
AcDb2dVertex
 10
284.2498500000104
 20
41.20000004751999
 30
0.0
 42
-0.999999999999998
  0
VERTEX
  5
10C2
330
10BB
100
AcDbEntity
  8
默认
 62
     7
420
 16777215
100
AcDbVertex
100
AcDb2dVertex
 10
284.2498500000104
 20
45.20000004752017
 30
0.0
 42
0.414213562373855
  0
VERTEX
  5
10C3
330
10BB
100
AcDbEntity
  8
默认
 62
     7
420
 16777215
100
AcDbVertex
100
AcDb2dVertex
 10
285.7498500000104
 20
46.70000004752
 30
0.0
  0
VERTEX
  5
10C4
330
10BB
100
AcDbEntity
  8
默认
 62
     7
420
 16777215
100
AcDbVertex
100
AcDb2dVertex
 10
285.7498500000104
 20
97.94108601362445
 30
0.0
 42
-0.4917260415547391
  0
VERTEX
  5
10C5
330
10BB
100
AcDbEntity
  8
默认
 62
     7
420
 16777215
100
AcDbVertex
100
AcDb2dVertex
 10
284.136197655272
 20
99.6849144828859
 30
0.0
  0
SEQEND
  5
10BC
330
10BB
100
AcDbEntity
  8
默认
 62
     7
420
 16777215
  0
LINE
  5
10EE
330
1F
100
AcDbEntity
  8
0
 62
     0
100
AcDbLine
 10
40.10026000000015
 20
99.68670004755843
 30
0.0000000000102212
 11
93.2502600000002
 21
99.68670004755843
 31
0.0000000000102212
  0
POLYLINE
  5
10EF
330
1F
100
AcDbEntity
  8
默认
 62
     7
420
 16777215
100
AcDb2dPolyline
 66
     1
 10
0.0
 20
0.0
 30
0.0000000000093081
  0
VERTEX
  5
10F1
330
10EF
100
AcDbEntity
  8
默认
 62
     7
420
 16777215
100
AcDbVertex
100
AcDb2dVertex
 10
40.10026000000015
 20
98.35000004756494
 30
0.0000000000093081
 42
-1.0
  0
VERTEX
  5
10F2
330
10EF
100
AcDbEntity
  8
默认
 62
     7
420
 16777215
100
AcDbVertex
100
AcDb2dVertex
 10
36.10026000000015
 20
98.35000004756494
 30
0.0000000000093081
  0
VERTEX
  5
10F3
330
10EF
100
AcDbEntity
  8
默认
 62
     7
420
 16777215
100
AcDbVertex
100
AcDb2dVertex
 10
36.10026000000015
 20
99.68670004755843
 30
0.0000000000093081
 42
-0.4142135623718688
  0
SEQEND
  5
10F0
330
10EF
100
AcDbEntity
  8
默认
 62
     7
420
 16777215
  0
POLYLINE
  5
10F4
330
1F
100
AcDbEntity
  8
默认
 62
     7
420
 16777215
100
AcDb2dPolyline
 66
     1
 10
0.0
 20
0.0
 30
0.0000000000093081
  0
VERTEX
  5
10F6
330
10F4
100
AcDbEntity
  8
默认
 62
     7
420
 16777215
100
AcDbVertex
100
AcDb2dVertex
 10
40.10026000000015
 20
99.68670004755843
 30
0.0000000000093081
  0
VERTEX
  5
10F7
330
10F4
100
AcDbEntity
  8
默认
 62
     7
420
 16777215
100
AcDbVertex
100
AcDb2dVertex
 10
40.10026000000015
 20
98.35000004756494
 30
0.0000000000093081
 42
-1.0
  0
SEQEND
  5
10F5
330
10F4
100
AcDbEntity
  8
默认
 62
     7
420
 16777215
  0
POLYLINE
  5
10FE
330
1F
100
AcDbEntity
  8
默认
 62
     7
420
 16777215
100
AcDb2dPolyline
 66
     1
 10
0.0
 20
0.0
 30
0.0
  0
VERTEX
  5
1100
330
10FE
100
AcDbEntity
  8
默认
 62
     7
420
 16777215
100
AcDbVertex
100
AcDb2dVertex
 10
1.613663023528795
 20
99.68485122910168
 30
0.0
 42
-0.4917127613717795
  0
VERTEX
  5
1101
330
10FE
100
AcDbEntity
  8
默认
 62
     7
420
 16777215
100
AcDbVertex
100
AcDb2dVertex
 10
0.0000000000000004
 20
97.94108601571629
 30
0.0
  0
VERTEX
  5
1102
330
10FE
100
AcDbEntity
  8
默认
 62
     7
420
 16777215
100
AcDbVertex
100
AcDb2dVertex
 10
0.0
 20
46.700260047548
 30
0.0
 42
0.4142135623729777
  0
VERTEX
  5
1103
330
10FE
100
AcDbEntity
  8
默认
 62
     7
420
 16777215
100
AcDbVertex
100
AcDb2dVertex
 10
1.500000000010915
 20
45.20026004754799
 30
0.0
 42
-1.000000000002404
  0
VERTEX
  5
1104
330
10FE
100
AcDbEntity
  8
默认
 62
     7
420
 16777215
100
AcDbVertex
100
AcDb2dVertex
 10
1.5
 20
41.20026004754897
 30
0.0
 42
0.414213562370956
  0
VERTEX
  5
1105
330
10FE
100
AcDbEntity
  8
默认
 62
     7
420
 16777215
100
AcDbVertex
100
AcDb2dVertex
 10
0.0000000000009048
 20
39.70026004754897
 30
0.0
  0
VERTEX
  5
1106
330
10FE
100
AcDbEntity
  8
默认
 62
     7
420
 16777215
100
AcDbVertex
100
AcDb2dVertex
 10
0.0000000000106866
 20
6.459103620424343
 30
0.0
 42
-0.4822330409717028
  0
VERTEX
  5
1107
330
10FE
100
AcDbEntity
  8
默认
 62
     7
420
 16777215
100
AcDbVertex
100
AcDb2dVertex
 10
1.620624128688159
 20
4.760782038010159
 30
0.0
  0
SEQEND
  5
10FF
330
10FE
100
AcDbEntity
  8
默认
 62
     7
420
 16777215
  0
LINE
  5
1120
330
1F
100
AcDbEntity
  8
0
 62
     0
100
AcDbLine
 10
70.58687043502621
 20
4.759262947558453
 30
0.0000000000102212
 11
1.6881146000105
 21
4.759262947558454
 31
0.0000000000102212
  0
POLYLINE
  5
1121
330
1F
100
AcDbEntity
  8
默认
 62
     7
420
 16777215
100
AcDb2dPolyline
 66
     1
 10
0.0
 20
0.0
 30
0.0
  0
VERTEX
  5
1123
330
1121
100
AcDbEntity
  8
默认
 62
     7
420
 16777215
100
AcDbVertex
100
AcDb2dVertex
 10
70.58687043502621
 20
4.759262947558453
 30
0.0
 42
0.2549806228983928
  0
VERTEX
  5
1124
330
1121
100
AcDbEntity
  8
默认
 62
     7
420
 16777215
100
AcDbVertex
100
AcDb2dVertex
 10
71.04542687500995
 20
5.600000047557954
 30
0.0
  0
VERTEX
  5
1125
330
1121
100
AcDbEntity
  8
默认
 62
     7
420
 16777215
100
AcDbVertex
100
AcDb2dVertex
 10
71.04542687500998
 20
6.100000045730893
 30
0.0
 42
-1.0
  0
VERTEX
  5
1126
330
1121
100
AcDbEntity
  8
默认
 62
     7
420
 16777215
100
AcDbVertex
100
AcDb2dVertex
 10
75.04542687500998
 20
6.100000045730893
 30
0.0
  0
VERTEX
  5
1127
330
1121
100
AcDbEntity
  8
默认
 62
     7
420
 16777215
100
AcDbVertex
100
AcDb2dVertex
 10
75.04542687500998
 20
5.600000047557954
 30
0.0
 42
0.254980622898376
  0
VERTEX
  5
1128
330
1121
100
AcDbEntity
  8
默认
 62
     7
420
 16777215
100
AcDbVertex
100
AcDb2dVertex
 10
75.50398331499377
 20
4.759262947558454
 30
0.0
  0
SEQEND
  5
1122
330
1121
100
AcDbEntity
  8
默认
 62
     7
420
 16777215
  0
LINE
  5
113B
330
1F
100
AcDbEntity
  8
0
 62
     0
100
AcDbLine
 10
210.2465366850077
 20
4.759262947558454
 30
0.0000000000102212
 11
75.50398331499377
 21
4.759262947558454
 31
0.0000000000102212
  0
POLYLINE
  5
113C
330
1F
100
AcDbEntity
  8
默认
 62
     7
420
 16777215
100
AcDb2dPolyline
 66
     1
 10
0.0
 20
0.0
 30
0.0
  0
VERTEX
  5
113E
330
113C
100
AcDbEntity
  8
默认
 62
     7
420
 16777215
100
AcDbVertex
100
AcDb2dVertex
 10
210.2465366850077
 20
4.759262947558453
 30
0.0
 42
0.2549806228986394
  0
VERTEX
  5
113F
330
113C
100
AcDbEntity
  8
默认
 62
     7
420
 16777215
100
AcDbVertex
100
AcDb2dVertex
 10
210.7050931249903
 20
5.600000047557954
 30
0.0
  0
VERTEX
  5
1140
330
113C
100
AcDbEntity
  8
默认
 62
     7
420
 16777215
100
AcDbVertex
100
AcDb2dVertex
 10
210.7050931249903
 20
6.100000045730893
 30
0.0
 42
-0.9999999999999856
  0
VERTEX
  5
1141
330
113C
100
AcDbEntity
  8
默认
 62
     7
420
 16777215
100
AcDbVertex
100
AcDb2dVertex
 10
214.7050931249903
 20
6.100000045730893
 30
0.0
  0
VERTEX
  5
1142
330
113C
100
AcDbEntity
  8
默认
 62
     7
420
 16777215
100
AcDbVertex
100
AcDb2dVertex
 10
214.7050931249903
 20
5.600000047557954
 30
0.0
 42
0.2549806228985329
  0
VERTEX
  5
1143
330
113C
100
AcDbEntity
  8
默认
 62
     7
420
 16777215
100
AcDbVertex
100
AcDb2dVertex
 10
215.1636495649735
 20
4.759262947558453
 30
0.0
  0
SEQEND
  5
113D
330
113C
100
AcDbEntity
  8
默认
 62
     7
420
 16777215
  0
POLYLINE
  5
1144
330
1F
100
AcDbEntity
  8
默认
 62
     7
420
 16777215
100
AcDb2dPolyline
 66
     1
 10
0.0
 20
0.0
 30
0.0
  0
VERTEX
  5
1146
330
1144
100
AcDbEntity
  8
默认
 62
     7
420
 16777215
100
AcDbVertex
100
AcDb2dVertex
 10
284.1292337627144
 20
4.760724639137925
 30
0.0
 42
-0.4822449441650402
  0
VERTEX
  5
1147
330
1144
100
AcDbEntity
  8
默认
 62
     7
420
 16777215
100
AcDbVertex
100
AcDb2dVertex
 10
285.7498500007582
 20
6.459103620003417
 30
0.0
  0
SEQEND
  5
1145
330
1144
100
AcDbEntity
  8
默认
 62
     7
420
 16777215
  0
LINE
  5
1149
330
1F
100
AcDbEntity
  8
0
 62
     0
100
AcDbLine
 10
192.5002600000003
 20
99.68670004755843
 30
0.0000000000102212
 11
245.6502600000003
 21
99.68670004755844
 31
0.0000000000102212
  0
POLYLINE
  5
114A
330
1F
100
AcDbEntity
  8
默认
 62
     7
420
 16777215
100
AcDb2dPolyline
 66
     1
 10
0.0
 20
0.0
 30
0.000000000003535
  0
VERTEX
  5
114C
330
114A
100
AcDbEntity
  8
默认
 62
     7
420
 16777215
100
AcDbVertex
100
AcDb2dVertex
 10
192.5002600000004
 20
99.68670004755843
 30
0.000000000003535
  0
VERTEX
  5
114D
330
114A
100
AcDbEntity
  8
默认
 62
     7
420
 16777215
100
AcDbVertex
100
AcDb2dVertex
 10
192.5002600000003
 20
98.35000004756096
 30
0.000000000003535
 42
-1.000000000000238
  0
VERTEX
  5
114E
330
114A
100
AcDbEntity
  8
默认
 62
     7
420
 16777215
100
AcDbVertex
100
AcDb2dVertex
 10
188.5002600000003
 20
98.3500000475619
 30
0.000000000003535
  0
VERTEX
  5
114F
330
114A
100
AcDbEntity
  8
默认
 62
     7
420
 16777215
100
AcDbVertex
100
AcDb2dVertex
 10
188.5002600000003
 20
99.68670004755843
 30
0.000000000003535
 42
-0.4142135623729927
  0
SEQEND
  5
114B
330
114A
100
AcDbEntity
  8
默认
 62
     7
420
 16777215
  0
LINE
  5
1150
330
1F
100
AcDbEntity
  8
0
 62
     0
100
AcDbLine
 10
249.6502600000003
 20
99.68670004755844
 30
0.0000000000102212
 11
284.0630300000106
 21
99.68670004755844
 31
0.0000000000102212
  0
POLYLINE
  5
1151
330
1F
100
AcDbEntity
  8
默认
 62
     7
420
 16777215
100
AcDb2dPolyline
 66
     1
 10
0.0
 20
0.0
 30
0.0000000000015206
  0
VERTEX
  5
1153
330
1151
100
AcDbEntity
  8
默认
 62
     7
420
 16777215
100
AcDbVertex
100
AcDb2dVertex
 10
249.6502600000003
 20
99.68670004755844
 30
0.0000000000015206
  0
VERTEX
  5
1154
330
1151
100
AcDbEntity
  8
默认
 62
     7
420
 16777215
100
AcDbVertex
100
AcDb2dVertex
 10
249.6502600000003
 20
98.3500000475619
 30
0.0000000000015206
 42
-0.9999999999999571
  0
VERTEX
  5
1155
330
1151
100
AcDbEntity
  8
默认
 62
     7
420
 16777215
100
AcDbVertex
100
AcDb2dVertex
 10
245.6502600000003
 20
98.3500000475619
 30
0.0000000000015206
  0
VERTEX
  5
1156
330
1151
100
AcDbEntity
  8
默认
 62
     7
420
 16777215
100
AcDbVertex
100
AcDb2dVertex
 10
245.6502600000003
 20
99.68670004755844
 30
0.0000000000015206
 42
-0.4142135623731308
  0
SEQEND
  5
1152
330
1151
100
AcDbEntity
  8
默认
 62
     7
420
 16777215
  0
LINE
  5
1157
330
1F
100
AcDbEntity
  8
0
 62
     0
100
AcDbLine
 10
97.25026000000022
 20
99.68670004755843
 30
0.0000000000102212
 11
188.5002600000003
 21
99.68670004755843
 31
0.0000000000102212
  0
POLYLINE
  5
1158
330
1F
100
AcDbEntity
  8
默认
 62
     7
420
 16777215
100
AcDb2dPolyline
 66
     1
 10
0.0
 20
0.0
 30
0.0000000000071445
  0
VERTEX
  5
115A
330
1158
100
AcDbEntity
  8
默认
 62
     7
420
 16777215
100
AcDbVertex
100
AcDb2dVertex
 10
97.25026000000022
 20
98.35000004756096
 30
0.0000000000071445
 42
-1.000000000000252
  0
VERTEX
  5
115B
330
1158
100
AcDbEntity
  8
默认
 62
     7
420
 16777215
100
AcDbVertex
100
AcDb2dVertex
 10
93.2502600000002
 20
98.3500000475619
 30
0.0000000000071445
  0
VERTEX
  5
115C
330
1158
100
AcDbEntity
  8
默认
 62
     7
420
 16777215
100
AcDbVertex
100
AcDb2dVertex
 10
93.2502600000002
 20
99.68670004755843
 30
0.0000000000071445
 42
-0.4142135623732283
  0
SEQEND
  5
1159
330
1158
100
AcDbEntity
  8
默认
 62
     7
420
 16777215
  0
POLYLINE
  5
115D
330
1F
100
AcDbEntity
  8
默认
 62
     7
420
 16777215
100
AcDb2dPolyline
 66
     1
 10
0.0
 20
0.0
 30
0.0000000000071445
  0
VERTEX
  5
115F
330
115D
100
AcDbEntity
  8
默认
 62
     7
420
 16777215
100
AcDbVertex
100
AcDb2dVertex
 10
97.25026000000022
 20
99.68670004755843
 30
0.0000000000071445
  0
VERTEX
  5
1160
330
115D
100
AcDbEntity
  8
默认
 62
     7
420
 16777215
100
AcDbVertex
100
AcDb2dVertex
 10
97.25026000000022
 20
98.35000004756096
 30
0.0000000000071445
 42
-1.000000000000252
  0
SEQEND
  5
115E
330
115D
100
AcDbEntity
  8
默认
 62
     7
420
 16777215
  0
LINE
  5
1161
330
1F
100
AcDbEntity
  8
0
100
AcDbLine
 10
1.613663023528795
 20
99.68485122910168
 30
0.0
 11
36.10026000000015
 21
99.68670004755843
 31
0.0000000000093081
  0
LINE
  5
1162
330
1F
100
AcDbEntity
  8
0
100
AcDbLine
 10
215.1636495649735
 20
4.759262947558453
 30
0.0
 11
284.1292337627144
 21
4.760724639137925
 31
0.0
  0
ARC
  5
1195
330
1F
100
AcDbEntity
  8
0
100
AcDbCircle
 10
30.10000000001054
 20
80.32258626848472
 30
0.0
 40
0.4999999999999992
100
AcDbArc
 50
89.72406786660023
 51
180.0
  0
LINE
  5
1196
330
1F
100
AcDbEntity
  8
0
100
AcDbLine
 10
29.60000000001054
 20
80.32258626848472
 30
0.0
 11
29.60000000001054
 21
63.27500004755847
 31
0.0
  0
ARC
  5
1197
330
1F
100
AcDbEntity
  8
0
100
AcDbCircle
 10
30.10000000001054
 20
63.27500004755847
 30
0.0
 40
0.5
100
AcDbArc
 50
180.0
 51
270.0
  0
LINE
  5
1198
330
1F
100
AcDbEntity
  8
0
100
AcDbLine
 10
30.10000000001054
 20
62.77500004755848
 30
0.0
 11
33.36250000001053
 21
62.77500004755848
 31
0.0
  0
ARC
  5
1199
330
1F
100
AcDbEntity
  8
0
100
AcDbCircle
 10
33.36250000001053
 20
61.77500004755848
 30
0.0
 40
1.0
100
AcDbArc
 50
0.0
 51
90.0
  0
LINE
  5
119A
330
1F
100
AcDbEntity
  8
0
100
AcDbLine
 10
34.36250000001053
 20
61.77500004755848
 30
0.0
 11
34.36250000001053
 21
44.22500004755846
 31
0.0
  0
ARC
  5
119B
330
1F
100
AcDbEntity
  8
0
100
AcDbCircle
 10
34.86250000001052
 20
44.22500004755848
 30
0.0
 40
0.4999999999999858
100
AcDbArc
 50
180.0000000000016
 51
270.0000000000017
  0
LINE
  5
119C
330
1F
100
AcDbEntity
  8
0
100
AcDbLine
 10
34.86250000001053
 20
43.72500004755849
 30
0.0
 11
42.8875000000105
 21
43.72500004755849
 31
0.0
  0
ARC
  5
119D
330
1F
100
AcDbEntity
  8
0
100
AcDbCircle
 10
42.8875000000105
 20
42.72500004755849
 30
0.0
 40
1.0
100
AcDbArc
 50
0.0
 51
90.0
  0
LINE
  5
119E
330
1F
100
AcDbEntity
  8
0
100
AcDbLine
 10
43.8875000000105
 20
42.72500004755849
 30
0.0
 11
43.8875000000105
 21
25.17500004755849
 31
0.0
  0
ARC
  5
119F
330
1F
100
AcDbEntity
  8
0
100
AcDbCircle
 10
44.3875000000105
 20
25.17500004755849
 30
0.0
 40
0.5
100
AcDbArc
 50
180.0
 51
270.0
  0
LINE
  5
11A0
330
1F
100
AcDbEntity
  8
0
100
AcDbLine
 10
44.3875000000105
 20
24.67500004755848
 30
0.0
 11
231.8375000000108
 21
24.67500004755848
 31
0.0
  0
ARC
  5
11A1
330
1F
100
AcDbEntity
  8
0
100
AcDbCircle
 10
231.8375000000108
 20
25.17500004755849
 30
0.0
 40
0.5
100
AcDbArc
 50
270.0
 51
0.0
  0
LINE
  5
11A2
330
1F
100
AcDbEntity
  8
0
100
AcDbLine
 10
232.3375000000108
 20
25.17500004755849
 30
0.0
 11
232.3375000000108
 21
42.72500004755849
 31
0.0
  0
ARC
  5
11A3
330
1F
100
AcDbEntity
  8
0
100
AcDbCircle
 10
233.3375000000109
 20
42.72500004755849
 30
0.0
 40
1.0
100
AcDbArc
 50
90.0
 51
179.9999999999996
  0
LINE
  5
11A4
330
1F
100
AcDbEntity
  8
0
100
AcDbLine
 10
233.3375000000109
 20
43.72500004755849
 30
0.0
 11
241.3625000000108
 21
43.72500004755849
 31
0.0
  0
ARC
  5
11A5
330
1F
100
AcDbEntity
  8
0
100
AcDbCircle
 10
241.3625000000108
 20
44.22500004755848
 30
0.0
 40
0.4999999999999858
100
AcDbArc
 50
270.0
 51
359.9999999999984
  0
LINE
  5
11A6
330
1F
100
AcDbEntity
  8
0
100
AcDbLine
 10
241.8625000000108
 20
44.22500004755846
 30
0.0
 11
241.8625000000108
 21
61.77500004755848
 31
0.0
  0
ARC
  5
11A7
330
1F
100
AcDbEntity
  8
0
100
AcDbCircle
 10
242.8625000000108
 20
61.77500004755848
 30
0.0
 40
1.0
100
AcDbArc
 50
90.0
 51
180.0
  0
LINE
  5
11A8
330
1F
100
AcDbEntity
  8
0
100
AcDbLine
 10
242.8625000000108
 20
62.77500004755848
 30
0.0
 11
255.6500000000109
 21
62.77500004755848
 31
0.0
  0
ARC
  5
11A9
330
1F
100
AcDbEntity
  8
0
100
AcDbCircle
 10
255.6500000000109
 20
63.27500004755847
 30
0.0
 40
0.5
100
AcDbArc
 50
270.0
 51
0.0
  0
LINE
  5
11AA
330
1F
100
AcDbEntity
  8
0
100
AcDbLine
 10
256.1500000000108
 20
63.27500004755847
 30
0.0
 11
256.1500000000108
 21
79.27500004755848
 31
0.0
  0
ARC
  5
11AB
330
1F
100
AcDbEntity
  8
0
100
AcDbCircle
 10
255.6500000000109
 20
79.27500004755848
 30
0.0
 40
0.5
100
AcDbArc
 50
0.0
 51
90.0
  0
LINE
  5
11AC
330
1F
100
AcDbEntity
  8
0
100
AcDbLine
 10
255.6500000000109
 20
79.77500004755848
 30
0.0
 11
247.6250000000109
 21
79.77500004755848
 31
0.0
  0
LINE
  5
11AD
330
1F
100
AcDbEntity
  8
0
100
AcDbLine
 10
247.6250000000109
 20
79.77500004755848
 30
0.0
 11
30.10240795282246
 21
80.82258047021435
 31
0.0
  0
ARC
  5
11EC
330
1F
100
AcDbEntity
  8
0
100
AcDbCircle
 10
177.76839000001
 20
22.67500004755851
 30
0.0
 40
0.5
100
AcDbArc
 50
90.0
 51
180.0
  0
LINE
  5
11ED
330
1F
100
AcDbEntity
  8
0
100
AcDbLine
 10
177.76839000001
 20
23.17500004755851
 30
0.0
 11
184.3683900000102
 21
23.17500004755857
 31
0.0
  0
ARC
  5
11EE
330
1F
100
AcDbEntity
  8
0
100
AcDbCircle
 10
184.3683900000102
 20
22.67500004755857
 30
0.0
 40
0.5
100
AcDbArc
 50
0.0
 51
90.0
  0
LINE
  5
11EF
330
1F
100
AcDbEntity
  8
0
100
AcDbLine
 10
184.3683900000103
 20
7.625000047559339
 30
0.0000000000033822
 11
177.76839000001
 21
7.625000047559339
 31
0.0000000000033822
  0
ARC
  5
11F0
330
1F
100
AcDbEntity
  8
0
100
AcDbCircle
 10
184.3683900000103
 20
8.125000047559339
 30
0.0000000000033822
 40
0.5
100
AcDbArc
 50
270.0
 51
0.0
  0
ARC
  5
11F1
330
1F
100
AcDbEntity
  8
0
100
AcDbCircle
 10
177.76839000001
 20
8.125000047559339
 30
0.0000000000033822
 40
0.5
100
AcDbArc
 50
180.0
 51
270.0
  0
ARC
  5
11F3
330
1F
100
AcDbEntity
  8
0
100
AcDbCircle
 10
88.72781234257592
 20
8.125000047559254
 30
0.0000000000033822
 40
0.5
100
AcDbArc
 50
270.0
 51
0.0
  0
ARC
  5
11F5
330
1F
100
AcDbEntity
  8
0
100
AcDbCircle
 10
77.9683900000117
 20
22.67500004755849
 30
0.0
 40
0.5
100
AcDbArc
 50
90.0
 51
180.0
  0
LINE
  5
11F7
330
1F
100
AcDbEntity
  8
0
100
AcDbLine
 10
84.56839000001195
 20
7.625000047559254
 30
0.0000000000033822
 11
77.9683900000117
 21
7.625000047559254
 31
0.0000000000033822
  0
ARC
  5
11F8
330
1F
100
AcDbEntity
  8
0
100
AcDbCircle
 10
77.9683900000117
 20
8.125000047559254
 30
0.0000000000033822
 40
0.5
100
AcDbArc
 50
180.0
 51
270.0
  0
LINE
  5
11FA
330
1F
100
AcDbEntity
  8
0
100
AcDbLine
 10
196.8246400000098
 20
23.17500004755848
 30
0.0
 11
203.2246400000094
 21
23.17500004755848
 31
0.0
  0
LINE
  5
11FC
330
1F
100
AcDbEntity
  8
0
100
AcDbLine
 10
195.4058900000102
 20
20.62500004755943
 30
0.0000000000033822
 11
195.4058900000109
 21
7.625000047558913
 31
0.0000000000033822
  0
ARC
  5
11FD
330
1F
100
AcDbEntity
  8
0
100
AcDbCircle
 10
195.9058900000102
 20
20.62500004755943
 30
0.0000000000033822
 40
0.5
100
AcDbArc
 50
90.0
 51
180.0000000000016
  0
LINE
  5
11FE
330
1F
100
AcDbEntity
  8
0
100
AcDbLine
 10
209.4058900000101
 20
20.62500004755948
 30
0.0000000000033822
 11
209.4058900000101
 21
7.62500004755897
 31
0.0000000000033822
  0
ARC
  5
11FF
330
1F
100
AcDbEntity
  8
0
100
AcDbCircle
 10
208.9058900000101
 20
7.62500004755897
 30
0.0000000000033822
 40
0.5
100
AcDbArc
 50
270.0
 51
0.0
  0
LINE
  5
1200
330
1F
100
AcDbEntity
  8
0
100
AcDbLine
 10
196.3246400000098
 20
21.12500004755943
 30
0.0000000000033822
 11
195.9058900000102
 21
21.12500004755943
 31
0.0000000000033822
  0
LINE
  5
1201
330
1F
100
AcDbEntity
  8
0
100
AcDbLine
 10
195.9058900000109
 20
7.12500004755897
 30
0.0000000000033822
 11
208.9058900000101
 21
7.12500004755897
 31
0.0000000000033822
  0
ARC
  5
1202
330
1F
100
AcDbEntity
  8
0
100
AcDbCircle
 10
195.9058900000109
 20
7.62500004755897
 30
0.0000000000033822
 40
0.5
100
AcDbArc
 50
180.0000000000016
 51
270.0
  0
LINE
  5
1203
330
1F
100
AcDbEntity
  8
0
100
AcDbLine
 10
203.7246400000094
 20
21.12500004755971
 30
0.0000000000033822
 11
208.9058900000101
 21
21.12500004755948
 31
0.0000000000033822
  0
ARC
  5
1204
330
1F
100
AcDbEntity
  8
0
100
AcDbCircle
 10
208.9058900000101
 20
20.62500004755948
 30
0.0000000000033822
 40
0.5
100
AcDbArc
 50
0.0
 51
89.99999999999674
  0
ARC
  5
1207
330
1F
100
AcDbEntity
  8
0
100
AcDbCircle
 10
177.76839000001
 20
22.67500004755849
 30
0.0
 40
0.5
100
AcDbArc
 50
90.0
 51
180.0
  0
LINE
  5
1208
330
1F
100
AcDbEntity
  8
0
100
AcDbLine
 10
177.76839000001
 20
23.17500004755848
 30
0.0
 11
184.3683900000102
 21
23.17500004755854
 31
0.0
  0
ARC
  5
1209
330
1F
100
AcDbEntity
  8
0
100
AcDbCircle
 10
184.3683900000102
 20
22.67500004755854
 30
0.0
 40
0.5
100
AcDbArc
 50
0.0
 51
90.0
  0
LINE
  5
120A
330
1F
100
AcDbEntity
  8
0
100
AcDbLine
 10
184.3683900000103
 20
7.625000047559311
 30
0.0000000000033822
 11
177.76839000001
 21
7.625000047559311
 31
0.0000000000033822
  0
ARC
  5
120B
330
1F
100
AcDbEntity
  8
0
100
AcDbCircle
 10
184.3683900000103
 20
8.125000047559311
 30
0.0000000000033822
 40
0.5
100
AcDbArc
 50
270.0
 51
0.0
  0
ARC
  5
120C
330
1F
100
AcDbEntity
  8
0
100
AcDbCircle
 10
177.76839000001
 20
8.125000047559311
 30
0.0000000000033822
 40
0.5
100
AcDbArc
 50
180.0
 51
270.0
  0
ARC
  5
120F
330
1F
100
AcDbEntity
  8
0
100
AcDbCircle
 10
88.72781234257582
 20
22.67500004755849
 30
0.0
 40
0.5
100
AcDbArc
 50
0.0
 51
90.0
  0
LINE
  5
1210
330
1F
100
AcDbEntity
  8
0
100
AcDbLine
 10
84.56839000001195
 20
7.625000047559254
 30
0.0000000000033822
 11
88.72781234257592
 21
7.625000047559254
 31
0.0000000000033822
  0
LINE
  5
121A
330
1F
100
AcDbEntity
  8
0
100
AcDbLine
 10
77.9683900000117
 20
23.17500004755848
 30
0.0
 11
88.72781234257582
 21
23.17500004755848
 31
0.0
  0
LINE
  5
121D
330
1F
100
AcDbEntity
  8
0
100
AcDbLine
 10
77.46839000001171
 20
22.67500004755849
 30
0.0
 11
77.46839000001171
 21
8.125000047559254
 31
0.0000000000033822
  0
LINE
  5
121E
330
1F
100
AcDbEntity
  8
0
100
AcDbLine
 10
89.22781234257582
 20
22.67500004755849
 30
0.0
 11
89.22781234257593
 21
8.125000047559254
 31
0.0000000000033822
  0
LINE
  5
121F
330
1F
100
AcDbEntity
  8
0
100
AcDbLine
 10
177.26839000001
 20
22.67500004755849
 30
0.0
 11
177.26839000001
 21
8.125000047559339
 31
0.0000000000033822
  0
LINE
  5
1220
330
1F
100
AcDbEntity
  8
0
100
AcDbLine
 10
184.8683900000102
 20
22.67500004755854
 30
0.0
 11
184.8683900000103
 21
8.125000047559339
 31
0.0000000000033822
  0
LINE
  5
1221
330
1F
100
AcDbEntity
  8
0
100
AcDbLine
 10
196.3246400000098
 20
22.67500004755849
 30
0.0000000000008249
 11
196.3246400000098
 21
21.12500004755943
 31
0.0000000000033822
  0
LINE
  5
1222
330
1F
100
AcDbEntity
  8
0
100
AcDbLine
 10
203.7246400000094
 20
22.67500004755846
 30
0.0000000000008249
 11
203.7246400000094
 21
21.12500004755971
 31
0.0000000000033822
  0
ARC
  5
1223
330
1F
100
AcDbEntity
  8
0
100
AcDbCircle
 10
196.8246400000098
 20
22.67500004755849
 30
0.0000000000382354
 40
0.5
210
0.0
220
0.0000000000016499
230
1.0
100
AcDbArc
 50
90.0
 51
180.0
  0
ARC
  5
1224
330
1F
100
AcDbEntity
  8
0
100
AcDbCircle
 10
203.2246400000094
 20
22.67500004755849
 30
0.0000000000382354
 40
0.5
210
0.0
220
0.0000000000016499
230
1.0
100
AcDbArc
 50
359.9999999999968
 51
90.0
  0
LWPOLYLINE
  5
1256
330
1F
100
AcDbEntity
  8
0
100
AcDbPolyline
 90
        8
 70
     1
 43
0.0
 10
279.7311000000103
 20
59.7250000475589
 10
279.7311000000103
 20
44.72500004755879
 42
-0.4142135623730931
 10
279.2311000000103
 20
44.22500004755884
 10
273.2811000000104
 20
44.22500004755886
 42
-0.4142135623730951
 10
272.7811000000103
 20
44.72500004755892
 10
272.7811000000103
 20
59.72500004755898
 42
-0.4142135623730951
 10
273.2811000000103
 20
60.22500004755901
 10
279.2311000000102
 20
60.22500004755897
 42
-0.4142135623730958
  0
LWPOLYLINE
  5
1257
330
1F
100
AcDbEntity
  8
0
100
AcDbPolyline
 90
        8
 70
     1
 43
0.0
 10
270.8181000000103
 20
45.22500004755895
 42
0.4142135623730849
 10
271.3181000000103
 20
45.72500004755894
 10
271.3181000000103
 20
58.72500004755895
 42
0.4142135623730353
 10
270.8181000000103
 20
59.22500004755895
 10
257.8181000000103
 20
59.22500004755893
 42
0.4142135623731308
 10
257.3181000000103
 20
58.72500004755895
 10
257.3181000000103
 20
45.72500004755895
 42
0.4142135623730255
 10
257.8181000000103
 20
45.22500004755892
  0
LWPOLYLINE
  5
1259
330
1F
100
AcDbEntity
  8
0
100
AcDbPolyline
 90
        8
 70
     1
 43
0.0
 10
255.8551000000103
 20
59.72500004755892
 10
255.8551000000103
 20
44.72500004755892
 42
-0.4142135623730958
 10
255.3551000000104
 20
44.22500004755895
 10
249.4051000000103
 20
44.22500004755898
 42
-0.4142135623730944
 10
248.9051000000103
 20
44.72500004755895
 10
248.9051000000103
 20
59.72500004755892
 42
-0.4142135623730958
 10
249.4051000000103
 20
60.22500004755894
 10
255.3551000000103
 20
60.22500004755895
 42
-0.4142135623730951
  0
LWPOLYLINE
  5
125D
330
1F
100
AcDbEntity
  8
0
100
AcDbPolyline
 90
        8
 70
     1
 43
0.0
 10
12.96760000001032
 20
40.67500004755894
 10
12.96760000001032
 20
25.67500004755894
 42
-0.4142135623730951
 10
12.46760000001032
 20
25.17500004755897
 10
6.517600000010332
 20
25.17500004755897
 42
-0.4142135623730951
 10
6.017600000010304
 20
25.675000047559
 10
6.017600000010304
 20
40.67500004755896
 42
-0.4142135623730951
 10
6.517600000010304
 20
41.17500004755894
 10
12.46760000001032
 20
41.17500004755894
 42
-0.4142135623730958
  0
LWPOLYLINE
  5
125E
330
1F
100
AcDbEntity
  8
0
100
AcDbPolyline
 90
        8
 70
     1
 43
0.0
 10
14.43060000001028
 20
26.67500004755897
 10
14.43060000001034
 20
39.67500004755894
 42
-0.4142135623730522
 10
14.93060000001034
 20
40.17500004755894
 10
27.93060000001029
 20
40.17500004755899
 42
-0.4142135623730755
 10
28.43060000001029
 20
39.67500004755894
 10
28.43060000001029
 20
26.67500004755897
 42
-0.4142135623730822
 10
27.93060000001034
 20
26.17500004755897
 10
14.93060000001029
 20
26.17500004755897
 42
-0.4142135623730561
  0
LWPOLYLINE
  5
125F
330
1F
100
AcDbEntity
  8
0
100
AcDbPolyline
 90
        8
 70
     1
 43
0.0
 10
36.84360000001024
 20
40.67500004755905
 10
36.84360000001035
 20
25.67500004755894
 42
-0.4142135623730976
 10
36.34360000001036
 20
25.17500004755897
 10
30.39360000001034
 20
25.17500004755894
 42
-0.4142135623730951
 10
29.89360000001028
 20
25.675000047559
 10
29.89360000001031
 20
40.67500004755899
 42
-0.4142135623730951
 10
30.39360000001031
 20
41.17500004755896
 10
36.3436000000103
 20
41.17500004755896
 42
-0.4142135623730931
  0
LWPOLYLINE
  5
126A
330
1F
100
AcDbEntity
  8
0
100
AcDbPolyline
 90
        8
 70
     1
 43
0.0
 10
273.1993500000103
 20
83.32500004755896
 42
0.4142135623730849
 10
273.6993500000103
 20
83.82500004755893
 10
273.6993500000103
 20
96.82500004755896
 42
0.4142135623730353
 10
273.1993500000103
 20
97.32500004755896
 10
260.1993500000103
 20
97.32500004755893
 42
0.4142135623731308
 10
259.6993500000102
 20
96.82500004755896
 10
259.6993500000102
 20
83.82500004755895
 42
0.4142135623730255
 10
260.1993500000103
 20
83.32500004755893
  0
LINE
  5
126C
330
1F
100
AcDbEntity
  8
0
100
AcDbLine
 10
258.2363500000102
 20
96.82500004755894
 30
0.0
 11
258.2363500000103
 21
82.82500004755894
 31
0.0
  0
ARC
  5
126D
330
1F
100
AcDbEntity
  8
0
100
AcDbCircle
 10
257.7363500000103
 20
82.82500004755892
 30
0.0
 40
0.4999999999999432
100
AcDbArc
 50
270.0
 51
0.0000000000016284
  0
LINE
  5
126E
330
1F
100
AcDbEntity
  8
0
100
AcDbLine
 10
257.7363500000103
 20
82.32500004755895
 30
0.0
 11
251.7863500000103
 21
82.32500004755896
 31
0.0
  0
ARC
  5
126F
330
1F
100
AcDbEntity
  8
0
100
AcDbCircle
 10
251.7863500000103
 20
82.82500004755897
 30
0.0
 40
0.4999999999999929
100
AcDbArc
 50
180.0000000000016
 51
270.0
  0
LINE
  5
1270
330
1F
100
AcDbEntity
  8
0
100
AcDbLine
 10
251.2863500000102
 20
82.82500004755895
 30
0.0
 11
251.2863500000103
 21
96.82500004755894
 31
0.0
  0
ARC
  5
1271
330
1F
100
AcDbEntity
  8
0
100
AcDbCircle
 10
251.7863500000103
 20
96.82500004755894
 30
0.0
 40
0.5
100
AcDbArc
 50
90.0
 51
180.0
  0
LINE
  5
1272
330
1F
100
AcDbEntity
  8
0
100
AcDbLine
 10
251.7863500000103
 20
97.32500004755895
 30
0.0
 11
257.7363500000103
 21
97.32500004755898
 31
0.0
  0
ARC
  5
1273
330
1F
100
AcDbEntity
  8
0
100
AcDbCircle
 10
257.7363500000103
 20
96.82500004755896
 30
0.0
 40
0.5000000000000142
100
AcDbArc
 50
359.9999999999984
 51
90.0
  0
LINE
  5
1274
330
1F
100
AcDbEntity
  8
0
100
AcDbLine
 10
282.1123500000102
 20
96.82500004755894
 30
0.0
 11
282.1123500000103
 21
82.82500004755879
 31
0.0
  0
ARC
  5
1275
330
1F
100
AcDbEntity
  8
0
100
AcDbCircle
 10
281.6123500000103
 20
82.82500004755881
 30
0.0
 40
0.5
100
AcDbArc
 50
270.0
 51
359.9999999999968
  0
LINE
  5
1276
330
1F
100
AcDbEntity
  8
0
100
AcDbLine
 10
281.6123500000103
 20
82.32500004755882
 30
0.0
 11
275.6623500000103
 21
82.32500004755886
 31
0.0
  0
ARC
  5
1277
330
1F
100
AcDbEntity
  8
0
100
AcDbCircle
 10
275.6623500000103
 20
82.82500004755895
 30
0.0
 40
0.5000000000000924
100
AcDbArc
 50
180.0000000000032
 51
270.0
  0
LINE
  5
1278
330
1F
100
AcDbEntity
  8
0
100
AcDbLine
 10
275.1623500000103
 20
82.82500004755894
 30
0.0
 11
275.1623500000102
 21
96.82500004755894
 31
0.0
  0
ARC
  5
1279
330
1F
100
AcDbEntity
  8
0
100
AcDbCircle
 10
275.6623500000103
 20
96.82500004755901
 30
0.0
 40
0.5
100
AcDbArc
 50
90.0
 51
180.0000000000016
  0
LINE
  5
127A
330
1F
100
AcDbEntity
  8
0
100
AcDbLine
 10
275.6623500000103
 20
97.32500004755904
 30
0.0
 11
281.6123500000102
 21
97.325000047559
 31
0.0
  0
ARC
  5
127B
330
1F
100
AcDbEntity
  8
0
100
AcDbCircle
 10
281.6123500000102
 20
96.8250000475589
 30
0.0
 40
0.5000000000000995
100
AcDbArc
 50
0.0000000000016284
 51
90.0
  0
ENDSEC
  0
SECTION
  2
OBJECTS
  0
DICTIONARY
  5
C
330
0
100
AcDbDictionary
281
     1
  3
ACAD_CIP_PREVIOUS_PRODUCT_INFO
350
51E
  3
ACAD_COLOR
350
519
  3
ACAD_DETAILVIEWSTYLE
350
4D6
  3
ACAD_GROUP
350
D
  3
ACAD_LAST_SAVED_VERSION_INFO
350
1229
  3
ACAD_LAYOUT
350
1A
  3
ACAD_MATERIAL
350
43
  3
ACAD_MLEADERSTYLE
350
6B
  3
ACAD_MLINESTYLE
350
17
  3
ACAD_PLOTSETTINGS
350
19
  3
ACAD_PLOTSTYLENAME
350
E
  3
ACAD_SCALELIST
350
47
  3
ACAD_SECTIONVIEWSTYLE
350
4D7
  3
ACAD_TABLESTYLE
350
69
  3
ACAD_VISUALSTYLE
350
2A
  3
ACDB_RECOMPOSE_DATA
350
1286
  3
AcDbVariableDictionary
350
49B
  0
DICTIONARY
  5
B6C
330
2
100
AcDbDictionary
280
     1
281
     1
  3
ACAD_LAYERSTATES
360
B6D
  0
DICTIONARY
  5
122A
330
10
100
AcDbDictionary
280
     1
281
     1
  3
ADSK_XREC_LAYER_RECONCILED
360
122B
  0
DICTIONARY
  5
122C
330
6F
100
AcDbDictionary
280
     1
281
     1
  3
ADSK_XREC_LAYER_RECONCILED
360
122D
  0
DICTIONARY
  5
10BD
330
1F
100
AcDbDictionary
280
     1
281
     1
  3
ACAD_SORTENTS
360
10BE
  0
XRECORD
  5
51E
102
{ACAD_REACTORS
330
C
102
}
330
C
100
AcDbXrecord
280
     1
300
ACD
300
2024
300

  0
DICTIONARY
  5
519
102
{ACAD_REACTORS
330
C
102
}
330
C
100
AcDbDictionary
281
     1
  0
DICTIONARY
  5
4D6
102
{ACAD_REACTORS
330
C
102
}
330
C
100
AcDbDictionary
281
     1
  3
Imperial24
350
B6F
  3
Metric50
350
51B
  0
DICTIONARY
  5
D
102
{ACAD_REACTORS
330
C
102
}
330
C
100
AcDbDictionary
281
     1
  3
*A2
350
10BA
  3
*A3
350
1219
  0
XRECORD
  5
1229
102
{ACAD_REACTORS
330
C
102
}
330
C
100
AcDbXrecord
280
     1
300
{393FD5BF-889A-D442-8722-951335479E74}
301
{04787D40-975B-6B46-BE69-739BD7A42429}
302
{393FD5BF-889A-D442-8722-951335479E74}
303
C:\Users\Jay\Downloads\ARC60-half plate mod for solder pcb.dxf
  0
DICTIONARY
  5
1A
102
{ACAD_REACTORS
330
C
102
}
330
C
100
AcDbDictionary
281
     1
  3
Layout1
350
1E
  3
Layout2
350
26
  3
Model
350
22
  0
DICTIONARY
  5
43
102
{ACAD_REACTORS
330
C
102
}
330
C
100
AcDbDictionary
281
     1
  3
ByBlock
350
45
  3
ByLayer
350
44
  3
Global
350
46
  0
DICTIONARY
  5
6B
102
{ACAD_REACTORS
330
C
102
}
330
C
100
AcDbDictionary
281
     1
  3
Standard
350
6C
  0
DICTIONARY
  5
17
102
{ACAD_REACTORS
330
C
102
}
330
C
100
AcDbDictionary
281
     1
  3
Standard
350
18
  0
DICTIONARY
  5
19
102
{ACAD_REACTORS
330
C
102
}
330
C
100
AcDbDictionary
281
     1
  0
ACDBDICTIONARYWDFLT
  5
E
102
{ACAD_REACTORS
330
C
102
}
330
C
100
AcDbDictionary
281
     1
  3
Normal
350
F
100
AcDbDictionaryWithDefault
340
F
  0
DICTIONARY
  5
47
102
{ACAD_REACTORS
330
C
102
}
330
C
100
AcDbDictionary
281
     1
  3
A0
350
48
  3
A1
350
49
  3
A2
350
4A
  3
A3
350
4B
  3
A4
350
4C
  3
A5
350
4D
  3
A6
350
4E
  3
A7
350
4F
  3
A8
350
50
  3
A9
350
51
  3
B0
350
52
  3
B1
350
53
  3
B2
350
54
  3
B3
350
55
  3
B4
350
56
  3
B5
350
57
  3
B6
350
58
  3
B7
350
59
  3
B8
350
5A
  3
B9
350
5B
  3
C0
350
5C
  3
C1
350
5D
  3
C2
350
5E
  3
C3
350
5F
  3
C4
350
60
  3
C5
350
61
  3
C6
350
62
  3
C7
350
63
  3
C8
350
64
  3
C9
350
65
  3
D0
350
66
  3
D1
350
67
  3
D2
350
68
  0
DICTIONARY
  5
4D7
102
{ACAD_REACTORS
330
C
102
}
330
C
100
AcDbDictionary
281
     1
  3
Imperial24
350
B6E
  3
Metric50
350
51A
  0
DICTIONARY
  5
69
102
{ACAD_REACTORS
330
C
102
}
330
C
100
AcDbDictionary
281
     1
  3
Standard
350
6A
  0
DICTIONARY
  5
2A
102
{ACAD_REACTORS
330
C
102
}
330
C
100
AcDbDictionary
281
     1
  3
2dWireframe
350
2F
  3
Basic
350
32
  3
Brighten
350
36
  3
ColorChange
350
3A
  3
Conceptual
350
34
  3
Dim
350
35
  3
EdgeColorOff
350
3D
  3
Facepattern
350
39
  3
Flat
350
2B
  3
FlatWithEdges
350
2C
  3
Gouraud
350
2D
  3
GouraudWithEdges
350
2E
  3
Hidden
350
31
  3
JitterOff
350
3B
  3
Linepattern
350
38
  3
OverhangOff
350
3C
  3
Realistic
350
33
  3
Shaded
350
42
  3
Shaded with edges
350
41
  3
Shades of Gray
350
3E
  3
Sketchy
350
3F
  3
Thicken
350
37
  3
Wireframe
350
30
  3
X-Ray
350
40
  0
XRECORD
  5
1286
102
{ACAD_REACTORS
330
C
102
}
330
C
100
AcDbXrecord
280
     1
 90
        1
330
6A
  0
DICTIONARY
  5
49B
102
{ACAD_REACTORS
330
C
102
}
330
C
100
AcDbDictionary
281
     1
  3
CANNOSCALE
350
49C
  3
CMLEADERSTYLE
350
4D5
  3
CTABLESTYLE
350
4D4
  3
CVIEWDETAILSTYLE
350
1185
  3
CVIEWSECTIONSTYLE
350
1186
  3
LAYEREVAL
350
1188
  3
LAYERNOTIFY
350
1189
  3
LIGHTINGUNITS
350
1187
  3
MSLTSCALE
350
4DA
  0
DICTIONARY
  5
B6D
102
{ACAD_REACTORS
330
B6C
102
}
330
B6C
100
AcDbDictionary
281
     1
  0
XRECORD
  5
122B
102
{ACAD_REACTORS
330
122A
102
}
330
122A
100
AcDbXrecord
280
     1
290
     1
  0
XRECORD
  5
122D
102
{ACAD_REACTORS
330
122C
102
}
330
122C
100
AcDbXrecord
280
     1
290
     1
  0
SORTENTSTABLE
  5
10BE
102
{ACAD_REACTORS
330
10BD
102
}
330
10BD
100
AcDbSortentsTable
330
1F
331
124
  5
12E
331
14A
  5
159
331
159
  5
16D
331
16D
  5
181
331
18B
  5
19F
331
195
  5
1A9
331
19F
  5
1B3
331
1B3
  5
1C2
331
1E0
  5
1F4
331
20E
  5
222
331
222
  5
236
331
22C
  5
23B
331
236
  5
249
331
23B
  5
253
331
25D
  5
2E4
331
271
  5
35F
331
2E4
  5
407
331
2EE
  5
411
331
34B
  5
487
331
355
  5
491
331
35F
  5
E18
331
397
  5
E23
331
411
  5
E27
331
491
  5
E2A
331
10BB
  5
391
331
10EE
  5
E2F
331
10EF
  5
267
331
10F4
  5
25D
331
10FE
  5
387
331
1120
  5
E2D
331
1121
  5
37D
331
113B
  5
E2C
331
113C
  5
373
331
1144
  5
369
331
1149
  5
E31
331
114A
  5
14A
331
1150
  5
E32
331
1151
  5
11A
331
1157
  5
E30
331
1158
  5
3FD
331
115D
  5
3A4
331
1195
  5
1191
331
1196
  5
1195
331
1197
  5
1196
331
1198
  5
1197
331
1199
  5
1198
331
119A
  5
1199
331
119B
  5
119A
331
119C
  5
119B
331
119D
  5
119C
331
119E
  5
119D
331
119F
  5
119E
331
11A0
  5
119F
331
11A1
  5
11A0
331
11A2
  5
11A1
331
11A3
  5
11A2
331
11A4
  5
11A3
331
11A5
  5
11A4
331
11A6
  5
11A5
331
11A7
  5
11A6
331
11A8
  5
11A7
331
11A9
  5
11A8
331
11AA
  5
11A9
331
11AB
  5
11AA
331
11AC
  5
11AB
331
11AD
  5
11AC
331
11FC
  5
11FD
331
11FD
  5
11FE
331
11FE
  5
11FF
331
11FF
  5
1200
331
1200
  5
1201
331
1201
  5
1202
331
1202
  5
1203
331
1203
  5
1204
331
1204
  5
1207
331
1207
  5
1208
331
1208
  5
1209
331
1209
  5
120A
331
120A
  5
120B
331
120B
  5
120C
331
120C
  5
120F
331
120F
  5
1210
331
1210
  5
121A
331
121A
  5
121D
331
121D
  5
121E
331
121E
  5
121F
331
121F
  5
1220
331
1220
  5
1221
331
1221
  5
1222
331
1222
  5
1224
331
1224
  5
11FC
331
126A
  5
1273
331
126C
  5
1274
331
126D
  5
1275
331
126E
  5
1276
331
126F
  5
1277
331
1270
  5
1278
331
1271
  5
1279
331
1272
  5
127A
331
1273
  5
127B
331
1274
  5
126A
331
1275
  5
126C
331
1276
  5
126D
331
1277
  5
126E
331
1278
  5
126F
331
1279
  5
1270
331
127A
  5
1271
331
127B
  5
1272
  0
ACDBDETAILVIEWSTYLE
  5
B6F
102
{ACAD_REACTORS
330
4D6
102
}
330
4D6
100
AcDbModelDocViewStyle
 70
     0
  3
Imperial24
290
     0
300
Imperial24
 90
        0
100
AcDbDetailViewStyle
 70
     0
 71
     0
 90
        3
 71
     1
340
11
 62
   256
 40
0.24
340
0
 62
   256
 40
0.24
300

 40
0.36
280
     3
 71
     2
340
16
 90
       25
 62
   256
 71
     3
340
11
 62
   256
 40
0.24
 90
        1
 40
0.75
 90
        1
300
%<\AcVar ViewType \f "%tc1">% %<\AcVar ViewDetailId>%\PSCALE %<\AcVar ViewScale \f "%sn">%
 71
     4
340
16
 90
       25
 62
   256
340
16
 90
       25
 62
   256
280
     0
  0
ACDBDETAILVIEWSTYLE
  5
51B
102
{ACAD_REACTORS
330
4D6
102
}
330
4D6
100
AcDbModelDocViewStyle
 70
     0
  3
Metric50
290
     0
300
Metric50
 90
        0
100
AcDbDetailViewStyle
 70
     0
 71
     0
 90
        3
 71
     1
340
11
 62
   256
 40
5.0
340
0
 62
   256
 40
5.0
300

 40
0.0
280
     1
 71
     2
340
16
 90
       25
 62
   256
 71
     3
340
11
 62
   256
 40
5.0
 90
        0
 40
15.0
 90
        1
300
%<\AcVar ViewDetailId>% (%<\AcVar ViewScale \f "%sn">%)
 71
     4
340
16
 90
       25
 62
   256
340
16
 90
       25
 62
   256
280
     0
  0
GROUP
  5
10BA
102
{ACAD_REACTORS
330
D
102
}
330
D
100
AcDbGroup
300

 70
     1
 71
     1
  0
GROUP
  5
1219
102
{ACAD_REACTORS
330
D
102
}
330
D
100
AcDbGroup
300

 70
     1
 71
     1
  0
LAYOUT
  5
1E
102
{ACAD_REACTORS
330
1A
102
}
330
1A
100
AcDbPlotSettings
  1

  2
none_device
  4

  6

 40
0.0
 41
0.0
 42
0.0
 43
0.0
 44
0.0
 45
0.0
 46
0.0
 47
0.0
 48
0.0
 49
0.0
140
0.0
141
0.0
142
1.0
143
1.0
 70
   688
 72
     0
 73
     0
 74
     5
  7

 75
    16
147
1.0
 76
     0
 77
     2
 78
   300
148
0.0
149
0.0
100
AcDbLayout
  1
Layout1
 70
     1
 71
     1
 10
0.0
 20
0.0
 11
12.0
 21
9.0
 12
0.0
 22
0.0
 32
0.0
 14
1.000000000000000E+20
 24
1.000000000000000E+20
 34
1.000000000000000E+20
 15
-1.000000000000000E+20
 25
-1.000000000000000E+20
 35
-1.000000000000000E+20
146
0.0
 13
0.0
 23
0.0
 33
0.0
 16
1.0
 26
0.0
 36
0.0
 17
0.0
 27
1.0
 37
0.0
 76
     0
330
1B
  0
LAYOUT
  5
26
102
{ACAD_REACTORS
330
1A
102
}
330
1A
100
AcDbPlotSettings
  1

  2
none_device
  4

  6

 40
0.0
 41
0.0
 42
0.0
 43
0.0
 44
0.0
 45
0.0
 46
0.0
 47
0.0
 48
0.0
 49
0.0
140
0.0
141
0.0
142
1.0
143
1.0
 70
   688
 72
     0
 73
     0
 74
     5
  7

 75
    16
147
1.0
 76
     0
 77
     2
 78
   300
148
0.0
149
0.0
100
AcDbLayout
  1
Layout2
 70
     1
 71
     2
 10
0.0
 20
0.0
 11
0.0
 21
0.0
 12
0.0
 22
0.0
 32
0.0
 14
0.0
 24
0.0
 34
0.0
 15
0.0
 25
0.0
 35
0.0
146
0.0
 13
0.0
 23
0.0
 33
0.0
 16
1.0
 26
0.0
 36
0.0
 17
0.0
 27
1.0
 37
0.0
 76
     0
330
23
  0
LAYOUT
  5
22
102
{ACAD_REACTORS
330
1A
102
}
330
1A
100
AcDbPlotSettings
  1

  2
none_device
  4
Letter_(8.50_x_11.00_Inches)
  6

 40
6.349999999999999
 41
6.349999999999999
 42
6.350005079999999
 43
6.350005079999999
 44
215.9
 45
279.4
 46
0.0
 47
0.0
 48
0.0
 49
0.0
140
0.0
141
0.0
142
1.0
143
1.0
 70
  1712
 72
     0
 73
     0
 74
     0
  7

 75
     0
147
1.0
 76
     0
 77
     2
 78
   300
148
0.0
149
0.0
100
AcDbLayout
  1
Model
 70
     1
 71
     0
 10
0.0
 20
0.0
 11
12.0
 21
9.0
 12
0.0
 22
0.0
 32
0.0
 14
1.000000000000000E+20
 24
1.000000000000000E+20
 34
1.000000000000000E+20
 15
-1.000000000000000E+20
 25
-1.000000000000000E+20
 35
-1.000000000000000E+20
146
0.0
 13
0.0
 23
0.0
 33
0.0
 16
1.0
 26
0.0
 36
0.0
 17
0.0
 27
1.0
 37
0.0
 76
     0
330
1F
331
29
  0
MATERIAL
  5
45
102
{ACAD_XDICTIONARY
360
50D
102
}
102
{ACAD_REACTORS
330
43
102
}
330
43
100
AcDbMaterial
  1
ByBlock
  0
MATERIAL
  5
44
102
{ACAD_XDICTIONARY
360
50B
102
}
102
{ACAD_REACTORS
330
43
102
}
330
43
100
AcDbMaterial
  1
ByLayer
  0
MATERIAL
  5
46
102
{ACAD_XDICTIONARY
360
50F
102
}
102
{ACAD_REACTORS
330
43
102
}
330
43
100
AcDbMaterial
  1
Global
  0
MLEADERSTYLE
  5
6C
102
{ACAD_REACTORS
330
6B
102
}
330
6B
100
AcDbMLeaderStyle
179
     2
170
     2
171
     1
172
     0
 90
        2
 40
0.0
 41
0.0
173
     1
 91
-1056964608
340
14
 92
       -2
290
     1
 42
0.09
291
     1
 43
0.36
  3
Standard
 44
0.18
300

342
11
174
     1
178
     6
175
     1
176
     0
 93
-1056964608
 45
0.18
292
     0
297
     0
 46
0.18
 94
-1056964608
 47
1.0
 49
1.0
140
1.0
293
     1
141
0.0
294
     1
177
     0
142
1.0
295
     0
296
     0
143
0.125
271
     0
272
     9
273
     9
298
     0
1001
ACAD_MLEADERVER
1070
     2
  0
MLINESTYLE
  5
18
102
{ACAD_REACTORS
330
17
102
}
330
17
100
AcDbMlineStyle
  2
STANDARD
 70
     0
  3

 62
   256
 51
90.0
 52
90.0
 71
     2
 49
0.5
 62
   256
  6
BYLAYER
 49
-0.5
 62
   256
  6
BYLAYER
  0
ACDBPLACEHOLDER
  5
F
102
{ACAD_REACTORS
330
E
102
}
330
E
  0
SCALE
  5
48
102
{ACAD_REACTORS
330
47
102
}
330
47
100
AcDbScale
 70
     0
300
1:1
140
1.0
141
1.0
290
     1
  0
SCALE
  5
49
102
{ACAD_REACTORS
330
47
102
}
330
47
100
AcDbScale
 70
     0
300
1:2
140
1.0
141
2.0
290
     0
  0
SCALE
  5
4A
102
{ACAD_REACTORS
330
47
102
}
330
47
100
AcDbScale
 70
     0
300
1:4
140
1.0
141
4.0
290
     0
  0
SCALE
  5
4B
102
{ACAD_REACTORS
330
47
102
}
330
47
100
AcDbScale
 70
     0
300
1:5
140
1.0
141
5.0
290
     0
  0
SCALE
  5
4C
102
{ACAD_REACTORS
330
47
102
}
330
47
100
AcDbScale
 70
     0
300
1:8
140
1.0
141
8.0
290
     0
  0
SCALE
  5
4D
102
{ACAD_REACTORS
330
47
102
}
330
47
100
AcDbScale
 70
     0
300
1:10
140
1.0
141
10.0
290
     0
  0
SCALE
  5
4E
102
{ACAD_REACTORS
330
47
102
}
330
47
100
AcDbScale
 70
     0
300
1:16
140
1.0
141
16.0
290
     0
  0
SCALE
  5
4F
102
{ACAD_REACTORS
330
47
102
}
330
47
100
AcDbScale
 70
     0
300
1:20
140
1.0
141
20.0
290
     0
  0
SCALE
  5
50
102
{ACAD_REACTORS
330
47
102
}
330
47
100
AcDbScale
 70
     0
300
1:30
140
1.0
141
30.0
290
     0
  0
SCALE
  5
51
102
{ACAD_REACTORS
330
47
102
}
330
47
100
AcDbScale
 70
     0
300
1:40
140
1.0
141
40.0
290
     0
  0
SCALE
  5
52
102
{ACAD_REACTORS
330
47
102
}
330
47
100
AcDbScale
 70
     0
300
1:50
140
1.0
141
50.0
290
     0
  0
SCALE
  5
53
102
{ACAD_REACTORS
330
47
102
}
330
47
100
AcDbScale
 70
     0
300
1:100
140
1.0
141
100.0
290
     0
  0
SCALE
  5
54
102
{ACAD_REACTORS
330
47
102
}
330
47
100
AcDbScale
 70
     0
300
2:1
140
2.0
141
1.0
290
     0
  0
SCALE
  5
55
102
{ACAD_REACTORS
330
47
102
}
330
47
100
AcDbScale
 70
     0
300
4:1
140
4.0
141
1.0
290
     0
  0
SCALE
  5
56
102
{ACAD_REACTORS
330
47
102
}
330
47
100
AcDbScale
 70
     0
300
8:1
140
8.0
141
1.0
290
     0
  0
SCALE
  5
57
102
{ACAD_REACTORS
330
47
102
}
330
47
100
AcDbScale
 70
     0
300
10:1
140
10.0
141
1.0
290
     0
  0
SCALE
  5
58
102
{ACAD_REACTORS
330
47
102
}
330
47
100
AcDbScale
 70
     0
300
100:1
140
100.0
141
1.0
290
     0
  0
SCALE
  5
59
102
{ACAD_REACTORS
330
47
102
}
330
47
100
AcDbScale
 70
     0
300
1/128" = 1'-0"
140
0.0078125
141
12.0
290
     0
  0
SCALE
  5
5A
102
{ACAD_REACTORS
330
47
102
}
330
47
100
AcDbScale
 70
     0
300
1/64" = 1'-0"
140
0.015625
141
12.0
290
     0
  0
SCALE
  5
5B
102
{ACAD_REACTORS
330
47
102
}
330
47
100
AcDbScale
 70
     0
300
1/32" = 1'-0"
140
0.03125
141
12.0
290
     0
  0
SCALE
  5
5C
102
{ACAD_REACTORS
330
47
102
}
330
47
100
AcDbScale
 70
     0
300
1/16" = 1'-0"
140
0.0625
141
12.0
290
     0
  0
SCALE
  5
5D
102
{ACAD_REACTORS
330
47
102
}
330
47
100
AcDbScale
 70
     0
300
3/32" = 1'-0"
140
0.09375
141
12.0
290
     0
  0
SCALE
  5
5E
102
{ACAD_REACTORS
330
47
102
}
330
47
100
AcDbScale
 70
     0
300
1/8" = 1'-0"
140
0.125
141
12.0
290
     0
  0
SCALE
  5
5F
102
{ACAD_REACTORS
330
47
102
}
330
47
100
AcDbScale
 70
     0
300
3/16" = 1'-0"
140
0.1875
141
12.0
290
     0
  0
SCALE
  5
60
102
{ACAD_REACTORS
330
47
102
}
330
47
100
AcDbScale
 70
     0
300
1/4" = 1'-0"
140
0.25
141
12.0
290
     0
  0
SCALE
  5
61
102
{ACAD_REACTORS
330
47
102
}
330
47
100
AcDbScale
 70
     0
300
3/8" = 1'-0"
140
0.375
141
12.0
290
     0
  0
SCALE
  5
62
102
{ACAD_REACTORS
330
47
102
}
330
47
100
AcDbScale
 70
     0
300
1/2" = 1'-0"
140
0.5
141
12.0
290
     0
  0
SCALE
  5
63
102
{ACAD_REACTORS
330
47
102
}
330
47
100
AcDbScale
 70
     0
300
3/4" = 1'-0"
140
0.75
141
12.0
290
     0
  0
SCALE
  5
64
102
{ACAD_REACTORS
330
47
102
}
330
47
100
AcDbScale
 70
     0
300
1" = 1'-0"
140
1.0
141
12.0
290
     0
  0
SCALE
  5
65
102
{ACAD_REACTORS
330
47
102
}
330
47
100
AcDbScale
 70
     0
300
1-1/2" = 1'-0"
140
1.5
141
12.0
290
     0
  0
SCALE
  5
66
102
{ACAD_REACTORS
330
47
102
}
330
47
100
AcDbScale
 70
     0
300
3" = 1'-0"
140
3.0
141
12.0
290
     0
  0
SCALE
  5
67
102
{ACAD_REACTORS
330
47
102
}
330
47
100
AcDbScale
 70
     0
300
6" = 1'-0"
140
6.0
141
12.0
290
     0
  0
SCALE
  5
68
102
{ACAD_REACTORS
330
47
102
}
330
47
100
AcDbScale
 70
     0
300
1'-0" = 1'-0"
140
12.0
141
12.0
290
     0
  0
ACDBSECTIONVIEWSTYLE
  5
B6E
102
{ACAD_REACTORS
330
4D7
102
}
330
4D7
100
AcDbModelDocViewStyle
 70
     0
  3
Imperial24
290
     0
300
Imperial24
 90
        0
100
AcDbSectionViewStyle
 70
     0
 71
     0
 90
       78
 71
     1
340
11
 62
   256
 40
0.24
340
0
340
0
 62
   256
 40
0.24
300
I, O, Q, S, X, Z
 40
0.48
 90
        3
 40
0.18
 90
        1
 71
     2
340
16
 90
       25
 62
   256
340
16
 90
       50
 62
   256
 40
0.24
 40
0.0
 40
0.24
 71
     3
340
11
 62
   256
 40
0.24
 90
        1
 40
0.75
 90
        1
300
%<\AcVar ViewType \f "%tc1">% %<\AcVar ViewSectionStartId>%-%<\AcVar ViewSectionEndId>%\PSCALE %<\AcVar ViewScale \f "%sn">%
 71
     4
 62
   256
 62
   257
300
ANSI31
 40
1.0
 90
        0
290
     0
290
     0
 90
        6
 40
0.0
 40
1.570796326794896
 40
0.2617993877991494
 40
1.308996938995747
 40
-0.2617993877991494
 40
1.832595714594046
  0
ACDBSECTIONVIEWSTYLE
  5
51A
102
{ACAD_REACTORS
330
4D7
102
}
330
4D7
100
AcDbModelDocViewStyle
 70
     0
  3
Metric50
290
     0
300
Metric50
 90
        0
100
AcDbSectionViewStyle
 70
     0
 71
     0
 90
      102
 71
     1
340
11
 62
   256
 40
5.0
340
0
340
0
 62
   256
 40
5.0
300
I, O, Q, S, X, Z
 40
10.0
 90
        0
 40
2.5
 90
        0
 71
     2
340
16
 90
       25
 62
   256
340
16
 90
       50
 62
   256
 40
5.0
 40
2.5
 40
5.0
 71
     3
340
11
 62
   256
 40
5.0
 90
        0
 40
15.0
 90
        1
300
%<\AcVar ViewSectionStartId>%-%<\AcVar ViewSectionEndId>% (%<\AcVar ViewScale \f "%sn">%)
 71
     4
 62
   256
 62
   257
300
ANSI31
 40
1.0
 90
        0
290
     0
290
     0
 90
        6
 40
0.0
 40
1.570796326794896
 40
0.2617993877991494
 40
1.308996938995747
 40
-0.2617993877991494
 40
1.832595714594046
  0
TABLESTYLE
  5
6A
102
{ACAD_XDICTIONARY
360
511
102
}
102
{ACAD_REACTORS
330
69
102
}
330
69
100
AcDbTableStyle
280
     0
  3
Standard
 70
     0
 71
     0
 40
0.06
 41
0.06
280
     0
281
     0
  7
Standard
140
0.18
170
     2
 62
     0
 63
     7
283
     0
 90
        4
 91
        0
  1

274
    -2
284
     1
 64
     0
275
    -2
285
     1
 65
     0
276
    -2
286
     1
 66
     0
277
    -2
287
     1
 67
     0
278
    -2
288
     1
 68
     0
279
    -2
289
     1
 69
     0
  7
Standard
140
0.25
170
     5
 62
     0
 63
     7
283
     0
 90
        4
 91
        0
  1

274
    -2
284
     1
 64
     0
275
    -2
285
     1
 65
     0
276
    -2
286
     1
 66
     0
277
    -2
287
     1
 67
     0
278
    -2
288
     1
 68
     0
279
    -2
289
     1
 69
     0
  7
Standard
140
0.18
170
     5
 62
     0
 63
     7
283
     0
 90
        4
 91
        0
  1

274
    -2
284
     1
 64
     0
275
    -2
285
     1
 65
     0
276
    -2
286
     1
 66
     0
277
    -2
287
     1
 67
     0
278
    -2
288
     1
 68
     0
279
    -2
289
     1
 69
     0
  0
VISUALSTYLE
  5
2F
102
{ACAD_REACTORS
330
2A
102
}
330
2A
100
AcDbVisualStyle
  2

 70
     4
177
     3
291
     0
 70
    58
 90
        0
176
     1
 90
        2
176
     1
 90
        0
176
     1
 90
        0
176
     1
 40
0.6
176
     1
 40
30.0
176
     1
 62
     7
420
 16777215
176
     1
 90
        1
176
     1
 90
        4
176
     1
 62
     7
176
     1
 62
   257
176
     1
 90
        1
176
     1
 90
        1
176
     1
 40
1.0
176
     1
 90
        0
176
     1
 62
   257
176
     1
 40
1.0
176
     1
 90
        1
176
     1
 90
        6
176
     1
 90
        2
176
     1
 62
     7
176
     1
 90
        5
176
     1
 90
        0
176
     1
 90
        0
176
     1
290
     0
176
     1
 90
        1
176
     1
 40
0.0
176
     1
 90
        0
176
     1
290
     1
176
     1
290
     1
176
     1
290
     0
176
     1
290
     0
176
     1
290
     0
176
     1
290
     0
176
     1
290
     0
176
     1
290
     0
176
     1
290
     0
176
     1
 90
       50
176
     1
 40
0.0
176
     1
 40
1.0
176
     1
 90
        0
176
     1
 62
    18
420
        0
176
     1
 90
       50
176
     1
 90
        3
176
     1
 62
     5
420
      255
176
     1
290
     0
176
     1
 90
       50
176
     1
 90
       50
176
     1
 90
       50
176
     1
290
     0
176
     1
 90
       50
176
     1
 62
   256
176
     0
 40
1.0
176
     0
 90
        2
176
     1
  1
strokes_ogs.tif
176
     1
290
     0
176
     1
 40
1.0
176
     1
 40
1.0
176
     1
1001
ACAD
1000
AcDbSavedByObjectVersion
1070
     0
  0
VISUALSTYLE
  5
32
102
{ACAD_REACTORS
330
2A
102
}
330
2A
100
AcDbVisualStyle
  2

 70
     7
177
     3
291
     1
 70
    58
 90
        1
176
     1
 90
        0
176
     1
 90
        1
176
     1
 90
        0
176
     1
 40
0.6
176
     1
 40
30.0
176
     1
 62
     7
420
 16777215
176
     1
 90
        0
176
     1
 90
        4
176
     1
 62
     7
176
     1
 62
   257
176
     1
 90
        1
176
     1
 90
        1
176
     1
 40
1.0
176
     1
 90
        8
176
     1
 62
     7
176
     1
 40
1.0
176
     1
 90
        1
176
     1
 90
        6
176
     1
 90
        2
176
     1
 62
     7
176
     1
 90
        5
176
     1
 90
        0
176
     1
 90
        0
176
     1
290
     0
176
     1
 90
        1
176
     1
 40
0.0
176
     1
 90
        0
176
     1
290
     0
176
     1
290
     1
176
     1
290
     1
176
     1
290
     0
176
     1
290
     0
176
     1
290
     0
176
     1
290
     0
176
     1
290
     0
176
     1
290
     0
176
     1
 90
       50
176
     1
 40
0.0
176
     1
 40
1.0
176
     1
 90
        0
176
     1
 62
    18
420
        0
176
     1
 90
       50
176
     1
 90
        3
176
     1
 62
     5
420
      255
176
     1
290
     0
176
     1
 90
       50
176
     1
 90
       50
176
     1
 90
       50
176
     1
290
     0
176
     1
 90
       50
176
     1
 62
   256
176
     0
 40
1.0
176
     0
 90
        2
176
     1
  1
strokes_ogs.tif
176
     1
290
     0
176
     1
 40
1.0
176
     1
 40
1.0
176
     1
1001
ACAD
1000
AcDbSavedByObjectVersion
1070
     0
  0
VISUALSTYLE
  5
36
102
{ACAD_REACTORS
330
2A
102
}
330
2A
100
AcDbVisualStyle
  2

 70
    12
177
     3
291
     1
 70
    58
 90
        2
176
     1
 90
        2
176
     1
 90
        0
176
     1
 90
        0
176
     1
 40
0.6
176
     1
 40
30.0
176
     1
 62
     7
420
 16777215
176
     1
 90
        1
176
     1
 90
        4
176
     1
 62
     7
176
     1
 62
   257
176
     1
 90
        1
176
     1
 90
        1
176
     1
 40
1.0
176
     1
 90
        8
176
     1
 62
     7
176
     1
 40
1.0
176
     1
 90
        1
176
     1
 90
        6
176
     1
 90
        2
176
     1
 62
     7
176
     1
 90
        5
176
     1
 90
        0
176
     1
 90
        0
176
     1
290
     0
176
     1
 90
        1
176
     1
 40
50.0
176
     1
 90
        0
176
     1
290
     0
176
     1
290
     1
176
     1
290
     1
176
     1
290
     0
176
     1
290
     0
176
     1
290
     0
176
     1
290
     0
176
     1
290
     0
176
     1
290
     0
176
     1
 90
       50
176
     1
 40
0.0
176
     1
 40
1.0
176
     1
 90
        0
176
     1
 62
    18
420
        0
176
     1
 90
       50
176
     1
 90
        3
176
     1
 62
     5
420
      255
176
     1
290
     0
176
     1
 90
       50
176
     1
 90
       50
176
     1
 90
       50
176
     1
290
     0
176
     1
 90
       50
176
     1
 62
   256
176
     0
 40
1.0
176
     0
 90
        2
176
     1
  1
strokes_ogs.tif
176
     1
290
     0
176
     1
 40
1.0
176
     1
 40
1.0
176
     1
1001
ACAD
1000
AcDbSavedByObjectVersion
1070
     0
  0
VISUALSTYLE
  5
3A
102
{ACAD_REACTORS
330
2A
102
}
330
2A
100
AcDbVisualStyle
  2

 70
    16
177
     3
291
     1
 70
    58
 90
        2
176
     1
 90
        2
176
     1
 90
        3
176
     1
 90
        0
176
     1
 40
0.6
176
     1
 40
30.0
176
     1
 62
     8
420
  8421504
176
     1
 90
        1
176
     1
 90
        4
176
     1
 62
     7
176
     1
 62
   257
176
     1
 90
        1
176
     1
 90
        1
176
     1
 40
1.0
176
     1
 90
        8
176
     1
 62
     8
420
  8421504
176
     1
 40
1.0
176
     1
 90
        1
176
     1
 90
        6
176
     1
 90
        2
176
     1
 62
     7
176
     1
 90
        5
176
     1
 90
        0
176
     1
 90
        0
176
     1
290
     0
176
     1
 90
        1
176
     1
 40
0.0
176
     1
 90
        0
176
     1
290
     0
176
     1
290
     1
176
     1
290
     1
176
     1
290
     0
176
     1
290
     0
176
     1
290
     0
176
     1
290
     0
176
     1
290
     0
176
     1
290
     0
176
     1
 90
       50
176
     1
 40
0.0
176
     1
 40
1.0
176
     1
 90
        0
176
     1
 62
    18
420
        0
176
     1
 90
       50
176
     1
 90
        3
176
     1
 62
     5
420
      255
176
     1
290
     0
176
     1
 90
       50
176
     1
 90
       50
176
     1
 90
       50
176
     1
290
     0
176
     1
 90
       50
176
     1
 62
   256
176
     0
 40
1.0
176
     0
 90
        2
176
     1
  1
strokes_ogs.tif
176
     1
290
     0
176
     1
 40
1.0
176
     1
 40
1.0
176
     1
1001
ACAD
1000
AcDbSavedByObjectVersion
1070
     0
  0
VISUALSTYLE
  5
34
102
{ACAD_REACTORS
330
2A
102
}
330
2A
100
AcDbVisualStyle
  2

 70
     9
177
     3
291
     0
 70
    58
 90
        3
176
     1
 90
        2
176
     1
 90
        0
176
     1
 90
        0
176
     1
 40
0.6
176
     1
 40
30.0
176
     1
 62
     7
420
 16777215
176
     1
 90
        2
176
     1
 90
        2
176
     1
 62
     7
176
     1
 62
   257
176
     1
 90
        1
176
     1
 90
        1
176
     1
 40
179.0
176
     1
 90
        8
176
     1
 62
     7
176
     1
 40
1.0
176
     1
 90
        1
176
     1
 90
        6
176
     1
 90
        2
176
     1
 62
     7
176
     1
 90
        3
176
     1
 90
        0
176
     1
 90
        0
176
     1
290
     0
176
     1
 90
        1
176
     1
 40
0.0
176
     1
 90
        0
176
     1
290
     0
176
     1
290
     1
176
     1
290
     1
176
     1
290
     0
176
     1
290
     0
176
     1
290
     0
176
     1
290
     0
176
     1
290
     0
176
     1
290
     0
176
     1
 90
       50
176
     1
 40
0.0
176
     1
 40
1.0
176
     1
 90
        0
176
     1
 62
    18
420
        0
176
     1
 90
       50
176
     1
 90
        3
176
     1
 62
     5
420
      255
176
     1
290
     0
176
     1
 90
       50
176
     1
 90
       50
176
     1
 90
       50
176
     1
290
     0
176
     1
 90
       50
176
     1
 62
   256
176
     0
 40
1.0
176
     0
 90
        2
176
     1
  1
strokes_ogs.tif
176
     1
290
     0
176
     1
 40
1.0
176
     1
 40
1.0
176
     1
1001
ACAD
1000
AcDbSavedByObjectVersion
1070
     0
  0
VISUALSTYLE
  5
35
102
{ACAD_REACTORS
330
2A
102
}
330
2A
100
AcDbVisualStyle
  2

 70
    11
177
     3
291
     1
 70
    58
 90
        2
176
     1
 90
        2
176
     1
 90
        0
176
     1
 90
        0
176
     1
 40
0.6
176
     1
 40
30.0
176
     1
 62
     7
420
 16777215
176
     1
 90
        1
176
     1
 90
        4
176
     1
 62
     7
176
     1
 62
   257
176
     1
 90
        1
176
     1
 90
        1
176
     1
 40
1.0
176
     1
 90
        8
176
     1
 62
     7
176
     1
 40
1.0
176
     1
 90
        1
176
     1
 90
        6
176
     1
 90
        2
176
     1
 62
     7
176
     1
 90
        5
176
     1
 90
        0
176
     1
 90
        0
176
     1
290
     0
176
     1
 90
        1
176
     1
 40
-50.0
176
     1
 90
        0
176
     1
290
     0
176
     1
290
     1
176
     1
290
     1
176
     1
290
     0
176
     1
290
     0
176
     1
290
     0
176
     1
290
     0
176
     1
290
     0
176
     1
290
     0
176
     1
 90
       50
176
     1
 40
0.0
176
     1
 40
1.0
176
     1
 90
        0
176
     1
 62
    18
420
        0
176
     1
 90
       50
176
     1
 90
        3
176
     1
 62
     5
420
      255
176
     1
290
     0
176
     1
 90
       50
176
     1
 90
       50
176
     1
 90
       50
176
     1
290
     0
176
     1
 90
       50
176
     1
 62
   256
176
     0
 40
1.0
176
     0
 90
        2
176
     1
  1
strokes_ogs.tif
176
     1
290
     0
176
     1
 40
1.0
176
     1
 40
1.0
176
     1
1001
ACAD
1000
AcDbSavedByObjectVersion
1070
     0
  0
VISUALSTYLE
  5
3D
102
{ACAD_REACTORS
330
2A
102
}
330
2A
100
AcDbVisualStyle
  2

 70
    22
177
     3
291
     1
 70
    58
 90
        2
176
     0
 90
        2
176
     0
 90
        0
176
     0
 90
        0
176
     0
 40
0.6
176
     0
 40
30.0
176
     0
 62
     7
420
 16777215
176
     0
 90
        1
176
     0
 90
        4
176
     0
 62
     7
176
     0
 62
   257
176
     0
 90
        1
176
     0
 90
        1
176
     0
 40
1.0
176
     0
 90
        8
176
     2
 62
     7
176
     0
 40
1.0
176
     0
 90
        1
176
     0
 90
        6
176
     0
 90
        2
176
     0
 62
     7
176
     0
 90
        5
176
     0
 90
        0
176
     0
 90
        0
176
     0
290
     0
176
     0
 90
        1
176
     0
 40
0.0
176
     0
 90
        0
176
     0
290
     0
176
     0
290
     1
176
     0
290
     1
176
     0
290
     0
176
     0
290
     0
176
     0
290
     0
176
     0
290
     0
176
     0
290
     0
176
     0
290
     0
176
     0
 90
       50
176
     0
 40
0.0
176
     0
 40
1.0
176
     0
 90
        0
176
     0
 62
    18
420
        0
176
     0
 90
       50
176
     0
 90
        3
176
     0
 62
     5
420
      255
176
     0
290
     0
176
     0
 90
       50
176
     0
 90
       50
176
     0
 90
       50
176
     0
290
     0
176
     0
 90
       50
176
     0
 62
   256
176
     0
 40
1.0
176
     0
 90
        2
176
     0
  1
strokes_ogs.tif
176
     0
290
     0
176
     0
 40
1.0
176
     0
 40
1.0
176
     0
1001
ACAD
1000
AcDbSavedByObjectVersion
1070
     0
  0
VISUALSTYLE
  5
39
102
{ACAD_REACTORS
330
2A
102
}
330
2A
100
AcDbVisualStyle
  2

 70
    15
177
     3
291
     1
 70
    58
 90
        2
176
     1
 90
        2
176
     1
 90
        0
176
     1
 90
        0
176
     1
 40
0.6
176
     1
 40
30.0
176
     1
 62
     7
420
 16777215
176
     1
 90
        1
176
     1
 90
        4
176
     1
 62
     7
176
     1
 62
   257
176
     1
 90
        1
176
     1
 90
        1
176
     1
 40
1.0
176
     1
 90
        8
176
     1
 62
     7
176
     1
 40
1.0
176
     1
 90
        1
176
     1
 90
        6
176
     1
 90
        2
176
     1
 62
     7
176
     1
 90
        5
176
     1
 90
        0
176
     1
 90
        0
176
     1
290
     0
176
     1
 90
        1
176
     1
 40
0.0
176
     1
 90
        0
176
     1
290
     0
176
     1
290
     1
176
     1
290
     1
176
     1
290
     0
176
     1
290
     0
176
     1
290
     0
176
     1
290
     0
176
     1
290
     0
176
     1
290
     0
176
     1
 90
       50
176
     1
 40
0.0
176
     1
 40
1.0
176
     1
 90
        0
176
     1
 62
    18
420
        0
176
     1
 90
       50
176
     1
 90
        3
176
     1
 62
     5
420
      255
176
     1
290
     0
176
     1
 90
       50
176
     1
 90
       50
176
     1
 90
       50
176
     1
290
     0
176
     1
 90
       50
176
     1
 62
   256
176
     0
 40
1.0
176
     0
 90
        2
176
     1
  1
strokes_ogs.tif
176
     1
290
     0
176
     1
 40
1.0
176
     1
 40
1.0
176
     1
1001
ACAD
1000
AcDbSavedByObjectVersion
1070
     0
  0
VISUALSTYLE
  5
2B
102
{ACAD_REACTORS
330
2A
102
}
330
2A
100
AcDbVisualStyle
  2

 70
     0
177
     3
291
     1
 70
    58
 90
        2
176
     1
 90
        1
176
     1
 90
        1
176
     1
 90
        2
176
     1
 40
0.6
176
     1
 40
30.0
176
     1
 62
     7
420
 16777215
176
     1
 90
        0
176
     1
 90
        0
176
     1
 62
     7
176
     1
 62
   257
176
     1
 90
        1
176
     1
 90
        1
176
     1
 40
1.0
176
     1
 90
        8
176
     1
 62
     7
176
     1
 40
1.0
176
     1
 90
        1
176
     1
 90
        6
176
     1
 90
        2
176
     1
 62
     7
176
     1
 90
        5
176
     1
 90
        0
176
     1
 90
        0
176
     1
290
     0
176
     1
 90
       13
176
     1
 40
0.0
176
     1
 90
        0
176
     1
290
     0
176
     1
290
     1
176
     1
290
     1
176
     1
290
     0
176
     1
290
     0
176
     1
290
     0
176
     1
290
     0
176
     1
290
     0
176
     1
290
     0
176
     1
 90
       50
176
     1
 40
0.0
176
     1
 40
1.0
176
     1
 90
        0
176
     1
 62
    18
420
        0
176
     1
 90
       50
176
     1
 90
        3
176
     1
 62
     5
420
      255
176
     1
290
     0
176
     1
 90
       50
176
     1
 90
       50
176
     1
 90
       50
176
     1
290
     0
176
     1
 90
       50
176
     1
 62
   256
176
     0
 40
1.0
176
     0
 90
        2
176
     1
  1
strokes_ogs.tif
176
     1
290
     0
176
     1
 40
1.0
176
     1
 40
1.0
176
     1
1001
ACAD
1000
AcDbSavedByObjectVersion
1070
     0
  0
VISUALSTYLE
  5
2C
102
{ACAD_REACTORS
330
2A
102
}
330
2A
100
AcDbVisualStyle
  2

 70
     1
177
     3
291
     1
 70
    58
 90
        2
176
     1
 90
        1
176
     1
 90
        1
176
     1
 90
        2
176
     1
 40
0.6
176
     1
 40
30.0
176
     1
 62
     7
420
 16777215
176
     1
 90
        1
176
     1
 90
        0
176
     1
 62
     7
176
     1
 62
   257
176
     1
 90
        1
176
     1
 90
        1
176
     1
 40
1.0
176
     1
 90
        0
176
     1
 62
   257
176
     1
 40
1.0
176
     1
 90
        1
176
     1
 90
        6
176
     1
 90
        2
176
     1
 62
     7
176
     1
 90
        5
176
     1
 90
        0
176
     1
 90
        0
176
     1
290
     0
176
     1
 90
       13
176
     1
 40
0.0
176
     1
 90
        0
176
     1
290
     0
176
     1
290
     1
176
     1
290
     1
176
     1
290
     0
176
     1
290
     0
176
     1
290
     0
176
     1
290
     0
176
     1
290
     0
176
     1
290
     0
176
     1
 90
       50
176
     1
 40
0.0
176
     1
 40
1.0
176
     1
 90
        0
176
     1
 62
    18
420
        0
176
     1
 90
       50
176
     1
 90
        3
176
     1
 62
     5
420
      255
176
     1
290
     0
176
     1
 90
       50
176
     1
 90
       50
176
     1
 90
       50
176
     1
290
     0
176
     1
 90
       50
176
     1
 62
   256
176
     0
 40
1.0
176
     0
 90
        2
176
     1
  1
strokes_ogs.tif
176
     1
290
     0
176
     1
 40
1.0
176
     1
 40
1.0
176
     1
1001
ACAD
1000
AcDbSavedByObjectVersion
1070
     0
  0
VISUALSTYLE
  5
2D
102
{ACAD_REACTORS
330
2A
102
}
330
2A
100
AcDbVisualStyle
  2

 70
     2
177
     3
291
     1
 70
    58
 90
        2
176
     1
 90
        2
176
     1
 90
        1
176
     1
 90
        2
176
     1
 40
0.6
176
     1
 40
30.0
176
     1
 62
     7
420
 16777215
176
     1
 90
        0
176
     1
 90
        0
176
     1
 62
     7
176
     1
 62
   257
176
     1
 90
        1
176
     1
 90
        1
176
     1
 40
1.0
176
     1
 90
        0
176
     1
 62
     7
176
     1
 40
1.0
176
     1
 90
        1
176
     1
 90
        6
176
     1
 90
        2
176
     1
 62
     7
176
     1
 90
        5
176
     1
 90
        0
176
     1
 90
        0
176
     1
290
     0
176
     1
 90
       13
176
     1
 40
0.0
176
     1
 90
        0
176
     1
290
     0
176
     1
290
     1
176
     1
290
     1
176
     1
290
     0
176
     1
290
     0
176
     1
290
     0
176
     1
290
     0
176
     1
290
     0
176
     1
290
     0
176
     1
 90
       50
176
     1
 40
0.0
176
     1
 40
1.0
176
     1
 90
        0
176
     1
 62
    18
420
        0
176
     1
 90
       50
176
     1
 90
        3
176
     1
 62
     5
420
      255
176
     1
290
     0
176
     1
 90
       50
176
     1
 90
       50
176
     1
 90
       50
176
     1
290
     0
176
     1
 90
       50
176
     1
 62
   256
176
     0
 40
1.0
176
     0
 90
        2
176
     1
  1
strokes_ogs.tif
176
     1
290
     0
176
     1
 40
1.0
176
     1
 40
1.0
176
     1
1001
ACAD
1000
AcDbSavedByObjectVersion
1070
     0
  0
VISUALSTYLE
  5
2E
102
{ACAD_REACTORS
330
2A
102
}
330
2A
100
AcDbVisualStyle
  2

 70
     3
177
     3
291
     1
 70
    58
 90
        2
176
     1
 90
        2
176
     1
 90
        1
176
     1
 90
        2
176
     1
 40
0.6
176
     1
 40
30.0
176
     1
 62
     7
420
 16777215
176
     1
 90
        1
176
     1
 90
        0
176
     1
 62
     7
176
     1
 62
   257
176
     1
 90
        1
176
     1
 90
        1
176
     1
 40
1.0
176
     1
 90
        0
176
     1
 62
   257
176
     1
 40
1.0
176
     1
 90
        1
176
     1
 90
        6
176
     1
 90
        2
176
     1
 62
     7
176
     1
 90
        5
176
     1
 90
        0
176
     1
 90
        0
176
     1
290
     0
176
     1
 90
       13
176
     1
 40
0.0
176
     1
 90
        0
176
     1
290
     0
176
     1
290
     1
176
     1
290
     1
176
     1
290
     0
176
     1
290
     0
176
     1
290
     0
176
     1
290
     0
176
     1
290
     0
176
     1
290
     0
176
     1
 90
       50
176
     1
 40
0.0
176
     1
 40
1.0
176
     1
 90
        0
176
     1
 62
    18
420
        0
176
     1
 90
       50
176
     1
 90
        3
176
     1
 62
     5
420
      255
176
     1
290
     0
176
     1
 90
       50
176
     1
 90
       50
176
     1
 90
       50
176
     1
290
     0
176
     1
 90
       50
176
     1
 62
   256
176
     0
 40
1.0
176
     0
 90
        2
176
     1
  1
strokes_ogs.tif
176
     1
290
     0
176
     1
 40
1.0
176
     1
 40
1.0
176
     1
1001
ACAD
1000
AcDbSavedByObjectVersion
1070
     0
  0
VISUALSTYLE
  5
31
102
{ACAD_REACTORS
330
2A
102
}
330
2A
100
AcDbVisualStyle
  2

 70
     6
177
     3
291
     0
 70
    58
 90
        1
176
     1
 90
        2
176
     1
 90
        2
176
     1
 90
        0
176
     1
 40
0.6
176
     1
 40
30.0
176
     1
 62
     7
420
 16777215
176
     1
 90
        2
176
     1
 90
        2
176
     1
 62
     7
176
     1
 62
   257
176
     1
 90
        2
176
     1
 90
        1
176
     1
 40
40.0
176
     1
 90
        0
176
     1
 62
   257
176
     1
 40
1.0
176
     1
 90
        1
176
     1
 90
        6
176
     1
 90
        2
176
     1
 62
     7
176
     1
 90
        3
176
     1
 90
        0
176
     1
 90
        0
176
     1
290
     0
176
     1
 90
        1
176
     1
 40
0.0
176
     1
 90
        0
176
     1
290
     0
176
     1
290
     1
176
     1
290
     1
176
     1
290
     0
176
     1
290
     0
176
     1
290
     0
176
     1
290
     0
176
     1
290
     0
176
     1
290
     0
176
     1
 90
       50
176
     1
 40
0.0
176
     1
 40
1.0
176
     1
 90
        0
176
     1
 62
    18
420
        0
176
     1
 90
       50
176
     1
 90
        3
176
     1
 62
     5
420
      255
176
     1
290
     0
176
     1
 90
       50
176
     1
 90
       50
176
     1
 90
       50
176
     1
290
     0
176
     1
 90
       50
176
     1
 62
   256
176
     0
 40
1.0
176
     0
 90
        2
176
     1
  1
strokes_ogs.tif
176
     1
290
     0
176
     1
 40
1.0
176
     1
 40
1.0
176
     1
1001
ACAD
1000
AcDbSavedByObjectVersion
1070
     0
  0
VISUALSTYLE
  5
3B
102
{ACAD_REACTORS
330
2A
102
}
330
2A
100
AcDbVisualStyle
  2

 70
    20
177
     3
291
     1
 70
    58
 90
        2
176
     0
 90
        2
176
     0
 90
        0
176
     0
 90
        0
176
     0
 40
0.6
176
     0
 40
30.0
176
     0
 62
     7
420
 16777215
176
     0
 90
        1
176
     0
 90
        4
176
     0
 62
     7
176
     0
 62
   257
176
     0
 90
        1
176
     0
 90
        1
176
     0
 40
1.0
176
     0
 90
       10
176
     2
 62
     7
176
     0
 40
1.0
176
     0
 90
        1
176
     0
 90
        6
176
     0
 90
        2
176
     0
 62
     7
176
     0
 90
        5
176
     0
 90
        0
176
     0
 90
        0
176
     0
290
     0
176
     0
 90
        1
176
     0
 40
0.0
176
     0
 90
        0
176
     0
290
     0
176
     0
290
     1
176
     0
290
     1
176
     0
290
     0
176
     0
290
     0
176
     0
290
     0
176
     0
290
     0
176
     0
290
     0
176
     0
290
     0
176
     0
 90
       50
176
     0
 40
0.0
176
     0
 40
1.0
176
     0
 90
        0
176
     0
 62
    18
420
        0
176
     0
 90
       50
176
     0
 90
        3
176
     0
 62
     5
420
      255
176
     0
290
     0
176
     0
 90
       50
176
     0
 90
       50
176
     0
 90
       50
176
     0
290
     0
176
     0
 90
       50
176
     0
 62
   256
176
     0
 40
1.0
176
     0
 90
        2
176
     0
  1
strokes_ogs.tif
176
     0
290
     0
176
     0
 40
1.0
176
     0
 40
1.0
176
     0
1001
ACAD
1000
AcDbSavedByObjectVersion
1070
     0
  0
VISUALSTYLE
  5
38
102
{ACAD_REACTORS
330
2A
102
}
330
2A
100
AcDbVisualStyle
  2

 70
    14
177
     3
291
     1
 70
    58
 90
        2
176
     1
 90
        2
176
     1
 90
        0
176
     1
 90
        0
176
     1
 40
0.6
176
     1
 40
30.0
176
     1
 62
     7
420
 16777215
176
     1
 90
        1
176
     1
 90
        4
176
     1
 62
     7
176
     1
 62
   257
176
     1
 90
        7
176
     1
 90
        7
176
     1
 40
1.0
176
     1
 90
        8
176
     1
 62
     7
176
     1
 40
1.0
176
     1
 90
        1
176
     1
 90
        6
176
     1
 90
        2
176
     1
 62
     7
176
     1
 90
        5
176
     1
 90
        0
176
     1
 90
        0
176
     1
290
     0
176
     1
 90
        1
176
     1
 40
0.0
176
     1
 90
        0
176
     1
290
     0
176
     1
290
     1
176
     1
290
     1
176
     1
290
     0
176
     1
290
     0
176
     1
290
     0
176
     1
290
     0
176
     1
290
     0
176
     1
290
     0
176
     1
 90
       50
176
     1
 40
0.0
176
     1
 40
1.0
176
     1
 90
        0
176
     1
 62
    18
420
        0
176
     1
 90
       50
176
     1
 90
        3
176
     1
 62
     5
420
      255
176
     1
290
     0
176
     1
 90
       50
176
     1
 90
       50
176
     1
 90
       50
176
     1
290
     0
176
     1
 90
       50
176
     1
 62
   256
176
     0
 40
1.0
176
     0
 90
        2
176
     1
  1
strokes_ogs.tif
176
     1
290
     0
176
     1
 40
1.0
176
     1
 40
1.0
176
     1
1001
ACAD
1000
AcDbSavedByObjectVersion
1070
     0
  0
VISUALSTYLE
  5
3C
102
{ACAD_REACTORS
330
2A
102
}
330
2A
100
AcDbVisualStyle
  2

 70
    21
177
     3
291
     1
 70
    58
 90
        2
176
     0
 90
        2
176
     0
 90
        0
176
     0
 90
        0
176
     0
 40
0.6
176
     0
 40
30.0
176
     0
 62
     7
420
 16777215
176
     0
 90
        1
176
     0
 90
        4
176
     0
 62
     7
176
     0
 62
   257
176
     0
 90
        1
176
     0
 90
        1
176
     0
 40
1.0
176
     0
 90
        9
176
     2
 62
     7
176
     0
 40
1.0
176
     0
 90
        1
176
     0
 90
        6
176
     0
 90
        2
176
     0
 62
     7
176
     0
 90
        5
176
     0
 90
        0
176
     0
 90
        0
176
     0
290
     0
176
     0
 90
        1
176
     0
 40
0.0
176
     0
 90
        0
176
     0
290
     0
176
     0
290
     1
176
     0
290
     1
176
     0
290
     0
176
     0
290
     0
176
     0
290
     0
176
     0
290
     0
176
     0
290
     0
176
     0
290
     0
176
     0
 90
       50
176
     0
 40
0.0
176
     0
 40
1.0
176
     0
 90
        0
176
     0
 62
    18
420
        0
176
     0
 90
       50
176
     0
 90
        3
176
     0
 62
     5
420
      255
176
     0
290
     0
176
     0
 90
       50
176
     0
 90
       50
176
     0
 90
       50
176
     0
290
     0
176
     0
 90
       50
176
     0
 62
   256
176
     0
 40
1.0
176
     0
 90
        2
176
     0
  1
strokes_ogs.tif
176
     0
290
     0
176
     0
 40
1.0
176
     0
 40
1.0
176
     0
1001
ACAD
1000
AcDbSavedByObjectVersion
1070
     0
  0
VISUALSTYLE
  5
33
102
{ACAD_REACTORS
330
2A
102
}
330
2A
100
AcDbVisualStyle
  2

 70
     8
177
     3
291
     0
 70
    58
 90
        2
176
     1
 90
        3
176
     1
 90
        0
176
     1
 90
        2
176
     1
 40
0.6
176
     1
 40
30.0
176
     1
 62
     7
420
 16777215
176
     1
 90
        0
176
     1
 90
        0
176
     1
 62
     7
176
     1
 62
   257
176
     1
 90
        1
176
     1
 90
        1
176
     1
 40
1.0
176
     1
 90
        8
176
     1
 62
   257
176
     1
 40
1.0
176
     1
 90
        1
176
     1
 90
        6
176
     1
 90
        2
176
     1
 62
     7
176
     1
 90
        3
176
     1
 90
        0
176
     1
 90
        0
176
     1
290
     0
176
     1
 90
       13
176
     1
 40
0.0
176
     1
 90
        0
176
     1
290
     0
176
     1
290
     1
176
     1
290
     1
176
     1
290
     0
176
     1
290
     0
176
     1
290
     0
176
     1
290
     0
176
     1
290
     0
176
     1
290
     0
176
     1
 90
       50
176
     1
 40
0.0
176
     1
 40
1.0
176
     1
 90
        0
176
     1
 62
    18
420
        0
176
     1
 90
       50
176
     1
 90
        3
176
     1
 62
     5
420
      255
176
     1
290
     0
176
     1
 90
       50
176
     1
 90
       50
176
     1
 90
       50
176
     1
290
     0
176
     1
 90
       50
176
     1
 62
   256
176
     0
 40
1.0
176
     0
 90
        2
176
     1
  1
strokes_ogs.tif
176
     1
290
     0
176
     1
 40
1.0
176
     1
 40
1.0
176
     1
1001
ACAD
1000
AcDbSavedByObjectVersion
1070
     0
  0
VISUALSTYLE
  5
42
102
{ACAD_REACTORS
330
2A
102
}
330
2A
100
AcDbVisualStyle
  2

 70
    27
177
     3
291
     0
 70
    58
 90
        2
176
     1
 90
        2
176
     1
 90
        1
176
     1
 90
        2
176
     1
 40
0.6
176
     1
 40
30.0
176
     1
 62
     7
420
 16777215
176
     1
 90
        0
176
     1
 90
        4
176
     1
 62
     7
176
     1
 62
   257
176
     1
 90
        1
176
     1
 90
        1
176
     1
 40
1.0
176
     1
 90
        8
176
     1
 62
   257
176
     1
 40
1.0
176
     1
 90
        1
176
     1
 90
        6
176
     1
 90
        2
176
     1
 62
     8
420
  7895160
176
     1
 90
        3
176
     1
 90
        0
176
     1
 90
        0
176
     1
290
     0
176
     1
 90
        5
176
     1
 40
0.0
176
     1
 90
        0
176
     1
290
     0
176
     1
290
     1
176
     1
290
     1
176
     1
290
     0
176
     1
290
     0
176
     1
290
     0
176
     1
290
     0
176
     1
290
     0
176
     1
290
     0
176
     1
 90
       50
176
     1
 40
0.0
176
     1
 40
1.0
176
     1
 90
        0
176
     1
 62
    18
420
        0
176
     1
 90
       50
176
     1
 90
        3
176
     1
 62
     5
420
      255
176
     1
290
     0
176
     1
 90
       50
176
     1
 90
       50
176
     1
 90
       50
176
     1
290
     0
176
     1
 90
       50
176
     1
 62
   256
176
     0
 40
1.0
176
     0
 90
        2
176
     1
  1
strokes_ogs.tif
176
     1
290
     0
176
     1
 40
1.0
176
     1
 40
1.0
176
     1
1001
ACAD
1000
AcDbSavedByObjectVersion
1070
     0
  0
VISUALSTYLE
  5
41
102
{ACAD_REACTORS
330
2A
102
}
330
2A
100
AcDbVisualStyle
  2

 70
    26
177
     3
291
     0
 70
    58
 90
        2
176
     1
 90
        2
176
     1
 90
        1
176
     1
 90
        2
176
     1
 40
0.6
176
     1
 40
30.0
176
     1
 62
     7
420
 16777215
176
     1
 90
        1
176
     1
 90
       10
176
     1
 62
     7
176
     1
 62
   257
176
     1
 90
        2
176
     1
 90
        1
176
     1
 40
1.0
176
     1
 90
        8
176
     1
 62
   257
176
     1
 40
1.0
176
     1
 90
        1
176
     1
 90
        6
176
     1
 90
        2
176
     1
 62
     7
176
     1
 90
        3
176
     1
 90
        0
176
     1
 90
        0
176
     1
290
     0
176
     1
 90
        5
176
     1
 40
0.0
176
     1
 90
        0
176
     1
290
     0
176
     1
290
     1
176
     1
290
     1
176
     1
290
     0
176
     1
290
     0
176
     1
290
     0
176
     1
290
     0
176
     1
290
     0
176
     1
290
     0
176
     1
 90
       50
176
     1
 40
0.0
176
     1
 40
1.0
176
     1
 90
        0
176
     1
 62
    18
420
        0
176
     1
 90
       50
176
     1
 90
        3
176
     1
 62
     5
420
      255
176
     1
290
     0
176
     1
 90
       50
176
     1
 90
       50
176
     1
 90
       50
176
     1
290
     0
176
     1
 90
       50
176
     1
 62
   256
176
     0
 40
1.0
176
     0
 90
        2
176
     1
  1
strokes_ogs.tif
176
     1
290
     0
176
     1
 40
1.0
176
     1
 40
1.0
176
     1
1001
ACAD
1000
AcDbSavedByObjectVersion
1070
     0
  0
VISUALSTYLE
  5
3E
102
{ACAD_REACTORS
330
2A
102
}
330
2A
100
AcDbVisualStyle
  2

 70
    23
177
     3
291
     0
 70
    58
 90
        2
176
     1
 90
        2
176
     1
 90
        3
176
     1
 90
        0
176
     1
 40
0.6
176
     1
 40
30.0
176
     1
 62
     7
420
 16777215
176
     1
 90
        2
176
     1
 90
        2
176
     1
 62
     7
176
     1
 62
     7
176
     1
 90
        1
176
     1
 90
        1
176
     1
 40
40.0
176
     1
 90
        8
176
     1
 62
     7
176
     1
 40
1.0
176
     1
 90
        1
176
     1
 90
        6
176
     1
 90
        2
176
     1
 62
     7
176
     1
 90
        3
176
     1
 90
        0
176
     1
 90
        0
176
     1
290
     0
176
     1
 90
        1
176
     1
 40
0.0
176
     1
 90
        0
176
     1
290
     0
176
     1
290
     1
176
     1
290
     1
176
     1
290
     0
176
     1
290
     0
176
     1
290
     0
176
     1
290
     0
176
     1
290
     0
176
     1
290
     0
176
     1
 90
       50
176
     1
 40
0.0
176
     1
 40
1.0
176
     1
 90
        0
176
     1
 62
    18
420
        0
176
     1
 90
       50
176
     1
 90
        3
176
     1
 62
     5
420
      255
176
     1
290
     0
176
     1
 90
       50
176
     1
 90
       50
176
     1
 90
       50
176
     1
290
     0
176
     1
 90
       50
176
     1
 62
   256
176
     0
 40
1.0
176
     0
 90
        2
176
     1
  1
strokes_ogs.tif
176
     1
290
     0
176
     1
 40
1.0
176
     1
 40
1.0
176
     1
1001
ACAD
1000
AcDbSavedByObjectVersion
1070
     0
  0
VISUALSTYLE
  5
3F
102
{ACAD_REACTORS
330
2A
102
}
330
2A
100
AcDbVisualStyle
  2

 70
    24
177
     3
291
     0
 70
    58
 90
        1
176
     1
 90
        2
176
     1
 90
        2
176
     1
 90
        0
176
     1
 40
0.6
176
     1
 40
30.0
176
     1
 62
     7
420
 16777215
176
     1
 90
        2
176
     1
 90
        2
176
     1
 62
     7
176
     1
 62
     7
176
     1
 90
        1
176
     1
 90
        1
176
     1
 40
40.0
176
     1
 90
       11
176
     1
 62
     7
176
     1
 40
1.0
176
     1
 90
        1
176
     1
 90
        6
176
     1
 90
        2
176
     1
 62
     7
176
     1
 90
        6
176
     1
 90
        0
176
     1
 90
        0
176
     1
290
     0
176
     1
 90
        1
176
     1
 40
0.0
176
     1
 90
        0
176
     1
290
     0
176
     1
290
     1
176
     1
290
     1
176
     1
290
     0
176
     1
290
     0
176
     1
290
     0
176
     1
290
     0
176
     1
290
     0
176
     1
290
     0
176
     1
 90
       50
176
     1
 40
0.0
176
     1
 40
1.0
176
     1
 90
        0
176
     1
 62
    18
420
        0
176
     1
 90
       50
176
     1
 90
        3
176
     1
 62
     5
420
      255
176
     1
290
     0
176
     1
 90
       50
176
     1
 90
       50
176
     1
 90
       50
176
     1
290
     0
176
     1
 90
       50
176
     1
 62
   256
176
     0
 40
1.0
176
     0
 90
        2
176
     1
  1
strokes_ogs.tif
176
     1
290
     0
176
     1
 40
1.0
176
     1
 40
1.0
176
     1
1001
ACAD
1000
AcDbSavedByObjectVersion
1070
     0
  0
VISUALSTYLE
  5
37
102
{ACAD_REACTORS
330
2A
102
}
330
2A
100
AcDbVisualStyle
  2

 70
    13
177
     3
291
     1
 70
    58
 90
        2
176
     1
 90
        2
176
     1
 90
        0
176
     1
 90
        0
176
     1
 40
0.6
176
     1
 40
30.0
176
     1
 62
     7
420
 16777215
176
     1
 90
        1
176
     1
 90
        4
176
     1
 62
     7
176
     1
 62
   257
176
     1
 90
        1
176
     1
 90
        1
176
     1
 40
1.0
176
     1
 90
       12
176
     1
 62
     7
176
     1
 40
1.0
176
     1
 90
        1
176
     1
 90
        6
176
     1
 90
        2
176
     1
 62
     7
176
     1
 90
        5
176
     1
 90
        0
176
     1
 90
        0
176
     1
290
     0
176
     1
 90
        1
176
     1
 40
0.0
176
     1
 90
        0
176
     1
290
     0
176
     1
290
     1
176
     1
290
     1
176
     1
290
     0
176
     1
290
     0
176
     1
290
     0
176
     1
290
     0
176
     1
290
     0
176
     1
290
     0
176
     1
 90
       50
176
     1
 40
0.0
176
     1
 40
1.0
176
     1
 90
        0
176
     1
 62
    18
420
        0
176
     1
 90
       50
176
     1
 90
        3
176
     1
 62
     5
420
      255
176
     1
290
     0
176
     1
 90
       50
176
     1
 90
       50
176
     1
 90
       50
176
     1
290
     0
176
     1
 90
       50
176
     1
 62
   256
176
     0
 40
1.0
176
     0
 90
        2
176
     1
  1
strokes_ogs.tif
176
     1
290
     0
176
     1
 40
1.0
176
     1
 40
1.0
176
     1
1001
ACAD
1000
AcDbSavedByObjectVersion
1070
     0
  0
VISUALSTYLE
  5
30
102
{ACAD_REACTORS
330
2A
102
}
330
2A
100
AcDbVisualStyle
  2

 70
     5
177
     3
291
     0
 70
    58
 90
        0
176
     1
 90
        2
176
     1
 90
        0
176
     1
 90
        0
176
     1
 40
0.6
176
     1
 40
30.0
176
     1
 62
     7
420
 16777215
176
     1
 90
        1
176
     1
 90
        4
176
     1
 62
     7
176
     1
 62
   257
176
     1
 90
        1
176
     1
 90
        1
176
     1
 40
1.0
176
     1
 90
        0
176
     1
 62
   257
176
     1
 40
1.0
176
     1
 90
        1
176
     1
 90
        6
176
     1
 90
        2
176
     1
 62
     7
176
     1
 90
        3
176
     1
 90
        0
176
     1
 90
        0
176
     1
290
     0
176
     1
 90
        1
176
     1
 40
0.0
176
     1
 90
        0
176
     1
290
     0
176
     1
290
     1
176
     1
290
     1
176
     1
290
     0
176
     1
290
     0
176
     1
290
     0
176
     1
290
     0
176
     1
290
     0
176
     1
290
     0
176
     1
 90
       50
176
     1
 40
0.0
176
     1
 40
1.0
176
     1
 90
        0
176
     1
 62
    18
420
        0
176
     1
 90
       50
176
     1
 90
        3
176
     1
 62
     5
420
      255
176
     1
290
     0
176
     1
 90
       50
176
     1
 90
       50
176
     1
 90
       50
176
     1
290
     0
176
     1
 90
       50
176
     1
 62
   256
176
     0
 40
1.0
176
     0
 90
        2
176
     1
  1
strokes_ogs.tif
176
     1
290
     0
176
     1
 40
1.0
176
     1
 40
1.0
176
     1
1001
ACAD
1000
AcDbSavedByObjectVersion
1070
     0
  0
VISUALSTYLE
  5
40
102
{ACAD_REACTORS
330
2A
102
}
330
2A
100
AcDbVisualStyle
  2

 70
    25
177
     3
291
     0
 70
    58
 90
        2
176
     1
 90
        2
176
     1
 90
        1
176
     1
 90
        1
176
     1
 40
0.5
176
     1
 40
30.0
176
     1
 62
     7
420
 16777215
176
     1
 90
        1
176
     1
 90
        0
176
     1
 62
     7
176
     1
 62
   257
176
     1
 90
        1
176
     1
 90
        1
176
     1
 40
1.0
176
     1
 90
        8
176
     1
 62
     7
176
     1
 40
1.0
176
     1
 90
        1
176
     1
 90
        6
176
     1
 90
        2
176
     1
 62
     7
176
     1
 90
        3
176
     1
 90
        0
176
     1
 90
        0
176
     1
290
     0
176
     1
 90
       13
176
     1
 40
0.0
176
     1
 90
        0
176
     1
290
     0
176
     1
290
     1
176
     1
290
     1
176
     1
290
     0
176
     1
290
     0
176
     1
290
     0
176
     1
290
     0
176
     1
290
     0
176
     1
290
     0
176
     1
 90
       50
176
     1
 40
0.0
176
     1
 40
1.0
176
     1
 90
        0
176
     1
 62
    18
420
        0
176
     1
 90
       50
176
     1
 90
        3
176
     1
 62
     5
420
      255
176
     1
290
     0
176
     1
 90
       50
176
     1
 90
       50
176
     1
 90
       50
176
     1
290
     0
176
     1
 90
       50
176
     1
 62
   256
176
     0
 40
1.0
176
     0
 90
        2
176
     1
  1
strokes_ogs.tif
176
     1
290
     0
176
     1
 40
1.0
176
     1
 40
1.0
176
     1
1001
ACAD
1000
AcDbSavedByObjectVersion
1070
     0
  0
DICTIONARYVAR
  5
49C
102
{ACAD_REACTORS
330
49B
102
}
330
49B
100
DictionaryVariables
280
     0
  1
1:1
  0
DICTIONARYVAR
  5
4D5
102
{ACAD_REACTORS
330
49B
102
}
330
49B
100
DictionaryVariables
280
     0
  1
STANDARD
  0
DICTIONARYVAR
  5
4D4
102
{ACAD_REACTORS
330
49B
102
}
330
49B
100
DictionaryVariables
280
     0
  1
STANDARD
  0
DICTIONARYVAR
  5
1185
102
{ACAD_REACTORS
330
49B
102
}
330
49B
100
DictionaryVariables
280
     0
  1
Metric50
  0
DICTIONARYVAR
  5
1186
102
{ACAD_REACTORS
330
49B
102
}
330
49B
100
DictionaryVariables
280
     0
  1
Metric50
  0
DICTIONARYVAR
  5
1188
102
{ACAD_REACTORS
330
49B
102
}
330
49B
100
DictionaryVariables
280
     0
  1
1
  0
DICTIONARYVAR
  5
1189
102
{ACAD_REACTORS
330
49B
102
}
330
49B
100
DictionaryVariables
280
     0
  1
15
  0
DICTIONARYVAR
  5
1187
102
{ACAD_REACTORS
330
49B
102
}
330
49B
100
DictionaryVariables
280
     0
  1
0
  0
DICTIONARYVAR
  5
4DA
102
{ACAD_REACTORS
330
49B
102
}
330
49B
100
DictionaryVariables
280
     0
  1
1
  0
DICTIONARY
  5
50D
330
45
100
AcDbDictionary
280
     1
281
     1
  3
ACAD_XREC_ROUNDTRIP
360
50E
  0
DICTIONARY
  5
50B
330
44
100
AcDbDictionary
280
     1
281
     1
  3
ACAD_XREC_ROUNDTRIP
360
50C
  0
DICTIONARY
  5
50F
330
46
100
AcDbDictionary
280
     1
281
     1
  3
ACAD_XREC_ROUNDTRIP
360
510
  0
DICTIONARY
  5
511
330
6A
100
AcDbDictionary
280
     1
281
     1
  3
ACAD_ROUNDTRIP_2008_TABLESTYLE_CELLSTYLEMAP
360
1285
  0
XRECORD
  5
50E
102
{ACAD_REACTORS
330
50D
102
}
330
50D
100
AcDbXrecord
280
     1
102
MATERIAL
148
0.0
149
0.0
149
0.0
 93
        0
 94
      127
282
     0
 72
     1
 77
     1
171
     1
175
     1
179
     1
273
     0
  0
XRECORD
  5
50C
102
{ACAD_REACTORS
330
50B
102
}
330
50B
100
AcDbXrecord
280
     1
102
MATERIAL
148
0.0
149
0.0
149
0.0
 93
        0
 94
      127
282
     0
 72
     1
 77
     1
171
     1
175
     1
179
     1
273
     0
  0
XRECORD
  5
510
102
{ACAD_REACTORS
330
50F
102
}
330
50F
100
AcDbXrecord
280
     1
102
MATERIAL
148
0.0
149
0.0
149
0.0
 93
        0
 94
      127
282
     0
 72
     1
 77
     1
171
     1
175
     1
179
     1
273
     0
  0
CELLSTYLEMAP
  5
1285
102
{ACAD_REACTORS
330
511
102
}
330
511
100
AcDbCellStyleMap
 90
        3
300
CELLSTYLE
  1
TABLEFORMAT_BEGIN
 90
        5
170
     1
 91
        0
 92
    32768
 62
   257
 93
        1
300
CONTENTFORMAT
  1
CONTENTFORMAT_BEGIN
 90
        0
 91
        0
 92
        4
 93
        0
300

 40
0.0
140
1.0
 94
        5
 62
     0
340
11
144
0.25
309
CONTENTFORMAT_END
171
     1
301
MARGIN
  1
CELLMARGIN_BEGIN
 40
0.06
 40
0.06
 40
0.06
 40
0.06
 40
0.18
 40
0.18
309
CELLMARGIN_END
 94
        6
 95
        1
302
GRIDFORMAT
  1
GRIDFORMAT_BEGIN
 90
        0
 91
        1
 62
     0
 92
       -2
340
14
 93
        0
 40
0.045
309
GRIDFORMAT_END
 95
        2
302
GRIDFORMAT
  1
GRIDFORMAT_BEGIN
 90
        0
 91
        1
 62
     0
 92
       -2
340
14
 93
        0
 40
0.045
309
GRIDFORMAT_END
 95
        4
302
GRIDFORMAT
  1
GRIDFORMAT_BEGIN
 90
        0
 91
        1
 62
     0
 92
       -2
340
14
 93
        0
 40
0.045
309
GRIDFORMAT_END
 95
        8
302
GRIDFORMAT
  1
GRIDFORMAT_BEGIN
 90
        0
 91
        1
 62
     0
 92
       -2
340
14
 93
        0
 40
0.045
309
GRIDFORMAT_END
 95
       16
302
GRIDFORMAT
  1
GRIDFORMAT_BEGIN
 90
        0
 91
        1
 62
     0
 92
       -2
340
14
 93
        0
 40
0.045
309
GRIDFORMAT_END
 95
       32
302
GRIDFORMAT
  1
GRIDFORMAT_BEGIN
 90
        0
 91
        1
 62
     0
 92
       -2
340
14
 93
        0
 40
0.045
309
GRIDFORMAT_END
309
TABLEFORMAT_END
  1
CELLSTYLE_BEGIN
 90
        1
 91
        1
300
_TITLE
309
CELLSTYLE_END
300
CELLSTYLE
  1
TABLEFORMAT_BEGIN
 90
        5
170
     1
 91
        0
 92
        0
 62
   257
 93
        1
300
CONTENTFORMAT
  1
CONTENTFORMAT_BEGIN
 90
        0
 91
        0
 92
        4
 93
        0
300

 40
0.0
140
1.0
 94
        5
 62
     0
340
11
144
0.18
309
CONTENTFORMAT_END
171
     1
301
MARGIN
  1
CELLMARGIN_BEGIN
 40
0.06
 40
0.06
 40
0.06
 40
0.06
 40
0.18
 40
0.18
309
CELLMARGIN_END
 94
        6
 95
        1
302
GRIDFORMAT
  1
GRIDFORMAT_BEGIN
 90
        0
 91
        1
 62
     0
 92
       -2
340
14
 93
        0
 40
0.045
309
GRIDFORMAT_END
 95
        2
302
GRIDFORMAT
  1
GRIDFORMAT_BEGIN
 90
        0
 91
        1
 62
     0
 92
       -2
340
14
 93
        0
 40
0.045
309
GRIDFORMAT_END
 95
        4
302
GRIDFORMAT
  1
GRIDFORMAT_BEGIN
 90
        0
 91
        1
 62
     0
 92
       -2
340
14
 93
        0
 40
0.045
309
GRIDFORMAT_END
 95
        8
302
GRIDFORMAT
  1
GRIDFORMAT_BEGIN
 90
        0
 91
        1
 62
     0
 92
       -2
340
14
 93
        0
 40
0.045
309
GRIDFORMAT_END
 95
       16
302
GRIDFORMAT
  1
GRIDFORMAT_BEGIN
 90
        0
 91
        1
 62
     0
 92
       -2
340
14
 93
        0
 40
0.045
309
GRIDFORMAT_END
 95
       32
302
GRIDFORMAT
  1
GRIDFORMAT_BEGIN
 90
        0
 91
        1
 62
     0
 92
       -2
340
14
 93
        0
 40
0.045
309
GRIDFORMAT_END
309
TABLEFORMAT_END
  1
CELLSTYLE_BEGIN
 90
        2
 91
        1
300
_HEADER
309
CELLSTYLE_END
300
CELLSTYLE
  1
TABLEFORMAT_BEGIN
 90
        5
170
     1
 91
        0
 92
        0
 62
   257
 93
        1
300
CONTENTFORMAT
  1
CONTENTFORMAT_BEGIN
 90
        0
 91
        0
 92
        4
 93
        0
300

 40
0.0
140
1.0
 94
        2
 62
     0
340
11
144
0.18
309
CONTENTFORMAT_END
171
     1
301
MARGIN
  1
CELLMARGIN_BEGIN
 40
0.06
 40
0.06
 40
0.06
 40
0.06
 40
0.18
 40
0.18
309
CELLMARGIN_END
 94
        6
 95
        1
302
GRIDFORMAT
  1
GRIDFORMAT_BEGIN
 90
        0
 91
        1
 62
     0
 92
       -2
340
14
 93
        0
 40
0.045
309
GRIDFORMAT_END
 95
        2
302
GRIDFORMAT
  1
GRIDFORMAT_BEGIN
 90
        0
 91
        1
 62
     0
 92
       -2
340
14
 93
        0
 40
0.045
309
GRIDFORMAT_END
 95
        4
302
GRIDFORMAT
  1
GRIDFORMAT_BEGIN
 90
        0
 91
        1
 62
     0
 92
       -2
340
14
 93
        0
 40
0.045
309
GRIDFORMAT_END
 95
        8
302
GRIDFORMAT
  1
GRIDFORMAT_BEGIN
 90
        0
 91
        1
 62
     0
 92
       -2
340
14
 93
        0
 40
0.045
309
GRIDFORMAT_END
 95
       16
302
GRIDFORMAT
  1
GRIDFORMAT_BEGIN
 90
        0
 91
        1
 62
     0
 92
       -2
340
14
 93
        0
 40
0.045
309
GRIDFORMAT_END
 95
       32
302
GRIDFORMAT
  1
GRIDFORMAT_BEGIN
 90
        0
 91
        1
 62
     0
 92
       -2
340
14
 93
        0
 40
0.045
309
GRIDFORMAT_END
309
TABLEFORMAT_END
  1
CELLSTYLE_BEGIN
 90
        3
 91
        2
300
_DATA
309
CELLSTYLE_END
  0
ENDSEC
  0
SECTION
  2
ACDSDATA
 70
     2
 71
     8
  0
ACDSSCHEMA
 90
        0
  1
AcDb_Thumbnail_Schema
  2
AcDbDs::ID
280
    10
 91
        8
  2
Thumbnail_Data
280
    15
 91
        0
101
ACDSRECORD
 95
        0
 90
        1
  2
AcDbDs::TreatedAsObjectData
280
     1
291
     1
101
ACDSRECORD
 95
        0
 90
        2
  2
AcDbDs::Legacy
280
     1
291
     1
101
ACDSRECORD
  1
AcDbDs::ID
 90
        3
  2
AcDs:Indexable
280
     1
291
     1
101
ACDSRECORD
  1
AcDbDs::ID
 90
        4
  2
AcDbDs::HandleAttribute
280
     7
282
     1
  0
ACDSSCHEMA
 90
        1
  1
AcDbDs::TreatedAsObjectDataSchema
  2
AcDbDs::TreatedAsObjectData
280
     1
 91
        0
  0
ACDSSCHEMA
 90
        2
  1
AcDbDs::LegacySchema
  2
AcDbDs::Legacy
280
     1
 91
        0
  0
ACDSSCHEMA
 90
        3
  1
AcDbDs::IndexedPropertySchema
  2
AcDs:Indexable
280
     1
 91
        0
  0
ACDSSCHEMA
 90
        4
  1
AcDbDs::HandleAttributeSchema
  2
AcDbDs::HandleAttribute
280
     7
 91
        1
284
     1
  0
ACDSRECORD
 90
        0
  2
AcDbDs::ID
280
    10
320
22
  2
Thumbnail_Data
280
    15
 94
     1271
310
89504E470D0A1A0A0000000D49484452000001000000007808030000002AAADC4C00000300504C5445212830FFFFFF2128300000000000000000000000000000000000000000000000000000330000660000990000CC0000FF0033000033330033660033990033CC0033FF0066000066330066660066990066CC0066FF0099
310
000099330099660099990099CC0099FF00CC0000CC3300CC6600CC9900CCCC00CCFF00FF0000FF3300FF6600FF9900FFCC00FFFF3300003300333300663300993300CC3300FF3333003333333333663333993333CC3333FF3366003366333366663366993366CC3366FF3399003399333399663399993399CC3399FF33CC00
310
33CC3333CC6633CC9933CCCC33CCFF33FF0033FF3333FF6633FF9933FFCC33FFFF6600006600336600666600996600CC6600FF6633006633336633666633996633CC6633FF6666006666336666666666996666CC6666FF6699006699336699666699996699CC6699FF66CC0066CC3366CC6666CC9966CCCC66CCFF66FF0066
310
FF3366FF6666FF9966FFCC66FFFF9900009900339900669900999900CC9900FF9933009933339933669933999933CC9933FF9966009966339966669966999966CC9966FF9999009999339999669999999999CC9999FF99CC0099CC3399CC6699CC9999CCCC99CCFF99FF0099FF3399FF6699FF9999FFCC99FFFFCC0000CC00
310
33CC0066CC0099CC00CCCC00FFCC3300CC3333CC3366CC3399CC33CCCC33FFCC6600CC6633CC6666CC6699CC66CCCC66FFCC9900CC9933CC9966CC9999CC99CCCC99FFCCCC00CCCC33CCCC66CCCC99CCCCCCCCCCFFCCFF00CCFF33CCFF66CCFF99CCFFCCCCFFFFFF0000FF0033FF0066FF0099FF00CCFF00FFFF3300FF3333
310
FF3366FF3399FF33CCFF33FFFF6600FF6633FF6666FF6699FF66CCFF66FFFF9900FF9933FF9966FF9999FF99CCFF99FFFFCC00FFCC33FFCC66FFCC99FFCCCCFFCCFFFFFF00FFFF33FFFF66FFFF99FFFFCCFFFFFF0000000D0D0D1A1A1A2828283535354343435050505D5D5D6B6B6B787878868686939393A1A1A1AEAEAEBB
310
BBBBC9C9C9D6D6D6E4E4E4F1F1F1FFFFFF0000000000000000000000000000000000000000000000000000000000002E4550F1000001B24944415478DAED9AC16EC3201044E7FFFF77EE952AA566013B762AEF12F93DF54040053C26ECB044020000000000000000000000000000000000907CAAEA54DBBF7B72C5F34F9856
310
7E84AEB6552AA07166BAD6A6FD67D3510F5B45C957C0AFE5F757D0587547DBEF9FB759200002200002AC11057469A7FFB84D6EA3709D00851EAC09FC8561F0AD2FBA93055E46BB3AD3A760558E3EEE4F3502948D8E000880000880007D18CCCA498421ABC360FCE89C51BD8A2BB5A22FCB5902F6E83AEB0408DF86AC15100F
310
8361334200044080DC43F92A02F8E12BA02821A23E3D71BB23712B4079466C1CF7EE3BAA600143659D02B98EC4DDBA2BBD197CED3D313D9D21407485CA3C870CA6345D004F05288B020880000880005D0CCC0883EDB5A40AE3A0277774BAFF3EACB59E5B659100E7FDF235BFD778BCBD95178BD5293169BF3C9FE0D4C77978
310
A8C3BED74989B5A7A079D947CBC7E1CD776FF5A0EF49F17B050867CA270AA0C70B2004B0BE4F001F0AE01827DE08B0FD97DDED8DF3BE47C96A8CD04118D4BE033891CE981BA1D1135585C1333F0D4FFBE9549102EBB0D25C000000000000000000000000000000000056E707E73B6E730BFA691D0000000049454E44AE4260
310
82
  0
ENDSEC
  0
EOF
